  0
SECTION
  2
HEADER
  9
$ACADVER
  1
AC1015
  9
$ACADMAINTVER
 70
     6
  9
$DWGCODEPAGE
  3
ANSI_1252
  9
$INSBASE
 10
0.0
 20
0.0
 30
0.0
  9
$EXTMIN
 10
-299.0381
 20
-141.0381
 30
0.0
  9
$EXTMAX
 10
222.0381
 20
149.0714
 30
0.0
  9
$LIMMIN
 10
0.0
 20
0.0
  9
$LIMMAX
 10
12.0
 20
9.0
  9
$ORTHOMODE
 70
     0
  9
$REGENMODE
 70
     1
  9
$FILLMODE
 70
     1
  9
$QTEXTMODE
 70
     0
  9
$MIRRTEXT
 70
     1
  9
$LTSCALE
 40
1.0
  9
$ATTMODE
 70
     1
  9
$TEXTSIZE
 40
0.2
  9
$TRACEWID
 40
0.05
  9
$TEXTSTYLE
  7
Standard
  9
$CLAYER
  8
0
  9
$CELTYPE
  6
ByLayer
  9
$CECOLOR
 62
   256
  9
$CELTSCALE
 40
1.0
  9
$DISPSILH
 70
     0
  9
$DIMSCALE
 40
1.0
  9
$DIMASZ
 40
0.18
  9
$DIMEXO
 40
0.0625
  9
$DIMDLI
 40
0.38
  9
$DIMRND
 40
0.0
  9
$DIMDLE
 40
0.0
  9
$DIMEXE
 40
0.18
  9
$DIMTP
 40
0.0
  9
$DIMTM
 40
0.0
  9
$DIMTXT
 40
0.18
  9
$DIMCEN
 40
0.09
  9
$DIMTSZ
 40
0.0
  9
$DIMTOL
 70
     0
  9
$DIMLIM
 70
     0
  9
$DIMTIH
 70
     1
  9
$DIMTOH
 70
     1
  9
$DIMSE1
 70
     0
  9
$DIMSE2
 70
     0
  9
$DIMTAD
 70
     0
  9
$DIMZIN
 70
     0
  9
$DIMBLK
  1

  9
$DIMASO
 70
     1
  9
$DIMSHO
 70
     1
  9
$DIMPOST
  1

  9
$DIMAPOST
  1

  9
$DIMALT
 70
     0
  9
$DIMALTD
 70
     2
  9
$DIMALTF
 40
25.4
  9
$DIMLFAC
 40
1.0
  9
$DIMTOFL
 70
     0
  9
$DIMTVP
 40
0.0
  9
$DIMTIX
 70
     0
  9
$DIMSOXD
 70
     0
  9
$DIMSAH
 70
     0
  9
$DIMBLK1
  1

  9
$DIMBLK2
  1

  9
$DIMSTYLE
  2
Standard
  9
$DIMCLRD
 70
     0
  9
$DIMCLRE
 70
     0
  9
$DIMCLRT
 70
     0
  9
$DIMTFAC
 40
1.0
  9
$DIMGAP
 40
0.09
  9
$DIMJUST
 70
     0
  9
$DIMSD1
 70
     0
  9
$DIMSD2
 70
     0
  9
$DIMTOLJ
 70
     1
  9
$DIMTZIN
 70
     0
  9
$DIMALTZ
 70
     0
  9
$DIMALTTZ
 70
     0
  9
$DIMUPT
 70
     0
  9
$DIMDEC
 70
     4
  9
$DIMTDEC
 70
     4
  9
$DIMALTU
 70
     2
  9
$DIMALTTD
 70
     2
  9
$DIMTXSTY
  7
Standard
  9
$DIMAUNIT
 70
     0
  9
$DIMADEC
 70
     0
  9
$DIMALTRND
 40
0.0
  9
$DIMAZIN
 70
     0
  9
$DIMDSEP
 70
    46
  9
$DIMATFIT
 70
     3
  9
$DIMFRAC
 70
     0
  9
$DIMLDRBLK
  1

  9
$DIMLUNIT
 70
     2
  9
$DIMLWD
 70
    -2
  9
$DIMLWE
 70
    -2
  9
$DIMTMOVE
 70
     0
  9
$LUNITS
 70
     2
  9
$LUPREC
 70
     4
  9
$SKETCHINC
 40
0.1
  9
$FILLETRAD
 40
0.5
  9
$AUNITS
 70
     0
  9
$AUPREC
 70
     0
  9
$MENU
  1
.
  9
$ELEVATION
 40
0.0
  9
$PELEVATION
 40
0.0
  9
$THICKNESS
 40
0.0
  9
$LIMCHECK
 70
     0
  9
$CHAMFERA
 40
0.5
  9
$CHAMFERB
 40
0.5
  9
$CHAMFERC
 40
1.0
  9
$CHAMFERD
 40
0.0
  9
$SKPOLY
 70
     0
  9
$TDCREATE
 40
2456237.62294632
  9
$TDUCREATE
 40
2456237.581279653
  9
$TDUPDATE
 40
2456237.622946331
  9
$TDUUPDATE
 40
2456237.581279664
  9
$TDINDWG
 40
0.0000000116
  9
$TDUSRTIMER
 40
0.0000000116
  9
$USRTIMER
 70
     1
  9
$ANGBASE
 50
0.0
  9
$ANGDIR
 70
     0
  9
$PDMODE
 70
     0
  9
$PDSIZE
 40
0.0
  9
$PLINEWID
 40
0.0
  9
$SPLFRAME
 70
     0
  9
$SPLINETYPE
 70
     6
  9
$SPLINESEGS
 70
     8
  9
$HANDSEED
  5
7D
  9
$SURFTAB1
 70
     6
  9
$SURFTAB2
 70
     6
  9
$SURFTYPE
 70
     6
  9
$SURFU
 70
     6
  9
$SURFV
 70
     6
  9
$UCSBASE
  2

  9
$UCSNAME
  2

  9
$UCSORG
 10
0.0
 20
0.0
 30
0.0
  9
$UCSXDIR
 10
1.0
 20
0.0
 30
0.0
  9
$UCSYDIR
 10
0.0
 20
1.0
 30
0.0
  9
$UCSORTHOREF
  2

  9
$UCSORTHOVIEW
 70
     0
  9
$UCSORGTOP
 10
0.0
 20
0.0
 30
0.0
  9
$UCSORGBOTTOM
 10
0.0
 20
0.0
 30
0.0
  9
$UCSORGLEFT
 10
0.0
 20
0.0
 30
0.0
  9
$UCSORGRIGHT
 10
0.0
 20
0.0
 30
0.0
  9
$UCSORGFRONT
 10
0.0
 20
0.0
 30
0.0
  9
$UCSORGBACK
 10
0.0
 20
0.0
 30
0.0
  9
$PUCSBASE
  2

  9
$PUCSNAME
  2

  9
$PUCSORG
 10
0.0
 20
0.0
 30
0.0
  9
$PUCSXDIR
 10
1.0
 20
0.0
 30
0.0
  9
$PUCSYDIR
 10
0.0
 20
1.0
 30
0.0
  9
$PUCSORTHOREF
  2

  9
$PUCSORTHOVIEW
 70
     0
  9
$PUCSORGTOP
 10
0.0
 20
0.0
 30
0.0
  9
$PUCSORGBOTTOM
 10
0.0
 20
0.0
 30
0.0
  9
$PUCSORGLEFT
 10
0.0
 20
0.0
 30
0.0
  9
$PUCSORGRIGHT
 10
0.0
 20
0.0
 30
0.0
  9
$PUCSORGFRONT
 10
0.0
 20
0.0
 30
0.0
  9
$PUCSORGBACK
 10
0.0
 20
0.0
 30
0.0
  9
$USERI1
 70
     0
  9
$USERI2
 70
     0
  9
$USERI3
 70
     0
  9
$USERI4
 70
     0
  9
$USERI5
 70
     0
  9
$USERR1
 40
0.0
  9
$USERR2
 40
0.0
  9
$USERR3
 40
0.0
  9
$USERR4
 40
0.0
  9
$USERR5
 40
0.0
  9
$WORLDVIEW
 70
     1
  9
$SHADEDGE
 70
     3
  9
$SHADEDIF
 70
    70
  9
$TILEMODE
 70
     1
  9
$MAXACTVP
 70
    64
  9
$PINSBASE
 10
0.0
 20
0.0
 30
0.0
  9
$PLIMCHECK
 70
     0
  9
$PEXTMIN
 10
1.000000000000000E+20
 20
1.000000000000000E+20
 30
1.000000000000000E+20
  9
$PEXTMAX
 10
-1.000000000000000E+20
 20
-1.000000000000000E+20
 30
-1.000000000000000E+20
  9
$PLIMMIN
 10
0.0
 20
0.0
  9
$PLIMMAX
 10
12.0
 20
9.0
  9
$UNITMODE
 70
     0
  9
$VISRETAIN
 70
     1
  9
$PLINEGEN
 70
     0
  9
$PSLTSCALE
 70
     1
  9
$TREEDEPTH
 70
  3020
  9
$CMLSTYLE
  2
Standard
  9
$CMLJUST
 70
     0
  9
$CMLSCALE
 40
1.0
  9
$PROXYGRAPHICS
 70
     1
  9
$MEASUREMENT
 70
     0
  9
$CELWEIGHT
370
    -1
  9
$ENDCAPS
280
     0
  9
$JOINSTYLE
280
     0
  9
$LWDISPLAY
290
     0
  9
$INSUNITS
 70
     4
  9
$HYPERLINKBASE
  1

  9
$STYLESHEET
  1

  9
$XEDIT
290
     1
  9
$CEPSNTYPE
380
     0
  9
$PSTYLEMODE
290
     1
  9
$FINGERPRINTGUID
  2
{47E8633C-789E-40BC-A175-482FF9373168}
  9
$VERSIONGUID
  2
{FAEB1C32-E019-11D5-929B-00C0DF256EC4}
  9
$EXTNAMES
290
     1
  9
$PSVPSCALE
 40
0.0
  9
$OLESTARTUP
290
     0
  0
ENDSEC
  0
SECTION
  2
CLASSES
  0
CLASS
  1
ACDBDICTIONARYWDFLT
  2
AcDbDictionaryWithDefault
  3
ObjectDBX Classes
 90
        0
280
     0
281
     0
  0
CLASS
  1
VISUALSTYLE
  2
AcDbVisualStyle
  3
ObjectDBX Classes
 90
     4095
280
     0
281
     0
  0
CLASS
  1
SCALE
  2
AcDbScale
  3
ObjectDBX Classes
 90
     1153
280
     0
281
     0
  0
CLASS
  1
DICTIONARYVAR
  2
AcDbDictionaryVar
  3
ObjectDBX Classes
 90
        0
280
     0
281
     0
  0
CLASS
  1
ACDBPLACEHOLDER
  2
AcDbPlaceHolder
  3
ObjectDBX Classes
 90
        0
280
     0
281
     0
  0
CLASS
  1
LAYOUT
  2
AcDbLayout
  3
ObjectDBX Classes
 90
        0
280
     0
281
     0
  0
ENDSEC
  0
SECTION
  2
TABLES
  0
TABLE
  2
VPORT
  5
8
330
0
100
AcDbSymbolTable
 70
     1
  0
VPORT
  5
29
330
8
100
AcDbSymbolTableRecord
100
AcDbViewportTableRecord
  2
*Active
 70
     0
 10
0.0
 20
0.0
 11
1.0
 21
1.0
 12
10.42990654205607
 22
4.5
 13
0.0
 23
0.0
 14
0.5
 24
0.5
 15
0.5
 25
0.5
 16
0.0
 26
0.0
 36
1.0
 17
0.0
 27
0.0
 37
0.0
 40
9.0
 41
1.972972972850329
 42
50.0
 43
0.0
 44
0.0
 50
0.0
 51
0.0
 71
     0
 72
   100
 73
     1
 74
     3
 75
     0
 76
     0
 77
     0
 78
     0
281
     0
 65
     1
110
0.0
120
0.0
130
0.0
111
1.0
121
0.0
131
0.0
112
0.0
122
1.0
132
0.0
 79
     0
146
0.0
  0
ENDTAB
  0
TABLE
  2
LTYPE
  5
5
330
0
100
AcDbSymbolTable
 70
     1
  0
LTYPE
  5
14
330
5
100
AcDbSymbolTableRecord
100
AcDbLinetypeTableRecord
  2
ByBlock
 70
     0
  3

 72
    65
 73
     0
 40
0.0
  0
LTYPE
  5
15
330
5
100
AcDbSymbolTableRecord
100
AcDbLinetypeTableRecord
  2
ByLayer
 70
     0
  3

 72
    65
 73
     0
 40
0.0
  0
LTYPE
  5
16
330
5
100
AcDbSymbolTableRecord
100
AcDbLinetypeTableRecord
  2
Continuous
 70
     0
  3
Solid line
 72
    65
 73
     0
 40
0.0
  0
ENDTAB
  0
TABLE
  2
LAYER
  5
2
330
0
100
AcDbSymbolTable
 70
     2
  0
LAYER
  5
10
330
2
100
AcDbSymbolTableRecord
100
AcDbLayerTableRecord
  2
0
 70
     0
 62
     7
  6
Continuous
370
    -3
390
F
  0
LAYER
  5
5E
330
2
100
AcDbSymbolTableRecord
100
AcDbLayerTableRecord
  2
Layer 1
 70
     0
 62
     7
  6
Continuous
370
    -3
390
F
  0
ENDTAB
  0
TABLE
  2
STYLE
  5
3
330
0
100
AcDbSymbolTable
 70
     1
  0
STYLE
  5
11
330
3
100
AcDbSymbolTableRecord
100
AcDbTextStyleTableRecord
  2
Standard
 70
     0
 40
0.0
 41
1.0
 50
0.0
 71
     0
 42
0.2
  3
txt
  4

  0
ENDTAB
  0
TABLE
  2
VIEW
  5
6
330
0
100
AcDbSymbolTable
 70
     0
  0
ENDTAB
  0
TABLE
  2
UCS
  5
7
330
0
100
AcDbSymbolTable
 70
     0
  0
ENDTAB
  0
TABLE
  2
APPID
  5
9
330
0
100
AcDbSymbolTable
 70
     2
  0
APPID
  5
12
330
9
100
AcDbSymbolTableRecord
100
AcDbRegAppTableRecord
  2
ACAD
 70
     0
  0
APPID
  5
5D
330
9
100
AcDbSymbolTableRecord
100
AcDbRegAppTableRecord
  2
ODA
 70
     0
  0
ENDTAB
  0
TABLE
  2
DIMSTYLE
  5
A
330
0
100
AcDbSymbolTable
 70
     1
100
AcDbDimStyleTable
  0
DIMSTYLE
105
27
330
A
100
AcDbSymbolTableRecord
100
AcDbDimStyleTableRecord
  2
Standard
 70
     0
340
11
  0
ENDTAB
  0
TABLE
  2
BLOCK_RECORD
  5
1
330
0
100
AcDbSymbolTable
 70
     1
  0
BLOCK_RECORD
  5
1F
330
1
100
AcDbSymbolTableRecord
100
AcDbBlockTableRecord
  2
*Model_Space
340
22
  0
BLOCK_RECORD
  5
1B
330
1
100
AcDbSymbolTableRecord
100
AcDbBlockTableRecord
  2
*Paper_Space
340
1E
  0
BLOCK_RECORD
  5
23
330
1
100
AcDbSymbolTableRecord
100
AcDbBlockTableRecord
  2
*Paper_Space0
340
26
  0
ENDTAB
  0
ENDSEC
  0
SECTION
  2
BLOCKS
  0
BLOCK
  5
20
330
1F
100
AcDbEntity
  8
0
100
AcDbBlockBegin
  2
*Model_Space
 70
     0
 10
0.0
 20
0.0
 30
0.0
  3
*Model_Space
  1

  0
ENDBLK
  5
21
330
1F
100
AcDbEntity
  8
0
100
AcDbBlockEnd
  0
BLOCK
  5
1C
330
1B
100
AcDbEntity
 67
     1
  8
0
100
AcDbBlockBegin
  2
*Paper_Space
 70
     0
 10
0.0
 20
0.0
 30
0.0
  3
*Paper_Space
  1

  0
ENDBLK
  5
1D
330
1B
100
AcDbEntity
 67
     1
  8
0
100
AcDbBlockEnd
  0
BLOCK
  5
24
330
23
100
AcDbEntity
  8
0
100
AcDbBlockBegin
  2
*Paper_Space0
 70
     0
 10
0.0
 20
0.0
 30
0.0
  3
*Paper_Space0
  1

  0
ENDBLK
  5
25
330
23
100
AcDbEntity
  8
0
100
AcDbBlockEnd
  0
ENDSEC
  0
SECTION
  2
ENTITIES
  0
SPLINE
  5
5F
330
1F
100
AcDbEntity
  8
Layer 1
 62
   250
370
     9
100
AcDbSpline
210
0.0
220
0.0
230
1.0
 70
    11
 71
     3
 72
    20
 73
    16
 74
     0
 42
0.0000000001
 43
0.0000000001
 40
0.0
 40
0.0
 40
0.0
 40
0.0
 40
0.25
 40
0.25
 40
0.25
 40
0.25
 40
0.5
 40
0.5
 40
0.5
 40
0.5
 40
0.75
 40
0.75
 40
0.75
 40
0.75
 40
1.0
 40
1.0
 40
1.0
 40
1.0
 10
-3.0
 20
-105.9667
 30
0.0
 10
-3.0
 20
-106.795
 30
0.0
 10
-3.6717
 20
-107.4667
 30
0.0
 10
-4.5
 20
-107.4667
 30
0.0
 10
-4.5
 20
-107.4667
 30
0.0
 10
-5.3283
 20
-107.4667
 30
0.0
 10
-6.0
 20
-106.795
 30
0.0
 10
-6.0
 20
-105.9667
 30
0.0
 10
-6.0
 20
-105.9667
 30
0.0
 10
-6.0
 20
-105.1384
 30
0.0
 10
-5.3283
 20
-104.4667
 30
0.0
 10
-4.5
 20
-104.4667
 30
0.0
 10
-4.5
 20
-104.4667
 30
0.0
 10
-3.6717
 20
-104.4667
 30
0.0
 10
-3.0
 20
-105.1384
 30
0.0
 10
-3.0
 20
-105.9667
 30
0.0
  0
SPLINE
  5
60
330
1F
100
AcDbEntity
  8
Layer 1
 62
   250
370
     9
100
AcDbSpline
210
0.0
220
0.0
230
1.0
 70
    11
 71
     3
 72
    68
 73
    64
 74
     0
 42
0.0000000001
 43
0.0000000001
 40
0.0
 40
0.0
 40
0.0
 40
0.0
 40
0.0625
 40
0.0625
 40
0.0625
 40
0.0625
 40
0.125
 40
0.125
 40
0.125
 40
0.125
 40
0.1875
 40
0.1875
 40
0.1875
 40
0.1875
 40
0.25
 40
0.25
 40
0.25
 40
0.25
 40
0.3125
 40
0.3125
 40
0.3125
 40
0.3125
 40
0.375
 40
0.375
 40
0.375
 40
0.375
 40
0.4375
 40
0.4375
 40
0.4375
 40
0.4375
 40
0.5
 40
0.5
 40
0.5
 40
0.5
 40
0.5625
 40
0.5625
 40
0.5625
 40
0.5625
 40
0.625
 40
0.625
 40
0.625
 40
0.625
 40
0.6875
 40
0.6875
 40
0.6875
 40
0.6875
 40
0.75
 40
0.75
 40
0.75
 40
0.75
 40
0.8125
 40
0.8125
 40
0.8125
 40
0.8125
 40
0.875
 40
0.875
 40
0.875
 40
0.875
 40
0.9375
 40
0.9375
 40
0.9375
 40
0.9375
 40
1.0
 40
1.0
 40
1.0
 40
1.0
 10
-7.5
 20
-90.9667
 30
0.0
 10
-7.5
 20
-90.6906
 30
0.0
 10
-7.2761
 20
-90.4667
 30
0.0
 10
-7.0
 20
-90.4667
 30
0.0
 10
-7.0
 20
-90.4667
 30
0.0
 10
-6.7239
 20
-90.4667
 30
0.0
 10
-6.5
 20
-90.6906
 30
0.0
 10
-6.5
 20
-90.9667
 30
0.0
 10
-6.5
 20
-90.9667
 30
0.0
 10
-6.5
 20
-90.9667
 30
0.0
 10
-2.5
 20
-90.9667
 30
0.0
 10
-2.5
 20
-90.9667
 30
0.0
 10
-2.5
 20
-90.9667
 30
0.0
 10
-2.5
 20
-90.6906
 30
0.0
 10
-2.2761
 20
-90.4667
 30
0.0
 10
-2.0
 20
-90.4667
 30
0.0
 10
-2.0
 20
-90.4667
 30
0.0
 10
-1.7239
 20
-90.4667
 30
0.0
 10
-1.5
 20
-90.6906
 30
0.0
 10
-1.5
 20
-90.9667
 30
0.0
 10
-1.5
 20
-90.9667
 30
0.0
 10
-1.5
 20
-91.2428
 30
0.0
 10
-1.7239
 20
-91.4667
 30
0.0
 10
-2.0
 20
-91.4667
 30
0.0
 10
-2.0
 20
-91.4667
 30
0.0
 10
-2.0
 20
-91.4667
 30
0.0
 10
-2.0
 20
-100.4667
 30
0.0
 10
-2.0
 20
-100.4667
 30
0.0
 10
-2.0
 20
-100.4667
 30
0.0
 10
-1.7239
 20
-100.4667
 30
0.0
 10
-1.5
 20
-100.6906
 30
0.0
 10
-1.5
 20
-100.9667
 30
0.0
 10
-1.5
 20
-100.9667
 30
0.0
 10
-1.5
 20
-101.2428
 30
0.0
 10
-1.7239
 20
-101.4667
 30
0.0
 10
-2.0
 20
-101.4667
 30
0.0
 10
-2.0
 20
-101.4667
 30
0.0
 10
-2.2761
 20
-101.4667
 30
0.0
 10
-2.5
 20
-101.2428
 30
0.0
 10
-2.5
 20
-100.9667
 30
0.0
 10
-2.5
 20
-100.9667
 30
0.0
 10
-2.5
 20
-100.9667
 30
0.0
 10
-6.5
 20
-100.9667
 30
0.0
 10
-6.5
 20
-100.9667
 30
0.0
 10
-6.5
 20
-100.9667
 30
0.0
 10
-6.5
 20
-101.2428
 30
0.0
 10
-6.7239
 20
-101.4667
 30
0.0
 10
-7.0
 20
-101.4667
 30
0.0
 10
-7.0
 20
-101.4667
 30
0.0
 10
-7.2761
 20
-101.4667
 30
0.0
 10
-7.5
 20
-101.2428
 30
0.0
 10
-7.5
 20
-100.9667
 30
0.0
 10
-7.5
 20
-100.9667
 30
0.0
 10
-7.5
 20
-100.6906
 30
0.0
 10
-7.2761
 20
-100.4667
 30
0.0
 10
-7.0
 20
-100.4667
 30
0.0
 10
-7.0
 20
-100.4667
 30
0.0
 10
-7.0
 20
-100.4667
 30
0.0
 10
-7.0
 20
-91.4667
 30
0.0
 10
-7.0
 20
-91.4667
 30
0.0
 10
-7.0
 20
-91.4667
 30
0.0
 10
-7.2761
 20
-91.4667
 30
0.0
 10
-7.5
 20
-91.2428
 30
0.0
 10
-7.5
 20
-90.9667
 30
0.0
  0
SPLINE
  5
61
330
1F
100
AcDbEntity
  8
Layer 1
 62
   250
370
     9
100
AcDbSpline
210
0.0
220
0.0
230
1.0
 70
    11
 71
     3
 72
    68
 73
    64
 74
     0
 42
0.0000000001
 43
0.0000000001
 40
0.0
 40
0.0
 40
0.0
 40
0.0
 40
0.0625
 40
0.0625
 40
0.0625
 40
0.0625
 40
0.125
 40
0.125
 40
0.125
 40
0.125
 40
0.1875
 40
0.1875
 40
0.1875
 40
0.1875
 40
0.25
 40
0.25
 40
0.25
 40
0.25
 40
0.3125
 40
0.3125
 40
0.3125
 40
0.3125
 40
0.375
 40
0.375
 40
0.375
 40
0.375
 40
0.4375
 40
0.4375
 40
0.4375
 40
0.4375
 40
0.5
 40
0.5
 40
0.5
 40
0.5
 40
0.5625
 40
0.5625
 40
0.5625
 40
0.5625
 40
0.625
 40
0.625
 40
0.625
 40
0.625
 40
0.6875
 40
0.6875
 40
0.6875
 40
0.6875
 40
0.75
 40
0.75
 40
0.75
 40
0.75
 40
0.8125
 40
0.8125
 40
0.8125
 40
0.8125
 40
0.875
 40
0.875
 40
0.875
 40
0.875
 40
0.9375
 40
0.9375
 40
0.9375
 40
0.9375
 40
1.0
 40
1.0
 40
1.0
 40
1.0
 10
-7.5
 20
-110.9667
 30
0.0
 10
-7.5
 20
-110.6906
 30
0.0
 10
-7.2761
 20
-110.4667
 30
0.0
 10
-7.0
 20
-110.4667
 30
0.0
 10
-7.0
 20
-110.4667
 30
0.0
 10
-6.7239
 20
-110.4667
 30
0.0
 10
-6.5
 20
-110.6906
 30
0.0
 10
-6.5
 20
-110.9667
 30
0.0
 10
-6.5
 20
-110.9667
 30
0.0
 10
-6.5
 20
-110.9667
 30
0.0
 10
-2.5
 20
-110.9667
 30
0.0
 10
-2.5
 20
-110.9667
 30
0.0
 10
-2.5
 20
-110.9667
 30
0.0
 10
-2.5
 20
-110.6906
 30
0.0
 10
-2.2761
 20
-110.4667
 30
0.0
 10
-2.0
 20
-110.4667
 30
0.0
 10
-2.0
 20
-110.4667
 30
0.0
 10
-1.7239
 20
-110.4667
 30
0.0
 10
-1.5
 20
-110.6906
 30
0.0
 10
-1.5
 20
-110.9667
 30
0.0
 10
-1.5
 20
-110.9667
 30
0.0
 10
-1.5
 20
-111.2428
 30
0.0
 10
-1.7239
 20
-111.4667
 30
0.0
 10
-2.0
 20
-111.4667
 30
0.0
 10
-2.0
 20
-111.4667
 30
0.0
 10
-2.0
 20
-111.4667
 30
0.0
 10
-2.0
 20
-120.4667
 30
0.0
 10
-2.0
 20
-120.4667
 30
0.0
 10
-2.0
 20
-120.4667
 30
0.0
 10
-1.7239
 20
-120.4667
 30
0.0
 10
-1.5
 20
-120.6906
 30
0.0
 10
-1.5
 20
-120.9667
 30
0.0
 10
-1.5
 20
-120.9667
 30
0.0
 10
-1.5
 20
-121.2428
 30
0.0
 10
-1.7239
 20
-121.4667
 30
0.0
 10
-2.0
 20
-121.4667
 30
0.0
 10
-2.0
 20
-121.4667
 30
0.0
 10
-2.2761
 20
-121.4667
 30
0.0
 10
-2.5
 20
-121.2428
 30
0.0
 10
-2.5
 20
-120.9667
 30
0.0
 10
-2.5
 20
-120.9667
 30
0.0
 10
-2.5
 20
-120.9667
 30
0.0
 10
-6.5
 20
-120.9667
 30
0.0
 10
-6.5
 20
-120.9667
 30
0.0
 10
-6.5
 20
-120.9667
 30
0.0
 10
-6.5
 20
-121.2428
 30
0.0
 10
-6.7239
 20
-121.4667
 30
0.0
 10
-7.0
 20
-121.4667
 30
0.0
 10
-7.0
 20
-121.4667
 30
0.0
 10
-7.2761
 20
-121.4667
 30
0.0
 10
-7.5
 20
-121.2428
 30
0.0
 10
-7.5
 20
-120.9667
 30
0.0
 10
-7.5
 20
-120.9667
 30
0.0
 10
-7.5
 20
-120.6906
 30
0.0
 10
-7.2761
 20
-120.4667
 30
0.0
 10
-7.0
 20
-120.4667
 30
0.0
 10
-7.0
 20
-120.4667
 30
0.0
 10
-7.0
 20
-120.4667
 30
0.0
 10
-7.0
 20
-111.4667
 30
0.0
 10
-7.0
 20
-111.4667
 30
0.0
 10
-7.0
 20
-111.4667
 30
0.0
 10
-7.2761
 20
-111.4667
 30
0.0
 10
-7.5
 20
-111.2428
 30
0.0
 10
-7.5
 20
-110.9667
 30
0.0
  0
SPLINE
  5
62
330
1F
100
AcDbEntity
  8
Layer 1
 62
   250
370
     9
100
AcDbSpline
210
0.0
220
0.0
230
1.0
 70
    11
 71
     3
 72
    20
 73
    16
 74
     0
 42
0.0000000001
 43
0.0000000001
 40
0.0
 40
0.0
 40
0.0
 40
0.0
 40
0.25
 40
0.25
 40
0.25
 40
0.25
 40
0.5
 40
0.5
 40
0.5
 40
0.5
 40
0.75
 40
0.75
 40
0.75
 40
0.75
 40
1.0
 40
1.0
 40
1.0
 40
1.0
 10
-3.0
 20
7.5973
 30
0.0
 10
-3.0
 20
6.769
 30
0.0
 10
-3.6717
 20
6.0973
 30
0.0
 10
-4.5
 20
6.0973
 30
0.0
 10
-4.5
 20
6.0973
 30
0.0
 10
-5.3283
 20
6.0973
 30
0.0
 10
-6.0
 20
6.769
 30
0.0
 10
-6.0
 20
7.5973
 30
0.0
 10
-6.0
 20
7.5973
 30
0.0
 10
-6.0
 20
8.4256
 30
0.0
 10
-5.3283
 20
9.0973
 30
0.0
 10
-4.5
 20
9.0973
 30
0.0
 10
-4.5
 20
9.0973
 30
0.0
 10
-3.6717
 20
9.0973
 30
0.0
 10
-3.0
 20
8.4256
 30
0.0
 10
-3.0
 20
7.5973
 30
0.0
  0
SPLINE
  5
63
330
1F
100
AcDbEntity
  8
Layer 1
 62
   250
370
     9
100
AcDbSpline
210
0.0
220
0.0
230
1.0
 70
    11
 71
     3
 72
    68
 73
    64
 74
     0
 42
0.0000000001
 43
0.0000000001
 40
0.0
 40
0.0
 40
0.0
 40
0.0
 40
0.0625
 40
0.0625
 40
0.0625
 40
0.0625
 40
0.125
 40
0.125
 40
0.125
 40
0.125
 40
0.1875
 40
0.1875
 40
0.1875
 40
0.1875
 40
0.25
 40
0.25
 40
0.25
 40
0.25
 40
0.3125
 40
0.3125
 40
0.3125
 40
0.3125
 40
0.375
 40
0.375
 40
0.375
 40
0.375
 40
0.4375
 40
0.4375
 40
0.4375
 40
0.4375
 40
0.5
 40
0.5
 40
0.5
 40
0.5
 40
0.5625
 40
0.5625
 40
0.5625
 40
0.5625
 40
0.625
 40
0.625
 40
0.625
 40
0.625
 40
0.6875
 40
0.6875
 40
0.6875
 40
0.6875
 40
0.75
 40
0.75
 40
0.75
 40
0.75
 40
0.8125
 40
0.8125
 40
0.8125
 40
0.8125
 40
0.875
 40
0.875
 40
0.875
 40
0.875
 40
0.9375
 40
0.9375
 40
0.9375
 40
0.9375
 40
1.0
 40
1.0
 40
1.0
 40
1.0
 10
-7.5
 20
22.5973
 30
0.0
 10
-7.5
 20
22.8734
 30
0.0
 10
-7.2761
 20
23.0973
 30
0.0
 10
-7.0
 20
23.0973
 30
0.0
 10
-7.0
 20
23.0973
 30
0.0
 10
-6.7239
 20
23.0973
 30
0.0
 10
-6.5
 20
22.8734
 30
0.0
 10
-6.5
 20
22.5973
 30
0.0
 10
-6.5
 20
22.5973
 30
0.0
 10
-6.5
 20
22.5973
 30
0.0
 10
-2.5
 20
22.5973
 30
0.0
 10
-2.5
 20
22.5973
 30
0.0
 10
-2.5
 20
22.5973
 30
0.0
 10
-2.5
 20
22.8734
 30
0.0
 10
-2.2761
 20
23.0973
 30
0.0
 10
-2.0
 20
23.0973
 30
0.0
 10
-2.0
 20
23.0973
 30
0.0
 10
-1.7239
 20
23.0973
 30
0.0
 10
-1.5
 20
22.8734
 30
0.0
 10
-1.5
 20
22.5973
 30
0.0
 10
-1.5
 20
22.5973
 30
0.0
 10
-1.5
 20
22.3212
 30
0.0
 10
-1.7239
 20
22.0973
 30
0.0
 10
-2.0
 20
22.0973
 30
0.0
 10
-2.0
 20
22.0973
 30
0.0
 10
-2.0
 20
22.0973
 30
0.0
 10
-2.0
 20
13.0973
 30
0.0
 10
-2.0
 20
13.0973
 30
0.0
 10
-2.0
 20
13.0973
 30
0.0
 10
-1.7239
 20
13.0973
 30
0.0
 10
-1.5
 20
12.8734
 30
0.0
 10
-1.5
 20
12.5973
 30
0.0
 10
-1.5
 20
12.5973
 30
0.0
 10
-1.5
 20
12.3212
 30
0.0
 10
-1.7239
 20
12.0973
 30
0.0
 10
-2.0
 20
12.0973
 30
0.0
 10
-2.0
 20
12.0973
 30
0.0
 10
-2.2761
 20
12.0973
 30
0.0
 10
-2.5
 20
12.3212
 30
0.0
 10
-2.5
 20
12.5973
 30
0.0
 10
-2.5
 20
12.5973
 30
0.0
 10
-2.5
 20
12.5973
 30
0.0
 10
-6.5
 20
12.5973
 30
0.0
 10
-6.5
 20
12.5973
 30
0.0
 10
-6.5
 20
12.5973
 30
0.0
 10
-6.5
 20
12.3212
 30
0.0
 10
-6.7239
 20
12.0973
 30
0.0
 10
-7.0
 20
12.0973
 30
0.0
 10
-7.0
 20
12.0973
 30
0.0
 10
-7.2761
 20
12.0973
 30
0.0
 10
-7.5
 20
12.3212
 30
0.0
 10
-7.5
 20
12.5973
 30
0.0
 10
-7.5
 20
12.5973
 30
0.0
 10
-7.5
 20
12.8734
 30
0.0
 10
-7.2761
 20
13.0973
 30
0.0
 10
-7.0
 20
13.0973
 30
0.0
 10
-7.0
 20
13.0973
 30
0.0
 10
-7.0
 20
13.0973
 30
0.0
 10
-7.0
 20
22.0973
 30
0.0
 10
-7.0
 20
22.0973
 30
0.0
 10
-7.0
 20
22.0973
 30
0.0
 10
-7.2761
 20
22.0973
 30
0.0
 10
-7.5
 20
22.3212
 30
0.0
 10
-7.5
 20
22.5973
 30
0.0
  0
SPLINE
  5
64
330
1F
100
AcDbEntity
  8
Layer 1
 62
   250
370
     9
100
AcDbSpline
210
0.0
220
0.0
230
1.0
 70
    11
 71
     3
 72
    68
 73
    64
 74
     0
 42
0.0000000001
 43
0.0000000001
 40
0.0
 40
0.0
 40
0.0
 40
0.0
 40
0.0625
 40
0.0625
 40
0.0625
 40
0.0625
 40
0.125
 40
0.125
 40
0.125
 40
0.125
 40
0.1875
 40
0.1875
 40
0.1875
 40
0.1875
 40
0.25
 40
0.25
 40
0.25
 40
0.25
 40
0.3125
 40
0.3125
 40
0.3125
 40
0.3125
 40
0.375
 40
0.375
 40
0.375
 40
0.375
 40
0.4375
 40
0.4375
 40
0.4375
 40
0.4375
 40
0.5
 40
0.5
 40
0.5
 40
0.5
 40
0.5625
 40
0.5625
 40
0.5625
 40
0.5625
 40
0.625
 40
0.625
 40
0.625
 40
0.625
 40
0.6875
 40
0.6875
 40
0.6875
 40
0.6875
 40
0.75
 40
0.75
 40
0.75
 40
0.75
 40
0.8125
 40
0.8125
 40
0.8125
 40
0.8125
 40
0.875
 40
0.875
 40
0.875
 40
0.875
 40
0.9375
 40
0.9375
 40
0.9375
 40
0.9375
 40
1.0
 40
1.0
 40
1.0
 40
1.0
 10
-7.5
 20
2.5973
 30
0.0
 10
-7.5
 20
2.8734
 30
0.0
 10
-7.2761
 20
3.0973
 30
0.0
 10
-7.0
 20
3.0973
 30
0.0
 10
-7.0
 20
3.0973
 30
0.0
 10
-6.7239
 20
3.0973
 30
0.0
 10
-6.5
 20
2.8734
 30
0.0
 10
-6.5
 20
2.5973
 30
0.0
 10
-6.5
 20
2.5973
 30
0.0
 10
-6.5
 20
2.5973
 30
0.0
 10
-2.5
 20
2.5973
 30
0.0
 10
-2.5
 20
2.5973
 30
0.0
 10
-2.5
 20
2.5973
 30
0.0
 10
-2.5
 20
2.8734
 30
0.0
 10
-2.2761
 20
3.0973
 30
0.0
 10
-2.0
 20
3.0973
 30
0.0
 10
-2.0
 20
3.0973
 30
0.0
 10
-1.7239
 20
3.0973
 30
0.0
 10
-1.5
 20
2.8734
 30
0.0
 10
-1.5
 20
2.5973
 30
0.0
 10
-1.5
 20
2.5973
 30
0.0
 10
-1.5
 20
2.3212
 30
0.0
 10
-1.7239
 20
2.0973
 30
0.0
 10
-2.0
 20
2.0973
 30
0.0
 10
-2.0
 20
2.0973
 30
0.0
 10
-2.0
 20
2.0973
 30
0.0
 10
-2.0
 20
-6.9027
 30
0.0
 10
-2.0
 20
-6.9027
 30
0.0
 10
-2.0
 20
-6.9027
 30
0.0
 10
-1.7239
 20
-6.9027
 30
0.0
 10
-1.5
 20
-7.1266
 30
0.0
 10
-1.5
 20
-7.4027
 30
0.0
 10
-1.5
 20
-7.4027
 30
0.0
 10
-1.5
 20
-7.6788
 30
0.0
 10
-1.7239
 20
-7.9027
 30
0.0
 10
-2.0
 20
-7.9027
 30
0.0
 10
-2.0
 20
-7.9027
 30
0.0
 10
-2.2761
 20
-7.9027
 30
0.0
 10
-2.5
 20
-7.6788
 30
0.0
 10
-2.5
 20
-7.4027
 30
0.0
 10
-2.5
 20
-7.4027
 30
0.0
 10
-2.5
 20
-7.4027
 30
0.0
 10
-6.5
 20
-7.4027
 30
0.0
 10
-6.5
 20
-7.4027
 30
0.0
 10
-6.5
 20
-7.4027
 30
0.0
 10
-6.5
 20
-7.6788
 30
0.0
 10
-6.7239
 20
-7.9027
 30
0.0
 10
-7.0
 20
-7.9027
 30
0.0
 10
-7.0
 20
-7.9027
 30
0.0
 10
-7.2761
 20
-7.9027
 30
0.0
 10
-7.5
 20
-7.6788
 30
0.0
 10
-7.5
 20
-7.4027
 30
0.0
 10
-7.5
 20
-7.4027
 30
0.0
 10
-7.5
 20
-7.1266
 30
0.0
 10
-7.2761
 20
-6.9027
 30
0.0
 10
-7.0
 20
-6.9027
 30
0.0
 10
-7.0
 20
-6.9027
 30
0.0
 10
-7.0
 20
-6.9027
 30
0.0
 10
-7.0
 20
2.0973
 30
0.0
 10
-7.0
 20
2.0973
 30
0.0
 10
-7.0
 20
2.0973
 30
0.0
 10
-7.2761
 20
2.0973
 30
0.0
 10
-7.5
 20
2.3212
 30
0.0
 10
-7.5
 20
2.5973
 30
0.0
  0
SPLINE
  5
65
330
1F
100
AcDbEntity
  8
Layer 1
 62
   250
370
     9
100
AcDbSpline
210
0.0
220
0.0
230
1.0
 70
    11
 71
     3
 72
    20
 73
    16
 74
     0
 42
0.0000000001
 43
0.0000000001
 40
0.0
 40
0.0
 40
0.0
 40
0.0
 40
0.25
 40
0.25
 40
0.25
 40
0.25
 40
0.5
 40
0.5
 40
0.5
 40
0.5
 40
0.75
 40
0.75
 40
0.75
 40
0.75
 40
1.0
 40
1.0
 40
1.0
 40
1.0
 10
-3.0
 20
121.0333
 30
0.0
 10
-3.0
 20
120.205
 30
0.0
 10
-3.6717
 20
119.5333
 30
0.0
 10
-4.5
 20
119.5333
 30
0.0
 10
-4.5
 20
119.5333
 30
0.0
 10
-5.3283
 20
119.5333
 30
0.0
 10
-6.0
 20
120.205
 30
0.0
 10
-6.0
 20
121.0333
 30
0.0
 10
-6.0
 20
121.0333
 30
0.0
 10
-6.0
 20
121.8616
 30
0.0
 10
-5.3283
 20
122.5333
 30
0.0
 10
-4.5
 20
122.5333
 30
0.0
 10
-4.5
 20
122.5333
 30
0.0
 10
-3.6717
 20
122.5333
 30
0.0
 10
-3.0
 20
121.8616
 30
0.0
 10
-3.0
 20
121.0333
 30
0.0
  0
SPLINE
  5
66
330
1F
100
AcDbEntity
  8
Layer 1
 62
   250
370
     9
100
AcDbSpline
210
0.0
220
0.0
230
1.0
 70
    11
 71
     3
 72
    68
 73
    64
 74
     0
 42
0.0000000001
 43
0.0000000001
 40
0.0
 40
0.0
 40
0.0
 40
0.0
 40
0.0625
 40
0.0625
 40
0.0625
 40
0.0625
 40
0.125
 40
0.125
 40
0.125
 40
0.125
 40
0.1875
 40
0.1875
 40
0.1875
 40
0.1875
 40
0.25
 40
0.25
 40
0.25
 40
0.25
 40
0.3125
 40
0.3125
 40
0.3125
 40
0.3125
 40
0.375
 40
0.375
 40
0.375
 40
0.375
 40
0.4375
 40
0.4375
 40
0.4375
 40
0.4375
 40
0.5
 40
0.5
 40
0.5
 40
0.5
 40
0.5625
 40
0.5625
 40
0.5625
 40
0.5625
 40
0.625
 40
0.625
 40
0.625
 40
0.625
 40
0.6875
 40
0.6875
 40
0.6875
 40
0.6875
 40
0.75
 40
0.75
 40
0.75
 40
0.75
 40
0.8125
 40
0.8125
 40
0.8125
 40
0.8125
 40
0.875
 40
0.875
 40
0.875
 40
0.875
 40
0.9375
 40
0.9375
 40
0.9375
 40
0.9375
 40
1.0
 40
1.0
 40
1.0
 40
1.0
 10
-7.5
 20
136.0333
 30
0.0
 10
-7.5
 20
136.3094
 30
0.0
 10
-7.2761
 20
136.5333
 30
0.0
 10
-7.0
 20
136.5333
 30
0.0
 10
-7.0
 20
136.5333
 30
0.0
 10
-6.7239
 20
136.5333
 30
0.0
 10
-6.5
 20
136.3094
 30
0.0
 10
-6.5
 20
136.0333
 30
0.0
 10
-6.5
 20
136.0333
 30
0.0
 10
-6.5
 20
136.0333
 30
0.0
 10
-2.5
 20
136.0333
 30
0.0
 10
-2.5
 20
136.0333
 30
0.0
 10
-2.5
 20
136.0333
 30
0.0
 10
-2.5
 20
136.3094
 30
0.0
 10
-2.2761
 20
136.5333
 30
0.0
 10
-2.0
 20
136.5333
 30
0.0
 10
-2.0
 20
136.5333
 30
0.0
 10
-1.7239
 20
136.5333
 30
0.0
 10
-1.5
 20
136.3094
 30
0.0
 10
-1.5
 20
136.0333
 30
0.0
 10
-1.5
 20
136.0333
 30
0.0
 10
-1.5
 20
135.7572
 30
0.0
 10
-1.7239
 20
135.5333
 30
0.0
 10
-2.0
 20
135.5333
 30
0.0
 10
-2.0
 20
135.5333
 30
0.0
 10
-2.0
 20
135.5333
 30
0.0
 10
-2.0
 20
126.5333
 30
0.0
 10
-2.0
 20
126.5333
 30
0.0
 10
-2.0
 20
126.5333
 30
0.0
 10
-1.7239
 20
126.5333
 30
0.0
 10
-1.5
 20
126.3094
 30
0.0
 10
-1.5
 20
126.0333
 30
0.0
 10
-1.5
 20
126.0333
 30
0.0
 10
-1.5
 20
125.7572
 30
0.0
 10
-1.7239
 20
125.5333
 30
0.0
 10
-2.0
 20
125.5333
 30
0.0
 10
-2.0
 20
125.5333
 30
0.0
 10
-2.2761
 20
125.5333
 30
0.0
 10
-2.5
 20
125.7572
 30
0.0
 10
-2.5
 20
126.0333
 30
0.0
 10
-2.5
 20
126.0333
 30
0.0
 10
-2.5
 20
126.0333
 30
0.0
 10
-6.5
 20
126.0333
 30
0.0
 10
-6.5
 20
126.0333
 30
0.0
 10
-6.5
 20
126.0333
 30
0.0
 10
-6.5
 20
125.7572
 30
0.0
 10
-6.7239
 20
125.5333
 30
0.0
 10
-7.0
 20
125.5333
 30
0.0
 10
-7.0
 20
125.5333
 30
0.0
 10
-7.2761
 20
125.5333
 30
0.0
 10
-7.5
 20
125.7572
 30
0.0
 10
-7.5
 20
126.0333
 30
0.0
 10
-7.5
 20
126.0333
 30
0.0
 10
-7.5
 20
126.3094
 30
0.0
 10
-7.2761
 20
126.5333
 30
0.0
 10
-7.0
 20
126.5333
 30
0.0
 10
-7.0
 20
126.5333
 30
0.0
 10
-7.0
 20
126.5333
 30
0.0
 10
-7.0
 20
135.5333
 30
0.0
 10
-7.0
 20
135.5333
 30
0.0
 10
-7.0
 20
135.5333
 30
0.0
 10
-7.2761
 20
135.5333
 30
0.0
 10
-7.5
 20
135.7572
 30
0.0
 10
-7.5
 20
136.0333
 30
0.0
  0
SPLINE
  5
67
330
1F
100
AcDbEntity
  8
Layer 1
 62
   250
370
     9
100
AcDbSpline
210
0.0
220
0.0
230
1.0
 70
    11
 71
     3
 72
    68
 73
    64
 74
     0
 42
0.0000000001
 43
0.0000000001
 40
0.0
 40
0.0
 40
0.0
 40
0.0
 40
0.0625
 40
0.0625
 40
0.0625
 40
0.0625
 40
0.125
 40
0.125
 40
0.125
 40
0.125
 40
0.1875
 40
0.1875
 40
0.1875
 40
0.1875
 40
0.25
 40
0.25
 40
0.25
 40
0.25
 40
0.3125
 40
0.3125
 40
0.3125
 40
0.3125
 40
0.375
 40
0.375
 40
0.375
 40
0.375
 40
0.4375
 40
0.4375
 40
0.4375
 40
0.4375
 40
0.5
 40
0.5
 40
0.5
 40
0.5
 40
0.5625
 40
0.5625
 40
0.5625
 40
0.5625
 40
0.625
 40
0.625
 40
0.625
 40
0.625
 40
0.6875
 40
0.6875
 40
0.6875
 40
0.6875
 40
0.75
 40
0.75
 40
0.75
 40
0.75
 40
0.8125
 40
0.8125
 40
0.8125
 40
0.8125
 40
0.875
 40
0.875
 40
0.875
 40
0.875
 40
0.9375
 40
0.9375
 40
0.9375
 40
0.9375
 40
1.0
 40
1.0
 40
1.0
 40
1.0
 10
-7.5
 20
116.0333
 30
0.0
 10
-7.5
 20
116.3094
 30
0.0
 10
-7.2761
 20
116.5333
 30
0.0
 10
-7.0
 20
116.5333
 30
0.0
 10
-7.0
 20
116.5333
 30
0.0
 10
-6.7239
 20
116.5333
 30
0.0
 10
-6.5
 20
116.3094
 30
0.0
 10
-6.5
 20
116.0333
 30
0.0
 10
-6.5
 20
116.0333
 30
0.0
 10
-6.5
 20
116.0333
 30
0.0
 10
-2.5
 20
116.0333
 30
0.0
 10
-2.5
 20
116.0333
 30
0.0
 10
-2.5
 20
116.0333
 30
0.0
 10
-2.5
 20
116.3094
 30
0.0
 10
-2.2761
 20
116.5333
 30
0.0
 10
-2.0
 20
116.5333
 30
0.0
 10
-2.0
 20
116.5333
 30
0.0
 10
-1.7239
 20
116.5333
 30
0.0
 10
-1.5
 20
116.3094
 30
0.0
 10
-1.5
 20
116.0333
 30
0.0
 10
-1.5
 20
116.0333
 30
0.0
 10
-1.5
 20
115.7572
 30
0.0
 10
-1.7239
 20
115.5333
 30
0.0
 10
-2.0
 20
115.5333
 30
0.0
 10
-2.0
 20
115.5333
 30
0.0
 10
-2.0
 20
115.5333
 30
0.0
 10
-2.0
 20
106.5333
 30
0.0
 10
-2.0
 20
106.5333
 30
0.0
 10
-2.0
 20
106.5333
 30
0.0
 10
-1.7239
 20
106.5333
 30
0.0
 10
-1.5
 20
106.3094
 30
0.0
 10
-1.5
 20
106.0333
 30
0.0
 10
-1.5
 20
106.0333
 30
0.0
 10
-1.5
 20
105.7572
 30
0.0
 10
-1.7239
 20
105.5333
 30
0.0
 10
-2.0
 20
105.5333
 30
0.0
 10
-2.0
 20
105.5333
 30
0.0
 10
-2.2761
 20
105.5333
 30
0.0
 10
-2.5
 20
105.7572
 30
0.0
 10
-2.5
 20
106.0333
 30
0.0
 10
-2.5
 20
106.0333
 30
0.0
 10
-2.5
 20
106.0333
 30
0.0
 10
-6.5
 20
106.0333
 30
0.0
 10
-6.5
 20
106.0333
 30
0.0
 10
-6.5
 20
106.0333
 30
0.0
 10
-6.5
 20
105.7572
 30
0.0
 10
-6.7239
 20
105.5333
 30
0.0
 10
-7.0
 20
105.5333
 30
0.0
 10
-7.0
 20
105.5333
 30
0.0
 10
-7.2761
 20
105.5333
 30
0.0
 10
-7.5
 20
105.7572
 30
0.0
 10
-7.5
 20
106.0333
 30
0.0
 10
-7.5
 20
106.0333
 30
0.0
 10
-7.5
 20
106.3094
 30
0.0
 10
-7.2761
 20
106.5333
 30
0.0
 10
-7.0
 20
106.5333
 30
0.0
 10
-7.0
 20
106.5333
 30
0.0
 10
-7.0
 20
106.5333
 30
0.0
 10
-7.0
 20
115.5333
 30
0.0
 10
-7.0
 20
115.5333
 30
0.0
 10
-7.0
 20
115.5333
 30
0.0
 10
-7.2761
 20
115.5333
 30
0.0
 10
-7.5
 20
115.7572
 30
0.0
 10
-7.5
 20
116.0333
 30
0.0
  0
SPLINE
  5
68
330
1F
100
AcDbEntity
  8
Layer 1
 62
   250
370
     9
100
AcDbSpline
210
0.0
220
0.0
230
1.0
 70
    11
 71
     3
 72
    20
 73
    16
 74
     0
 42
0.0000000001
 43
0.0000000001
 40
0.0
 40
0.0
 40
0.0
 40
0.0
 40
0.25
 40
0.25
 40
0.25
 40
0.25
 40
0.5
 40
0.5
 40
0.5
 40
0.5
 40
0.75
 40
0.75
 40
0.75
 40
0.75
 40
1.0
 40
1.0
 40
1.0
 40
1.0
 10
-292.0
 20
-105.9667
 30
0.0
 10
-292.0
 20
-106.795
 30
0.0
 10
-292.6717
 20
-107.4667
 30
0.0
 10
-293.5
 20
-107.4667
 30
0.0
 10
-293.5
 20
-107.4667
 30
0.0
 10
-294.3283
 20
-107.4667
 30
0.0
 10
-295.0
 20
-106.795
 30
0.0
 10
-295.0
 20
-105.9667
 30
0.0
 10
-295.0
 20
-105.9667
 30
0.0
 10
-295.0
 20
-105.1384
 30
0.0
 10
-294.3283
 20
-104.4667
 30
0.0
 10
-293.5
 20
-104.4667
 30
0.0
 10
-293.5
 20
-104.4667
 30
0.0
 10
-292.6717
 20
-104.4667
 30
0.0
 10
-292.0
 20
-105.1384
 30
0.0
 10
-292.0
 20
-105.9667
 30
0.0
  0
SPLINE
  5
69
330
1F
100
AcDbEntity
  8
Layer 1
 62
   250
370
     9
100
AcDbSpline
210
0.0
220
0.0
230
1.0
 70
    11
 71
     3
 72
    68
 73
    64
 74
     0
 42
0.0000000001
 43
0.0000000001
 40
0.0
 40
0.0
 40
0.0
 40
0.0
 40
0.0625
 40
0.0625
 40
0.0625
 40
0.0625
 40
0.125
 40
0.125
 40
0.125
 40
0.125
 40
0.1875
 40
0.1875
 40
0.1875
 40
0.1875
 40
0.25
 40
0.25
 40
0.25
 40
0.25
 40
0.3125
 40
0.3125
 40
0.3125
 40
0.3125
 40
0.375
 40
0.375
 40
0.375
 40
0.375
 40
0.4375
 40
0.4375
 40
0.4375
 40
0.4375
 40
0.5
 40
0.5
 40
0.5
 40
0.5
 40
0.5625
 40
0.5625
 40
0.5625
 40
0.5625
 40
0.625
 40
0.625
 40
0.625
 40
0.625
 40
0.6875
 40
0.6875
 40
0.6875
 40
0.6875
 40
0.75
 40
0.75
 40
0.75
 40
0.75
 40
0.8125
 40
0.8125
 40
0.8125
 40
0.8125
 40
0.875
 40
0.875
 40
0.875
 40
0.875
 40
0.9375
 40
0.9375
 40
0.9375
 40
0.9375
 40
1.0
 40
1.0
 40
1.0
 40
1.0
 10
-296.5
 20
-90.9667
 30
0.0
 10
-296.5
 20
-90.6906
 30
0.0
 10
-296.2761
 20
-90.4667
 30
0.0
 10
-296.0
 20
-90.4667
 30
0.0
 10
-296.0
 20
-90.4667
 30
0.0
 10
-295.7239
 20
-90.4667
 30
0.0
 10
-295.5
 20
-90.6906
 30
0.0
 10
-295.5
 20
-90.9667
 30
0.0
 10
-295.5
 20
-90.9667
 30
0.0
 10
-295.5
 20
-90.9667
 30
0.0
 10
-291.5
 20
-90.9667
 30
0.0
 10
-291.5
 20
-90.9667
 30
0.0
 10
-291.5
 20
-90.9667
 30
0.0
 10
-291.5
 20
-90.6906
 30
0.0
 10
-291.2761
 20
-90.4667
 30
0.0
 10
-291.0
 20
-90.4667
 30
0.0
 10
-291.0
 20
-90.4667
 30
0.0
 10
-290.7239
 20
-90.4667
 30
0.0
 10
-290.5
 20
-90.6906
 30
0.0
 10
-290.5
 20
-90.9667
 30
0.0
 10
-290.5
 20
-90.9667
 30
0.0
 10
-290.5
 20
-91.2428
 30
0.0
 10
-290.7239
 20
-91.4667
 30
0.0
 10
-291.0
 20
-91.4667
 30
0.0
 10
-291.0
 20
-91.4667
 30
0.0
 10
-291.0
 20
-91.4667
 30
0.0
 10
-291.0
 20
-100.4667
 30
0.0
 10
-291.0
 20
-100.4667
 30
0.0
 10
-291.0
 20
-100.4667
 30
0.0
 10
-290.7239
 20
-100.4667
 30
0.0
 10
-290.5
 20
-100.6906
 30
0.0
 10
-290.5
 20
-100.9667
 30
0.0
 10
-290.5
 20
-100.9667
 30
0.0
 10
-290.5
 20
-101.2428
 30
0.0
 10
-290.7239
 20
-101.4667
 30
0.0
 10
-291.0
 20
-101.4667
 30
0.0
 10
-291.0
 20
-101.4667
 30
0.0
 10
-291.2761
 20
-101.4667
 30
0.0
 10
-291.5
 20
-101.2428
 30
0.0
 10
-291.5
 20
-100.9667
 30
0.0
 10
-291.5
 20
-100.9667
 30
0.0
 10
-291.5
 20
-100.9667
 30
0.0
 10
-295.5
 20
-100.9667
 30
0.0
 10
-295.5
 20
-100.9667
 30
0.0
 10
-295.5
 20
-100.9667
 30
0.0
 10
-295.5
 20
-101.2428
 30
0.0
 10
-295.7239
 20
-101.4667
 30
0.0
 10
-296.0
 20
-101.4667
 30
0.0
 10
-296.0
 20
-101.4667
 30
0.0
 10
-296.2761
 20
-101.4667
 30
0.0
 10
-296.5
 20
-101.2428
 30
0.0
 10
-296.5
 20
-100.9667
 30
0.0
 10
-296.5
 20
-100.9667
 30
0.0
 10
-296.5
 20
-100.6906
 30
0.0
 10
-296.2761
 20
-100.4667
 30
0.0
 10
-296.0
 20
-100.4667
 30
0.0
 10
-296.0
 20
-100.4667
 30
0.0
 10
-296.0
 20
-100.4667
 30
0.0
 10
-296.0
 20
-91.4667
 30
0.0
 10
-296.0
 20
-91.4667
 30
0.0
 10
-296.0
 20
-91.4667
 30
0.0
 10
-296.2761
 20
-91.4667
 30
0.0
 10
-296.5
 20
-91.2428
 30
0.0
 10
-296.5
 20
-90.9667
 30
0.0
  0
SPLINE
  5
6A
330
1F
100
AcDbEntity
  8
Layer 1
 62
   250
370
     9
100
AcDbSpline
210
0.0
220
0.0
230
1.0
 70
    11
 71
     3
 72
    68
 73
    64
 74
     0
 42
0.0000000001
 43
0.0000000001
 40
0.0
 40
0.0
 40
0.0
 40
0.0
 40
0.0625
 40
0.0625
 40
0.0625
 40
0.0625
 40
0.125
 40
0.125
 40
0.125
 40
0.125
 40
0.1875
 40
0.1875
 40
0.1875
 40
0.1875
 40
0.25
 40
0.25
 40
0.25
 40
0.25
 40
0.3125
 40
0.3125
 40
0.3125
 40
0.3125
 40
0.375
 40
0.375
 40
0.375
 40
0.375
 40
0.4375
 40
0.4375
 40
0.4375
 40
0.4375
 40
0.5
 40
0.5
 40
0.5
 40
0.5
 40
0.5625
 40
0.5625
 40
0.5625
 40
0.5625
 40
0.625
 40
0.625
 40
0.625
 40
0.625
 40
0.6875
 40
0.6875
 40
0.6875
 40
0.6875
 40
0.75
 40
0.75
 40
0.75
 40
0.75
 40
0.8125
 40
0.8125
 40
0.8125
 40
0.8125
 40
0.875
 40
0.875
 40
0.875
 40
0.875
 40
0.9375
 40
0.9375
 40
0.9375
 40
0.9375
 40
1.0
 40
1.0
 40
1.0
 40
1.0
 10
-296.5
 20
-110.9667
 30
0.0
 10
-296.5
 20
-110.6906
 30
0.0
 10
-296.2761
 20
-110.4667
 30
0.0
 10
-296.0
 20
-110.4667
 30
0.0
 10
-296.0
 20
-110.4667
 30
0.0
 10
-295.7239
 20
-110.4667
 30
0.0
 10
-295.5
 20
-110.6906
 30
0.0
 10
-295.5
 20
-110.9667
 30
0.0
 10
-295.5
 20
-110.9667
 30
0.0
 10
-295.5
 20
-110.9667
 30
0.0
 10
-291.5
 20
-110.9667
 30
0.0
 10
-291.5
 20
-110.9667
 30
0.0
 10
-291.5
 20
-110.9667
 30
0.0
 10
-291.5
 20
-110.6906
 30
0.0
 10
-291.2761
 20
-110.4667
 30
0.0
 10
-291.0
 20
-110.4667
 30
0.0
 10
-291.0
 20
-110.4667
 30
0.0
 10
-290.7239
 20
-110.4667
 30
0.0
 10
-290.5
 20
-110.6906
 30
0.0
 10
-290.5
 20
-110.9667
 30
0.0
 10
-290.5
 20
-110.9667
 30
0.0
 10
-290.5
 20
-111.2428
 30
0.0
 10
-290.7239
 20
-111.4667
 30
0.0
 10
-291.0
 20
-111.4667
 30
0.0
 10
-291.0
 20
-111.4667
 30
0.0
 10
-291.0
 20
-111.4667
 30
0.0
 10
-291.0
 20
-120.4667
 30
0.0
 10
-291.0
 20
-120.4667
 30
0.0
 10
-291.0
 20
-120.4667
 30
0.0
 10
-290.7239
 20
-120.4667
 30
0.0
 10
-290.5
 20
-120.6906
 30
0.0
 10
-290.5
 20
-120.9667
 30
0.0
 10
-290.5
 20
-120.9667
 30
0.0
 10
-290.5
 20
-121.2428
 30
0.0
 10
-290.7239
 20
-121.4667
 30
0.0
 10
-291.0
 20
-121.4667
 30
0.0
 10
-291.0
 20
-121.4667
 30
0.0
 10
-291.2761
 20
-121.4667
 30
0.0
 10
-291.5
 20
-121.2428
 30
0.0
 10
-291.5
 20
-120.9667
 30
0.0
 10
-291.5
 20
-120.9667
 30
0.0
 10
-291.5
 20
-120.9667
 30
0.0
 10
-295.5
 20
-120.9667
 30
0.0
 10
-295.5
 20
-120.9667
 30
0.0
 10
-295.5
 20
-120.9667
 30
0.0
 10
-295.5
 20
-121.2428
 30
0.0
 10
-295.7239
 20
-121.4667
 30
0.0
 10
-296.0
 20
-121.4667
 30
0.0
 10
-296.0
 20
-121.4667
 30
0.0
 10
-296.2761
 20
-121.4667
 30
0.0
 10
-296.5
 20
-121.2428
 30
0.0
 10
-296.5
 20
-120.9667
 30
0.0
 10
-296.5
 20
-120.9667
 30
0.0
 10
-296.5
 20
-120.6906
 30
0.0
 10
-296.2761
 20
-120.4667
 30
0.0
 10
-296.0
 20
-120.4667
 30
0.0
 10
-296.0
 20
-120.4667
 30
0.0
 10
-296.0
 20
-120.4667
 30
0.0
 10
-296.0
 20
-111.4667
 30
0.0
 10
-296.0
 20
-111.4667
 30
0.0
 10
-296.0
 20
-111.4667
 30
0.0
 10
-296.2761
 20
-111.4667
 30
0.0
 10
-296.5
 20
-111.2428
 30
0.0
 10
-296.5
 20
-110.9667
 30
0.0
  0
SPLINE
  5
6B
330
1F
100
AcDbEntity
  8
Layer 1
 62
   250
370
     9
100
AcDbSpline
210
0.0
220
0.0
230
1.0
 70
    11
 71
     3
 72
    20
 73
    16
 74
     0
 42
0.0000000001
 43
0.0000000001
 40
0.0
 40
0.0
 40
0.0
 40
0.0
 40
0.25
 40
0.25
 40
0.25
 40
0.25
 40
0.5
 40
0.5
 40
0.5
 40
0.5
 40
0.75
 40
0.75
 40
0.75
 40
0.75
 40
1.0
 40
1.0
 40
1.0
 40
1.0
 10
-292.0
 20
7.5973
 30
0.0
 10
-292.0
 20
6.769
 30
0.0
 10
-292.6717
 20
6.0973
 30
0.0
 10
-293.5
 20
6.0973
 30
0.0
 10
-293.5
 20
6.0973
 30
0.0
 10
-294.3283
 20
6.0973
 30
0.0
 10
-295.0
 20
6.769
 30
0.0
 10
-295.0
 20
7.5973
 30
0.0
 10
-295.0
 20
7.5973
 30
0.0
 10
-295.0
 20
8.4256
 30
0.0
 10
-294.3283
 20
9.0973
 30
0.0
 10
-293.5
 20
9.0973
 30
0.0
 10
-293.5
 20
9.0973
 30
0.0
 10
-292.6717
 20
9.0973
 30
0.0
 10
-292.0
 20
8.4256
 30
0.0
 10
-292.0
 20
7.5973
 30
0.0
  0
SPLINE
  5
6C
330
1F
100
AcDbEntity
  8
Layer 1
 62
   250
370
     9
100
AcDbSpline
210
0.0
220
0.0
230
1.0
 70
    11
 71
     3
 72
    68
 73
    64
 74
     0
 42
0.0000000001
 43
0.0000000001
 40
0.0
 40
0.0
 40
0.0
 40
0.0
 40
0.0625
 40
0.0625
 40
0.0625
 40
0.0625
 40
0.125
 40
0.125
 40
0.125
 40
0.125
 40
0.1875
 40
0.1875
 40
0.1875
 40
0.1875
 40
0.25
 40
0.25
 40
0.25
 40
0.25
 40
0.3125
 40
0.3125
 40
0.3125
 40
0.3125
 40
0.375
 40
0.375
 40
0.375
 40
0.375
 40
0.4375
 40
0.4375
 40
0.4375
 40
0.4375
 40
0.5
 40
0.5
 40
0.5
 40
0.5
 40
0.5625
 40
0.5625
 40
0.5625
 40
0.5625
 40
0.625
 40
0.625
 40
0.625
 40
0.625
 40
0.6875
 40
0.6875
 40
0.6875
 40
0.6875
 40
0.75
 40
0.75
 40
0.75
 40
0.75
 40
0.8125
 40
0.8125
 40
0.8125
 40
0.8125
 40
0.875
 40
0.875
 40
0.875
 40
0.875
 40
0.9375
 40
0.9375
 40
0.9375
 40
0.9375
 40
1.0
 40
1.0
 40
1.0
 40
1.0
 10
-296.5
 20
22.5973
 30
0.0
 10
-296.5
 20
22.8734
 30
0.0
 10
-296.2761
 20
23.0973
 30
0.0
 10
-296.0
 20
23.0973
 30
0.0
 10
-296.0
 20
23.0973
 30
0.0
 10
-295.7239
 20
23.0973
 30
0.0
 10
-295.5
 20
22.8734
 30
0.0
 10
-295.5
 20
22.5973
 30
0.0
 10
-295.5
 20
22.5973
 30
0.0
 10
-295.5
 20
22.5973
 30
0.0
 10
-291.5
 20
22.5973
 30
0.0
 10
-291.5
 20
22.5973
 30
0.0
 10
-291.5
 20
22.5973
 30
0.0
 10
-291.5
 20
22.8734
 30
0.0
 10
-291.2761
 20
23.0973
 30
0.0
 10
-291.0
 20
23.0973
 30
0.0
 10
-291.0
 20
23.0973
 30
0.0
 10
-290.7239
 20
23.0973
 30
0.0
 10
-290.5
 20
22.8734
 30
0.0
 10
-290.5
 20
22.5973
 30
0.0
 10
-290.5
 20
22.5973
 30
0.0
 10
-290.5
 20
22.3212
 30
0.0
 10
-290.7239
 20
22.0973
 30
0.0
 10
-291.0
 20
22.0973
 30
0.0
 10
-291.0
 20
22.0973
 30
0.0
 10
-291.0
 20
22.0973
 30
0.0
 10
-291.0
 20
13.0973
 30
0.0
 10
-291.0
 20
13.0973
 30
0.0
 10
-291.0
 20
13.0973
 30
0.0
 10
-290.7239
 20
13.0973
 30
0.0
 10
-290.5
 20
12.8734
 30
0.0
 10
-290.5
 20
12.5973
 30
0.0
 10
-290.5
 20
12.5973
 30
0.0
 10
-290.5
 20
12.3212
 30
0.0
 10
-290.7239
 20
12.0973
 30
0.0
 10
-291.0
 20
12.0973
 30
0.0
 10
-291.0
 20
12.0973
 30
0.0
 10
-291.2761
 20
12.0973
 30
0.0
 10
-291.5
 20
12.3212
 30
0.0
 10
-291.5
 20
12.5973
 30
0.0
 10
-291.5
 20
12.5973
 30
0.0
 10
-291.5
 20
12.5973
 30
0.0
 10
-295.5
 20
12.5973
 30
0.0
 10
-295.5
 20
12.5973
 30
0.0
 10
-295.5
 20
12.5973
 30
0.0
 10
-295.5
 20
12.3212
 30
0.0
 10
-295.7239
 20
12.0973
 30
0.0
 10
-296.0
 20
12.0973
 30
0.0
 10
-296.0
 20
12.0973
 30
0.0
 10
-296.2761
 20
12.0973
 30
0.0
 10
-296.5
 20
12.3212
 30
0.0
 10
-296.5
 20
12.5973
 30
0.0
 10
-296.5
 20
12.5973
 30
0.0
 10
-296.5
 20
12.8734
 30
0.0
 10
-296.2761
 20
13.0973
 30
0.0
 10
-296.0
 20
13.0973
 30
0.0
 10
-296.0
 20
13.0973
 30
0.0
 10
-296.0
 20
13.0973
 30
0.0
 10
-296.0
 20
22.0973
 30
0.0
 10
-296.0
 20
22.0973
 30
0.0
 10
-296.0
 20
22.0973
 30
0.0
 10
-296.2761
 20
22.0973
 30
0.0
 10
-296.5
 20
22.3212
 30
0.0
 10
-296.5
 20
22.5973
 30
0.0
  0
SPLINE
  5
6D
330
1F
100
AcDbEntity
  8
Layer 1
 62
   250
370
     9
100
AcDbSpline
210
0.0
220
0.0
230
1.0
 70
    11
 71
     3
 72
    68
 73
    64
 74
     0
 42
0.0000000001
 43
0.0000000001
 40
0.0
 40
0.0
 40
0.0
 40
0.0
 40
0.0625
 40
0.0625
 40
0.0625
 40
0.0625
 40
0.125
 40
0.125
 40
0.125
 40
0.125
 40
0.1875
 40
0.1875
 40
0.1875
 40
0.1875
 40
0.25
 40
0.25
 40
0.25
 40
0.25
 40
0.3125
 40
0.3125
 40
0.3125
 40
0.3125
 40
0.375
 40
0.375
 40
0.375
 40
0.375
 40
0.4375
 40
0.4375
 40
0.4375
 40
0.4375
 40
0.5
 40
0.5
 40
0.5
 40
0.5
 40
0.5625
 40
0.5625
 40
0.5625
 40
0.5625
 40
0.625
 40
0.625
 40
0.625
 40
0.625
 40
0.6875
 40
0.6875
 40
0.6875
 40
0.6875
 40
0.75
 40
0.75
 40
0.75
 40
0.75
 40
0.8125
 40
0.8125
 40
0.8125
 40
0.8125
 40
0.875
 40
0.875
 40
0.875
 40
0.875
 40
0.9375
 40
0.9375
 40
0.9375
 40
0.9375
 40
1.0
 40
1.0
 40
1.0
 40
1.0
 10
-296.5
 20
2.5973
 30
0.0
 10
-296.5
 20
2.8734
 30
0.0
 10
-296.2761
 20
3.0973
 30
0.0
 10
-296.0
 20
3.0973
 30
0.0
 10
-296.0
 20
3.0973
 30
0.0
 10
-295.7239
 20
3.0973
 30
0.0
 10
-295.5
 20
2.8734
 30
0.0
 10
-295.5
 20
2.5973
 30
0.0
 10
-295.5
 20
2.5973
 30
0.0
 10
-295.5
 20
2.5973
 30
0.0
 10
-291.5
 20
2.5973
 30
0.0
 10
-291.5
 20
2.5973
 30
0.0
 10
-291.5
 20
2.5973
 30
0.0
 10
-291.5
 20
2.8734
 30
0.0
 10
-291.2761
 20
3.0973
 30
0.0
 10
-291.0
 20
3.0973
 30
0.0
 10
-291.0
 20
3.0973
 30
0.0
 10
-290.7239
 20
3.0973
 30
0.0
 10
-290.5
 20
2.8734
 30
0.0
 10
-290.5
 20
2.5973
 30
0.0
 10
-290.5
 20
2.5973
 30
0.0
 10
-290.5
 20
2.3212
 30
0.0
 10
-290.7239
 20
2.0973
 30
0.0
 10
-291.0
 20
2.0973
 30
0.0
 10
-291.0
 20
2.0973
 30
0.0
 10
-291.0
 20
2.0973
 30
0.0
 10
-291.0
 20
-6.9027
 30
0.0
 10
-291.0
 20
-6.9027
 30
0.0
 10
-291.0
 20
-6.9027
 30
0.0
 10
-290.7239
 20
-6.9027
 30
0.0
 10
-290.5
 20
-7.1266
 30
0.0
 10
-290.5
 20
-7.4027
 30
0.0
 10
-290.5
 20
-7.4027
 30
0.0
 10
-290.5
 20
-7.6788
 30
0.0
 10
-290.7239
 20
-7.9027
 30
0.0
 10
-291.0
 20
-7.9027
 30
0.0
 10
-291.0
 20
-7.9027
 30
0.0
 10
-291.2761
 20
-7.9027
 30
0.0
 10
-291.5
 20
-7.6788
 30
0.0
 10
-291.5
 20
-7.4027
 30
0.0
 10
-291.5
 20
-7.4027
 30
0.0
 10
-291.5
 20
-7.4027
 30
0.0
 10
-295.5
 20
-7.4027
 30
0.0
 10
-295.5
 20
-7.4027
 30
0.0
 10
-295.5
 20
-7.4027
 30
0.0
 10
-295.5
 20
-7.6788
 30
0.0
 10
-295.7239
 20
-7.9027
 30
0.0
 10
-296.0
 20
-7.9027
 30
0.0
 10
-296.0
 20
-7.9027
 30
0.0
 10
-296.2761
 20
-7.9027
 30
0.0
 10
-296.5
 20
-7.6788
 30
0.0
 10
-296.5
 20
-7.4027
 30
0.0
 10
-296.5
 20
-7.4027
 30
0.0
 10
-296.5
 20
-7.1266
 30
0.0
 10
-296.2761
 20
-6.9027
 30
0.0
 10
-296.0
 20
-6.9027
 30
0.0
 10
-296.0
 20
-6.9027
 30
0.0
 10
-296.0
 20
-6.9027
 30
0.0
 10
-296.0
 20
2.0973
 30
0.0
 10
-296.0
 20
2.0973
 30
0.0
 10
-296.0
 20
2.0973
 30
0.0
 10
-296.2761
 20
2.0973
 30
0.0
 10
-296.5
 20
2.3212
 30
0.0
 10
-296.5
 20
2.5973
 30
0.0
  0
SPLINE
  5
6E
330
1F
100
AcDbEntity
  8
Layer 1
 62
   250
370
     9
100
AcDbSpline
210
0.0
220
0.0
230
1.0
 70
    11
 71
     3
 72
    20
 73
    16
 74
     0
 42
0.0000000001
 43
0.0000000001
 40
0.0
 40
0.0
 40
0.0
 40
0.0
 40
0.25
 40
0.25
 40
0.25
 40
0.25
 40
0.5
 40
0.5
 40
0.5
 40
0.5
 40
0.75
 40
0.75
 40
0.75
 40
0.75
 40
1.0
 40
1.0
 40
1.0
 40
1.0
 10
-292.0
 20
121.0333
 30
0.0
 10
-292.0
 20
120.205
 30
0.0
 10
-292.6717
 20
119.5333
 30
0.0
 10
-293.5
 20
119.5333
 30
0.0
 10
-293.5
 20
119.5333
 30
0.0
 10
-294.3283
 20
119.5333
 30
0.0
 10
-295.0
 20
120.205
 30
0.0
 10
-295.0
 20
121.0333
 30
0.0
 10
-295.0
 20
121.0333
 30
0.0
 10
-295.0
 20
121.8616
 30
0.0
 10
-294.3283
 20
122.5333
 30
0.0
 10
-293.5
 20
122.5333
 30
0.0
 10
-293.5
 20
122.5333
 30
0.0
 10
-292.6717
 20
122.5333
 30
0.0
 10
-292.0
 20
121.8616
 30
0.0
 10
-292.0
 20
121.0333
 30
0.0
  0
SPLINE
  5
6F
330
1F
100
AcDbEntity
  8
Layer 1
 62
   250
370
     9
100
AcDbSpline
210
0.0
220
0.0
230
1.0
 70
    11
 71
     3
 72
    68
 73
    64
 74
     0
 42
0.0000000001
 43
0.0000000001
 40
0.0
 40
0.0
 40
0.0
 40
0.0
 40
0.0625
 40
0.0625
 40
0.0625
 40
0.0625
 40
0.125
 40
0.125
 40
0.125
 40
0.125
 40
0.1875
 40
0.1875
 40
0.1875
 40
0.1875
 40
0.25
 40
0.25
 40
0.25
 40
0.25
 40
0.3125
 40
0.3125
 40
0.3125
 40
0.3125
 40
0.375
 40
0.375
 40
0.375
 40
0.375
 40
0.4375
 40
0.4375
 40
0.4375
 40
0.4375
 40
0.5
 40
0.5
 40
0.5
 40
0.5
 40
0.5625
 40
0.5625
 40
0.5625
 40
0.5625
 40
0.625
 40
0.625
 40
0.625
 40
0.625
 40
0.6875
 40
0.6875
 40
0.6875
 40
0.6875
 40
0.75
 40
0.75
 40
0.75
 40
0.75
 40
0.8125
 40
0.8125
 40
0.8125
 40
0.8125
 40
0.875
 40
0.875
 40
0.875
 40
0.875
 40
0.9375
 40
0.9375
 40
0.9375
 40
0.9375
 40
1.0
 40
1.0
 40
1.0
 40
1.0
 10
-296.5
 20
136.0333
 30
0.0
 10
-296.5
 20
136.3094
 30
0.0
 10
-296.2761
 20
136.5333
 30
0.0
 10
-296.0
 20
136.5333
 30
0.0
 10
-296.0
 20
136.5333
 30
0.0
 10
-295.7239
 20
136.5333
 30
0.0
 10
-295.5
 20
136.3094
 30
0.0
 10
-295.5
 20
136.0333
 30
0.0
 10
-295.5
 20
136.0333
 30
0.0
 10
-295.5
 20
136.0333
 30
0.0
 10
-291.5
 20
136.0333
 30
0.0
 10
-291.5
 20
136.0333
 30
0.0
 10
-291.5
 20
136.0333
 30
0.0
 10
-291.5
 20
136.3094
 30
0.0
 10
-291.2761
 20
136.5333
 30
0.0
 10
-291.0
 20
136.5333
 30
0.0
 10
-291.0
 20
136.5333
 30
0.0
 10
-290.7239
 20
136.5333
 30
0.0
 10
-290.5
 20
136.3094
 30
0.0
 10
-290.5
 20
136.0333
 30
0.0
 10
-290.5
 20
136.0333
 30
0.0
 10
-290.5
 20
135.7572
 30
0.0
 10
-290.7239
 20
135.5333
 30
0.0
 10
-291.0
 20
135.5333
 30
0.0
 10
-291.0
 20
135.5333
 30
0.0
 10
-291.0
 20
135.5333
 30
0.0
 10
-291.0
 20
126.5333
 30
0.0
 10
-291.0
 20
126.5333
 30
0.0
 10
-291.0
 20
126.5333
 30
0.0
 10
-290.7239
 20
126.5333
 30
0.0
 10
-290.5
 20
126.3094
 30
0.0
 10
-290.5
 20
126.0333
 30
0.0
 10
-290.5
 20
126.0333
 30
0.0
 10
-290.5
 20
125.7572
 30
0.0
 10
-290.7239
 20
125.5333
 30
0.0
 10
-291.0
 20
125.5333
 30
0.0
 10
-291.0
 20
125.5333
 30
0.0
 10
-291.2761
 20
125.5333
 30
0.0
 10
-291.5
 20
125.7572
 30
0.0
 10
-291.5
 20
126.0333
 30
0.0
 10
-291.5
 20
126.0333
 30
0.0
 10
-291.5
 20
126.0333
 30
0.0
 10
-295.5
 20
126.0333
 30
0.0
 10
-295.5
 20
126.0333
 30
0.0
 10
-295.5
 20
126.0333
 30
0.0
 10
-295.5
 20
125.7572
 30
0.0
 10
-295.7239
 20
125.5333
 30
0.0
 10
-296.0
 20
125.5333
 30
0.0
 10
-296.0
 20
125.5333
 30
0.0
 10
-296.2761
 20
125.5333
 30
0.0
 10
-296.5
 20
125.7572
 30
0.0
 10
-296.5
 20
126.0333
 30
0.0
 10
-296.5
 20
126.0333
 30
0.0
 10
-296.5
 20
126.3094
 30
0.0
 10
-296.2761
 20
126.5333
 30
0.0
 10
-296.0
 20
126.5333
 30
0.0
 10
-296.0
 20
126.5333
 30
0.0
 10
-296.0
 20
126.5333
 30
0.0
 10
-296.0
 20
135.5333
 30
0.0
 10
-296.0
 20
135.5333
 30
0.0
 10
-296.0
 20
135.5333
 30
0.0
 10
-296.2761
 20
135.5333
 30
0.0
 10
-296.5
 20
135.7572
 30
0.0
 10
-296.5
 20
136.0333
 30
0.0
  0
SPLINE
  5
70
330
1F
100
AcDbEntity
  8
Layer 1
 62
   250
370
     9
100
AcDbSpline
210
0.0
220
0.0
230
1.0
 70
    11
 71
     3
 72
    68
 73
    64
 74
     0
 42
0.0000000001
 43
0.0000000001
 40
0.0
 40
0.0
 40
0.0
 40
0.0
 40
0.0625
 40
0.0625
 40
0.0625
 40
0.0625
 40
0.125
 40
0.125
 40
0.125
 40
0.125
 40
0.1875
 40
0.1875
 40
0.1875
 40
0.1875
 40
0.25
 40
0.25
 40
0.25
 40
0.25
 40
0.3125
 40
0.3125
 40
0.3125
 40
0.3125
 40
0.375
 40
0.375
 40
0.375
 40
0.375
 40
0.4375
 40
0.4375
 40
0.4375
 40
0.4375
 40
0.5
 40
0.5
 40
0.5
 40
0.5
 40
0.5625
 40
0.5625
 40
0.5625
 40
0.5625
 40
0.625
 40
0.625
 40
0.625
 40
0.625
 40
0.6875
 40
0.6875
 40
0.6875
 40
0.6875
 40
0.75
 40
0.75
 40
0.75
 40
0.75
 40
0.8125
 40
0.8125
 40
0.8125
 40
0.8125
 40
0.875
 40
0.875
 40
0.875
 40
0.875
 40
0.9375
 40
0.9375
 40
0.9375
 40
0.9375
 40
1.0
 40
1.0
 40
1.0
 40
1.0
 10
-296.5
 20
116.0333
 30
0.0
 10
-296.5
 20
116.3094
 30
0.0
 10
-296.2761
 20
116.5333
 30
0.0
 10
-296.0
 20
116.5333
 30
0.0
 10
-296.0
 20
116.5333
 30
0.0
 10
-295.7239
 20
116.5333
 30
0.0
 10
-295.5
 20
116.3094
 30
0.0
 10
-295.5
 20
116.0333
 30
0.0
 10
-295.5
 20
116.0333
 30
0.0
 10
-295.5
 20
116.0333
 30
0.0
 10
-291.5
 20
116.0333
 30
0.0
 10
-291.5
 20
116.0333
 30
0.0
 10
-291.5
 20
116.0333
 30
0.0
 10
-291.5
 20
116.3094
 30
0.0
 10
-291.2761
 20
116.5333
 30
0.0
 10
-291.0
 20
116.5333
 30
0.0
 10
-291.0
 20
116.5333
 30
0.0
 10
-290.7239
 20
116.5333
 30
0.0
 10
-290.5
 20
116.3094
 30
0.0
 10
-290.5
 20
116.0333
 30
0.0
 10
-290.5
 20
116.0333
 30
0.0
 10
-290.5
 20
115.7572
 30
0.0
 10
-290.7239
 20
115.5333
 30
0.0
 10
-291.0
 20
115.5333
 30
0.0
 10
-291.0
 20
115.5333
 30
0.0
 10
-291.0
 20
115.5333
 30
0.0
 10
-291.0
 20
106.5333
 30
0.0
 10
-291.0
 20
106.5333
 30
0.0
 10
-291.0
 20
106.5333
 30
0.0
 10
-290.7239
 20
106.5333
 30
0.0
 10
-290.5
 20
106.3094
 30
0.0
 10
-290.5
 20
106.0333
 30
0.0
 10
-290.5
 20
106.0333
 30
0.0
 10
-290.5
 20
105.7572
 30
0.0
 10
-290.7239
 20
105.5333
 30
0.0
 10
-291.0
 20
105.5333
 30
0.0
 10
-291.0
 20
105.5333
 30
0.0
 10
-291.2761
 20
105.5333
 30
0.0
 10
-291.5
 20
105.7572
 30
0.0
 10
-291.5
 20
106.0333
 30
0.0
 10
-291.5
 20
106.0333
 30
0.0
 10
-291.5
 20
106.0333
 30
0.0
 10
-295.5
 20
106.0333
 30
0.0
 10
-295.5
 20
106.0333
 30
0.0
 10
-295.5
 20
106.0333
 30
0.0
 10
-295.5
 20
105.7572
 30
0.0
 10
-295.7239
 20
105.5333
 30
0.0
 10
-296.0
 20
105.5333
 30
0.0
 10
-296.0
 20
105.5333
 30
0.0
 10
-296.2761
 20
105.5333
 30
0.0
 10
-296.5
 20
105.7572
 30
0.0
 10
-296.5
 20
106.0333
 30
0.0
 10
-296.5
 20
106.0333
 30
0.0
 10
-296.5
 20
106.3094
 30
0.0
 10
-296.2761
 20
106.5333
 30
0.0
 10
-296.0
 20
106.5333
 30
0.0
 10
-296.0
 20
106.5333
 30
0.0
 10
-296.0
 20
106.5333
 30
0.0
 10
-296.0
 20
115.5333
 30
0.0
 10
-296.0
 20
115.5333
 30
0.0
 10
-296.0
 20
115.5333
 30
0.0
 10
-296.2761
 20
115.5333
 30
0.0
 10
-296.5
 20
115.7572
 30
0.0
 10
-296.5
 20
116.0333
 30
0.0
  0
SPLINE
  5
71
330
1F
100
AcDbEntity
  8
Layer 1
 62
   250
370
     9
100
AcDbSpline
210
0.0
220
0.0
230
1.0
 70
    11
 71
     3
 72
   704
 73
   700
 74
     0
 42
0.0000000001
 43
0.0000000001
 40
0.0
 40
0.0
 40
0.0
 40
0.0
 40
0.0057142857142857
 40
0.0057142857142857
 40
0.0057142857142857
 40
0.0057142857142857
 40
0.0114285714285714
 40
0.0114285714285714
 40
0.0114285714285714
 40
0.0114285714285714
 40
0.0171428571428571
 40
0.0171428571428571
 40
0.0171428571428571
 40
0.0171428571428571
 40
0.0228571428571429
 40
0.0228571428571429
 40
0.0228571428571429
 40
0.0228571428571429
 40
0.0285714285714286
 40
0.0285714285714286
 40
0.0285714285714286
 40
0.0285714285714286
 40
0.0342857142857143
 40
0.0342857142857143
 40
0.0342857142857143
 40
0.0342857142857143
 40
0.04
 40
0.04
 40
0.04
 40
0.04
 40
0.0457142857142857
 40
0.0457142857142857
 40
0.0457142857142857
 40
0.0457142857142857
 40
0.0514285714285714
 40
0.0514285714285714
 40
0.0514285714285714
 40
0.0514285714285714
 40
0.0571428571428571
 40
0.0571428571428571
 40
0.0571428571428571
 40
0.0571428571428571
 40
0.0628571428571429
 40
0.0628571428571429
 40
0.0628571428571429
 40
0.0628571428571429
 40
0.0685714285714286
 40
0.0685714285714286
 40
0.0685714285714286
 40
0.0685714285714286
 40
0.0742857142857143
 40
0.0742857142857143
 40
0.0742857142857143
 40
0.0742857142857143
 40
0.08
 40
0.08
 40
0.08
 40
0.08
 40
0.0857142857142857
 40
0.0857142857142857
 40
0.0857142857142857
 40
0.0857142857142857
 40
0.0914285714285714
 40
0.0914285714285714
 40
0.0914285714285714
 40
0.0914285714285714
 40
0.0971428571428571
 40
0.0971428571428571
 40
0.0971428571428571
 40
0.0971428571428571
 40
0.1028571428571429
 40
0.1028571428571429
 40
0.1028571428571429
 40
0.1028571428571429
 40
0.1085714285714286
 40
0.1085714285714286
 40
0.1085714285714286
 40
0.1085714285714286
 40
0.1142857142857143
 40
0.1142857142857143
 40
0.1142857142857143
 40
0.1142857142857143
 40
0.12
 40
0.12
 40
0.12
 40
0.12
 40
0.1257142857142857
 40
0.1257142857142857
 40
0.1257142857142857
 40
0.1257142857142857
 40
0.1314285714285715
 40
0.1314285714285715
 40
0.1314285714285715
 40
0.1314285714285715
 40
0.1371428571428572
 40
0.1371428571428572
 40
0.1371428571428572
 40
0.1371428571428572
 40
0.1428571428571429
 40
0.1428571428571429
 40
0.1428571428571429
 40
0.1428571428571429
 40
0.1485714285714286
 40
0.1485714285714286
 40
0.1485714285714286
 40
0.1485714285714286
 40
0.1542857142857144
 40
0.1542857142857144
 40
0.1542857142857144
 40
0.1542857142857144
 40
0.1600000000000001
 40
0.1600000000000001
 40
0.1600000000000001
 40
0.1600000000000001
 40
0.1657142857142858
 40
0.1657142857142858
 40
0.1657142857142858
 40
0.1657142857142858
 40
0.1714285714285715
 40
0.1714285714285715
 40
0.1714285714285715
 40
0.1714285714285715
 40
0.1771428571428573
 40
0.1771428571428573
 40
0.1771428571428573
 40
0.1771428571428573
 40
0.182857142857143
 40
0.182857142857143
 40
0.182857142857143
 40
0.182857142857143
 40
0.1885714285714287
 40
0.1885714285714287
 40
0.1885714285714287
 40
0.1885714285714287
 40
0.1942857142857145
 40
0.1942857142857145
 40
0.1942857142857145
 40
0.1942857142857145
 40
0.2000000000000002
 40
0.2000000000000002
 40
0.2000000000000002
 40
0.2000000000000002
 40
0.2057142857142859
 40
0.2057142857142859
 40
0.2057142857142859
 40
0.2057142857142859
 40
0.2114285714285716
 40
0.2114285714285716
 40
0.2114285714285716
 40
0.2114285714285716
 40
0.2171428571428574
 40
0.2171428571428574
 40
0.2171428571428574
 40
0.2171428571428574
 40
0.2228571428571431
 40
0.2228571428571431
 40
0.2228571428571431
 40
0.2228571428571431
 40
0.2285714285714288
 40
0.2285714285714288
 40
0.2285714285714288
 40
0.2285714285714288
 40
0.2342857142857145
 40
0.2342857142857145
 40
0.2342857142857145
 40
0.2342857142857145
 40
0.2400000000000003
 40
0.2400000000000003
 40
0.2400000000000003
 40
0.2400000000000003
 40
0.245714285714286
 40
0.245714285714286
 40
0.245714285714286
 40
0.245714285714286
 40
0.2514285714285717
 40
0.2514285714285717
 40
0.2514285714285717
 40
0.2514285714285717
 40
0.2571428571428575
 40
0.2571428571428575
 40
0.2571428571428575
 40
0.2571428571428575
 40
0.2628571428571432
 40
0.2628571428571432
 40
0.2628571428571432
 40
0.2628571428571432
 40
0.2685714285714289
 40
0.2685714285714289
 40
0.2685714285714289
 40
0.2685714285714289
 40
0.2742857142857146
 40
0.2742857142857146
 40
0.2742857142857146
 40
0.2742857142857146
 40
0.2800000000000004
 40
0.2800000000000004
 40
0.2800000000000004
 40
0.2800000000000004
 40
0.2857142857142861
 40
0.2857142857142861
 40
0.2857142857142861
 40
0.2857142857142861
 40
0.2914285714285718
 40
0.2914285714285718
 40
0.2914285714285718
 40
0.2914285714285718
 40
0.2971428571428575
 40
0.2971428571428575
 40
0.2971428571428575
 40
0.2971428571428575
 40
0.3028571428571433
 40
0.3028571428571433
 40
0.3028571428571433
 40
0.3028571428571433
 40
0.308571428571429
 40
0.308571428571429
 40
0.308571428571429
 40
0.308571428571429
 40
0.3142857142857147
 40
0.3142857142857147
 40
0.3142857142857147
 40
0.3142857142857147
 40
0.3200000000000005
 40
0.3200000000000005
 40
0.3200000000000005
 40
0.3200000000000005
 40
0.3257142857142862
 40
0.3257142857142862
 40
0.3257142857142862
 40
0.3257142857142862
 40
0.3314285714285719
 40
0.3314285714285719
 40
0.3314285714285719
 40
0.3314285714285719
 40
0.3371428571428576
 40
0.3371428571428576
 40
0.3371428571428576
 40
0.3371428571428576
 40
0.3428571428571434
 40
0.3428571428571434
 40
0.3428571428571434
 40
0.3428571428571434
 40
0.3485714285714291
 40
0.3485714285714291
 40
0.3485714285714291
 40
0.3485714285714291
 40
0.3542857142857148
 40
0.3542857142857148
 40
0.3542857142857148
 40
0.3542857142857148
 40
0.3600000000000005
 40
0.3600000000000005
 40
0.3600000000000005
 40
0.3600000000000005
 40
0.3657142857142863
 40
0.3657142857142863
 40
0.3657142857142863
 40
0.3657142857142863
 40
0.371428571428572
 40
0.371428571428572
 40
0.371428571428572
 40
0.371428571428572
 40
0.3771428571428577
 40
0.3771428571428577
 40
0.3771428571428577
 40
0.3771428571428577
 40
0.3828571428571435
 40
0.3828571428571435
 40
0.3828571428571435
 40
0.3828571428571435
 40
0.3885714285714292
 40
0.3885714285714292
 40
0.3885714285714292
 40
0.3885714285714292
 40
0.3942857142857149
 40
0.3942857142857149
 40
0.3942857142857149
 40
0.3942857142857149
 40
0.4000000000000006
 40
0.4000000000000006
 40
0.4000000000000006
 40
0.4000000000000006
 40
0.4057142857142864
 40
0.4057142857142864
 40
0.4057142857142864
 40
0.4057142857142864
 40
0.4114285714285721
 40
0.4114285714285721
 40
0.4114285714285721
 40
0.4114285714285721
 40
0.4171428571428578
 40
0.4171428571428578
 40
0.4171428571428578
 40
0.4171428571428578
 40
0.4228571428571435
 40
0.4228571428571435
 40
0.4228571428571435
 40
0.4228571428571435
 40
0.4285714285714293
 40
0.4285714285714293
 40
0.4285714285714293
 40
0.4285714285714293
 40
0.434285714285715
 40
0.434285714285715
 40
0.434285714285715
 40
0.434285714285715
 40
0.4400000000000007
 40
0.4400000000000007
 40
0.4400000000000007
 40
0.4400000000000007
 40
0.4457142857142865
 40
0.4457142857142865
 40
0.4457142857142865
 40
0.4457142857142865
 40
0.4514285714285722
 40
0.4514285714285722
 40
0.4514285714285722
 40
0.4514285714285722
 40
0.4571428571428579
 40
0.4571428571428579
 40
0.4571428571428579
 40
0.4571428571428579
 40
0.4628571428571436
 40
0.4628571428571436
 40
0.4628571428571436
 40
0.4628571428571436
 40
0.4685714285714294
 40
0.4685714285714294
 40
0.4685714285714294
 40
0.4685714285714294
 40
0.4742857142857151
 40
0.4742857142857151
 40
0.4742857142857151
 40
0.4742857142857151
 40
0.4800000000000008
 40
0.4800000000000008
 40
0.4800000000000008
 40
0.4800000000000008
 40
0.4857142857142865
 40
0.4857142857142865
 40
0.4857142857142865
 40
0.4857142857142865
 40
0.4914285714285723
 40
0.4914285714285723
 40
0.4914285714285723
 40
0.4914285714285723
 40
0.497142857142858
 40
0.497142857142858
 40
0.497142857142858
 40
0.497142857142858
 40
0.5028571428571437
 40
0.5028571428571437
 40
0.5028571428571437
 40
0.5028571428571437
 40
0.5085714285714293
 40
0.5085714285714293
 40
0.5085714285714293
 40
0.5085714285714293
 40
0.514285714285715
 40
0.514285714285715
 40
0.514285714285715
 40
0.514285714285715
 40
0.5200000000000007
 40
0.5200000000000007
 40
0.5200000000000007
 40
0.5200000000000007
 40
0.5257142857142864
 40
0.5257142857142864
 40
0.5257142857142864
 40
0.5257142857142864
 40
0.531428571428572
 40
0.531428571428572
 40
0.531428571428572
 40
0.531428571428572
 40
0.5371428571428577
 40
0.5371428571428577
 40
0.5371428571428577
 40
0.5371428571428577
 40
0.5428571428571434
 40
0.5428571428571434
 40
0.5428571428571434
 40
0.5428571428571434
 40
0.548571428571429
 40
0.548571428571429
 40
0.548571428571429
 40
0.548571428571429
 40
0.5542857142857147
 40
0.5542857142857147
 40
0.5542857142857147
 40
0.5542857142857147
 40
0.5600000000000004
 40
0.5600000000000004
 40
0.5600000000000004
 40
0.5600000000000004
 40
0.5657142857142861
 40
0.5657142857142861
 40
0.5657142857142861
 40
0.5657142857142861
 40
0.5714285714285717
 40
0.5714285714285717
 40
0.5714285714285717
 40
0.5714285714285717
 40
0.5771428571428574
 40
0.5771428571428574
 40
0.5771428571428574
 40
0.5771428571428574
 40
0.5828571428571431
 40
0.5828571428571431
 40
0.5828571428571431
 40
0.5828571428571431
 40
0.5885714285714287
 40
0.5885714285714287
 40
0.5885714285714287
 40
0.5885714285714287
 40
0.5942857142857144
 40
0.5942857142857144
 40
0.5942857142857144
 40
0.5942857142857144
 40
0.6000000000000001
 40
0.6000000000000001
 40
0.6000000000000001
 40
0.6000000000000001
 40
0.6057142857142858
 40
0.6057142857142858
 40
0.6057142857142858
 40
0.6057142857142858
 40
0.6114285714285714
 40
0.6114285714285714
 40
0.6114285714285714
 40
0.6114285714285714
 40
0.6171428571428571
 40
0.6171428571428571
 40
0.6171428571428571
 40
0.6171428571428571
 40
0.6228571428571428
 40
0.6228571428571428
 40
0.6228571428571428
 40
0.6228571428571428
 40
0.6285714285714284
 40
0.6285714285714284
 40
0.6285714285714284
 40
0.6285714285714284
 40
0.6342857142857141
 40
0.6342857142857141
 40
0.6342857142857141
 40
0.6342857142857141
 40
0.6399999999999998
 40
0.6399999999999998
 40
0.6399999999999998
 40
0.6399999999999998
 40
0.6457142857142855
 40
0.6457142857142855
 40
0.6457142857142855
 40
0.6457142857142855
 40
0.6514285714285711
 40
0.6514285714285711
 40
0.6514285714285711
 40
0.6514285714285711
 40
0.6571428571428568
 40
0.6571428571428568
 40
0.6571428571428568
 40
0.6571428571428568
 40
0.6628571428571425
 40
0.6628571428571425
 40
0.6628571428571425
 40
0.6628571428571425
 40
0.6685714285714282
 40
0.6685714285714282
 40
0.6685714285714282
 40
0.6685714285714282
 40
0.6742857142857138
 40
0.6742857142857138
 40
0.6742857142857138
 40
0.6742857142857138
 40
0.6799999999999995
 40
0.6799999999999995
 40
0.6799999999999995
 40
0.6799999999999995
 40
0.6857142857142852
 40
0.6857142857142852
 40
0.6857142857142852
 40
0.6857142857142852
 40
0.6914285714285708
 40
0.6914285714285708
 40
0.6914285714285708
 40
0.6914285714285708
 40
0.6971428571428565
 40
0.6971428571428565
 40
0.6971428571428565
 40
0.6971428571428565
 40
0.7028571428571422
 40
0.7028571428571422
 40
0.7028571428571422
 40
0.7028571428571422
 40
0.7085714285714279
 40
0.7085714285714279
 40
0.7085714285714279
 40
0.7085714285714279
 40
0.7142857142857135
 40
0.7142857142857135
 40
0.7142857142857135
 40
0.7142857142857135
 40
0.7199999999999992
 40
0.7199999999999992
 40
0.7199999999999992
 40
0.7199999999999992
 40
0.7257142857142849
 40
0.7257142857142849
 40
0.7257142857142849
 40
0.7257142857142849
 40
0.7314285714285705
 40
0.7314285714285705
 40
0.7314285714285705
 40
0.7314285714285705
 40
0.7371428571428562
 40
0.7371428571428562
 40
0.7371428571428562
 40
0.7371428571428562
 40
0.7428571428571419
 40
0.7428571428571419
 40
0.7428571428571419
 40
0.7428571428571419
 40
0.7485714285714276
 40
0.7485714285714276
 40
0.7485714285714276
 40
0.7485714285714276
 40
0.7542857142857132
 40
0.7542857142857132
 40
0.7542857142857132
 40
0.7542857142857132
 40
0.7599999999999989
 40
0.7599999999999989
 40
0.7599999999999989
 40
0.7599999999999989
 40
0.7657142857142846
 40
0.7657142857142846
 40
0.7657142857142846
 40
0.7657142857142846
 40
0.7714285714285702
 40
0.7714285714285702
 40
0.7714285714285702
 40
0.7714285714285702
 40
0.7771428571428559
 40
0.7771428571428559
 40
0.7771428571428559
 40
0.7771428571428559
 40
0.7828571428571416
 40
0.7828571428571416
 40
0.7828571428571416
 40
0.7828571428571416
 40
0.7885714285714273
 40
0.7885714285714273
 40
0.7885714285714273
 40
0.7885714285714273
 40
0.7942857142857129
 40
0.7942857142857129
 40
0.7942857142857129
 40
0.7942857142857129
 40
0.7999999999999986
 40
0.7999999999999986
 40
0.7999999999999986
 40
0.7999999999999986
 40
0.8057142857142843
 40
0.8057142857142843
 40
0.8057142857142843
 40
0.8057142857142843
 40
0.81142857142857
 40
0.81142857142857
 40
0.81142857142857
 40
0.81142857142857
 40
0.8171428571428556
 40
0.8171428571428556
 40
0.8171428571428556
 40
0.8171428571428556
 40
0.8228571428571413
 40
0.8228571428571413
 40
0.8228571428571413
 40
0.8228571428571413
 40
0.828571428571427
 40
0.828571428571427
 40
0.828571428571427
 40
0.828571428571427
 40
0.8342857142857126
 40
0.8342857142857126
 40
0.8342857142857126
 40
0.8342857142857126
 40
0.8399999999999983
 40
0.8399999999999983
 40
0.8399999999999983
 40
0.8399999999999983
 40
0.845714285714284
 40
0.845714285714284
 40
0.845714285714284
 40
0.845714285714284
 40
0.8514285714285696
 40
0.8514285714285696
 40
0.8514285714285696
 40
0.8514285714285696
 40
0.8571428571428553
 40
0.8571428571428553
 40
0.8571428571428553
 40
0.8571428571428553
 40
0.862857142857141
 40
0.862857142857141
 40
0.862857142857141
 40
0.862857142857141
 40
0.8685714285714267
 40
0.8685714285714267
 40
0.8685714285714267
 40
0.8685714285714267
 40
0.8742857142857123
 40
0.8742857142857123
 40
0.8742857142857123
 40
0.8742857142857123
 40
0.879999999999998
 40
0.879999999999998
 40
0.879999999999998
 40
0.879999999999998
 40
0.8857142857142837
 40
0.8857142857142837
 40
0.8857142857142837
 40
0.8857142857142837
 40
0.8914285714285693
 40
0.8914285714285693
 40
0.8914285714285693
 40
0.8914285714285693
 40
0.897142857142855
 40
0.897142857142855
 40
0.897142857142855
 40
0.897142857142855
 40
0.9028571428571407
 40
0.9028571428571407
 40
0.9028571428571407
 40
0.9028571428571407
 40
0.9085714285714264
 40
0.9085714285714264
 40
0.9085714285714264
 40
0.9085714285714264
 40
0.914285714285712
 40
0.914285714285712
 40
0.914285714285712
 40
0.914285714285712
 40
0.9199999999999977
 40
0.9199999999999977
 40
0.9199999999999977
 40
0.9199999999999977
 40
0.9257142857142834
 40
0.9257142857142834
 40
0.9257142857142834
 40
0.9257142857142834
 40
0.931428571428569
 40
0.931428571428569
 40
0.931428571428569
 40
0.931428571428569
 40
0.9371428571428547
 40
0.9371428571428547
 40
0.9371428571428547
 40
0.9371428571428547
 40
0.9428571428571404
 40
0.9428571428571404
 40
0.9428571428571404
 40
0.9428571428571404
 40
0.9485714285714261
 40
0.9485714285714261
 40
0.9485714285714261
 40
0.9485714285714261
 40
0.9542857142857117
 40
0.9542857142857117
 40
0.9542857142857117
 40
0.9542857142857117
 40
0.9599999999999974
 40
0.9599999999999974
 40
0.9599999999999974
 40
0.9599999999999974
 40
0.9657142857142831
 40
0.9657142857142831
 40
0.9657142857142831
 40
0.9657142857142831
 40
0.9714285714285688
 40
0.9714285714285688
 40
0.9714285714285688
 40
0.9714285714285688
 40
0.9771428571428544
 40
0.9771428571428544
 40
0.9771428571428544
 40
0.9771428571428544
 40
0.9828571428571401
 40
0.9828571428571401
 40
0.9828571428571401
 40
0.9828571428571401
 40
0.9885714285714258
 40
0.9885714285714258
 40
0.9885714285714258
 40
0.9885714285714258
 40
0.9942857142857114
 40
0.9942857142857114
 40
0.9942857142857114
 40
0.9942857142857114
 40
1.0
 40
1.0
 40
1.0
 40
1.0
 10
-299.0
 20
149.0333
 30
0.0
 10
-299.0
 20
149.0333
 30
0.0
 10
1.0
 20
149.0333
 30
0.0
 10
1.0
 20
149.0333
 30
0.0
 10
1.0
 20
149.0333
 30
0.0
 10
1.0
 20
149.0333
 30
0.0
 10
1.0
 20
-134.0
 30
0.0
 10
1.0
 20
-134.0
 30
0.0
 10
1.0
 20
-134.0
 30
0.0
 10
1.0
 20
-134.0
 30
0.0
 10
1.0
 20
-137.0
 30
0.0
 10
1.0
 20
-137.0
 30
0.0
 10
1.0
 20
-137.0
 30
0.0
 10
1.0
 20
-137.0
 30
0.0
 10
-9.0
 20
-137.0
 30
0.0
 10
-9.0
 20
-137.0
 30
0.0
 10
-9.0
 20
-137.0
 30
0.0
 10
-9.0
 20
-137.0
 30
0.0
 10
-9.3204
 20
-137.0
 30
0.0
 10
-9.3204
 20
-137.0
 30
0.0
 10
-9.3204
 20
-137.0
 30
0.0
 10
-9.3204
 20
-137.0
 30
0.0
 10
-13.5
 20
-137.0
 30
0.0
 10
-13.5
 20
-137.0
 30
0.0
 10
-13.5
 20
-137.0
 30
0.0
 10
-13.5
 20
-136.7239
 30
0.0
 10
-13.7239
 20
-136.5
 30
0.0
 10
-14.0
 20
-136.5
 30
0.0
 10
-14.0
 20
-136.5
 30
0.0
 10
-14.2761
 20
-136.5
 30
0.0
 10
-14.5
 20
-136.7239
 30
0.0
 10
-14.5
 20
-137.0
 30
0.0
 10
-14.5
 20
-137.0
 30
0.0
 10
-14.5
 20
-137.2761
 30
0.0
 10
-14.2761
 20
-137.5
 30
0.0
 10
-14.0
 20
-137.5
 30
0.0
 10
-14.0
 20
-137.5
 30
0.0
 10
-14.0
 20
-137.5
 30
0.0
 10
-14.0
 20
-141.0
 30
0.0
 10
-14.0
 20
-141.0
 30
0.0
 10
-14.0
 20
-141.0
 30
0.0
 10
-14.0
 20
-141.0
 30
0.0
 10
-24.0
 20
-141.0
 30
0.0
 10
-24.0
 20
-141.0
 30
0.0
 10
-24.0
 20
-141.0
 30
0.0
 10
-24.0
 20
-141.0
 30
0.0
 10
-24.0
 20
-137.5
 30
0.0
 10
-24.0
 20
-137.5
 30
0.0
 10
-24.0
 20
-137.5
 30
0.0
 10
-23.7239
 20
-137.5
 30
0.0
 10
-23.5
 20
-137.2761
 30
0.0
 10
-23.5
 20
-137.0
 30
0.0
 10
-23.5
 20
-137.0
 30
0.0
 10
-23.5
 20
-136.7239
 30
0.0
 10
-23.7239
 20
-136.5
 30
0.0
 10
-24.0
 20
-136.5
 30
0.0
 10
-24.0
 20
-136.5
 30
0.0
 10
-24.2761
 20
-136.5
 30
0.0
 10
-24.5
 20
-136.7239
 30
0.0
 10
-24.5
 20
-137.0
 30
0.0
 10
-24.5
 20
-137.0
 30
0.0
 10
-24.5
 20
-137.0
 30
0.0
 10
-29.0
 20
-137.0
 30
0.0
 10
-29.0
 20
-137.0
 30
0.0
 10
-29.0
 20
-137.0
 30
0.0
 10
-29.0
 20
-137.0
 30
0.0
 10
-29.3204
 20
-137.0
 30
0.0
 10
-29.3204
 20
-137.0
 30
0.0
 10
-29.3204
 20
-137.0
 30
0.0
 10
-29.3204
 20
-137.0
 30
0.0
 10
-33.5
 20
-137.0
 30
0.0
 10
-33.5
 20
-137.0
 30
0.0
 10
-33.5
 20
-137.0
 30
0.0
 10
-33.5
 20
-136.7239
 30
0.0
 10
-33.7239
 20
-136.5
 30
0.0
 10
-34.0
 20
-136.5
 30
0.0
 10
-34.0
 20
-136.5
 30
0.0
 10
-34.2761
 20
-136.5
 30
0.0
 10
-34.5
 20
-136.7239
 30
0.0
 10
-34.5
 20
-137.0
 30
0.0
 10
-34.5
 20
-137.0
 30
0.0
 10
-34.5
 20
-137.2761
 30
0.0
 10
-34.2761
 20
-137.5
 30
0.0
 10
-34.0
 20
-137.5
 30
0.0
 10
-34.0
 20
-137.5
 30
0.0
 10
-34.0
 20
-137.5
 30
0.0
 10
-34.0
 20
-141.0
 30
0.0
 10
-34.0
 20
-141.0
 30
0.0
 10
-34.0
 20
-141.0
 30
0.0
 10
-34.0
 20
-141.0
 30
0.0
 10
-44.0
 20
-141.0
 30
0.0
 10
-44.0
 20
-141.0
 30
0.0
 10
-44.0
 20
-141.0
 30
0.0
 10
-44.0
 20
-141.0
 30
0.0
 10
-44.0
 20
-137.5
 30
0.0
 10
-44.0
 20
-137.5
 30
0.0
 10
-44.0
 20
-137.5
 30
0.0
 10
-43.7239
 20
-137.5
 30
0.0
 10
-43.5
 20
-137.2761
 30
0.0
 10
-43.5
 20
-137.0
 30
0.0
 10
-43.5
 20
-137.0
 30
0.0
 10
-43.5
 20
-136.7239
 30
0.0
 10
-43.7239
 20
-136.5
 30
0.0
 10
-44.0
 20
-136.5
 30
0.0
 10
-44.0
 20
-136.5
 30
0.0
 10
-44.2761
 20
-136.5
 30
0.0
 10
-44.5
 20
-136.7239
 30
0.0
 10
-44.5
 20
-137.0
 30
0.0
 10
-44.5
 20
-137.0
 30
0.0
 10
-44.5
 20
-137.0
 30
0.0
 10
-49.0
 20
-137.0
 30
0.0
 10
-49.0
 20
-137.0
 30
0.0
 10
-49.0
 20
-137.0
 30
0.0
 10
-49.0
 20
-137.0
 30
0.0
 10
-49.3204
 20
-137.0
 30
0.0
 10
-49.3204
 20
-137.0
 30
0.0
 10
-49.3204
 20
-137.0
 30
0.0
 10
-49.3204
 20
-137.0
 30
0.0
 10
-53.5
 20
-137.0
 30
0.0
 10
-53.5
 20
-137.0
 30
0.0
 10
-53.5
 20
-137.0
 30
0.0
 10
-53.5
 20
-136.7239
 30
0.0
 10
-53.7239
 20
-136.5
 30
0.0
 10
-54.0
 20
-136.5
 30
0.0
 10
-54.0
 20
-136.5
 30
0.0
 10
-54.2761
 20
-136.5
 30
0.0
 10
-54.5
 20
-136.7239
 30
0.0
 10
-54.5
 20
-137.0
 30
0.0
 10
-54.5
 20
-137.0
 30
0.0
 10
-54.5
 20
-137.2761
 30
0.0
 10
-54.2761
 20
-137.5
 30
0.0
 10
-54.0
 20
-137.5
 30
0.0
 10
-54.0
 20
-137.5
 30
0.0
 10
-54.0
 20
-137.5
 30
0.0
 10
-54.0
 20
-141.0
 30
0.0
 10
-54.0
 20
-141.0
 30
0.0
 10
-54.0
 20
-141.0
 30
0.0
 10
-54.0
 20
-141.0
 30
0.0
 10
-64.0
 20
-141.0
 30
0.0
 10
-64.0
 20
-141.0
 30
0.0
 10
-64.0
 20
-141.0
 30
0.0
 10
-64.0
 20
-141.0
 30
0.0
 10
-64.0
 20
-137.5
 30
0.0
 10
-64.0
 20
-137.5
 30
0.0
 10
-64.0
 20
-137.5
 30
0.0
 10
-63.7239
 20
-137.5
 30
0.0
 10
-63.5
 20
-137.2761
 30
0.0
 10
-63.5
 20
-137.0
 30
0.0
 10
-63.5
 20
-137.0
 30
0.0
 10
-63.5
 20
-136.7239
 30
0.0
 10
-63.7239
 20
-136.5
 30
0.0
 10
-64.0
 20
-136.5
 30
0.0
 10
-64.0
 20
-136.5
 30
0.0
 10
-64.2761
 20
-136.5
 30
0.0
 10
-64.5
 20
-136.7239
 30
0.0
 10
-64.5
 20
-137.0
 30
0.0
 10
-64.5
 20
-137.0
 30
0.0
 10
-64.5
 20
-137.0
 30
0.0
 10
-69.0
 20
-137.0
 30
0.0
 10
-69.0
 20
-137.0
 30
0.0
 10
-69.0
 20
-137.0
 30
0.0
 10
-69.0
 20
-137.0
 30
0.0
 10
-69.3204
 20
-137.0
 30
0.0
 10
-69.3204
 20
-137.0
 30
0.0
 10
-69.3204
 20
-137.0
 30
0.0
 10
-69.3204
 20
-137.0
 30
0.0
 10
-73.5
 20
-137.0
 30
0.0
 10
-73.5
 20
-137.0
 30
0.0
 10
-73.5
 20
-137.0
 30
0.0
 10
-73.5
 20
-136.7239
 30
0.0
 10
-73.7239
 20
-136.5
 30
0.0
 10
-74.0
 20
-136.5
 30
0.0
 10
-74.0
 20
-136.5
 30
0.0
 10
-74.2761
 20
-136.5
 30
0.0
 10
-74.5
 20
-136.7239
 30
0.0
 10
-74.5
 20
-137.0
 30
0.0
 10
-74.5
 20
-137.0
 30
0.0
 10
-74.5
 20
-137.2761
 30
0.0
 10
-74.2761
 20
-137.5
 30
0.0
 10
-74.0
 20
-137.5
 30
0.0
 10
-74.0
 20
-137.5
 30
0.0
 10
-74.0
 20
-137.5
 30
0.0
 10
-74.0
 20
-141.0
 30
0.0
 10
-74.0
 20
-141.0
 30
0.0
 10
-74.0
 20
-141.0
 30
0.0
 10
-74.0
 20
-141.0
 30
0.0
 10
-84.0
 20
-141.0
 30
0.0
 10
-84.0
 20
-141.0
 30
0.0
 10
-84.0
 20
-141.0
 30
0.0
 10
-84.0
 20
-141.0
 30
0.0
 10
-84.0
 20
-137.5
 30
0.0
 10
-84.0
 20
-137.5
 30
0.0
 10
-84.0
 20
-137.5
 30
0.0
 10
-83.7239
 20
-137.5
 30
0.0
 10
-83.5
 20
-137.2761
 30
0.0
 10
-83.5
 20
-137.0
 30
0.0
 10
-83.5
 20
-137.0
 30
0.0
 10
-83.5
 20
-136.7239
 30
0.0
 10
-83.7239
 20
-136.5
 30
0.0
 10
-84.0
 20
-136.5
 30
0.0
 10
-84.0
 20
-136.5
 30
0.0
 10
-84.2761
 20
-136.5
 30
0.0
 10
-84.5
 20
-136.7239
 30
0.0
 10
-84.5
 20
-137.0
 30
0.0
 10
-84.5
 20
-137.0
 30
0.0
 10
-84.5
 20
-137.0
 30
0.0
 10
-89.0
 20
-137.0
 30
0.0
 10
-89.0
 20
-137.0
 30
0.0
 10
-89.0
 20
-137.0
 30
0.0
 10
-89.0
 20
-137.0
 30
0.0
 10
-89.3204
 20
-137.0
 30
0.0
 10
-89.3204
 20
-137.0
 30
0.0
 10
-89.3204
 20
-137.0
 30
0.0
 10
-89.3204
 20
-137.0
 30
0.0
 10
-93.5
 20
-137.0
 30
0.0
 10
-93.5
 20
-137.0
 30
0.0
 10
-93.5
 20
-137.0
 30
0.0
 10
-93.5
 20
-136.7239
 30
0.0
 10
-93.7239
 20
-136.5
 30
0.0
 10
-94.0
 20
-136.5
 30
0.0
 10
-94.0
 20
-136.5
 30
0.0
 10
-94.2761
 20
-136.5
 30
0.0
 10
-94.5
 20
-136.7239
 30
0.0
 10
-94.5
 20
-137.0
 30
0.0
 10
-94.5
 20
-137.0
 30
0.0
 10
-94.5
 20
-137.2761
 30
0.0
 10
-94.2761
 20
-137.5
 30
0.0
 10
-94.0
 20
-137.5
 30
0.0
 10
-94.0
 20
-137.5
 30
0.0
 10
-94.0
 20
-137.5
 30
0.0
 10
-94.0
 20
-141.0
 30
0.0
 10
-94.0
 20
-141.0
 30
0.0
 10
-94.0
 20
-141.0
 30
0.0
 10
-94.0
 20
-141.0
 30
0.0
 10
-104.0
 20
-141.0
 30
0.0
 10
-104.0
 20
-141.0
 30
0.0
 10
-104.0
 20
-141.0
 30
0.0
 10
-104.0
 20
-141.0
 30
0.0
 10
-104.0
 20
-137.5
 30
0.0
 10
-104.0
 20
-137.5
 30
0.0
 10
-104.0
 20
-137.5
 30
0.0
 10
-103.7239
 20
-137.5
 30
0.0
 10
-103.5
 20
-137.2761
 30
0.0
 10
-103.5
 20
-137.0
 30
0.0
 10
-103.5
 20
-137.0
 30
0.0
 10
-103.5
 20
-136.7239
 30
0.0
 10
-103.7239
 20
-136.5
 30
0.0
 10
-104.0
 20
-136.5
 30
0.0
 10
-104.0
 20
-136.5
 30
0.0
 10
-104.2761
 20
-136.5
 30
0.0
 10
-104.5
 20
-136.7239
 30
0.0
 10
-104.5
 20
-137.0
 30
0.0
 10
-104.5
 20
-137.0
 30
0.0
 10
-104.5
 20
-137.0
 30
0.0
 10
-109.0
 20
-137.0
 30
0.0
 10
-109.0
 20
-137.0
 30
0.0
 10
-109.0
 20
-137.0
 30
0.0
 10
-109.0
 20
-137.0
 30
0.0
 10
-109.3204
 20
-137.0
 30
0.0
 10
-109.3204
 20
-137.0
 30
0.0
 10
-109.3204
 20
-137.0
 30
0.0
 10
-109.3204
 20
-137.0
 30
0.0
 10
-113.5
 20
-137.0
 30
0.0
 10
-113.5
 20
-137.0
 30
0.0
 10
-113.5
 20
-137.0
 30
0.0
 10
-113.5
 20
-136.7239
 30
0.0
 10
-113.7239
 20
-136.5
 30
0.0
 10
-114.0
 20
-136.5
 30
0.0
 10
-114.0
 20
-136.5
 30
0.0
 10
-114.2761
 20
-136.5
 30
0.0
 10
-114.5
 20
-136.7239
 30
0.0
 10
-114.5
 20
-137.0
 30
0.0
 10
-114.5
 20
-137.0
 30
0.0
 10
-114.5
 20
-137.2761
 30
0.0
 10
-114.2761
 20
-137.5
 30
0.0
 10
-114.0
 20
-137.5
 30
0.0
 10
-114.0
 20
-137.5
 30
0.0
 10
-114.0
 20
-137.5
 30
0.0
 10
-114.0
 20
-141.0
 30
0.0
 10
-114.0
 20
-141.0
 30
0.0
 10
-114.0
 20
-141.0
 30
0.0
 10
-114.0
 20
-141.0
 30
0.0
 10
-124.0
 20
-141.0
 30
0.0
 10
-124.0
 20
-141.0
 30
0.0
 10
-124.0
 20
-141.0
 30
0.0
 10
-124.0
 20
-141.0
 30
0.0
 10
-124.0
 20
-137.5
 30
0.0
 10
-124.0
 20
-137.5
 30
0.0
 10
-124.0
 20
-137.5
 30
0.0
 10
-123.7239
 20
-137.5
 30
0.0
 10
-123.5
 20
-137.2761
 30
0.0
 10
-123.5
 20
-137.0
 30
0.0
 10
-123.5
 20
-137.0
 30
0.0
 10
-123.5
 20
-136.7239
 30
0.0
 10
-123.7239
 20
-136.5
 30
0.0
 10
-124.0
 20
-136.5
 30
0.0
 10
-124.0
 20
-136.5
 30
0.0
 10
-124.2761
 20
-136.5
 30
0.0
 10
-124.5
 20
-136.7239
 30
0.0
 10
-124.5
 20
-137.0
 30
0.0
 10
-124.5
 20
-137.0
 30
0.0
 10
-124.5
 20
-137.0
 30
0.0
 10
-129.0
 20
-137.0
 30
0.0
 10
-129.0
 20
-137.0
 30
0.0
 10
-129.0
 20
-137.0
 30
0.0
 10
-129.0
 20
-137.0
 30
0.0
 10
-129.3204
 20
-137.0
 30
0.0
 10
-129.3204
 20
-137.0
 30
0.0
 10
-129.3204
 20
-137.0
 30
0.0
 10
-129.3204
 20
-137.0
 30
0.0
 10
-133.5
 20
-137.0
 30
0.0
 10
-133.5
 20
-137.0
 30
0.0
 10
-133.5
 20
-137.0
 30
0.0
 10
-133.5
 20
-136.7239
 30
0.0
 10
-133.7239
 20
-136.5
 30
0.0
 10
-134.0
 20
-136.5
 30
0.0
 10
-134.0
 20
-136.5
 30
0.0
 10
-134.2761
 20
-136.5
 30
0.0
 10
-134.5
 20
-136.7239
 30
0.0
 10
-134.5
 20
-137.0
 30
0.0
 10
-134.5
 20
-137.0
 30
0.0
 10
-134.5
 20
-137.2761
 30
0.0
 10
-134.2761
 20
-137.5
 30
0.0
 10
-134.0
 20
-137.5
 30
0.0
 10
-134.0
 20
-137.5
 30
0.0
 10
-134.0
 20
-137.5
 30
0.0
 10
-134.0
 20
-141.0
 30
0.0
 10
-134.0
 20
-141.0
 30
0.0
 10
-134.0
 20
-141.0
 30
0.0
 10
-134.0
 20
-141.0
 30
0.0
 10
-144.0
 20
-141.0
 30
0.0
 10
-144.0
 20
-141.0
 30
0.0
 10
-144.0
 20
-141.0
 30
0.0
 10
-144.0
 20
-141.0
 30
0.0
 10
-144.0
 20
-137.5
 30
0.0
 10
-144.0
 20
-137.5
 30
0.0
 10
-144.0
 20
-137.5
 30
0.0
 10
-143.7239
 20
-137.5
 30
0.0
 10
-143.5
 20
-137.2761
 30
0.0
 10
-143.5
 20
-137.0
 30
0.0
 10
-143.5
 20
-137.0
 30
0.0
 10
-143.5
 20
-136.7239
 30
0.0
 10
-143.7239
 20
-136.5
 30
0.0
 10
-144.0
 20
-136.5
 30
0.0
 10
-144.0
 20
-136.5
 30
0.0
 10
-144.2761
 20
-136.5
 30
0.0
 10
-144.5
 20
-136.7239
 30
0.0
 10
-144.5
 20
-137.0
 30
0.0
 10
-144.5
 20
-137.0
 30
0.0
 10
-144.5
 20
-137.0
 30
0.0
 10
-149.0
 20
-137.0
 30
0.0
 10
-149.0
 20
-137.0
 30
0.0
 10
-149.0
 20
-137.0
 30
0.0
 10
-149.0
 20
-137.0
 30
0.0
 10
-149.3204
 20
-137.0
 30
0.0
 10
-149.3204
 20
-137.0
 30
0.0
 10
-149.3204
 20
-137.0
 30
0.0
 10
-149.3204
 20
-137.0
 30
0.0
 10
-153.5
 20
-137.0
 30
0.0
 10
-153.5
 20
-137.0
 30
0.0
 10
-153.5
 20
-137.0
 30
0.0
 10
-153.5
 20
-136.7239
 30
0.0
 10
-153.7239
 20
-136.5
 30
0.0
 10
-154.0
 20
-136.5
 30
0.0
 10
-154.0
 20
-136.5
 30
0.0
 10
-154.2761
 20
-136.5
 30
0.0
 10
-154.5
 20
-136.7239
 30
0.0
 10
-154.5
 20
-137.0
 30
0.0
 10
-154.5
 20
-137.0
 30
0.0
 10
-154.5
 20
-137.2761
 30
0.0
 10
-154.2761
 20
-137.5
 30
0.0
 10
-154.0
 20
-137.5
 30
0.0
 10
-154.0
 20
-137.5
 30
0.0
 10
-154.0
 20
-137.5
 30
0.0
 10
-154.0
 20
-141.0
 30
0.0
 10
-154.0
 20
-141.0
 30
0.0
 10
-154.0
 20
-141.0
 30
0.0
 10
-154.0
 20
-141.0
 30
0.0
 10
-164.0
 20
-141.0
 30
0.0
 10
-164.0
 20
-141.0
 30
0.0
 10
-164.0
 20
-141.0
 30
0.0
 10
-164.0
 20
-141.0
 30
0.0
 10
-164.0
 20
-137.5
 30
0.0
 10
-164.0
 20
-137.5
 30
0.0
 10
-164.0
 20
-137.5
 30
0.0
 10
-163.7239
 20
-137.5
 30
0.0
 10
-163.5
 20
-137.2761
 30
0.0
 10
-163.5
 20
-137.0
 30
0.0
 10
-163.5
 20
-137.0
 30
0.0
 10
-163.5
 20
-136.7239
 30
0.0
 10
-163.7239
 20
-136.5
 30
0.0
 10
-164.0
 20
-136.5
 30
0.0
 10
-164.0
 20
-136.5
 30
0.0
 10
-164.2761
 20
-136.5
 30
0.0
 10
-164.5
 20
-136.7239
 30
0.0
 10
-164.5
 20
-137.0
 30
0.0
 10
-164.5
 20
-137.0
 30
0.0
 10
-164.5
 20
-137.0
 30
0.0
 10
-169.0
 20
-137.0
 30
0.0
 10
-169.0
 20
-137.0
 30
0.0
 10
-169.0
 20
-137.0
 30
0.0
 10
-169.0
 20
-137.0
 30
0.0
 10
-169.3204
 20
-137.0
 30
0.0
 10
-169.3204
 20
-137.0
 30
0.0
 10
-169.3204
 20
-137.0
 30
0.0
 10
-169.3204
 20
-137.0
 30
0.0
 10
-173.5
 20
-137.0
 30
0.0
 10
-173.5
 20
-137.0
 30
0.0
 10
-173.5
 20
-137.0
 30
0.0
 10
-173.5
 20
-136.7239
 30
0.0
 10
-173.7239
 20
-136.5
 30
0.0
 10
-174.0
 20
-136.5
 30
0.0
 10
-174.0
 20
-136.5
 30
0.0
 10
-174.2761
 20
-136.5
 30
0.0
 10
-174.5
 20
-136.7239
 30
0.0
 10
-174.5
 20
-137.0
 30
0.0
 10
-174.5
 20
-137.0
 30
0.0
 10
-174.5
 20
-137.2761
 30
0.0
 10
-174.2761
 20
-137.5
 30
0.0
 10
-174.0
 20
-137.5
 30
0.0
 10
-174.0
 20
-137.5
 30
0.0
 10
-174.0
 20
-137.5
 30
0.0
 10
-174.0
 20
-141.0
 30
0.0
 10
-174.0
 20
-141.0
 30
0.0
 10
-174.0
 20
-141.0
 30
0.0
 10
-174.0
 20
-141.0
 30
0.0
 10
-184.0
 20
-141.0
 30
0.0
 10
-184.0
 20
-141.0
 30
0.0
 10
-184.0
 20
-141.0
 30
0.0
 10
-184.0
 20
-141.0
 30
0.0
 10
-184.0
 20
-137.5
 30
0.0
 10
-184.0
 20
-137.5
 30
0.0
 10
-184.0
 20
-137.5
 30
0.0
 10
-183.7239
 20
-137.5
 30
0.0
 10
-183.5
 20
-137.2761
 30
0.0
 10
-183.5
 20
-137.0
 30
0.0
 10
-183.5
 20
-137.0
 30
0.0
 10
-183.5
 20
-136.7239
 30
0.0
 10
-183.7239
 20
-136.5
 30
0.0
 10
-184.0
 20
-136.5
 30
0.0
 10
-184.0
 20
-136.5
 30
0.0
 10
-184.2761
 20
-136.5
 30
0.0
 10
-184.5
 20
-136.7239
 30
0.0
 10
-184.5
 20
-137.0
 30
0.0
 10
-184.5
 20
-137.0
 30
0.0
 10
-184.5
 20
-137.0
 30
0.0
 10
-189.0
 20
-137.0
 30
0.0
 10
-189.0
 20
-137.0
 30
0.0
 10
-189.0
 20
-137.0
 30
0.0
 10
-189.0
 20
-137.0
 30
0.0
 10
-189.3204
 20
-137.0
 30
0.0
 10
-189.3204
 20
-137.0
 30
0.0
 10
-189.3204
 20
-137.0
 30
0.0
 10
-189.3204
 20
-137.0
 30
0.0
 10
-193.5
 20
-137.0
 30
0.0
 10
-193.5
 20
-137.0
 30
0.0
 10
-193.5
 20
-137.0
 30
0.0
 10
-193.5
 20
-136.7239
 30
0.0
 10
-193.7239
 20
-136.5
 30
0.0
 10
-194.0
 20
-136.5
 30
0.0
 10
-194.0
 20
-136.5
 30
0.0
 10
-194.2761
 20
-136.5
 30
0.0
 10
-194.5
 20
-136.7239
 30
0.0
 10
-194.5
 20
-137.0
 30
0.0
 10
-194.5
 20
-137.0
 30
0.0
 10
-194.5
 20
-137.2761
 30
0.0
 10
-194.2761
 20
-137.5
 30
0.0
 10
-194.0
 20
-137.5
 30
0.0
 10
-194.0
 20
-137.5
 30
0.0
 10
-194.0
 20
-137.5
 30
0.0
 10
-194.0
 20
-141.0
 30
0.0
 10
-194.0
 20
-141.0
 30
0.0
 10
-194.0
 20
-141.0
 30
0.0
 10
-194.0
 20
-141.0
 30
0.0
 10
-204.0
 20
-141.0
 30
0.0
 10
-204.0
 20
-141.0
 30
0.0
 10
-204.0
 20
-141.0
 30
0.0
 10
-204.0
 20
-141.0
 30
0.0
 10
-204.0
 20
-137.5
 30
0.0
 10
-204.0
 20
-137.5
 30
0.0
 10
-204.0
 20
-137.5
 30
0.0
 10
-203.7239
 20
-137.5
 30
0.0
 10
-203.5
 20
-137.2761
 30
0.0
 10
-203.5
 20
-137.0
 30
0.0
 10
-203.5
 20
-137.0
 30
0.0
 10
-203.5
 20
-136.7239
 30
0.0
 10
-203.7239
 20
-136.5
 30
0.0
 10
-204.0
 20
-136.5
 30
0.0
 10
-204.0
 20
-136.5
 30
0.0
 10
-204.2761
 20
-136.5
 30
0.0
 10
-204.5
 20
-136.7239
 30
0.0
 10
-204.5
 20
-137.0
 30
0.0
 10
-204.5
 20
-137.0
 30
0.0
 10
-204.5
 20
-137.0
 30
0.0
 10
-209.0
 20
-137.0
 30
0.0
 10
-209.0
 20
-137.0
 30
0.0
 10
-209.0
 20
-137.0
 30
0.0
 10
-209.0
 20
-137.0
 30
0.0
 10
-209.3204
 20
-137.0
 30
0.0
 10
-209.3204
 20
-137.0
 30
0.0
 10
-209.3204
 20
-137.0
 30
0.0
 10
-209.3204
 20
-137.0
 30
0.0
 10
-213.5
 20
-137.0
 30
0.0
 10
-213.5
 20
-137.0
 30
0.0
 10
-213.5
 20
-137.0
 30
0.0
 10
-213.5
 20
-136.7239
 30
0.0
 10
-213.7239
 20
-136.5
 30
0.0
 10
-214.0
 20
-136.5
 30
0.0
 10
-214.0
 20
-136.5
 30
0.0
 10
-214.2761
 20
-136.5
 30
0.0
 10
-214.5
 20
-136.7239
 30
0.0
 10
-214.5
 20
-137.0
 30
0.0
 10
-214.5
 20
-137.0
 30
0.0
 10
-214.5
 20
-137.2761
 30
0.0
 10
-214.2761
 20
-137.5
 30
0.0
 10
-214.0
 20
-137.5
 30
0.0
 10
-214.0
 20
-137.5
 30
0.0
 10
-214.0
 20
-137.5
 30
0.0
 10
-214.0
 20
-141.0
 30
0.0
 10
-214.0
 20
-141.0
 30
0.0
 10
-214.0
 20
-141.0
 30
0.0
 10
-214.0
 20
-141.0
 30
0.0
 10
-224.0
 20
-141.0
 30
0.0
 10
-224.0
 20
-141.0
 30
0.0
 10
-224.0
 20
-141.0
 30
0.0
 10
-224.0
 20
-141.0
 30
0.0
 10
-224.0
 20
-137.5
 30
0.0
 10
-224.0
 20
-137.5
 30
0.0
 10
-224.0
 20
-137.5
 30
0.0
 10
-223.7239
 20
-137.5
 30
0.0
 10
-223.5
 20
-137.2761
 30
0.0
 10
-223.5
 20
-137.0
 30
0.0
 10
-223.5
 20
-137.0
 30
0.0
 10
-223.5
 20
-136.7239
 30
0.0
 10
-223.7239
 20
-136.5
 30
0.0
 10
-224.0
 20
-136.5
 30
0.0
 10
-224.0
 20
-136.5
 30
0.0
 10
-224.2761
 20
-136.5
 30
0.0
 10
-224.5
 20
-136.7239
 30
0.0
 10
-224.5
 20
-137.0
 30
0.0
 10
-224.5
 20
-137.0
 30
0.0
 10
-224.5
 20
-137.0
 30
0.0
 10
-229.0
 20
-137.0
 30
0.0
 10
-229.0
 20
-137.0
 30
0.0
 10
-229.0
 20
-137.0
 30
0.0
 10
-229.0
 20
-137.0
 30
0.0
 10
-229.3204
 20
-137.0
 30
0.0
 10
-229.3204
 20
-137.0
 30
0.0
 10
-229.3204
 20
-137.0
 30
0.0
 10
-229.3204
 20
-137.0
 30
0.0
 10
-233.5
 20
-137.0
 30
0.0
 10
-233.5
 20
-137.0
 30
0.0
 10
-233.5
 20
-137.0
 30
0.0
 10
-233.5
 20
-136.7239
 30
0.0
 10
-233.7239
 20
-136.5
 30
0.0
 10
-234.0
 20
-136.5
 30
0.0
 10
-234.0
 20
-136.5
 30
0.0
 10
-234.2761
 20
-136.5
 30
0.0
 10
-234.5
 20
-136.7239
 30
0.0
 10
-234.5
 20
-137.0
 30
0.0
 10
-234.5
 20
-137.0
 30
0.0
 10
-234.5
 20
-137.2761
 30
0.0
 10
-234.2761
 20
-137.5
 30
0.0
 10
-234.0
 20
-137.5
 30
0.0
 10
-234.0
 20
-137.5
 30
0.0
 10
-234.0
 20
-137.5
 30
0.0
 10
-234.0
 20
-141.0
 30
0.0
 10
-234.0
 20
-141.0
 30
0.0
 10
-234.0
 20
-141.0
 30
0.0
 10
-234.0
 20
-141.0
 30
0.0
 10
-244.0
 20
-141.0
 30
0.0
 10
-244.0
 20
-141.0
 30
0.0
 10
-244.0
 20
-141.0
 30
0.0
 10
-244.0
 20
-141.0
 30
0.0
 10
-244.0
 20
-137.5
 30
0.0
 10
-244.0
 20
-137.5
 30
0.0
 10
-244.0
 20
-137.5
 30
0.0
 10
-243.7239
 20
-137.5
 30
0.0
 10
-243.5
 20
-137.2761
 30
0.0
 10
-243.5
 20
-137.0
 30
0.0
 10
-243.5
 20
-137.0
 30
0.0
 10
-243.5
 20
-136.7239
 30
0.0
 10
-243.7239
 20
-136.5
 30
0.0
 10
-244.0
 20
-136.5
 30
0.0
 10
-244.0
 20
-136.5
 30
0.0
 10
-244.2761
 20
-136.5
 30
0.0
 10
-244.5
 20
-136.7239
 30
0.0
 10
-244.5
 20
-137.0
 30
0.0
 10
-244.5
 20
-137.0
 30
0.0
 10
-244.5
 20
-137.0
 30
0.0
 10
-249.0
 20
-137.0
 30
0.0
 10
-249.0
 20
-137.0
 30
0.0
 10
-249.0
 20
-137.0
 30
0.0
 10
-249.0
 20
-137.0
 30
0.0
 10
-249.3204
 20
-137.0
 30
0.0
 10
-249.3204
 20
-137.0
 30
0.0
 10
-249.3204
 20
-137.0
 30
0.0
 10
-249.3204
 20
-137.0
 30
0.0
 10
-253.5
 20
-137.0
 30
0.0
 10
-253.5
 20
-137.0
 30
0.0
 10
-253.5
 20
-137.0
 30
0.0
 10
-253.5
 20
-136.7239
 30
0.0
 10
-253.7239
 20
-136.5
 30
0.0
 10
-254.0
 20
-136.5
 30
0.0
 10
-254.0
 20
-136.5
 30
0.0
 10
-254.2761
 20
-136.5
 30
0.0
 10
-254.5
 20
-136.7239
 30
0.0
 10
-254.5
 20
-137.0
 30
0.0
 10
-254.5
 20
-137.0
 30
0.0
 10
-254.5
 20
-137.2761
 30
0.0
 10
-254.2761
 20
-137.5
 30
0.0
 10
-254.0
 20
-137.5
 30
0.0
 10
-254.0
 20
-137.5
 30
0.0
 10
-254.0
 20
-137.5
 30
0.0
 10
-254.0
 20
-141.0
 30
0.0
 10
-254.0
 20
-141.0
 30
0.0
 10
-254.0
 20
-141.0
 30
0.0
 10
-254.0
 20
-141.0
 30
0.0
 10
-264.0
 20
-141.0
 30
0.0
 10
-264.0
 20
-141.0
 30
0.0
 10
-264.0
 20
-141.0
 30
0.0
 10
-264.0
 20
-141.0
 30
0.0
 10
-264.0
 20
-137.5
 30
0.0
 10
-264.0
 20
-137.5
 30
0.0
 10
-264.0
 20
-137.5
 30
0.0
 10
-263.7239
 20
-137.5
 30
0.0
 10
-263.5
 20
-137.2761
 30
0.0
 10
-263.5
 20
-137.0
 30
0.0
 10
-263.5
 20
-137.0
 30
0.0
 10
-263.5
 20
-136.7239
 30
0.0
 10
-263.7239
 20
-136.5
 30
0.0
 10
-264.0
 20
-136.5
 30
0.0
 10
-264.0
 20
-136.5
 30
0.0
 10
-264.2761
 20
-136.5
 30
0.0
 10
-264.5
 20
-136.7239
 30
0.0
 10
-264.5
 20
-137.0
 30
0.0
 10
-264.5
 20
-137.0
 30
0.0
 10
-264.5
 20
-137.0
 30
0.0
 10
-269.0
 20
-137.0
 30
0.0
 10
-269.0
 20
-137.0
 30
0.0
 10
-269.0
 20
-137.0
 30
0.0
 10
-269.0
 20
-137.0
 30
0.0
 10
-269.3204
 20
-137.0
 30
0.0
 10
-269.3204
 20
-137.0
 30
0.0
 10
-269.3204
 20
-137.0
 30
0.0
 10
-269.3204
 20
-137.0
 30
0.0
 10
-273.5
 20
-137.0
 30
0.0
 10
-273.5
 20
-137.0
 30
0.0
 10
-273.5
 20
-137.0
 30
0.0
 10
-273.5
 20
-136.7239
 30
0.0
 10
-273.7239
 20
-136.5
 30
0.0
 10
-274.0
 20
-136.5
 30
0.0
 10
-274.0
 20
-136.5
 30
0.0
 10
-274.2761
 20
-136.5
 30
0.0
 10
-274.5
 20
-136.7239
 30
0.0
 10
-274.5
 20
-137.0
 30
0.0
 10
-274.5
 20
-137.0
 30
0.0
 10
-274.5
 20
-137.2761
 30
0.0
 10
-274.2761
 20
-137.5
 30
0.0
 10
-274.0
 20
-137.5
 30
0.0
 10
-274.0
 20
-137.5
 30
0.0
 10
-274.0
 20
-137.5
 30
0.0
 10
-274.0
 20
-141.0
 30
0.0
 10
-274.0
 20
-141.0
 30
0.0
 10
-274.0
 20
-141.0
 30
0.0
 10
-274.0
 20
-141.0
 30
0.0
 10
-284.0
 20
-141.0
 30
0.0
 10
-284.0
 20
-141.0
 30
0.0
 10
-284.0
 20
-141.0
 30
0.0
 10
-284.0
 20
-141.0
 30
0.0
 10
-284.0
 20
-137.5
 30
0.0
 10
-284.0
 20
-137.5
 30
0.0
 10
-284.0
 20
-137.5
 30
0.0
 10
-283.7239
 20
-137.5
 30
0.0
 10
-283.5
 20
-137.2761
 30
0.0
 10
-283.5
 20
-137.0
 30
0.0
 10
-283.5
 20
-137.0
 30
0.0
 10
-283.5
 20
-136.7239
 30
0.0
 10
-283.7239
 20
-136.5
 30
0.0
 10
-284.0
 20
-136.5
 30
0.0
 10
-284.0
 20
-136.5
 30
0.0
 10
-284.2761
 20
-136.5
 30
0.0
 10
-284.5
 20
-136.7239
 30
0.0
 10
-284.5
 20
-137.0
 30
0.0
 10
-284.5
 20
-137.0
 30
0.0
 10
-284.5
 20
-137.0
 30
0.0
 10
-289.0
 20
-137.0
 30
0.0
 10
-289.0
 20
-137.0
 30
0.0
 10
-289.0
 20
-137.0
 30
0.0
 10
-289.0
 20
-137.0
 30
0.0
 10
-299.0
 20
-137.0
 30
0.0
 10
-299.0
 20
-137.0
 30
0.0
 10
-299.0
 20
-137.0
 30
0.0
 10
-299.0
 20
-137.0
 30
0.0
 10
-299.0
 20
-134.0
 30
0.0
 10
-299.0
 20
-134.0
 30
0.0
 10
-299.0
 20
-134.0
 30
0.0
 10
-299.0
 20
-134.0
 30
0.0
 10
-299.0
 20
149.0333
 30
0.0
 10
-299.0
 20
149.0333
 30
0.0
  0
SPLINE
  5
72
330
1F
100
AcDbEntity
  8
Layer 1
 62
   250
370
     9
100
AcDbSpline
210
0.0
220
0.0
230
1.0
 70
    11
 71
     3
 72
    20
 73
    16
 74
     0
 42
0.0000000001
 43
0.0000000001
 40
0.0
 40
0.0
 40
0.0
 40
0.0
 40
0.25
 40
0.25
 40
0.25
 40
0.25
 40
0.5
 40
0.5
 40
0.5
 40
0.5
 40
0.75
 40
0.75
 40
0.75
 40
0.75
 40
1.0
 40
1.0
 40
1.0
 40
1.0
 10
2.0
 20
149.0
 30
0.0
 10
2.0
 20
149.0
 30
0.0
 10
222.0
 20
149.0
 30
0.0
 10
222.0
 20
149.0
 30
0.0
 10
222.0
 20
149.0
 30
0.0
 10
222.0
 20
149.0
 30
0.0
 10
222.0
 20
-135.0
 30
0.0
 10
222.0
 20
-135.0
 30
0.0
 10
222.0
 20
-135.0
 30
0.0
 10
222.0
 20
-135.0
 30
0.0
 10
2.0
 20
-135.0
 30
0.0
 10
2.0
 20
-135.0
 30
0.0
 10
2.0
 20
-135.0
 30
0.0
 10
2.0
 20
-135.0
 30
0.0
 10
2.0
 20
149.0
 30
0.0
 10
2.0
 20
149.0
 30
0.0
  0
SPLINE
  5
73
330
1F
100
AcDbEntity
  8
Layer 1
 62
   250
370
     9
100
AcDbSpline
210
0.0
220
0.0
230
1.0
 70
    11
 71
     3
 72
    20
 73
    16
 74
     0
 42
0.0000000001
 43
0.0000000001
 40
0.0
 40
0.0
 40
0.0
 40
0.0
 40
0.25
 40
0.25
 40
0.25
 40
0.25
 40
0.5
 40
0.5
 40
0.5
 40
0.5
 40
0.75
 40
0.75
 40
0.75
 40
0.75
 40
1.0
 40
1.0
 40
1.0
 40
1.0
 10
147.0
 20
110.0
 30
0.0
 10
185.6534
 20
110.0
 30
0.0
 10
217.0
 20
78.6534
 30
0.0
 10
217.0
 20
40.0
 30
0.0
 10
217.0
 20
40.0
 30
0.0
 10
217.0
 20
1.3466
 30
0.0
 10
185.6534
 20
-30.0
 30
0.0
 10
147.0
 20
-30.0
 30
0.0
 10
147.0
 20
-30.0
 30
0.0
 10
108.3466
 20
-30.0
 30
0.0
 10
77.0
 20
1.3466
 30
0.0
 10
77.0
 20
40.0
 30
0.0
 10
77.0
 20
40.0
 30
0.0
 10
77.0
 20
78.6534
 30
0.0
 10
108.3466
 20
110.0
 30
0.0
 10
147.0
 20
110.0
 30
0.0
  0
SPLINE
  5
74
330
1F
100
AcDbEntity
  8
Layer 1
 62
   250
370
     9
100
AcDbSpline
210
0.0
220
0.0
230
1.0
 70
    11
 71
     3
 72
    20
 73
    16
 74
     0
 42
0.0000000001
 43
0.0000000001
 40
0.0
 40
0.0
 40
0.0
 40
0.0
 40
0.25
 40
0.25
 40
0.25
 40
0.25
 40
0.5
 40
0.5
 40
0.5
 40
0.5
 40
0.75
 40
0.75
 40
0.75
 40
0.75
 40
1.0
 40
1.0
 40
1.0
 40
1.0
 10
147.0096
 20
108.9371
 30
0.0
 10
185.1108
 20
108.9371
 30
0.0
 10
216.0096
 20
78.0383
 30
0.0
 10
216.0096
 20
39.9371
 30
0.0
 10
216.0096
 20
39.9371
 30
0.0
 10
216.0096
 20
1.8359
 30
0.0
 10
185.1108
 20
-29.0629
 30
0.0
 10
147.0096
 20
-29.0629
 30
0.0
 10
147.0096
 20
-29.0629
 30
0.0
 10
108.9084
 20
-29.0629
 30
0.0
 10
78.0096
 20
1.8359
 30
0.0
 10
78.0096
 20
39.9371
 30
0.0
 10
78.0096
 20
39.9371
 30
0.0
 10
78.0096
 20
78.0383
 30
0.0
 10
108.9084
 20
108.9371
 30
0.0
 10
147.0096
 20
108.9371
 30
0.0
  0
SPLINE
  5
75
330
1F
100
AcDbEntity
  8
Layer 1
 62
   250
370
     9
100
AcDbSpline
210
0.0
220
0.0
230
1.0
 70
    11
 71
     3
 72
    20
 73
    16
 74
     0
 42
0.0000000001
 43
0.0000000001
 40
0.0
 40
0.0
 40
0.0
 40
0.0
 40
0.25
 40
0.25
 40
0.25
 40
0.25
 40
0.5
 40
0.5
 40
0.5
 40
0.5
 40
0.75
 40
0.75
 40
0.75
 40
0.75
 40
1.0
 40
1.0
 40
1.0
 40
1.0
 10
136.5445
 20
51.9983
 30
0.0
 10
137.3728
 20
51.9983
 30
0.0
 10
138.0445
 20
51.3266
 30
0.0
 10
138.0445
 20
50.4983
 30
0.0
 10
138.0445
 20
50.4983
 30
0.0
 10
138.0445
 20
49.67
 30
0.0
 10
137.3728
 20
48.9983
 30
0.0
 10
136.5445
 20
48.9983
 30
0.0
 10
136.5445
 20
48.9983
 30
0.0
 10
135.7162
 20
48.9983
 30
0.0
 10
135.0445
 20
49.67
 30
0.0
 10
135.0445
 20
50.4983
 30
0.0
 10
135.0445
 20
50.4983
 30
0.0
 10
135.0445
 20
51.3266
 30
0.0
 10
135.7162
 20
51.9983
 30
0.0
 10
136.5445
 20
51.9983
 30
0.0
  0
SPLINE
  5
76
330
1F
100
AcDbEntity
  8
Layer 1
 62
   250
370
     9
100
AcDbSpline
210
0.0
220
0.0
230
1.0
 70
    11
 71
     3
 72
    20
 73
    16
 74
     0
 42
0.0000000001
 43
0.0000000001
 40
0.0
 40
0.0
 40
0.0
 40
0.0
 40
0.25
 40
0.25
 40
0.25
 40
0.25
 40
0.5
 40
0.5
 40
0.5
 40
0.5
 40
0.75
 40
0.75
 40
0.75
 40
0.75
 40
1.0
 40
1.0
 40
1.0
 40
1.0
 10
157.5445
 20
51.9983
 30
0.0
 10
156.7162
 20
51.9983
 30
0.0
 10
156.0445
 20
51.3266
 30
0.0
 10
156.0445
 20
50.4983
 30
0.0
 10
156.0445
 20
50.4983
 30
0.0
 10
156.0445
 20
49.67
 30
0.0
 10
156.7162
 20
48.9983
 30
0.0
 10
157.5445
 20
48.9983
 30
0.0
 10
157.5445
 20
48.9983
 30
0.0
 10
158.3728
 20
48.9983
 30
0.0
 10
159.0445
 20
49.67
 30
0.0
 10
159.0445
 20
50.4983
 30
0.0
 10
159.0445
 20
50.4983
 30
0.0
 10
159.0445
 20
51.3266
 30
0.0
 10
158.3728
 20
51.9983
 30
0.0
 10
157.5445
 20
51.9983
 30
0.0
  0
SPLINE
  5
77
330
1F
100
AcDbEntity
  8
Layer 1
 62
   250
370
     9
100
AcDbSpline
210
0.0
220
0.0
230
1.0
 70
    11
 71
     3
 72
    20
 73
    16
 74
     0
 42
0.0000000001
 43
0.0000000001
 40
0.0
 40
0.0
 40
0.0
 40
0.0
 40
0.25
 40
0.25
 40
0.25
 40
0.25
 40
0.5
 40
0.5
 40
0.5
 40
0.5
 40
0.75
 40
0.75
 40
0.75
 40
0.75
 40
1.0
 40
1.0
 40
1.0
 40
1.0
 10
157.5445
 20
27.9983
 30
0.0
 10
156.7162
 20
27.9983
 30
0.0
 10
156.0445
 20
28.67
 30
0.0
 10
156.0445
 20
29.4983
 30
0.0
 10
156.0445
 20
29.4983
 30
0.0
 10
156.0445
 20
30.3266
 30
0.0
 10
156.7162
 20
30.9983
 30
0.0
 10
157.5445
 20
30.9983
 30
0.0
 10
157.5445
 20
30.9983
 30
0.0
 10
158.3728
 20
30.9983
 30
0.0
 10
159.0445
 20
30.3266
 30
0.0
 10
159.0445
 20
29.4983
 30
0.0
 10
159.0445
 20
29.4983
 30
0.0
 10
159.0445
 20
28.67
 30
0.0
 10
158.3728
 20
27.9983
 30
0.0
 10
157.5445
 20
27.9983
 30
0.0
  0
SPLINE
  5
78
330
1F
100
AcDbEntity
  8
Layer 1
 62
   250
370
     9
100
AcDbSpline
210
0.0
220
0.0
230
1.0
 70
    11
 71
     3
 72
    20
 73
    16
 74
     0
 42
0.0000000001
 43
0.0000000001
 40
0.0
 40
0.0
 40
0.0
 40
0.0
 40
0.25
 40
0.25
 40
0.25
 40
0.25
 40
0.5
 40
0.5
 40
0.5
 40
0.5
 40
0.75
 40
0.75
 40
0.75
 40
0.75
 40
1.0
 40
1.0
 40
1.0
 40
1.0
 10
136.5445
 20
27.9983
 30
0.0
 10
137.3728
 20
27.9983
 30
0.0
 10
138.0445
 20
28.67
 30
0.0
 10
138.0445
 20
29.4983
 30
0.0
 10
138.0445
 20
29.4983
 30
0.0
 10
138.0445
 20
30.3266
 30
0.0
 10
137.3728
 20
30.9983
 30
0.0
 10
136.5445
 20
30.9983
 30
0.0
 10
136.5445
 20
30.9983
 30
0.0
 10
135.7162
 20
30.9983
 30
0.0
 10
135.0445
 20
30.3266
 30
0.0
 10
135.0445
 20
29.4983
 30
0.0
 10
135.0445
 20
29.4983
 30
0.0
 10
135.0445
 20
28.67
 30
0.0
 10
135.7162
 20
27.9983
 30
0.0
 10
136.5445
 20
27.9983
 30
0.0
  0
ENDSEC
  0
SECTION
  2
OBJECTS
  0
DICTIONARY
  5
C
330
0
100
AcDbDictionary
281
     1
  3
ACAD_GROUP
350
D
  3
ACAD_LAYOUT
350
1A
  3
ACAD_MLEADERSTYLE
350
7C
  3
ACAD_MLINESTYLE
350
17
  3
ACAD_PLOTSETTINGS
350
19
  3
ACAD_PLOTSTYLENAME
350
E
  3
ACAD_SCALELIST
350
3B
  3
ACAD_TABLESTYLE
350
7B
  3
ACAD_VISUALSTYLE
350
2A
  3
AcDbVariableDictionary
350
79
  0
DICTIONARY
  5
D
102
{ACAD_REACTORS
330
C
102
}
330
C
100
AcDbDictionary
281
     1
  0
DICTIONARY
  5
1A
102
{ACAD_REACTORS
330
C
102
}
330
C
100
AcDbDictionary
281
     1
  3
Layout1
350
1E
  3
Layout2
350
26
  3
Model
350
22
  0
DICTIONARY
  5
7C
102
{ACAD_REACTORS
330
C
102
}
330
C
100
AcDbDictionary
281
     1
  0
DICTIONARY
  5
17
102
{ACAD_REACTORS
330
C
102
}
330
C
100
AcDbDictionary
281
     1
  3
Standard
350
18
  0
DICTIONARY
  5
19
102
{ACAD_REACTORS
330
C
102
}
330
C
100
AcDbDictionary
281
     1
  0
ACDBDICTIONARYWDFLT
  5
E
102
{ACAD_REACTORS
330
C
102
}
330
C
100
AcDbDictionary
281
     1
  3
Normal
350
F
100
AcDbDictionaryWithDefault
340
F
  0
DICTIONARY
  5
3B
102
{ACAD_REACTORS
330
C
102
}
330
C
100
AcDbDictionary
281
     1
  3
A0
350
3C
  3
A1
350
3D
  3
A2
350
3E
  3
A3
350
3F
  3
A4
350
40
  3
A5
350
41
  3
A6
350
42
  3
A7
350
43
  3
A8
350
44
  3
A9
350
45
  3
B0
350
46
  3
B1
350
47
  3
B2
350
48
  3
B3
350
49
  3
B4
350
4A
  3
B5
350
4B
  3
B6
350
4C
  3
B7
350
4D
  3
B8
350
4E
  3
B9
350
4F
  3
C0
350
50
  3
C1
350
51
  3
C2
350
52
  3
C3
350
53
  3
C4
350
54
  3
C5
350
55
  3
C6
350
56
  3
C7
350
57
  3
C8
350
58
  3
C9
350
59
  3
D0
350
5A
  3
D1
350
5B
  3
D2
350
5C
  0
DICTIONARY
  5
7B
102
{ACAD_REACTORS
330
C
102
}
330
C
100
AcDbDictionary
281
     1
  0
DICTIONARY
  5
2A
102
{ACAD_REACTORS
330
C
102
}
330
C
100
AcDbDictionary
281
     1
  3
2dWireframe
350
2F
  3
3D Hidden
350
31
  3
3dWireframe
350
30
  3
Basic
350
32
  3
Brighten
350
36
  3
ColorChange
350
3A
  3
Conceptual
350
34
  3
Dim
350
35
  3
Facepattern
350
39
  3
Flat
350
2B
  3
FlatWithEdges
350
2C
  3
Gouraud
350
2D
  3
GouraudWithEdges
350
2E
  3
Linepattern
350
38
  3
Realistic
350
33
  3
Thicken
350
37
  0
DICTIONARY
  5
79
102
{ACAD_REACTORS
330
C
102
}
330
C
100
AcDbDictionary
281
     1
  3
CANNOSCALE
350
7A
  0
LAYOUT
  5
1E
102
{ACAD_REACTORS
330
1A
102
}
330
1A
100
AcDbPlotSettings
  1

  2
none_device
  4

  6

 40
0.0
 41
0.0
 42
0.0
 43
0.0
 44
0.0
 45
0.0
 46
0.0
 47
0.0
 48
0.0
 49
0.0
140
0.0
141
0.0
142
1.0
143
1.0
 70
   688
 72
     0
 73
     0
 74
     5
  7

 75
    16
147
1.0
148
0.0
149
0.0
100
AcDbLayout
  1
Layout1
 70
     1
 71
     1
 10
0.0
 20
0.0
 11
12.0
 21
9.0
 12
0.0
 22
0.0
 32
0.0
 14
1.000000000000000E+20
 24
1.000000000000000E+20
 34
1.000000000000000E+20
 15
-1.000000000000000E+20
 25
-1.000000000000000E+20
 35
-1.000000000000000E+20
146
0.0
 13
0.0
 23
0.0
 33
0.0
 16
1.0
 26
0.0
 36
0.0
 17
0.0
 27
1.0
 37
0.0
 76
     0
330
1B
  0
LAYOUT
  5
26
102
{ACAD_REACTORS
330
1A
102
}
330
1A
100
AcDbPlotSettings
  1

  2
none_device
  4

  6

 40
0.0
 41
0.0
 42
0.0
 43
0.0
 44
0.0
 45
0.0
 46
0.0
 47
0.0
 48
0.0
 49
0.0
140
0.0
141
0.0
142
1.0
143
1.0
 70
   688
 72
     0
 73
     0
 74
     5
  7

 75
    16
147
1.0
148
0.0
149
0.0
100
AcDbLayout
  1
Layout2
 70
     1
 71
     2
 10
0.0
 20
0.0
 11
0.0
 21
0.0
 12
0.0
 22
0.0
 32
0.0
 14
0.0
 24
0.0
 34
0.0
 15
0.0
 25
0.0
 35
0.0
146
0.0
 13
0.0
 23
0.0
 33
0.0
 16
1.0
 26
0.0
 36
0.0
 17
0.0
 27
1.0
 37
0.0
 76
     0
330
23
  0
LAYOUT
  5
22
102
{ACAD_REACTORS
330
1A
102
}
330
1A
100
AcDbPlotSettings
  1

  2
none_device
  4

  6

 40
0.0
 41
0.0
 42
0.0
 43
0.0
 44
0.0
 45
0.0
 46
0.0
 47
0.0
 48
0.0
 49
0.0
140
0.0
141
0.0
142
1.0
143
1.0
 70
  1712
 72
     0
 73
     0
 74
     0
  7

 75
     0
147
1.0
148
0.0
149
0.0
100
AcDbLayout
  1
Model
 70
     1
 71
     0
 10
0.0
 20
0.0
 11
12.0
 21
9.0
 12
0.0
 22
0.0
 32
0.0
 14
-299.0381
 24
-141.0381
 34
0.0
 15
222.0381
 25
149.0714
 35
0.0
146
0.0
 13
0.0
 23
0.0
 33
0.0
 16
1.0
 26
0.0
 36
0.0
 17
0.0
 27
1.0
 37
0.0
 76
     0
330
1F
331
29
  0
MLINESTYLE
  5
18
102
{ACAD_REACTORS
330
17
102
}
330
17
100
AcDbMlineStyle
  2
Standard
 70
     0
  3

 62
   256
 51
90.0
 52
90.0
 71
     2
 49
0.5
 62
   256
  6
BYLAYER
 49
-0.5
 62
   256
  6
BYLAYER
  0
ACDBPLACEHOLDER
  5
F
102
{ACAD_REACTORS
330
E
102
}
330
E
  0
SCALE
  5
3C
102
{ACAD_REACTORS
330
3B
102
}
330
3B
100
AcDbScale
 70
     0
300
1:1
140
1.0
141
1.0
290
     1
  0
SCALE
  5
3D
102
{ACAD_REACTORS
330
3B
102
}
330
3B
100
AcDbScale
 70
     0
300
1:2
140
1.0
141
2.0
290
     0
  0
SCALE
  5
3E
102
{ACAD_REACTORS
330
3B
102
}
330
3B
100
AcDbScale
 70
     0
300
1:4
140
1.0
141
4.0
290
     0
  0
SCALE
  5
3F
102
{ACAD_REACTORS
330
3B
102
}
330
3B
100
AcDbScale
 70
     0
300
1:5
140
1.0
141
5.0
290
     0
  0
SCALE
  5
40
102
{ACAD_REACTORS
330
3B
102
}
330
3B
100
AcDbScale
 70
     0
300
1:8
140
1.0
141
8.0
290
     0
  0
SCALE
  5
41
102
{ACAD_REACTORS
330
3B
102
}
330
3B
100
AcDbScale
 70
     0
300
1:10
140
1.0
141
10.0
290
     0
  0
SCALE
  5
42
102
{ACAD_REACTORS
330
3B
102
}
330
3B
100
AcDbScale
 70
     0
300
1:16
140
1.0
141
16.0
290
     0
  0
SCALE
  5
43
102
{ACAD_REACTORS
330
3B
102
}
330
3B
100
AcDbScale
 70
     0
300
1:20
140
1.0
141
20.0
290
     0
  0
SCALE
  5
44
102
{ACAD_REACTORS
330
3B
102
}
330
3B
100
AcDbScale
 70
     0
300
1:30
140
1.0
141
30.0
290
     0
  0
SCALE
  5
45
102
{ACAD_REACTORS
330
3B
102
}
330
3B
100
AcDbScale
 70
     0
300
1:40
140
1.0
141
40.0
290
     0
  0
SCALE
  5
46
102
{ACAD_REACTORS
330
3B
102
}
330
3B
100
AcDbScale
 70
     0
300
1:50
140
1.0
141
50.0
290
     0
  0
SCALE
  5
47
102
{ACAD_REACTORS
330
3B
102
}
330
3B
100
AcDbScale
 70
     0
300
1:100
140
1.0
141
100.0
290
     0
  0
SCALE
  5
48
102
{ACAD_REACTORS
330
3B
102
}
330
3B
100
AcDbScale
 70
     0
300
2:1
140
2.0
141
1.0
290
     0
  0
SCALE
  5
49
102
{ACAD_REACTORS
330
3B
102
}
330
3B
100
AcDbScale
 70
     0
300
4:1
140
4.0
141
1.0
290
     0
  0
SCALE
  5
4A
102
{ACAD_REACTORS
330
3B
102
}
330
3B
100
AcDbScale
 70
     0
300
8:1
140
8.0
141
1.0
290
     0
  0
SCALE
  5
4B
102
{ACAD_REACTORS
330
3B
102
}
330
3B
100
AcDbScale
 70
     0
300
10:1
140
10.0
141
1.0
290
     0
  0
SCALE
  5
4C
102
{ACAD_REACTORS
330
3B
102
}
330
3B
100
AcDbScale
 70
     0
300
100:1
140
100.0
141
1.0
290
     0
  0
SCALE
  5
4D
102
{ACAD_REACTORS
330
3B
102
}
330
3B
100
AcDbScale
 70
     0
300
1/128" = 1'-0"
140
0.0078125
141
12.0
290
     0
  0
SCALE
  5
4E
102
{ACAD_REACTORS
330
3B
102
}
330
3B
100
AcDbScale
 70
     0
300
1/64" = 1'-0"
140
0.015625
141
12.0
290
     0
  0
SCALE
  5
4F
102
{ACAD_REACTORS
330
3B
102
}
330
3B
100
AcDbScale
 70
     0
300
1/32" = 1'-0"
140
0.03125
141
12.0
290
     0
  0
SCALE
  5
50
102
{ACAD_REACTORS
330
3B
102
}
330
3B
100
AcDbScale
 70
     0
300
1/16" = 1'-0"
140
0.0625
141
12.0
290
     0
  0
SCALE
  5
51
102
{ACAD_REACTORS
330
3B
102
}
330
3B
100
AcDbScale
 70
     0
300
3/32" = 1'-0"
140
0.09375
141
12.0
290
     0
  0
SCALE
  5
52
102
{ACAD_REACTORS
330
3B
102
}
330
3B
100
AcDbScale
 70
     0
300
1/8" = 1'-0"
140
0.125
141
12.0
290
     0
  0
SCALE
  5
53
102
{ACAD_REACTORS
330
3B
102
}
330
3B
100
AcDbScale
 70
     0
300
3/16" = 1'-0"
140
0.1875
141
12.0
290
     0
  0
SCALE
  5
54
102
{ACAD_REACTORS
330
3B
102
}
330
3B
100
AcDbScale
 70
     0
300
1/4" = 1'-0"
140
0.25
141
12.0
290
     0
  0
SCALE
  5
55
102
{ACAD_REACTORS
330
3B
102
}
330
3B
100
AcDbScale
 70
     0
300
3/8" = 1'-0"
140
0.375
141
12.0
290
     0
  0
SCALE
  5
56
102
{ACAD_REACTORS
330
3B
102
}
330
3B
100
AcDbScale
 70
     0
300
1/2" = 1'-0"
140
0.5
141
12.0
290
     0
  0
SCALE
  5
57
102
{ACAD_REACTORS
330
3B
102
}
330
3B
100
AcDbScale
 70
     0
300
3/4" = 1'-0"
140
0.75
141
12.0
290
     0
  0
SCALE
  5
58
102
{ACAD_REACTORS
330
3B
102
}
330
3B
100
AcDbScale
 70
     0
300
1" = 1'-0"
140
1.0
141
12.0
290
     0
  0
SCALE
  5
59
102
{ACAD_REACTORS
330
3B
102
}
330
3B
100
AcDbScale
 70
     0
300
1-1/2" = 1'-0"
140
1.5
141
12.0
290
     0
  0
SCALE
  5
5A
102
{ACAD_REACTORS
330
3B
102
}
330
3B
100
AcDbScale
 70
     0
300
3" = 1'-0"
140
3.0
141
12.0
290
     0
  0
SCALE
  5
5B
102
{ACAD_REACTORS
330
3B
102
}
330
3B
100
AcDbScale
 70
     0
300
6" = 1'-0"
140
6.0
141
12.0
290
     0
  0
SCALE
  5
5C
102
{ACAD_REACTORS
330
3B
102
}
330
3B
100
AcDbScale
 70
     0
300
1'-0" = 1'-0"
140
12.0
141
12.0
290
     0
  0
VISUALSTYLE
  5
2F
102
{ACAD_REACTORS
330
2A
102
}
330
2A
100
AcDbVisualStyle
  2
2dWireframe
 70
     4
 71
     0
 72
     2
 73
     0
 90
        0
 40
-0.6
 41
-30.0
 62
     5
 63
     7
 74
     1
 91
        4
 64
     7
 65
   257
 75
     1
175
     1
 42
1.0
 92
        0
 66
   257
 43
1.0
 76
     1
 77
     6
 78
     2
 67
     7
 79
     5
170
     0
171
     0
290
     0
174
     0
 93
        1
 44
0.0
173
     0
291
     0
 45
0.0
1001
ACAD
1000
AcDbSavedByObjectVersion
1070
     0
  0
VISUALSTYLE
  5
31
102
{ACAD_REACTORS
330
2A
102
}
330
2A
100
AcDbVisualStyle
  2
3D Hidden
 70
     6
 71
     1
 72
     2
 73
     2
 90
        0
 40
-0.6
 41
-30.0
 62
     5
 63
     7
 74
     2
 91
        2
 64
     7
 65
   257
 75
     2
175
     1
 42
40.0
 92
        0
 66
   257
 43
1.0
 76
     1
 77
     6
 78
     2
 67
     7
 79
     3
170
     0
171
     0
290
     0
174
     0
 93
        1
 44
0.0
173
     0
291
     0
 45
0.0
1001
ACAD
1000
AcDbSavedByObjectVersion
1070
     0
  0
VISUALSTYLE
  5
30
102
{ACAD_REACTORS
330
2A
102
}
330
2A
100
AcDbVisualStyle
  2
3dWireframe
 70
     5
 71
     0
 72
     2
 73
     0
 90
        0
 40
-0.6
 41
-30.0
 62
     5
 63
     7
 74
     1
 91
        4
 64
     7
 65
   257
 75
     1
175
     1
 42
1.0
 92
        0
 66
   257
 43
1.0
 76
     1
 77
     6
 78
     2
 67
     7
 79
     5
170
     0
171
     0
290
     0
174
     0
 93
        1
 44
0.0
173
     0
291
     0
 45
0.0
1001
ACAD
1000
AcDbSavedByObjectVersion
1070
     0
  0
VISUALSTYLE
  5
32
102
{ACAD_REACTORS
330
2A
102
}
330
2A
100
AcDbVisualStyle
  2
Basic
 70
     7
 71
     1
 72
     0
 73
     1
 90
        0
 40
-0.6
 41
-30.0
 62
     5
 63
     7
 74
     0
 91
        4
 64
     7
 65
   257
 75
     1
175
     1
 42
1.0
 92
        8
 66
     7
 43
1.0
 76
     1
 77
     6
 78
     2
 67
     7
 79
     5
170
     0
171
     0
290
     0
174
     0
 93
        1
 44
0.0
173
     0
291
     1
 45
0.0
1001
ACAD
1000
AcDbSavedByObjectVersion
1070
     0
  0
VISUALSTYLE
  5
36
102
{ACAD_REACTORS
330
2A
102
}
330
2A
100
AcDbVisualStyle
  2
Brighten
 70
    12
 71
     2
 72
     2
 73
     0
 90
        0
 40
-0.6
 41
-30.0
 62
     5
 63
     7
 74
     1
 91
        4
 64
     7
 65
   257
 75
     1
175
     1
 42
1.0
 92
        8
 66
     7
 43
1.0
 76
     1
 77
     6
 78
     2
 67
     7
 79
     5
170
     0
171
     0
290
     0
174
     0
 93
        1
 44
50.0
173
     0
291
     1
 45
0.0
1001
ACAD
1000
AcDbSavedByObjectVersion
1070
     0
  0
VISUALSTYLE
  5
3A
102
{ACAD_REACTORS
330
2A
102
}
330
2A
100
AcDbVisualStyle
  2
ColorChange
 70
    16
 71
     2
 72
     2
 73
     3
 90
        0
 40
-0.6
 41
-30.0
 62
     5
 63
     8
 74
     1
 91
        4
 64
     7
 65
   257
 75
     1
175
     1
 42
1.0
 92
        8
 66
     8
 43
1.0
 76
     1
 77
     6
 78
     2
 67
     7
 79
     5
170
     0
171
     0
290
     0
174
     0
 93
        1
 44
0.0
173
     0
291
     1
 45
0.0
1001
ACAD
1000
AcDbSavedByObjectVersion
1070
     0
  0
VISUALSTYLE
  5
34
102
{ACAD_REACTORS
330
2A
102
}
330
2A
100
AcDbVisualStyle
  2
Conceptual
 70
     9
 71
     3
 72
     2
 73
     0
 90
        0
 40
-0.6
 41
-30.0
 62
     5
 63
     7
 74
     2
 91
        2
 64
     7
 65
   257
 75
     1
175
     1
 42
40.0
 92
        8
 66
     7
 43
1.0
 76
     1
 77
     6
 78
     2
 67
     7
 79
     3
170
     0
171
     0
290
     0
174
     0
 93
        1
 44
0.0
173
     0
291
     0
 45
0.0
1001
ACAD
1000
AcDbSavedByObjectVersion
1070
     0
  0
VISUALSTYLE
  5
35
102
{ACAD_REACTORS
330
2A
102
}
330
2A
100
AcDbVisualStyle
  2
Dim
 70
    11
 71
     2
 72
     2
 73
     0
 90
        0
 40
-0.6
 41
-30.0
 62
     5
 63
     7
 74
     1
 91
        4
 64
     7
 65
   257
 75
     1
175
     1
 42
1.0
 92
        8
 66
     7
 43
1.0
 76
     1
 77
     6
 78
     2
 67
     7
 79
     5
170
     0
171
     0
290
     0
174
     0
 93
        1
 44
-50.0
173
     0
291
     1
 45
0.0
1001
ACAD
1000
AcDbSavedByObjectVersion
1070
     0
  0
VISUALSTYLE
  5
39
102
{ACAD_REACTORS
330
2A
102
}
330
2A
100
AcDbVisualStyle
  2
Facepattern
 70
    15
 71
     2
 72
     2
 73
     0
 90
        0
 40
-0.6
 41
-30.0
 62
     5
 63
     7
 74
     1
 91
        4
 64
     7
 65
   257
 75
     1
175
     1
 42
1.0
 92
        8
 66
     7
 43
1.0
 76
     1
 77
     6
 78
     2
 67
     7
 79
     5
170
     0
171
     0
290
     0
174
     0
 93
        1
 44
0.0
173
     0
291
     1
 45
0.0
1001
ACAD
1000
AcDbSavedByObjectVersion
1070
     0
  0
VISUALSTYLE
  5
2B
102
{ACAD_REACTORS
330
2A
102
}
330
2A
100
AcDbVisualStyle
  2
Flat
 70
     0
 71
     2
 72
     1
 73
     1
 90
        2
 40
-0.6
 41
30.0
 62
     5
 63
     7
 74
     0
 91
        4
 64
     7
 65
   257
 75
     1
175
     1
 42
1.0
 92
        8
 66
     7
 43
1.0
 76
     1
 77
     6
 78
     2
 67
     7
 79
     5
170
     0
171
     0
290
     0
174
     0
 93
       13
 44
0.0
173
     0
291
     1
 45
0.0
1001
ACAD
1000
AcDbSavedByObjectVersion
1070
     0
  0
VISUALSTYLE
  5
2C
102
{ACAD_REACTORS
330
2A
102
}
330
2A
100
AcDbVisualStyle
  2
FlatWithEdges
 70
     1
 71
     2
 72
     1
 73
     1
 90
        2
 40
-0.6
 41
30.0
 62
     5
 63
     7
 74
     1
 91
        4
 64
     7
 65
   257
 75
     1
175
     1
 42
1.0
 92
        0
 66
   257
 43
1.0
 76
     1
 77
     6
 78
     2
 67
     7
 79
     5
170
     0
171
     0
290
     0
174
     0
 93
       13
 44
0.0
173
     0
291
     1
 45
0.0
1001
ACAD
1000
AcDbSavedByObjectVersion
1070
     0
  0
VISUALSTYLE
  5
2D
102
{ACAD_REACTORS
330
2A
102
}
330
2A
100
AcDbVisualStyle
  2
Gouraud
 70
     2
 71
     2
 72
     2
 73
     1
 90
        2
 40
-0.6
 41
30.0
 62
     5
 63
     7
 74
     0
 91
        4
 64
     7
 65
   257
 75
     1
175
     1
 42
1.0
 92
        0
 66
     7
 43
1.0
 76
     1
 77
     6
 78
     2
 67
     7
 79
     5
170
     0
171
     0
290
     0
174
     0
 93
       13
 44
0.0
173
     0
291
     1
 45
0.0
1001
ACAD
1000
AcDbSavedByObjectVersion
1070
     0
  0
VISUALSTYLE
  5
2E
102
{ACAD_REACTORS
330
2A
102
}
330
2A
100
AcDbVisualStyle
  2
GouraudWithEdges
 70
     3
 71
     2
 72
     2
 73
     1
 90
        2
 40
-0.6
 41
30.0
 62
     5
 63
     7
 74
     1
 91
        4
 64
     7
 65
   257
 75
     1
175
     1
 42
1.0
 92
        0
 66
   257
 43
1.0
 76
     1
 77
     6
 78
     2
 67
     7
 79
     5
170
     0
171
     0
290
     0
174
     0
 93
       13
 44
0.0
173
     0
291
     1
 45
0.0
1001
ACAD
1000
AcDbSavedByObjectVersion
1070
     0
  0
VISUALSTYLE
  5
38
102
{ACAD_REACTORS
330
2A
102
}
330
2A
100
AcDbVisualStyle
  2
Linepattern
 70
    14
 71
     2
 72
     2
 73
     0
 90
        0
 40
-0.6
 41
-30.0
 62
     5
 63
     7
 74
     1
 91
        4
 64
     7
 65
   257
 75
     7
175
     7
 42
1.0
 92
        8
 66
     7
 43
1.0
 76
     1
 77
     6
 78
     2
 67
     7
 79
     5
170
     0
171
     0
290
     0
174
     0
 93
        1
 44
0.0
173
     0
291
     1
 45
0.0
1001
ACAD
1000
AcDbSavedByObjectVersion
1070
     0
  0
VISUALSTYLE
  5
33
102
{ACAD_REACTORS
330
2A
102
}
330
2A
100
AcDbVisualStyle
  2
Realistic
 70
     8
 71
     2
 72
     2
 73
     0
 90
        0
 40
-0.6
 41
-30.0
 62
     5
 63
     7
 74
     1
 91
        0
 64
     7
 65
   257
 75
     1
175
     1
 42
1.0
 92
        8
 66
     8
 43
1.0
 76
     1
 77
     6
 78
     2
 67
     7
 79
     5
170
     0
171
     0
290
     0
174
     0
 93
       13
 44
0.0
173
     0
291
     0
 45
0.0
1001
ACAD
1000
AcDbSavedByObjectVersion
1070
     0
  0
VISUALSTYLE
  5
37
102
{ACAD_REACTORS
330
2A
102
}
330
2A
100
AcDbVisualStyle
  2
Thicken
 70
    13
 71
     2
 72
     2
 73
     0
 90
        0
 40
-0.6
 41
-30.0
 62
     5
 63
     7
 74
     1
 91
        4
 64
     7
 65
   257
 75
     1
175
     1
 42
1.0
 92
       12
 66
     7
 43
1.0
 76
     1
 77
     6
 78
     2
 67
     7
 79
     5
170
     0
171
     0
290
     0
174
     0
 93
        1
 44
0.0
173
     0
291
     1
 45
0.0
1001
ACAD
1000
AcDbSavedByObjectVersion
1070
     0
  0
DICTIONARYVAR
  5
7A
102
{ACAD_REACTORS
330
79
102
}
330
79
100
DictionaryVariables
280
     0
  1
1:1
  0
ENDSEC
  0
EOF
