<?xml version="1.0" encoding="UTF-8"?>
<!DOCTYPE svg PUBLIC "-//W3C//DTD SVG 1.1//EN" "http://www.w3.org/Graphics/SVG/1.1/DTD/svg11.dtd">
<!-- Creator: CorelDRAW -->
<svg xmlns="http://www.w3.org/2000/svg" xml:space="preserve" width="60cm" height="30cm" shape-rendering="geometricPrecision" text-rendering="geometricPrecision" image-rendering="optimizeQuality" fill-rule="evenodd" clip-rule="evenodd"
viewBox="0 0 600 300"
 xmlns:xlink="http://www.w3.org/1999/xlink">
 <g id="Layer_x0020_1">
  <metadata id="CorelCorpID_0Corel-Layer"/>
  <path fill="none" stroke="#1F1A17" stroke-width="0.0762" d="M165.594 10.3939c2.7147,-2.7146 6.4647,-4.3939 10.6061,-4.3939l219.8 0 0 10 0 2.5c-0.2761,0 -0.5,0.2239 -0.5,0.5 0,0.2761 0.2239,0.5 0.5,0.5 0.2761,0 0.5,-0.2239 0.5,-0.5l4.5 0 0 10 -4.5 0c0,-0.2761 -0.2239,-0.5 -0.5,-0.5 -0.2761,0 -0.5,0.2239 -0.5,0.5 0,0.2761 0.2239,0.5 0.5,0.5l0 3 -3.9447 0 0 -1.25 -2.5 0 0 1.25 -4.5553 0 0 3 4.5553 0 0 1.25 2.5 0 0 -1.25 3.9447 0 0 3c-0.2761,0 -0.5,0.2239 -0.5,0.5 0,0.2761 0.2239,0.5 0.5,0.5 0.2761,0 0.5,-0.2239 0.5,-0.5l4.5 0 0 10 -4.5 0c0,-0.2761 -0.2239,-0.5 -0.5,-0.5 -0.2761,0 -0.5,0.2239 -0.5,0.5 0,0.2761 0.2239,0.5 0.5,0.5l0 1.5 0 1 0 77.5 0 2.5c-0.2761,0 -0.5,0.2239 -0.5,0.5 0,0.2761 0.2239,0.5 0.5,0.5 0.2761,0 0.5,-0.2239 0.5,-0.5l4.5 0 0 10 -4.5 0c0,-0.2761 -0.2239,-0.5 -0.5,-0.5 -0.2761,0 -0.5,0.2239 -0.5,0.5 0,0.2761 0.2239,0.5 0.5,0.5l0 3 -3.9447 0 0 -1.25 -2.5 0 0 1.25 -4.5553 0 0 3 4.5553 0 0 1.25 2.5 0 0 -1.25 3.9447 0 0 3c-0.2761,0 -0.5,0.2239 -0.5,0.5 0,0.2761 0.2239,0.5 0.5,0.5 0.2761,0 0.5,-0.2239 0.5,-0.5l4.5 0 0 10 -4.5 0c0,-0.2761 -0.2239,-0.5 -0.5,-0.5 -0.2761,0 -0.5,0.2239 -0.5,0.5 0,0.2761 0.2239,0.5 0.5,0.5l0 1.5 0 1 0 6.5 0 71 0 2.5c-0.2761,0 -0.5,0.2239 -0.5,0.5 0,0.2761 0.2239,0.5 0.5,0.5 0.2761,0 0.5,-0.2239 0.5,-0.5l4.5 0 0 10 -4.5 0c0,-0.2761 -0.2239,-0.5 -0.5,-0.5 -0.2761,0 -0.5,0.2239 -0.5,0.5 0,0.2761 0.2239,0.5 0.5,0.5l0 3 -3.9447 0 0 -1.25 -2.5 0 0 1.25 -4.5553 0 0 3 4.5553 0 0 1.25 2.5 0 0 -1.25 3.9447 0 0 3c-0.2761,0 -0.5,0.2239 -0.5,0.5 0,0.2761 0.2239,0.5 0.5,0.5 0.2761,0 0.5,-0.2239 0.5,-0.5l4.5 0 0 10 -4.5 0c0,-0.2761 -0.2239,-0.5 -0.5,-0.5 -0.2761,0 -0.5,0.2239 -0.5,0.5 0,0.2761 0.2239,0.5 0.5,0.5l0 1.5 0 1 0 10 0 3 -5 0 -0.3204 0 -4.1796 0c0,-0.2761 -0.2239,-0.5 -0.5,-0.5 -0.2761,0 -0.5,0.2239 -0.5,0.5 0,0.2761 0.2239,0.5 0.5,0.5l0 3.5 -10 0 0 -3.5c0.2761,0 0.5,-0.2239 0.5,-0.5 0,-0.2761 -0.2239,-0.5 -0.5,-0.5 -0.2761,0 -0.5,0.2239 -0.5,0.5l-4.5 0 -0.3204 0 -4.1796 0c0,-0.2761 -0.2239,-0.5 -0.5,-0.5 -0.2761,0 -0.5,0.2239 -0.5,0.5 0,0.2761 0.2239,0.5 0.5,0.5l0 3.5 -10 0 0 -3.5c0.2761,0 0.5,-0.2239 0.5,-0.5 0,-0.2761 -0.2239,-0.5 -0.5,-0.5 -0.2761,0 -0.5,0.2239 -0.5,0.5l-4.5 0 -0.3204 0 -4.1796 0c0,-0.2761 -0.2239,-0.5 -0.5,-0.5 -0.2761,0 -0.5,0.2239 -0.5,0.5 0,0.2761 0.2239,0.5 0.5,0.5l0 3.5 -10 0 0 -3.5c0.2761,0 0.5,-0.2239 0.5,-0.5 0,-0.2761 -0.2239,-0.5 -0.5,-0.5 -0.2761,0 -0.5,0.2239 -0.5,0.5l-4.5 0 -0.3204 0 -4.1796 0c0,-0.2761 -0.2239,-0.5 -0.5,-0.5 -0.2761,0 -0.5,0.2239 -0.5,0.5 0,0.2761 0.2239,0.5 0.5,0.5l0 3.5 -10 0 0 -3.5c0.2761,0 0.5,-0.2239 0.5,-0.5 0,-0.2761 -0.2239,-0.5 -0.5,-0.5 -0.2761,0 -0.5,0.2239 -0.5,0.5l-4.5 0 -0.3204 0 -4.1796 0c0,-0.2761 -0.2239,-0.5 -0.5,-0.5 -0.2761,0 -0.5,0.2239 -0.5,0.5 0,0.2761 0.2239,0.5 0.5,0.5l0 3.5 -10 0 0 -3.5c0.2761,0 0.5,-0.2239 0.5,-0.5 0,-0.2761 -0.2239,-0.5 -0.5,-0.5 -0.2761,0 -0.5,0.2239 -0.5,0.5l-4.5 0 -0.3204 0 -4.1796 0c0,-0.2761 -0.2239,-0.5 -0.5,-0.5 -0.2761,0 -0.5,0.2239 -0.5,0.5 0,0.2761 0.2239,0.5 0.5,0.5l0 3.5 -10 0 0 -3.5c0.2761,0 0.5,-0.2239 0.5,-0.5 0,-0.2761 -0.2239,-0.5 -0.5,-0.5 -0.2761,0 -0.5,0.2239 -0.5,0.5l-4.5 0 -0.3204 0 -4.1796 0c0,-0.2761 -0.2239,-0.5 -0.5,-0.5 -0.2761,0 -0.5,0.2239 -0.5,0.5 0,0.2761 0.2239,0.5 0.5,0.5l0 3.5 -10 0 0 -3.5c0.2761,0 0.5,-0.2239 0.5,-0.5 0,-0.2761 -0.2239,-0.5 -0.5,-0.5 -0.2761,0 -0.5,0.2239 -0.5,0.5l-4.5 0 -0.3204 0 -4.1796 0c0,-0.2761 -0.2239,-0.5 -0.5,-0.5 -0.2761,0 -0.5,0.2239 -0.5,0.5 0,0.2761 0.2239,0.5 0.5,0.5l0 3.5 -10 0 0 -3.5c0.2761,0 0.5,-0.2239 0.5,-0.5 0,-0.2761 -0.2239,-0.5 -0.5,-0.5 -0.2761,0 -0.5,0.2239 -0.5,0.5l-4.5 0 -0.3204 0 -4.1796 0c0,-0.2761 -0.2239,-0.5 -0.5,-0.5 -0.2761,0 -0.5,0.2239 -0.5,0.5 0,0.2761 0.2239,0.5 0.5,0.5l0 3.5 -10 0 0 -3.5c0.2761,0 0.5,-0.2239 0.5,-0.5 0,-0.2761 -0.2239,-0.5 -0.5,-0.5 -0.2761,0 -0.5,0.2239 -0.5,0.5l-4.5 0 -0.3204 0 -4.1796 0c0,-0.2761 -0.2239,-0.5 -0.5,-0.5 -0.2761,0 -0.5,0.2239 -0.5,0.5 0,0.2761 0.2239,0.5 0.5,0.5l0 3.5 -10 0 0 -3.5c0.2761,0 0.5,-0.2239 0.5,-0.5 0,-0.2761 -0.2239,-0.5 -0.5,-0.5 -0.2761,0 -0.5,0.2239 -0.5,0.5l-4.5 0 -0.3204 0 -4.1796 0c0,-0.2761 -0.2239,-0.5 -0.5,-0.5 -0.2761,0 -0.5,0.2239 -0.5,0.5 0,0.2761 0.2239,0.5 0.5,0.5l0 3.5 -10 0 0 -3.5c0.2761,0 0.5,-0.2239 0.5,-0.5 0,-0.2761 -0.2239,-0.5 -0.5,-0.5 -0.2761,0 -0.5,0.2239 -0.5,0.5l-4.5 0 -0.3204 0 -4.1796 0c0,-0.2761 -0.2239,-0.5 -0.5,-0.5 -0.2761,0 -0.5,0.2239 -0.5,0.5 0,0.2761 0.2239,0.5 0.5,0.5l0 3.5 -10 0 0 -3.5c0.2761,0 0.5,-0.2239 0.5,-0.5 0,-0.2761 -0.2239,-0.5 -0.5,-0.5 -0.2761,0 -0.5,0.2239 -0.5,0.5l-4.5 0 -0.3204 0 -4.1796 0c0,-0.2761 -0.2239,-0.5 -0.5,-0.5 -0.2761,0 -0.5,0.2239 -0.5,0.5 0,0.2761 0.2239,0.5 0.5,0.5l0 3.5 -10 0 0 -3.5c0.2761,0 0.5,-0.2239 0.5,-0.5 0,-0.2761 -0.2239,-0.5 -0.5,-0.5 -0.2761,0 -0.5,0.2239 -0.5,0.5l-4.5 0 -0.3204 0 -4.1796 0c0,-0.2761 -0.2239,-0.5 -0.5,-0.5 -0.2761,0 -0.5,0.2239 -0.5,0.5 0,0.2761 0.2239,0.5 0.5,0.5l0 3.5 -10 0 0 -3.5c0.2761,0 0.5,-0.2239 0.5,-0.5 0,-0.2761 -0.2239,-0.5 -0.5,-0.5 -0.2761,0 -0.5,0.2239 -0.5,0.5l-4.5 0 -0.3204 0 -4.1796 0c0,-0.2761 -0.2239,-0.5 -0.5,-0.5 -0.2761,0 -0.5,0.2239 -0.5,0.5 0,0.2761 0.2239,0.5 0.5,0.5l0 3.5 -10 0 0 -3.5c0.2761,0 0.5,-0.2239 0.5,-0.5 0,-0.2761 -0.2239,-0.5 -0.5,-0.5 -0.2761,0 -0.5,0.2239 -0.5,0.5l-4.5 0 -0.3204 0 -4.1796 0c0,-0.2761 -0.2239,-0.5 -0.5,-0.5 -0.2761,0 -0.5,0.2239 -0.5,0.5 0,0.2761 0.2239,0.5 0.5,0.5l0 3.5 -10 0 0 -3.5c0.2761,0 0.5,-0.2239 0.5,-0.5 0,-0.2761 -0.2239,-0.5 -0.5,-0.5 -0.2761,0 -0.5,0.2239 -0.5,0.5l-4.5 0 -0.3204 0 -4.1796 0c0,-0.2761 -0.2239,-0.5 -0.5,-0.5 -0.2761,0 -0.5,0.2239 -0.5,0.5 0,0.2761 0.2239,0.5 0.5,0.5l0 3.5 -10 0 0 -3.5c0.2761,0 0.5,-0.2239 0.5,-0.5 0,-0.2761 -0.2239,-0.5 -0.5,-0.5 -0.2761,0 -0.5,0.2239 -0.5,0.5l-4.5 0 -0.3204 0 -4.1796 0c0,-0.2761 -0.2239,-0.5 -0.5,-0.5 -0.2761,0 -0.5,0.2239 -0.5,0.5 0,0.2761 0.2239,0.5 0.5,0.5l0 3.5 -10 0 0 -3.5c0.2761,0 0.5,-0.2239 0.5,-0.5 0,-0.2761 -0.2239,-0.5 -0.5,-0.5 -0.2761,0 -0.5,0.2239 -0.5,0.5l-4.5 0 -0.3204 0 -4.1796 0c0,-0.2761 -0.2239,-0.5 -0.5,-0.5 -0.2761,0 -0.5,0.2239 -0.5,0.5 0,0.2761 0.2239,0.5 0.5,0.5l0 3.5 -10 0 0 -3.5c0.2761,0 0.5,-0.2239 0.5,-0.5 0,-0.2761 -0.2239,-0.5 -0.5,-0.5 -0.2761,0 -0.5,0.2239 -0.5,0.5l-4.5 0 -7 0 0 -3 0 -111 0.0025 0c0.0505,-3.8603 1.5605,-7.3688 4.0026,-10l-0.0051 0 157.606 -157.606 -0.0122 0z"/>
  <circle fill="none" stroke="#1F1A17" stroke-width="0.0762" transform="matrix(2.64845E-014 1 -1 2.64845E-014 9.5 261)" r="1.5"/>
  <path fill="none" stroke="#1F1A17" stroke-width="0.0762" d="M6.5 246c0,-0.2761 0.2239,-0.5 0.5,-0.5 0.2761,0 0.5,0.2239 0.5,0.5l4 0c0,-0.2761 0.2239,-0.5 0.5,-0.5 0.2761,0 0.5,0.2239 0.5,0.5 0,0.2761 -0.2239,0.5 -0.5,0.5l0 9c0.2761,0 0.5,0.2239 0.5,0.5 0,0.2761 -0.2239,0.5 -0.5,0.5 -0.2761,0 -0.5,-0.2239 -0.5,-0.5l-4 0c0,0.2761 -0.2239,0.5 -0.5,0.5 -0.2761,0 -0.5,-0.2239 -0.5,-0.5 0,-0.2761 0.2239,-0.5 0.5,-0.5l0 -9c-0.2761,0 -0.5,-0.2239 -0.5,-0.5z"/>
  <path fill="none" stroke="#1F1A17" stroke-width="0.0762" d="M6.5 266c0,-0.2761 0.2239,-0.5 0.5,-0.5 0.2761,0 0.5,0.2239 0.5,0.5l4 0c0,-0.2761 0.2239,-0.5 0.5,-0.5 0.2761,0 0.5,0.2239 0.5,0.5 0,0.2761 -0.2239,0.5 -0.5,0.5l0 9c0.2761,0 0.5,0.2239 0.5,0.5 0,0.2761 -0.2239,0.5 -0.5,0.5 -0.2761,0 -0.5,-0.2239 -0.5,-0.5l-4 0c0,0.2761 -0.2239,0.5 -0.5,0.5 -0.2761,0 -0.5,-0.2239 -0.5,-0.5 0,-0.2761 0.2239,-0.5 0.5,-0.5l0 -9c-0.2761,0 -0.5,-0.2239 -0.5,-0.5z"/>
  <circle fill="none" stroke="#1F1A17" stroke-width="0.0762" transform="matrix(2.64845E-014 1 -1 2.64845E-014 9.5 200)" r="1.5"/>
  <path fill="none" stroke="#1F1A17" stroke-width="0.0762" d="M6.5 185c0,-0.2761 0.2239,-0.5 0.5,-0.5 0.2761,0 0.5,0.2239 0.5,0.5l4 0c0,-0.2761 0.2239,-0.5 0.5,-0.5 0.2761,0 0.5,0.2239 0.5,0.5 0,0.2761 -0.2239,0.5 -0.5,0.5l0 9c0.2761,0 0.5,0.2239 0.5,0.5 0,0.2761 -0.2239,0.5 -0.5,0.5 -0.2761,0 -0.5,-0.2239 -0.5,-0.5l-4 0c0,0.2761 -0.2239,0.5 -0.5,0.5 -0.2761,0 -0.5,-0.2239 -0.5,-0.5 0,-0.2761 0.2239,-0.5 0.5,-0.5l0 -9c-0.2761,0 -0.5,-0.2239 -0.5,-0.5z"/>
  <path fill="none" stroke="#1F1A17" stroke-width="0.0762" d="M6.5 205c0,-0.2761 0.2239,-0.5 0.5,-0.5 0.2761,0 0.5,0.2239 0.5,0.5l4 0c0,-0.2761 0.2239,-0.5 0.5,-0.5 0.2761,0 0.5,0.2239 0.5,0.5 0,0.2761 -0.2239,0.5 -0.5,0.5l0 9c0.2761,0 0.5,0.2239 0.5,0.5 0,0.2761 -0.2239,0.5 -0.5,0.5 -0.2761,0 -0.5,-0.2239 -0.5,-0.5l-4 0c0,0.2761 -0.2239,0.5 -0.5,0.5 -0.2761,0 -0.5,-0.2239 -0.5,-0.5 0,-0.2761 0.2239,-0.5 0.5,-0.5l0 -9c-0.2761,0 -0.5,-0.2239 -0.5,-0.5z"/>
  <circle fill="none" stroke="#1F1A17" stroke-width="0.0762" cx="368" cy="11.5" r="1.5"/>
  <path fill="none" stroke="#1F1A17" stroke-width="0.0762" d="M383 8.5c0.2761,0 0.5,0.2239 0.5,0.5 0,0.2761 -0.2239,0.5 -0.5,0.5l0 4c0.2761,0 0.5,0.2239 0.5,0.5 0,0.2761 -0.2239,0.5 -0.5,0.5 -0.2761,0 -0.5,-0.2239 -0.5,-0.5l-9 0c0,0.2761 -0.2239,0.5 -0.5,0.5 -0.2761,0 -0.5,-0.2239 -0.5,-0.5 0,-0.2761 0.2239,-0.5 0.5,-0.5l0 -4c-0.2761,0 -0.5,-0.2239 -0.5,-0.5 0,-0.2761 0.2239,-0.5 0.5,-0.5 0.2761,0 0.5,0.2239 0.5,0.5l9 0c0,-0.2761 0.2239,-0.5 0.5,-0.5z"/>
  <path fill="none" stroke="#1F1A17" stroke-width="0.0762" d="M363 8.5c0.2761,0 0.5,0.2239 0.5,0.5 0,0.2761 -0.2239,0.5 -0.5,0.5l0 4c0.2761,0 0.5,0.2239 0.5,0.5 0,0.2761 -0.2239,0.5 -0.5,0.5 -0.2761,0 -0.5,-0.2239 -0.5,-0.5l-9 0c0,0.2761 -0.2239,0.5 -0.5,0.5 -0.2761,0 -0.5,-0.2239 -0.5,-0.5 0,-0.2761 0.2239,-0.5 0.5,-0.5l0 -4c-0.2761,0 -0.5,-0.2239 -0.5,-0.5 0,-0.2761 0.2239,-0.5 0.5,-0.5 0.2761,0 0.5,0.2239 0.5,0.5l9 0c0,-0.2761 0.2239,-0.5 0.5,-0.5z"/>
  <circle fill="none" stroke="#1F1A17" stroke-width="0.0762" cx="198" cy="11.5" r="1.5"/>
  <path fill="none" stroke="#1F1A17" stroke-width="0.0762" d="M213 8.5c0.2761,0 0.5,0.2239 0.5,0.5 0,0.2761 -0.2239,0.5 -0.5,0.5l0 4c0.2761,0 0.5,0.2239 0.5,0.5 0,0.2761 -0.2239,0.5 -0.5,0.5 -0.2761,0 -0.5,-0.2239 -0.5,-0.5l-9 0c0,0.2761 -0.2239,0.5 -0.5,0.5 -0.2761,0 -0.5,-0.2239 -0.5,-0.5 0,-0.2761 0.2239,-0.5 0.5,-0.5l0 -4c-0.2761,0 -0.5,-0.2239 -0.5,-0.5 0,-0.2761 0.2239,-0.5 0.5,-0.5 0.2761,0 0.5,0.2239 0.5,0.5l9 0c0,-0.2761 0.2239,-0.5 0.5,-0.5z"/>
  <path fill="none" stroke="#1F1A17" stroke-width="0.0762" d="M193 8.5c0.2761,0 0.5,0.2239 0.5,0.5 0,0.2761 -0.2239,0.5 -0.5,0.5l0 4c0.2761,0 0.5,0.2239 0.5,0.5 0,0.2761 -0.2239,0.5 -0.5,0.5 -0.2761,0 -0.5,-0.2239 -0.5,-0.5l-9 0c0,0.2761 -0.2239,0.5 -0.5,0.5 -0.2761,0 -0.5,-0.2239 -0.5,-0.5 0,-0.2761 0.2239,-0.5 0.5,-0.5l0 -4c-0.2761,0 -0.5,-0.2239 -0.5,-0.5 0,-0.2761 0.2239,-0.5 0.5,-0.5 0.2761,0 0.5,0.2239 0.5,0.5l9 0c0,-0.2761 0.2239,-0.5 0.5,-0.5z"/>
  <path fill="none" stroke="#1F1A17" stroke-width="0.0762" d="M298 8.5c0.2761,0 0.5,0.2239 0.5,0.5 0,0.2761 -0.2239,0.5 -0.5,0.5l0 4c0.2761,0 0.5,0.2239 0.5,0.5 0,0.2761 -0.2239,0.5 -0.5,0.5 -0.2761,0 -0.5,-0.2239 -0.5,-0.5l-9 0c0,0.2761 -0.2239,0.5 -0.5,0.5 -0.2761,0 -0.5,-0.2239 -0.5,-0.5 0,-0.2761 0.2239,-0.5 0.5,-0.5l0 -4c-0.2761,0 -0.5,-0.2239 -0.5,-0.5 0,-0.2761 0.2239,-0.5 0.5,-0.5 0.2761,0 0.5,0.2239 0.5,0.5l9 0c0,-0.2761 0.2239,-0.5 0.5,-0.5z"/>
  <path fill="none" stroke="#1F1A17" stroke-width="0.0762" d="M278 8.5c0.2761,0 0.5,0.2239 0.5,0.5 0,0.2761 -0.2239,0.5 -0.5,0.5l0 4c0.2761,0 0.5,0.2239 0.5,0.5 0,0.2761 -0.2239,0.5 -0.5,0.5 -0.2761,0 -0.5,-0.2239 -0.5,-0.5l-9 0c0,0.2761 -0.2239,0.5 -0.5,0.5 -0.2761,0 -0.5,-0.2239 -0.5,-0.5 0,-0.2761 0.2239,-0.5 0.5,-0.5l0 -4c-0.2761,0 -0.5,-0.2239 -0.5,-0.5 0,-0.2761 0.2239,-0.5 0.5,-0.5 0.2761,0 0.5,0.2239 0.5,0.5l9 0c0,-0.2761 0.2239,-0.5 0.5,-0.5z"/>
  <circle fill="none" stroke="#1F1A17" stroke-width="0.0762" transform="matrix(-0.707107 0.707107 -0.707107 -0.707107 151.825 32.017)" r="1.5"/>
  <path fill="none" stroke="#1F1A17" stroke-width="0.0762" d="M160.31 19.2891c0.1952,-0.1952 0.5118,-0.1952 0.7071,0 0.1952,0.1952 0.1952,0.5119 0,0.7071l2.8284 2.8284c0.1952,-0.1952 0.5119,-0.1952 0.7071,0 0.1952,0.1953 0.1952,0.5119 0,0.7071 -0.1952,0.1953 -0.5119,0.1953 -0.7071,0l-6.364 6.364c0.1953,0.1952 0.1953,0.5119 0,0.7071 -0.1952,0.1952 -0.5118,0.1952 -0.7071,0 -0.1952,-0.1952 -0.1952,-0.5119 0,-0.7071l-2.8284 -2.8284c-0.1952,0.1952 -0.5119,0.1952 -0.7071,0 -0.1952,-0.1953 -0.1952,-0.5119 0,-0.7071 0.1952,-0.1953 0.5119,-0.1953 0.7071,0l6.364 -6.364c-0.1953,-0.1952 -0.1953,-0.5119 0,-0.7071z"/>
  <path fill="none" stroke="#1F1A17" stroke-width="0.0762" d="M146.168 33.4312c0.1953,-0.1952 0.5119,-0.1952 0.7071,0 0.1953,0.1953 0.1953,0.5119 0,0.7071l2.8285 2.8285c0.1952,-0.1953 0.5118,-0.1953 0.7071,0 0.1952,0.1952 0.1952,0.5118 0,0.7071 -0.1953,0.1952 -0.5119,0.1952 -0.7071,0l-6.364 6.3639c0.1952,0.1953 0.1952,0.5119 0,0.7071 -0.1952,0.1953 -0.5119,0.1953 -0.7071,0 -0.1952,-0.1952 -0.1952,-0.5118 0,-0.7071l-2.8284 -2.8284c-0.1953,0.1952 -0.5119,0.1952 -0.7071,0 -0.1953,-0.1952 -0.1953,-0.5119 0,-0.7071 0.1952,-0.1952 0.5118,-0.1952 0.7071,0l6.3639 -6.364c-0.1952,-0.1952 -0.1952,-0.5118 0,-0.7071z"/>
  <circle fill="none" stroke="#1F1A17" stroke-width="0.0762" transform="matrix(-0.707107 0.707107 -0.707107 -0.707107 31.617 152.225)" r="1.5"/>
  <path fill="none" stroke="#1F1A17" stroke-width="0.0762" d="M40.1023 139.497c0.1952,-0.1953 0.5119,-0.1953 0.7071,0 0.1952,0.1952 0.1952,0.5118 0,0.7071l2.8284 2.8284c0.1953,-0.1952 0.5119,-0.1952 0.7071,0 0.1953,0.1952 0.1953,0.5119 0,0.7071 -0.1952,0.1952 -0.5118,0.1952 -0.7071,0l-6.3639 6.364c0.1952,0.1952 0.1952,0.5118 0,0.7071 -0.1953,0.1952 -0.5119,0.1952 -0.7071,0 -0.1953,-0.1953 -0.1953,-0.5119 0,-0.7071l-2.8285 -2.8285c-0.1952,0.1953 -0.5118,0.1953 -0.7071,0 -0.1952,-0.1952 -0.1952,-0.5118 0,-0.7071 0.1953,-0.1952 0.5119,-0.1952 0.7071,0l6.364 -6.3639c-0.1952,-0.1953 -0.1952,-0.5119 0,-0.7071z"/>
  <path fill="none" stroke="#1F1A17" stroke-width="0.0762" d="M25.9602 153.639c0.1952,-0.1952 0.5118,-0.1952 0.7071,0 0.1952,0.1952 0.1952,0.5119 0,0.7071l2.8284 2.8284c0.1952,-0.1952 0.5119,-0.1952 0.7071,0 0.1952,0.1953 0.1952,0.5119 0,0.7071 -0.1952,0.1953 -0.5119,0.1953 -0.7071,0l-6.364 6.364c0.1953,0.1952 0.1953,0.5119 0,0.7071 -0.1952,0.1952 -0.5118,0.1952 -0.7071,0 -0.1952,-0.1952 -0.1952,-0.5119 0,-0.7071l-2.8284 -2.8284c-0.1952,0.1952 -0.5119,0.1952 -0.7071,0 -0.1952,-0.1953 -0.1952,-0.5119 0,-0.7071 0.1952,-0.1953 0.5119,-0.1953 0.7071,0l6.364 -6.364c-0.1953,-0.1952 -0.1953,-0.5119 0,-0.7071z"/>
  <path fill="none" stroke="#1F1A17" stroke-width="0.0762" d="M100.206 79.3932c0.1952,-0.1953 0.5119,-0.1953 0.7071,0 0.1952,0.1952 0.1952,0.5119 0,0.7071l2.8284 2.8284c0.1952,-0.1952 0.5119,-0.1952 0.7071,0 0.1953,0.1952 0.1953,0.5119 0,0.7071 -0.1952,0.1953 -0.5119,0.1953 -0.7071,0l-6.3639 6.364c0.1952,0.1952 0.1952,0.5119 0,0.7071 -0.1953,0.1952 -0.5119,0.1952 -0.7072,0 -0.1952,-0.1952 -0.1952,-0.5119 0,-0.7071l-2.8284 -2.8284c-0.1952,0.1952 -0.5119,0.1952 -0.7071,0 -0.1952,-0.1953 -0.1952,-0.5119 0,-0.7072 0.1952,-0.1952 0.5119,-0.1952 0.7071,0l6.364 -6.3639c-0.1953,-0.1952 -0.1953,-0.5119 0,-0.7071z"/>
  <path fill="none" stroke="#1F1A17" stroke-width="0.0762" d="M86.0642 93.5353c0.1953,-0.1952 0.5119,-0.1952 0.7072,0 0.1952,0.1952 0.1952,0.5119 0,0.7071l2.8284 2.8284c0.1952,-0.1952 0.5119,-0.1952 0.7071,0 0.1952,0.1953 0.1952,0.5119 0,0.7072 -0.1952,0.1952 -0.5119,0.1952 -0.7071,0l-6.364 6.3639c0.1953,0.1952 0.1953,0.5119 0,0.7071 -0.1952,0.1953 -0.5119,0.1953 -0.7071,0 -0.1952,-0.1952 -0.1952,-0.5119 0,-0.7071l-2.8284 -2.8284c-0.1952,0.1952 -0.5119,0.1952 -0.7071,0 -0.1953,-0.1952 -0.1953,-0.5119 0,-0.7071 0.1952,-0.1953 0.5119,-0.1953 0.7071,0l6.3639 -6.364c-0.1952,-0.1952 -0.1952,-0.5119 0,-0.7071z"/>
  <circle fill="none" stroke="#1F1A17" stroke-width="0.0762" cx="326" cy="200" r="1.5"/>
  <circle fill="none" stroke="#1F1A17" stroke-width="0.0762" cx="246" cy="200" r="1.5"/>
 </g>
</svg>
