  0
SECTION
  2
HEADER
  9
$ACADVER
  1
AC1015
  9
$ACADMAINTVER
 70
     6
  9
$DWGCODEPAGE
  3
ANSI_1252
  9
$INSBASE
 10
0.0
 20
0.0
 30
0.0
  9
$EXTMIN
 10
-296.0381
 20
-146.0381
 30
0.0
  9
$EXTMAX
 10
101.0381
 20
144.0381
 30
0.0
  9
$LIMMIN
 10
0.0
 20
0.0
  9
$LIMMAX
 10
12.0
 20
9.0
  9
$ORTHOMODE
 70
     0
  9
$REGENMODE
 70
     1
  9
$FILLMODE
 70
     1
  9
$QTEXTMODE
 70
     0
  9
$MIRRTEXT
 70
     1
  9
$LTSCALE
 40
1.0
  9
$ATTMODE
 70
     1
  9
$TEXTSIZE
 40
0.2
  9
$TRACEWID
 40
0.05
  9
$TEXTSTYLE
  7
Standard
  9
$CLAYER
  8
0
  9
$CELTYPE
  6
ByLayer
  9
$CECOLOR
 62
   256
  9
$CELTSCALE
 40
1.0
  9
$DISPSILH
 70
     0
  9
$DIMSCALE
 40
1.0
  9
$DIMASZ
 40
0.18
  9
$DIMEXO
 40
0.0625
  9
$DIMDLI
 40
0.38
  9
$DIMRND
 40
0.0
  9
$DIMDLE
 40
0.0
  9
$DIMEXE
 40
0.18
  9
$DIMTP
 40
0.0
  9
$DIMTM
 40
0.0
  9
$DIMTXT
 40
0.18
  9
$DIMCEN
 40
0.09
  9
$DIMTSZ
 40
0.0
  9
$DIMTOL
 70
     0
  9
$DIMLIM
 70
     0
  9
$DIMTIH
 70
     1
  9
$DIMTOH
 70
     1
  9
$DIMSE1
 70
     0
  9
$DIMSE2
 70
     0
  9
$DIMTAD
 70
     0
  9
$DIMZIN
 70
     0
  9
$DIMBLK
  1

  9
$DIMASO
 70
     1
  9
$DIMSHO
 70
     1
  9
$DIMPOST
  1

  9
$DIMAPOST
  1

  9
$DIMALT
 70
     0
  9
$DIMALTD
 70
     2
  9
$DIMALTF
 40
25.4
  9
$DIMLFAC
 40
1.0
  9
$DIMTOFL
 70
     0
  9
$DIMTVP
 40
0.0
  9
$DIMTIX
 70
     0
  9
$DIMSOXD
 70
     0
  9
$DIMSAH
 70
     0
  9
$DIMBLK1
  1

  9
$DIMBLK2
  1

  9
$DIMSTYLE
  2
Standard
  9
$DIMCLRD
 70
     0
  9
$DIMCLRE
 70
     0
  9
$DIMCLRT
 70
     0
  9
$DIMTFAC
 40
1.0
  9
$DIMGAP
 40
0.09
  9
$DIMJUST
 70
     0
  9
$DIMSD1
 70
     0
  9
$DIMSD2
 70
     0
  9
$DIMTOLJ
 70
     1
  9
$DIMTZIN
 70
     0
  9
$DIMALTZ
 70
     0
  9
$DIMALTTZ
 70
     0
  9
$DIMUPT
 70
     0
  9
$DIMDEC
 70
     4
  9
$DIMTDEC
 70
     4
  9
$DIMALTU
 70
     2
  9
$DIMALTTD
 70
     2
  9
$DIMTXSTY
  7
Standard
  9
$DIMAUNIT
 70
     0
  9
$DIMADEC
 70
     0
  9
$DIMALTRND
 40
0.0
  9
$DIMAZIN
 70
     0
  9
$DIMDSEP
 70
    46
  9
$DIMATFIT
 70
     3
  9
$DIMFRAC
 70
     0
  9
$DIMLDRBLK
  1

  9
$DIMLUNIT
 70
     2
  9
$DIMLWD
 70
    -2
  9
$DIMLWE
 70
    -2
  9
$DIMTMOVE
 70
     0
  9
$LUNITS
 70
     2
  9
$LUPREC
 70
     4
  9
$SKETCHINC
 40
0.1
  9
$FILLETRAD
 40
0.5
  9
$AUNITS
 70
     0
  9
$AUPREC
 70
     0
  9
$MENU
  1
.
  9
$ELEVATION
 40
0.0
  9
$PELEVATION
 40
0.0
  9
$THICKNESS
 40
0.0
  9
$LIMCHECK
 70
     0
  9
$CHAMFERA
 40
0.5
  9
$CHAMFERB
 40
0.5
  9
$CHAMFERC
 40
1.0
  9
$CHAMFERD
 40
0.0
  9
$SKPOLY
 70
     0
  9
$TDCREATE
 40
2456237.623253391
  9
$TDUCREATE
 40
2456237.581586725
  9
$TDUPDATE
 40
2456237.623253403
  9
$TDUUPDATE
 40
2456237.581586736
  9
$TDINDWG
 40
0.0000000116
  9
$TDUSRTIMER
 40
0.0000000116
  9
$USRTIMER
 70
     1
  9
$ANGBASE
 50
0.0
  9
$ANGDIR
 70
     0
  9
$PDMODE
 70
     0
  9
$PDSIZE
 40
0.0
  9
$PLINEWID
 40
0.0
  9
$SPLFRAME
 70
     0
  9
$SPLINETYPE
 70
     6
  9
$SPLINESEGS
 70
     8
  9
$HANDSEED
  5
7C
  9
$SURFTAB1
 70
     6
  9
$SURFTAB2
 70
     6
  9
$SURFTYPE
 70
     6
  9
$SURFU
 70
     6
  9
$SURFV
 70
     6
  9
$UCSBASE
  2

  9
$UCSNAME
  2

  9
$UCSORG
 10
0.0
 20
0.0
 30
0.0
  9
$UCSXDIR
 10
1.0
 20
0.0
 30
0.0
  9
$UCSYDIR
 10
0.0
 20
1.0
 30
0.0
  9
$UCSORTHOREF
  2

  9
$UCSORTHOVIEW
 70
     0
  9
$UCSORGTOP
 10
0.0
 20
0.0
 30
0.0
  9
$UCSORGBOTTOM
 10
0.0
 20
0.0
 30
0.0
  9
$UCSORGLEFT
 10
0.0
 20
0.0
 30
0.0
  9
$UCSORGRIGHT
 10
0.0
 20
0.0
 30
0.0
  9
$UCSORGFRONT
 10
0.0
 20
0.0
 30
0.0
  9
$UCSORGBACK
 10
0.0
 20
0.0
 30
0.0
  9
$PUCSBASE
  2

  9
$PUCSNAME
  2

  9
$PUCSORG
 10
0.0
 20
0.0
 30
0.0
  9
$PUCSXDIR
 10
1.0
 20
0.0
 30
0.0
  9
$PUCSYDIR
 10
0.0
 20
1.0
 30
0.0
  9
$PUCSORTHOREF
  2

  9
$PUCSORTHOVIEW
 70
     0
  9
$PUCSORGTOP
 10
0.0
 20
0.0
 30
0.0
  9
$PUCSORGBOTTOM
 10
0.0
 20
0.0
 30
0.0
  9
$PUCSORGLEFT
 10
0.0
 20
0.0
 30
0.0
  9
$PUCSORGRIGHT
 10
0.0
 20
0.0
 30
0.0
  9
$PUCSORGFRONT
 10
0.0
 20
0.0
 30
0.0
  9
$PUCSORGBACK
 10
0.0
 20
0.0
 30
0.0
  9
$USERI1
 70
     0
  9
$USERI2
 70
     0
  9
$USERI3
 70
     0
  9
$USERI4
 70
     0
  9
$USERI5
 70
     0
  9
$USERR1
 40
0.0
  9
$USERR2
 40
0.0
  9
$USERR3
 40
0.0
  9
$USERR4
 40
0.0
  9
$USERR5
 40
0.0
  9
$WORLDVIEW
 70
     1
  9
$SHADEDGE
 70
     3
  9
$SHADEDIF
 70
    70
  9
$TILEMODE
 70
     1
  9
$MAXACTVP
 70
    64
  9
$PINSBASE
 10
0.0
 20
0.0
 30
0.0
  9
$PLIMCHECK
 70
     0
  9
$PEXTMIN
 10
1.000000000000000E+20
 20
1.000000000000000E+20
 30
1.000000000000000E+20
  9
$PEXTMAX
 10
-1.000000000000000E+20
 20
-1.000000000000000E+20
 30
-1.000000000000000E+20
  9
$PLIMMIN
 10
0.0
 20
0.0
  9
$PLIMMAX
 10
12.0
 20
9.0
  9
$UNITMODE
 70
     0
  9
$VISRETAIN
 70
     1
  9
$PLINEGEN
 70
     0
  9
$PSLTSCALE
 70
     1
  9
$TREEDEPTH
 70
  3020
  9
$CMLSTYLE
  2
Standard
  9
$CMLJUST
 70
     0
  9
$CMLSCALE
 40
1.0
  9
$PROXYGRAPHICS
 70
     1
  9
$MEASUREMENT
 70
     0
  9
$CELWEIGHT
370
    -1
  9
$ENDCAPS
280
     0
  9
$JOINSTYLE
280
     0
  9
$LWDISPLAY
290
     0
  9
$INSUNITS
 70
     4
  9
$HYPERLINKBASE
  1

  9
$STYLESHEET
  1

  9
$XEDIT
290
     1
  9
$CEPSNTYPE
380
     0
  9
$PSTYLEMODE
290
     1
  9
$FINGERPRINTGUID
  2
{20127247-6AA3-49D1-818D-11C7D61322C2}
  9
$VERSIONGUID
  2
{FAEB1C32-E019-11D5-929B-00C0DF256EC4}
  9
$EXTNAMES
290
     1
  9
$PSVPSCALE
 40
0.0
  9
$OLESTARTUP
290
     0
  0
ENDSEC
  0
SECTION
  2
CLASSES
  0
CLASS
  1
ACDBDICTIONARYWDFLT
  2
AcDbDictionaryWithDefault
  3
ObjectDBX Classes
 90
        0
280
     0
281
     0
  0
CLASS
  1
VISUALSTYLE
  2
AcDbVisualStyle
  3
ObjectDBX Classes
 90
     4095
280
     0
281
     0
  0
CLASS
  1
SCALE
  2
AcDbScale
  3
ObjectDBX Classes
 90
     1153
280
     0
281
     0
  0
CLASS
  1
DICTIONARYVAR
  2
AcDbDictionaryVar
  3
ObjectDBX Classes
 90
        0
280
     0
281
     0
  0
CLASS
  1
ACDBPLACEHOLDER
  2
AcDbPlaceHolder
  3
ObjectDBX Classes
 90
        0
280
     0
281
     0
  0
CLASS
  1
LAYOUT
  2
AcDbLayout
  3
ObjectDBX Classes
 90
        0
280
     0
281
     0
  0
ENDSEC
  0
SECTION
  2
TABLES
  0
TABLE
  2
VPORT
  5
8
330
0
100
AcDbSymbolTable
 70
     1
  0
VPORT
  5
29
330
8
100
AcDbSymbolTableRecord
100
AcDbViewportTableRecord
  2
*Active
 70
     0
 10
0.0
 20
0.0
 11
1.0
 21
1.0
 12
10.42990654205607
 22
4.5
 13
0.0
 23
0.0
 14
0.5
 24
0.5
 15
0.5
 25
0.5
 16
0.0
 26
0.0
 36
1.0
 17
0.0
 27
0.0
 37
0.0
 40
9.0
 41
1.972972972850329
 42
50.0
 43
0.0
 44
0.0
 50
0.0
 51
0.0
 71
     0
 72
   100
 73
     1
 74
     3
 75
     0
 76
     0
 77
     0
 78
     0
281
     0
 65
     1
110
0.0
120
0.0
130
0.0
111
1.0
121
0.0
131
0.0
112
0.0
122
1.0
132
0.0
 79
     0
146
0.0
  0
ENDTAB
  0
TABLE
  2
LTYPE
  5
5
330
0
100
AcDbSymbolTable
 70
     1
  0
LTYPE
  5
14
330
5
100
AcDbSymbolTableRecord
100
AcDbLinetypeTableRecord
  2
ByBlock
 70
     0
  3

 72
    65
 73
     0
 40
0.0
  0
LTYPE
  5
15
330
5
100
AcDbSymbolTableRecord
100
AcDbLinetypeTableRecord
  2
ByLayer
 70
     0
  3

 72
    65
 73
     0
 40
0.0
  0
LTYPE
  5
16
330
5
100
AcDbSymbolTableRecord
100
AcDbLinetypeTableRecord
  2
Continuous
 70
     0
  3
Solid line
 72
    65
 73
     0
 40
0.0
  0
ENDTAB
  0
TABLE
  2
LAYER
  5
2
330
0
100
AcDbSymbolTable
 70
     2
  0
LAYER
  5
10
330
2
100
AcDbSymbolTableRecord
100
AcDbLayerTableRecord
  2
0
 70
     0
 62
     7
  6
Continuous
370
    -3
390
F
  0
LAYER
  5
5E
330
2
100
AcDbSymbolTableRecord
100
AcDbLayerTableRecord
  2
Layer 1
 70
     0
 62
     7
  6
Continuous
370
    -3
390
F
  0
ENDTAB
  0
TABLE
  2
STYLE
  5
3
330
0
100
AcDbSymbolTable
 70
     1
  0
STYLE
  5
11
330
3
100
AcDbSymbolTableRecord
100
AcDbTextStyleTableRecord
  2
Standard
 70
     0
 40
0.0
 41
1.0
 50
0.0
 71
     0
 42
0.2
  3
txt
  4

  0
ENDTAB
  0
TABLE
  2
VIEW
  5
6
330
0
100
AcDbSymbolTable
 70
     0
  0
ENDTAB
  0
TABLE
  2
UCS
  5
7
330
0
100
AcDbSymbolTable
 70
     0
  0
ENDTAB
  0
TABLE
  2
APPID
  5
9
330
0
100
AcDbSymbolTable
 70
     2
  0
APPID
  5
12
330
9
100
AcDbSymbolTableRecord
100
AcDbRegAppTableRecord
  2
ACAD
 70
     0
  0
APPID
  5
5D
330
9
100
AcDbSymbolTableRecord
100
AcDbRegAppTableRecord
  2
ODA
 70
     0
  0
ENDTAB
  0
TABLE
  2
DIMSTYLE
  5
A
330
0
100
AcDbSymbolTable
 70
     1
100
AcDbDimStyleTable
  0
DIMSTYLE
105
27
330
A
100
AcDbSymbolTableRecord
100
AcDbDimStyleTableRecord
  2
Standard
 70
     0
340
11
  0
ENDTAB
  0
TABLE
  2
BLOCK_RECORD
  5
1
330
0
100
AcDbSymbolTable
 70
     1
  0
BLOCK_RECORD
  5
1F
330
1
100
AcDbSymbolTableRecord
100
AcDbBlockTableRecord
  2
*Model_Space
340
22
  0
BLOCK_RECORD
  5
1B
330
1
100
AcDbSymbolTableRecord
100
AcDbBlockTableRecord
  2
*Paper_Space
340
1E
  0
BLOCK_RECORD
  5
23
330
1
100
AcDbSymbolTableRecord
100
AcDbBlockTableRecord
  2
*Paper_Space0
340
26
  0
ENDTAB
  0
ENDSEC
  0
SECTION
  2
BLOCKS
  0
BLOCK
  5
20
330
1F
100
AcDbEntity
  8
0
100
AcDbBlockBegin
  2
*Model_Space
 70
     0
 10
0.0
 20
0.0
 30
0.0
  3
*Model_Space
  1

  0
ENDBLK
  5
21
330
1F
100
AcDbEntity
  8
0
100
AcDbBlockEnd
  0
BLOCK
  5
1C
330
1B
100
AcDbEntity
 67
     1
  8
0
100
AcDbBlockBegin
  2
*Paper_Space
 70
     0
 10
0.0
 20
0.0
 30
0.0
  3
*Paper_Space
  1

  0
ENDBLK
  5
1D
330
1B
100
AcDbEntity
 67
     1
  8
0
100
AcDbBlockEnd
  0
BLOCK
  5
24
330
23
100
AcDbEntity
  8
0
100
AcDbBlockBegin
  2
*Paper_Space0
 70
     0
 10
0.0
 20
0.0
 30
0.0
  3
*Paper_Space0
  1

  0
ENDBLK
  5
25
330
23
100
AcDbEntity
  8
0
100
AcDbBlockEnd
  0
ENDSEC
  0
SECTION
  2
ENTITIES
  0
SPLINE
  5
5F
330
1F
100
AcDbEntity
  8
Layer 1
 62
   250
370
     9
100
AcDbSpline
210
0.0
220
0.0
230
1.0
 70
    11
 71
     3
 72
  1392
 73
  1388
 74
     0
 42
0.0000000001
 43
0.0000000001
 40
0.0
 40
0.0
 40
0.0
 40
0.0
 40
0.0028818443804035
 40
0.0028818443804035
 40
0.0028818443804035
 40
0.0028818443804035
 40
0.0057636887608069
 40
0.0057636887608069
 40
0.0057636887608069
 40
0.0057636887608069
 40
0.0086455331412104
 40
0.0086455331412104
 40
0.0086455331412104
 40
0.0086455331412104
 40
0.0115273775216138
 40
0.0115273775216138
 40
0.0115273775216138
 40
0.0115273775216138
 40
0.0144092219020173
 40
0.0144092219020173
 40
0.0144092219020173
 40
0.0144092219020173
 40
0.0172910662824207
 40
0.0172910662824207
 40
0.0172910662824207
 40
0.0172910662824207
 40
0.0201729106628242
 40
0.0201729106628242
 40
0.0201729106628242
 40
0.0201729106628242
 40
0.0230547550432277
 40
0.0230547550432277
 40
0.0230547550432277
 40
0.0230547550432277
 40
0.0259365994236311
 40
0.0259365994236311
 40
0.0259365994236311
 40
0.0259365994236311
 40
0.0288184438040346
 40
0.0288184438040346
 40
0.0288184438040346
 40
0.0288184438040346
 40
0.031700288184438
 40
0.031700288184438
 40
0.031700288184438
 40
0.031700288184438
 40
0.0345821325648415
 40
0.0345821325648415
 40
0.0345821325648415
 40
0.0345821325648415
 40
0.037463976945245
 40
0.037463976945245
 40
0.037463976945245
 40
0.037463976945245
 40
0.0403458213256484
 40
0.0403458213256484
 40
0.0403458213256484
 40
0.0403458213256484
 40
0.0432276657060519
 40
0.0432276657060519
 40
0.0432276657060519
 40
0.0432276657060519
 40
0.0461095100864553
 40
0.0461095100864553
 40
0.0461095100864553
 40
0.0461095100864553
 40
0.0489913544668588
 40
0.0489913544668588
 40
0.0489913544668588
 40
0.0489913544668588
 40
0.0518731988472623
 40
0.0518731988472623
 40
0.0518731988472623
 40
0.0518731988472623
 40
0.0547550432276657
 40
0.0547550432276657
 40
0.0547550432276657
 40
0.0547550432276657
 40
0.0576368876080692
 40
0.0576368876080692
 40
0.0576368876080692
 40
0.0576368876080692
 40
0.0605187319884726
 40
0.0605187319884726
 40
0.0605187319884726
 40
0.0605187319884726
 40
0.0634005763688761
 40
0.0634005763688761
 40
0.0634005763688761
 40
0.0634005763688761
 40
0.0662824207492795
 40
0.0662824207492795
 40
0.0662824207492795
 40
0.0662824207492795
 40
0.069164265129683
 40
0.069164265129683
 40
0.069164265129683
 40
0.069164265129683
 40
0.0720461095100865
 40
0.0720461095100865
 40
0.0720461095100865
 40
0.0720461095100865
 40
0.0749279538904899
 40
0.0749279538904899
 40
0.0749279538904899
 40
0.0749279538904899
 40
0.0778097982708934
 40
0.0778097982708934
 40
0.0778097982708934
 40
0.0778097982708934
 40
0.0806916426512968
 40
0.0806916426512968
 40
0.0806916426512968
 40
0.0806916426512968
 40
0.0835734870317003
 40
0.0835734870317003
 40
0.0835734870317003
 40
0.0835734870317003
 40
0.0864553314121037
 40
0.0864553314121037
 40
0.0864553314121037
 40
0.0864553314121037
 40
0.0893371757925072
 40
0.0893371757925072
 40
0.0893371757925072
 40
0.0893371757925072
 40
0.0922190201729106
 40
0.0922190201729106
 40
0.0922190201729106
 40
0.0922190201729106
 40
0.0951008645533141
 40
0.0951008645533141
 40
0.0951008645533141
 40
0.0951008645533141
 40
0.0979827089337175
 40
0.0979827089337175
 40
0.0979827089337175
 40
0.0979827089337175
 40
0.100864553314121
 40
0.100864553314121
 40
0.100864553314121
 40
0.100864553314121
 40
0.1037463976945244
 40
0.1037463976945244
 40
0.1037463976945244
 40
0.1037463976945244
 40
0.1066282420749279
 40
0.1066282420749279
 40
0.1066282420749279
 40
0.1066282420749279
 40
0.1095100864553313
 40
0.1095100864553313
 40
0.1095100864553313
 40
0.1095100864553313
 40
0.1123919308357348
 40
0.1123919308357348
 40
0.1123919308357348
 40
0.1123919308357348
 40
0.1152737752161383
 40
0.1152737752161383
 40
0.1152737752161383
 40
0.1152737752161383
 40
0.1181556195965417
 40
0.1181556195965417
 40
0.1181556195965417
 40
0.1181556195965417
 40
0.1210374639769452
 40
0.1210374639769452
 40
0.1210374639769452
 40
0.1210374639769452
 40
0.1239193083573486
 40
0.1239193083573486
 40
0.1239193083573486
 40
0.1239193083573486
 40
0.1268011527377521
 40
0.1268011527377521
 40
0.1268011527377521
 40
0.1268011527377521
 40
0.1296829971181555
 40
0.1296829971181555
 40
0.1296829971181555
 40
0.1296829971181555
 40
0.132564841498559
 40
0.132564841498559
 40
0.132564841498559
 40
0.132564841498559
 40
0.1354466858789624
 40
0.1354466858789624
 40
0.1354466858789624
 40
0.1354466858789624
 40
0.1383285302593659
 40
0.1383285302593659
 40
0.1383285302593659
 40
0.1383285302593659
 40
0.1412103746397693
 40
0.1412103746397693
 40
0.1412103746397693
 40
0.1412103746397693
 40
0.1440922190201728
 40
0.1440922190201728
 40
0.1440922190201728
 40
0.1440922190201728
 40
0.1469740634005763
 40
0.1469740634005763
 40
0.1469740634005763
 40
0.1469740634005763
 40
0.1498559077809797
 40
0.1498559077809797
 40
0.1498559077809797
 40
0.1498559077809797
 40
0.1527377521613832
 40
0.1527377521613832
 40
0.1527377521613832
 40
0.1527377521613832
 40
0.1556195965417866
 40
0.1556195965417866
 40
0.1556195965417866
 40
0.1556195965417866
 40
0.1585014409221901
 40
0.1585014409221901
 40
0.1585014409221901
 40
0.1585014409221901
 40
0.1613832853025935
 40
0.1613832853025935
 40
0.1613832853025935
 40
0.1613832853025935
 40
0.164265129682997
 40
0.164265129682997
 40
0.164265129682997
 40
0.164265129682997
 40
0.1671469740634004
 40
0.1671469740634004
 40
0.1671469740634004
 40
0.1671469740634004
 40
0.1700288184438039
 40
0.1700288184438039
 40
0.1700288184438039
 40
0.1700288184438039
 40
0.1729106628242073
 40
0.1729106628242073
 40
0.1729106628242073
 40
0.1729106628242073
 40
0.1757925072046108
 40
0.1757925072046108
 40
0.1757925072046108
 40
0.1757925072046108
 40
0.1786743515850142
 40
0.1786743515850142
 40
0.1786743515850142
 40
0.1786743515850142
 40
0.1815561959654177
 40
0.1815561959654177
 40
0.1815561959654177
 40
0.1815561959654177
 40
0.1844380403458211
 40
0.1844380403458211
 40
0.1844380403458211
 40
0.1844380403458211
 40
0.1873198847262246
 40
0.1873198847262246
 40
0.1873198847262246
 40
0.1873198847262246
 40
0.1902017291066281
 40
0.1902017291066281
 40
0.1902017291066281
 40
0.1902017291066281
 40
0.1930835734870315
 40
0.1930835734870315
 40
0.1930835734870315
 40
0.1930835734870315
 40
0.195965417867435
 40
0.195965417867435
 40
0.195965417867435
 40
0.195965417867435
 40
0.1988472622478384
 40
0.1988472622478384
 40
0.1988472622478384
 40
0.1988472622478384
 40
0.2017291066282419
 40
0.2017291066282419
 40
0.2017291066282419
 40
0.2017291066282419
 40
0.2046109510086453
 40
0.2046109510086453
 40
0.2046109510086453
 40
0.2046109510086453
 40
0.2074927953890488
 40
0.2074927953890488
 40
0.2074927953890488
 40
0.2074927953890488
 40
0.2103746397694522
 40
0.2103746397694522
 40
0.2103746397694522
 40
0.2103746397694522
 40
0.2132564841498557
 40
0.2132564841498557
 40
0.2132564841498557
 40
0.2132564841498557
 40
0.2161383285302591
 40
0.2161383285302591
 40
0.2161383285302591
 40
0.2161383285302591
 40
0.2190201729106626
 40
0.2190201729106626
 40
0.2190201729106626
 40
0.2190201729106626
 40
0.221902017291066
 40
0.221902017291066
 40
0.221902017291066
 40
0.221902017291066
 40
0.2247838616714695
 40
0.2247838616714695
 40
0.2247838616714695
 40
0.2247838616714695
 40
0.2276657060518729
 40
0.2276657060518729
 40
0.2276657060518729
 40
0.2276657060518729
 40
0.2305475504322764
 40
0.2305475504322764
 40
0.2305475504322764
 40
0.2305475504322764
 40
0.2334293948126799
 40
0.2334293948126799
 40
0.2334293948126799
 40
0.2334293948126799
 40
0.2363112391930833
 40
0.2363112391930833
 40
0.2363112391930833
 40
0.2363112391930833
 40
0.2391930835734868
 40
0.2391930835734868
 40
0.2391930835734868
 40
0.2391930835734868
 40
0.2420749279538902
 40
0.2420749279538902
 40
0.2420749279538902
 40
0.2420749279538902
 40
0.2449567723342937
 40
0.2449567723342937
 40
0.2449567723342937
 40
0.2449567723342937
 40
0.2478386167146971
 40
0.2478386167146971
 40
0.2478386167146971
 40
0.2478386167146971
 40
0.2507204610951006
 40
0.2507204610951006
 40
0.2507204610951006
 40
0.2507204610951006
 40
0.2536023054755041
 40
0.2536023054755041
 40
0.2536023054755041
 40
0.2536023054755041
 40
0.2564841498559075
 40
0.2564841498559075
 40
0.2564841498559075
 40
0.2564841498559075
 40
0.259365994236311
 40
0.259365994236311
 40
0.259365994236311
 40
0.259365994236311
 40
0.2622478386167144
 40
0.2622478386167144
 40
0.2622478386167144
 40
0.2622478386167144
 40
0.2651296829971179
 40
0.2651296829971179
 40
0.2651296829971179
 40
0.2651296829971179
 40
0.2680115273775213
 40
0.2680115273775213
 40
0.2680115273775213
 40
0.2680115273775213
 40
0.2708933717579248
 40
0.2708933717579248
 40
0.2708933717579248
 40
0.2708933717579248
 40
0.2737752161383282
 40
0.2737752161383282
 40
0.2737752161383282
 40
0.2737752161383282
 40
0.2766570605187317
 40
0.2766570605187317
 40
0.2766570605187317
 40
0.2766570605187317
 40
0.2795389048991351
 40
0.2795389048991351
 40
0.2795389048991351
 40
0.2795389048991351
 40
0.2824207492795386
 40
0.2824207492795386
 40
0.2824207492795386
 40
0.2824207492795386
 40
0.285302593659942
 40
0.285302593659942
 40
0.285302593659942
 40
0.285302593659942
 40
0.2881844380403455
 40
0.2881844380403455
 40
0.2881844380403455
 40
0.2881844380403455
 40
0.2910662824207489
 40
0.2910662824207489
 40
0.2910662824207489
 40
0.2910662824207489
 40
0.2939481268011524
 40
0.2939481268011524
 40
0.2939481268011524
 40
0.2939481268011524
 40
0.2968299711815559
 40
0.2968299711815559
 40
0.2968299711815559
 40
0.2968299711815559
 40
0.2997118155619593
 40
0.2997118155619593
 40
0.2997118155619593
 40
0.2997118155619593
 40
0.3025936599423628
 40
0.3025936599423628
 40
0.3025936599423628
 40
0.3025936599423628
 40
0.3054755043227662
 40
0.3054755043227662
 40
0.3054755043227662
 40
0.3054755043227662
 40
0.3083573487031697
 40
0.3083573487031697
 40
0.3083573487031697
 40
0.3083573487031697
 40
0.3112391930835731
 40
0.3112391930835731
 40
0.3112391930835731
 40
0.3112391930835731
 40
0.3141210374639766
 40
0.3141210374639766
 40
0.3141210374639766
 40
0.3141210374639766
 40
0.31700288184438
 40
0.31700288184438
 40
0.31700288184438
 40
0.31700288184438
 40
0.3198847262247835
 40
0.3198847262247835
 40
0.3198847262247835
 40
0.3198847262247835
 40
0.3227665706051869
 40
0.3227665706051869
 40
0.3227665706051869
 40
0.3227665706051869
 40
0.3256484149855904
 40
0.3256484149855904
 40
0.3256484149855904
 40
0.3256484149855904
 40
0.3285302593659938
 40
0.3285302593659938
 40
0.3285302593659938
 40
0.3285302593659938
 40
0.3314121037463973
 40
0.3314121037463973
 40
0.3314121037463973
 40
0.3314121037463973
 40
0.3342939481268007
 40
0.3342939481268007
 40
0.3342939481268007
 40
0.3342939481268007
 40
0.3371757925072042
 40
0.3371757925072042
 40
0.3371757925072042
 40
0.3371757925072042
 40
0.3400576368876077
 40
0.3400576368876077
 40
0.3400576368876077
 40
0.3400576368876077
 40
0.3429394812680111
 40
0.3429394812680111
 40
0.3429394812680111
 40
0.3429394812680111
 40
0.3458213256484146
 40
0.3458213256484146
 40
0.3458213256484146
 40
0.3458213256484146
 40
0.348703170028818
 40
0.348703170028818
 40
0.348703170028818
 40
0.348703170028818
 40
0.3515850144092215
 40
0.3515850144092215
 40
0.3515850144092215
 40
0.3515850144092215
 40
0.3544668587896249
 40
0.3544668587896249
 40
0.3544668587896249
 40
0.3544668587896249
 40
0.3573487031700284
 40
0.3573487031700284
 40
0.3573487031700284
 40
0.3573487031700284
 40
0.3602305475504318
 40
0.3602305475504318
 40
0.3602305475504318
 40
0.3602305475504318
 40
0.3631123919308353
 40
0.3631123919308353
 40
0.3631123919308353
 40
0.3631123919308353
 40
0.3659942363112387
 40
0.3659942363112387
 40
0.3659942363112387
 40
0.3659942363112387
 40
0.3688760806916422
 40
0.3688760806916422
 40
0.3688760806916422
 40
0.3688760806916422
 40
0.3717579250720456
 40
0.3717579250720456
 40
0.3717579250720456
 40
0.3717579250720456
 40
0.3746397694524491
 40
0.3746397694524491
 40
0.3746397694524491
 40
0.3746397694524491
 40
0.3775216138328525
 40
0.3775216138328525
 40
0.3775216138328525
 40
0.3775216138328525
 40
0.380403458213256
 40
0.380403458213256
 40
0.380403458213256
 40
0.380403458213256
 40
0.3832853025936594
 40
0.3832853025936594
 40
0.3832853025936594
 40
0.3832853025936594
 40
0.3861671469740629
 40
0.3861671469740629
 40
0.3861671469740629
 40
0.3861671469740629
 40
0.3890489913544664
 40
0.3890489913544664
 40
0.3890489913544664
 40
0.3890489913544664
 40
0.3919308357348698
 40
0.3919308357348698
 40
0.3919308357348698
 40
0.3919308357348698
 40
0.3948126801152733
 40
0.3948126801152733
 40
0.3948126801152733
 40
0.3948126801152733
 40
0.3976945244956767
 40
0.3976945244956767
 40
0.3976945244956767
 40
0.3976945244956767
 40
0.4005763688760802
 40
0.4005763688760802
 40
0.4005763688760802
 40
0.4005763688760802
 40
0.4034582132564836
 40
0.4034582132564836
 40
0.4034582132564836
 40
0.4034582132564836
 40
0.4063400576368871
 40
0.4063400576368871
 40
0.4063400576368871
 40
0.4063400576368871
 40
0.4092219020172905
 40
0.4092219020172905
 40
0.4092219020172905
 40
0.4092219020172905
 40
0.412103746397694
 40
0.412103746397694
 40
0.412103746397694
 40
0.412103746397694
 40
0.4149855907780974
 40
0.4149855907780974
 40
0.4149855907780974
 40
0.4149855907780974
 40
0.4178674351585009
 40
0.4178674351585009
 40
0.4178674351585009
 40
0.4178674351585009
 40
0.4207492795389043
 40
0.4207492795389043
 40
0.4207492795389043
 40
0.4207492795389043
 40
0.4236311239193078
 40
0.4236311239193078
 40
0.4236311239193078
 40
0.4236311239193078
 40
0.4265129682997112
 40
0.4265129682997112
 40
0.4265129682997112
 40
0.4265129682997112
 40
0.4293948126801147
 40
0.4293948126801147
 40
0.4293948126801147
 40
0.4293948126801147
 40
0.4322766570605182
 40
0.4322766570605182
 40
0.4322766570605182
 40
0.4322766570605182
 40
0.4351585014409216
 40
0.4351585014409216
 40
0.4351585014409216
 40
0.4351585014409216
 40
0.4380403458213251
 40
0.4380403458213251
 40
0.4380403458213251
 40
0.4380403458213251
 40
0.4409221902017285
 40
0.4409221902017285
 40
0.4409221902017285
 40
0.4409221902017285
 40
0.443804034582132
 40
0.443804034582132
 40
0.443804034582132
 40
0.443804034582132
 40
0.4466858789625354
 40
0.4466858789625354
 40
0.4466858789625354
 40
0.4466858789625354
 40
0.4495677233429389
 40
0.4495677233429389
 40
0.4495677233429389
 40
0.4495677233429389
 40
0.4524495677233423
 40
0.4524495677233423
 40
0.4524495677233423
 40
0.4524495677233423
 40
0.4553314121037458
 40
0.4553314121037458
 40
0.4553314121037458
 40
0.4553314121037458
 40
0.4582132564841492
 40
0.4582132564841492
 40
0.4582132564841492
 40
0.4582132564841492
 40
0.4610951008645527
 40
0.4610951008645527
 40
0.4610951008645527
 40
0.4610951008645527
 40
0.4639769452449561
 40
0.4639769452449561
 40
0.4639769452449561
 40
0.4639769452449561
 40
0.4668587896253596
 40
0.4668587896253596
 40
0.4668587896253596
 40
0.4668587896253596
 40
0.469740634005763
 40
0.469740634005763
 40
0.469740634005763
 40
0.469740634005763
 40
0.4726224783861665
 40
0.4726224783861665
 40
0.4726224783861665
 40
0.4726224783861665
 40
0.47550432276657
 40
0.47550432276657
 40
0.47550432276657
 40
0.47550432276657
 40
0.4783861671469734
 40
0.4783861671469734
 40
0.4783861671469734
 40
0.4783861671469734
 40
0.4812680115273769
 40
0.4812680115273769
 40
0.4812680115273769
 40
0.4812680115273769
 40
0.4841498559077803
 40
0.4841498559077803
 40
0.4841498559077803
 40
0.4841498559077803
 40
0.4870317002881838
 40
0.4870317002881838
 40
0.4870317002881838
 40
0.4870317002881838
 40
0.4899135446685872
 40
0.4899135446685872
 40
0.4899135446685872
 40
0.4899135446685872
 40
0.4927953890489907
 40
0.4927953890489907
 40
0.4927953890489907
 40
0.4927953890489907
 40
0.4956772334293941
 40
0.4956772334293941
 40
0.4956772334293941
 40
0.4956772334293941
 40
0.4985590778097976
 40
0.4985590778097976
 40
0.4985590778097976
 40
0.4985590778097976
 40
0.5014409221902011
 40
0.5014409221902011
 40
0.5014409221902011
 40
0.5014409221902011
 40
0.5043227665706046
 40
0.5043227665706046
 40
0.5043227665706046
 40
0.5043227665706046
 40
0.5072046109510081
 40
0.5072046109510081
 40
0.5072046109510081
 40
0.5072046109510081
 40
0.5100864553314116
 40
0.5100864553314116
 40
0.5100864553314116
 40
0.5100864553314116
 40
0.5129682997118151
 40
0.5129682997118151
 40
0.5129682997118151
 40
0.5129682997118151
 40
0.5158501440922186
 40
0.5158501440922186
 40
0.5158501440922186
 40
0.5158501440922186
 40
0.5187319884726221
 40
0.5187319884726221
 40
0.5187319884726221
 40
0.5187319884726221
 40
0.5216138328530256
 40
0.5216138328530256
 40
0.5216138328530256
 40
0.5216138328530256
 40
0.5244956772334292
 40
0.5244956772334292
 40
0.5244956772334292
 40
0.5244956772334292
 40
0.5273775216138327
 40
0.5273775216138327
 40
0.5273775216138327
 40
0.5273775216138327
 40
0.5302593659942362
 40
0.5302593659942362
 40
0.5302593659942362
 40
0.5302593659942362
 40
0.5331412103746397
 40
0.5331412103746397
 40
0.5331412103746397
 40
0.5331412103746397
 40
0.5360230547550432
 40
0.5360230547550432
 40
0.5360230547550432
 40
0.5360230547550432
 40
0.5389048991354467
 40
0.5389048991354467
 40
0.5389048991354467
 40
0.5389048991354467
 40
0.5417867435158502
 40
0.5417867435158502
 40
0.5417867435158502
 40
0.5417867435158502
 40
0.5446685878962537
 40
0.5446685878962537
 40
0.5446685878962537
 40
0.5446685878962537
 40
0.5475504322766572
 40
0.5475504322766572
 40
0.5475504322766572
 40
0.5475504322766572
 40
0.5504322766570607
 40
0.5504322766570607
 40
0.5504322766570607
 40
0.5504322766570607
 40
0.5533141210374642
 40
0.5533141210374642
 40
0.5533141210374642
 40
0.5533141210374642
 40
0.5561959654178678
 40
0.5561959654178678
 40
0.5561959654178678
 40
0.5561959654178678
 40
0.5590778097982713
 40
0.5590778097982713
 40
0.5590778097982713
 40
0.5590778097982713
 40
0.5619596541786748
 40
0.5619596541786748
 40
0.5619596541786748
 40
0.5619596541786748
 40
0.5648414985590783
 40
0.5648414985590783
 40
0.5648414985590783
 40
0.5648414985590783
 40
0.5677233429394818
 40
0.5677233429394818
 40
0.5677233429394818
 40
0.5677233429394818
 40
0.5706051873198853
 40
0.5706051873198853
 40
0.5706051873198853
 40
0.5706051873198853
 40
0.5734870317002888
 40
0.5734870317002888
 40
0.5734870317002888
 40
0.5734870317002888
 40
0.5763688760806923
 40
0.5763688760806923
 40
0.5763688760806923
 40
0.5763688760806923
 40
0.5792507204610958
 40
0.5792507204610958
 40
0.5792507204610958
 40
0.5792507204610958
 40
0.5821325648414993
 40
0.5821325648414993
 40
0.5821325648414993
 40
0.5821325648414993
 40
0.5850144092219028
 40
0.5850144092219028
 40
0.5850144092219028
 40
0.5850144092219028
 40
0.5878962536023064
 40
0.5878962536023064
 40
0.5878962536023064
 40
0.5878962536023064
 40
0.5907780979827099
 40
0.5907780979827099
 40
0.5907780979827099
 40
0.5907780979827099
 40
0.5936599423631134
 40
0.5936599423631134
 40
0.5936599423631134
 40
0.5936599423631134
 40
0.5965417867435169
 40
0.5965417867435169
 40
0.5965417867435169
 40
0.5965417867435169
 40
0.5994236311239204
 40
0.5994236311239204
 40
0.5994236311239204
 40
0.5994236311239204
 40
0.6023054755043239
 40
0.6023054755043239
 40
0.6023054755043239
 40
0.6023054755043239
 40
0.6051873198847274
 40
0.6051873198847274
 40
0.6051873198847274
 40
0.6051873198847274
 40
0.6080691642651309
 40
0.6080691642651309
 40
0.6080691642651309
 40
0.6080691642651309
 40
0.6109510086455344
 40
0.6109510086455344
 40
0.6109510086455344
 40
0.6109510086455344
 40
0.6138328530259379
 40
0.6138328530259379
 40
0.6138328530259379
 40
0.6138328530259379
 40
0.6167146974063414
 40
0.6167146974063414
 40
0.6167146974063414
 40
0.6167146974063414
 40
0.619596541786745
 40
0.619596541786745
 40
0.619596541786745
 40
0.619596541786745
 40
0.6224783861671485
 40
0.6224783861671485
 40
0.6224783861671485
 40
0.6224783861671485
 40
0.625360230547552
 40
0.625360230547552
 40
0.625360230547552
 40
0.625360230547552
 40
0.6282420749279555
 40
0.6282420749279555
 40
0.6282420749279555
 40
0.6282420749279555
 40
0.631123919308359
 40
0.631123919308359
 40
0.631123919308359
 40
0.631123919308359
 40
0.6340057636887625
 40
0.6340057636887625
 40
0.6340057636887625
 40
0.6340057636887625
 40
0.636887608069166
 40
0.636887608069166
 40
0.636887608069166
 40
0.636887608069166
 40
0.6397694524495695
 40
0.6397694524495695
 40
0.6397694524495695
 40
0.6397694524495695
 40
0.642651296829973
 40
0.642651296829973
 40
0.642651296829973
 40
0.642651296829973
 40
0.6455331412103765
 40
0.6455331412103765
 40
0.6455331412103765
 40
0.6455331412103765
 40
0.64841498559078
 40
0.64841498559078
 40
0.64841498559078
 40
0.64841498559078
 40
0.6512968299711835
 40
0.6512968299711835
 40
0.6512968299711835
 40
0.6512968299711835
 40
0.654178674351587
 40
0.654178674351587
 40
0.654178674351587
 40
0.654178674351587
 40
0.6570605187319906
 40
0.6570605187319906
 40
0.6570605187319906
 40
0.6570605187319906
 40
0.6599423631123941
 40
0.6599423631123941
 40
0.6599423631123941
 40
0.6599423631123941
 40
0.6628242074927976
 40
0.6628242074927976
 40
0.6628242074927976
 40
0.6628242074927976
 40
0.6657060518732011
 40
0.6657060518732011
 40
0.6657060518732011
 40
0.6657060518732011
 40
0.6685878962536046
 40
0.6685878962536046
 40
0.6685878962536046
 40
0.6685878962536046
 40
0.6714697406340081
 40
0.6714697406340081
 40
0.6714697406340081
 40
0.6714697406340081
 40
0.6743515850144116
 40
0.6743515850144116
 40
0.6743515850144116
 40
0.6743515850144116
 40
0.6772334293948151
 40
0.6772334293948151
 40
0.6772334293948151
 40
0.6772334293948151
 40
0.6801152737752186
 40
0.6801152737752186
 40
0.6801152737752186
 40
0.6801152737752186
 40
0.6829971181556221
 40
0.6829971181556221
 40
0.6829971181556221
 40
0.6829971181556221
 40
0.6858789625360256
 40
0.6858789625360256
 40
0.6858789625360256
 40
0.6858789625360256
 40
0.6887608069164292
 40
0.6887608069164292
 40
0.6887608069164292
 40
0.6887608069164292
 40
0.6916426512968327
 40
0.6916426512968327
 40
0.6916426512968327
 40
0.6916426512968327
 40
0.6945244956772362
 40
0.6945244956772362
 40
0.6945244956772362
 40
0.6945244956772362
 40
0.6974063400576397
 40
0.6974063400576397
 40
0.6974063400576397
 40
0.6974063400576397
 40
0.7002881844380432
 40
0.7002881844380432
 40
0.7002881844380432
 40
0.7002881844380432
 40
0.7031700288184467
 40
0.7031700288184467
 40
0.7031700288184467
 40
0.7031700288184467
 40
0.7060518731988502
 40
0.7060518731988502
 40
0.7060518731988502
 40
0.7060518731988502
 40
0.7089337175792537
 40
0.7089337175792537
 40
0.7089337175792537
 40
0.7089337175792537
 40
0.7118155619596572
 40
0.7118155619596572
 40
0.7118155619596572
 40
0.7118155619596572
 40
0.7146974063400607
 40
0.7146974063400607
 40
0.7146974063400607
 40
0.7146974063400607
 40
0.7175792507204642
 40
0.7175792507204642
 40
0.7175792507204642
 40
0.7175792507204642
 40
0.7204610951008678
 40
0.7204610951008678
 40
0.7204610951008678
 40
0.7204610951008678
 40
0.7233429394812713
 40
0.7233429394812713
 40
0.7233429394812713
 40
0.7233429394812713
 40
0.7262247838616748
 40
0.7262247838616748
 40
0.7262247838616748
 40
0.7262247838616748
 40
0.7291066282420783
 40
0.7291066282420783
 40
0.7291066282420783
 40
0.7291066282420783
 40
0.7319884726224818
 40
0.7319884726224818
 40
0.7319884726224818
 40
0.7319884726224818
 40
0.7348703170028853
 40
0.7348703170028853
 40
0.7348703170028853
 40
0.7348703170028853
 40
0.7377521613832888
 40
0.7377521613832888
 40
0.7377521613832888
 40
0.7377521613832888
 40
0.7406340057636923
 40
0.7406340057636923
 40
0.7406340057636923
 40
0.7406340057636923
 40
0.7435158501440958
 40
0.7435158501440958
 40
0.7435158501440958
 40
0.7435158501440958
 40
0.7463976945244993
 40
0.7463976945244993
 40
0.7463976945244993
 40
0.7463976945244993
 40
0.7492795389049028
 40
0.7492795389049028
 40
0.7492795389049028
 40
0.7492795389049028
 40
0.7521613832853064
 40
0.7521613832853064
 40
0.7521613832853064
 40
0.7521613832853064
 40
0.7550432276657099
 40
0.7550432276657099
 40
0.7550432276657099
 40
0.7550432276657099
 40
0.7579250720461134
 40
0.7579250720461134
 40
0.7579250720461134
 40
0.7579250720461134
 40
0.7608069164265169
 40
0.7608069164265169
 40
0.7608069164265169
 40
0.7608069164265169
 40
0.7636887608069204
 40
0.7636887608069204
 40
0.7636887608069204
 40
0.7636887608069204
 40
0.7665706051873239
 40
0.7665706051873239
 40
0.7665706051873239
 40
0.7665706051873239
 40
0.7694524495677274
 40
0.7694524495677274
 40
0.7694524495677274
 40
0.7694524495677274
 40
0.7723342939481309
 40
0.7723342939481309
 40
0.7723342939481309
 40
0.7723342939481309
 40
0.7752161383285344
 40
0.7752161383285344
 40
0.7752161383285344
 40
0.7752161383285344
 40
0.7780979827089379
 40
0.7780979827089379
 40
0.7780979827089379
 40
0.7780979827089379
 40
0.7809798270893414
 40
0.7809798270893414
 40
0.7809798270893414
 40
0.7809798270893414
 40
0.783861671469745
 40
0.783861671469745
 40
0.783861671469745
 40
0.783861671469745
 40
0.7867435158501485
 40
0.7867435158501485
 40
0.7867435158501485
 40
0.7867435158501485
 40
0.789625360230552
 40
0.789625360230552
 40
0.789625360230552
 40
0.789625360230552
 40
0.7925072046109555
 40
0.7925072046109555
 40
0.7925072046109555
 40
0.7925072046109555
 40
0.795389048991359
 40
0.795389048991359
 40
0.795389048991359
 40
0.795389048991359
 40
0.7982708933717625
 40
0.7982708933717625
 40
0.7982708933717625
 40
0.7982708933717625
 40
0.801152737752166
 40
0.801152737752166
 40
0.801152737752166
 40
0.801152737752166
 40
0.8040345821325695
 40
0.8040345821325695
 40
0.8040345821325695
 40
0.8040345821325695
 40
0.806916426512973
 40
0.806916426512973
 40
0.806916426512973
 40
0.806916426512973
 40
0.8097982708933765
 40
0.8097982708933765
 40
0.8097982708933765
 40
0.8097982708933765
 40
0.81268011527378
 40
0.81268011527378
 40
0.81268011527378
 40
0.81268011527378
 40
0.8155619596541835
 40
0.8155619596541835
 40
0.8155619596541835
 40
0.8155619596541835
 40
0.818443804034587
 40
0.818443804034587
 40
0.818443804034587
 40
0.818443804034587
 40
0.8213256484149906
 40
0.8213256484149906
 40
0.8213256484149906
 40
0.8213256484149906
 40
0.8242074927953941
 40
0.8242074927953941
 40
0.8242074927953941
 40
0.8242074927953941
 40
0.8270893371757976
 40
0.8270893371757976
 40
0.8270893371757976
 40
0.8270893371757976
 40
0.8299711815562011
 40
0.8299711815562011
 40
0.8299711815562011
 40
0.8299711815562011
 40
0.8328530259366046
 40
0.8328530259366046
 40
0.8328530259366046
 40
0.8328530259366046
 40
0.8357348703170081
 40
0.8357348703170081
 40
0.8357348703170081
 40
0.8357348703170081
 40
0.8386167146974116
 40
0.8386167146974116
 40
0.8386167146974116
 40
0.8386167146974116
 40
0.8414985590778151
 40
0.8414985590778151
 40
0.8414985590778151
 40
0.8414985590778151
 40
0.8443804034582186
 40
0.8443804034582186
 40
0.8443804034582186
 40
0.8443804034582186
 40
0.8472622478386221
 40
0.8472622478386221
 40
0.8472622478386221
 40
0.8472622478386221
 40
0.8501440922190256
 40
0.8501440922190256
 40
0.8501440922190256
 40
0.8501440922190256
 40
0.8530259365994292
 40
0.8530259365994292
 40
0.8530259365994292
 40
0.8530259365994292
 40
0.8559077809798327
 40
0.8559077809798327
 40
0.8559077809798327
 40
0.8559077809798327
 40
0.8587896253602362
 40
0.8587896253602362
 40
0.8587896253602362
 40
0.8587896253602362
 40
0.8616714697406397
 40
0.8616714697406397
 40
0.8616714697406397
 40
0.8616714697406397
 40
0.8645533141210432
 40
0.8645533141210432
 40
0.8645533141210432
 40
0.8645533141210432
 40
0.8674351585014467
 40
0.8674351585014467
 40
0.8674351585014467
 40
0.8674351585014467
 40
0.8703170028818502
 40
0.8703170028818502
 40
0.8703170028818502
 40
0.8703170028818502
 40
0.8731988472622537
 40
0.8731988472622537
 40
0.8731988472622537
 40
0.8731988472622537
 40
0.8760806916426572
 40
0.8760806916426572
 40
0.8760806916426572
 40
0.8760806916426572
 40
0.8789625360230607
 40
0.8789625360230607
 40
0.8789625360230607
 40
0.8789625360230607
 40
0.8818443804034642
 40
0.8818443804034642
 40
0.8818443804034642
 40
0.8818443804034642
 40
0.8847262247838678
 40
0.8847262247838678
 40
0.8847262247838678
 40
0.8847262247838678
 40
0.8876080691642713
 40
0.8876080691642713
 40
0.8876080691642713
 40
0.8876080691642713
 40
0.8904899135446748
 40
0.8904899135446748
 40
0.8904899135446748
 40
0.8904899135446748
 40
0.8933717579250783
 40
0.8933717579250783
 40
0.8933717579250783
 40
0.8933717579250783
 40
0.8962536023054818
 40
0.8962536023054818
 40
0.8962536023054818
 40
0.8962536023054818
 40
0.8991354466858853
 40
0.8991354466858853
 40
0.8991354466858853
 40
0.8991354466858853
 40
0.9020172910662888
 40
0.9020172910662888
 40
0.9020172910662888
 40
0.9020172910662888
 40
0.9048991354466923
 40
0.9048991354466923
 40
0.9048991354466923
 40
0.9048991354466923
 40
0.9077809798270958
 40
0.9077809798270958
 40
0.9077809798270958
 40
0.9077809798270958
 40
0.9106628242074993
 40
0.9106628242074993
 40
0.9106628242074993
 40
0.9106628242074993
 40
0.9135446685879028
 40
0.9135446685879028
 40
0.9135446685879028
 40
0.9135446685879028
 40
0.9164265129683064
 40
0.9164265129683064
 40
0.9164265129683064
 40
0.9164265129683064
 40
0.9193083573487099
 40
0.9193083573487099
 40
0.9193083573487099
 40
0.9193083573487099
 40
0.9221902017291134
 40
0.9221902017291134
 40
0.9221902017291134
 40
0.9221902017291134
 40
0.9250720461095169
 40
0.9250720461095169
 40
0.9250720461095169
 40
0.9250720461095169
 40
0.9279538904899204
 40
0.9279538904899204
 40
0.9279538904899204
 40
0.9279538904899204
 40
0.9308357348703239
 40
0.9308357348703239
 40
0.9308357348703239
 40
0.9308357348703239
 40
0.9337175792507274
 40
0.9337175792507274
 40
0.9337175792507274
 40
0.9337175792507274
 40
0.9365994236311309
 40
0.9365994236311309
 40
0.9365994236311309
 40
0.9365994236311309
 40
0.9394812680115344
 40
0.9394812680115344
 40
0.9394812680115344
 40
0.9394812680115344
 40
0.9423631123919379
 40
0.9423631123919379
 40
0.9423631123919379
 40
0.9423631123919379
 40
0.9452449567723414
 40
0.9452449567723414
 40
0.9452449567723414
 40
0.9452449567723414
 40
0.948126801152745
 40
0.948126801152745
 40
0.948126801152745
 40
0.948126801152745
 40
0.9510086455331485
 40
0.9510086455331485
 40
0.9510086455331485
 40
0.9510086455331485
 40
0.953890489913552
 40
0.953890489913552
 40
0.953890489913552
 40
0.953890489913552
 40
0.9567723342939555
 40
0.9567723342939555
 40
0.9567723342939555
 40
0.9567723342939555
 40
0.959654178674359
 40
0.959654178674359
 40
0.959654178674359
 40
0.959654178674359
 40
0.9625360230547625
 40
0.9625360230547625
 40
0.9625360230547625
 40
0.9625360230547625
 40
0.965417867435166
 40
0.965417867435166
 40
0.965417867435166
 40
0.965417867435166
 40
0.9682997118155695
 40
0.9682997118155695
 40
0.9682997118155695
 40
0.9682997118155695
 40
0.971181556195973
 40
0.971181556195973
 40
0.971181556195973
 40
0.971181556195973
 40
0.9740634005763765
 40
0.9740634005763765
 40
0.9740634005763765
 40
0.9740634005763765
 40
0.97694524495678
 40
0.97694524495678
 40
0.97694524495678
 40
0.97694524495678
 40
0.9798270893371835
 40
0.9798270893371835
 40
0.9798270893371835
 40
0.9798270893371835
 40
0.982708933717587
 40
0.982708933717587
 40
0.982708933717587
 40
0.982708933717587
 40
0.9855907780979906
 40
0.9855907780979906
 40
0.9855907780979906
 40
0.9855907780979906
 40
0.9884726224783941
 40
0.9884726224783941
 40
0.9884726224783941
 40
0.9884726224783941
 40
0.9913544668587976
 40
0.9913544668587976
 40
0.9913544668587976
 40
0.9913544668587976
 40
0.9942363112392011
 40
0.9942363112392011
 40
0.9942363112392011
 40
0.9942363112392011
 40
0.9971181556196046
 40
0.9971181556196046
 40
0.9971181556196046
 40
0.9971181556196046
 40
1.0
 40
1.0
 40
1.0
 40
1.0
 10
-134.4061
 20
139.6061
 30
0.0
 10
-131.6914
 20
142.3207
 30
0.0
 10
-127.9414
 20
144.0
 30
0.0
 10
-123.8
 20
144.0
 30
0.0
 10
-123.8
 20
144.0
 30
0.0
 10
-123.8
 20
144.0
 30
0.0
 10
96.0
 20
144.0
 30
0.0
 10
96.0
 20
144.0
 30
0.0
 10
96.0
 20
144.0
 30
0.0
 10
96.0
 20
144.0
 30
0.0
 10
96.0
 20
134.0
 30
0.0
 10
96.0
 20
134.0
 30
0.0
 10
96.0
 20
134.0
 30
0.0
 10
96.0
 20
134.0
 30
0.0
 10
96.0
 20
131.5
 30
0.0
 10
96.0
 20
131.5
 30
0.0
 10
96.0
 20
131.5
 30
0.0
 10
95.7239
 20
131.5
 30
0.0
 10
95.5
 20
131.2761
 30
0.0
 10
95.5
 20
131.0
 30
0.0
 10
95.5
 20
131.0
 30
0.0
 10
95.5
 20
130.7239
 30
0.0
 10
95.7239
 20
130.5
 30
0.0
 10
96.0
 20
130.5
 30
0.0
 10
96.0
 20
130.5
 30
0.0
 10
96.2761
 20
130.5
 30
0.0
 10
96.5
 20
130.7239
 30
0.0
 10
96.5
 20
131.0
 30
0.0
 10
96.5
 20
131.0
 30
0.0
 10
96.5
 20
131.0
 30
0.0
 10
101.0
 20
131.0
 30
0.0
 10
101.0
 20
131.0
 30
0.0
 10
101.0
 20
131.0
 30
0.0
 10
101.0
 20
131.0
 30
0.0
 10
101.0
 20
121.0
 30
0.0
 10
101.0
 20
121.0
 30
0.0
 10
101.0
 20
121.0
 30
0.0
 10
101.0
 20
121.0
 30
0.0
 10
96.5
 20
121.0
 30
0.0
 10
96.5
 20
121.0
 30
0.0
 10
96.5
 20
121.0
 30
0.0
 10
96.5
 20
121.2761
 30
0.0
 10
96.2761
 20
121.5
 30
0.0
 10
96.0
 20
121.5
 30
0.0
 10
96.0
 20
121.5
 30
0.0
 10
95.7239
 20
121.5
 30
0.0
 10
95.5
 20
121.2761
 30
0.0
 10
95.5
 20
121.0
 30
0.0
 10
95.5
 20
121.0
 30
0.0
 10
95.5
 20
120.7239
 30
0.0
 10
95.7239
 20
120.5
 30
0.0
 10
96.0
 20
120.5
 30
0.0
 10
96.0
 20
120.5
 30
0.0
 10
96.0
 20
120.5
 30
0.0
 10
96.0
 20
117.5
 30
0.0
 10
96.0
 20
117.5
 30
0.0
 10
96.0
 20
117.5
 30
0.0
 10
96.0
 20
117.5
 30
0.0
 10
92.0553
 20
117.5
 30
0.0
 10
92.0553
 20
117.5
 30
0.0
 10
92.0553
 20
117.5
 30
0.0
 10
92.0553
 20
117.5
 30
0.0
 10
92.0553
 20
118.75
 30
0.0
 10
92.0553
 20
118.75
 30
0.0
 10
92.0553
 20
118.75
 30
0.0
 10
92.0553
 20
118.75
 30
0.0
 10
89.5553
 20
118.75
 30
0.0
 10
89.5553
 20
118.75
 30
0.0
 10
89.5553
 20
118.75
 30
0.0
 10
89.5553
 20
118.75
 30
0.0
 10
89.5553
 20
117.5
 30
0.0
 10
89.5553
 20
117.5
 30
0.0
 10
89.5553
 20
117.5
 30
0.0
 10
89.5553
 20
117.5
 30
0.0
 10
85.0
 20
117.5
 30
0.0
 10
85.0
 20
117.5
 30
0.0
 10
85.0
 20
117.5
 30
0.0
 10
85.0
 20
117.5
 30
0.0
 10
85.0
 20
114.5
 30
0.0
 10
85.0
 20
114.5
 30
0.0
 10
85.0
 20
114.5
 30
0.0
 10
85.0
 20
114.5
 30
0.0
 10
89.5553
 20
114.5
 30
0.0
 10
89.5553
 20
114.5
 30
0.0
 10
89.5553
 20
114.5
 30
0.0
 10
89.5553
 20
114.5
 30
0.0
 10
89.5553
 20
113.25
 30
0.0
 10
89.5553
 20
113.25
 30
0.0
 10
89.5553
 20
113.25
 30
0.0
 10
89.5553
 20
113.25
 30
0.0
 10
92.0553
 20
113.25
 30
0.0
 10
92.0553
 20
113.25
 30
0.0
 10
92.0553
 20
113.25
 30
0.0
 10
92.0553
 20
113.25
 30
0.0
 10
92.0553
 20
114.5
 30
0.0
 10
92.0553
 20
114.5
 30
0.0
 10
92.0553
 20
114.5
 30
0.0
 10
92.0553
 20
114.5
 30
0.0
 10
96.0
 20
114.5
 30
0.0
 10
96.0
 20
114.5
 30
0.0
 10
96.0
 20
114.5
 30
0.0
 10
96.0
 20
114.5
 30
0.0
 10
96.0
 20
111.5
 30
0.0
 10
96.0
 20
111.5
 30
0.0
 10
96.0
 20
111.5
 30
0.0
 10
95.7239
 20
111.5
 30
0.0
 10
95.5
 20
111.2761
 30
0.0
 10
95.5
 20
111.0
 30
0.0
 10
95.5
 20
111.0
 30
0.0
 10
95.5
 20
110.7239
 30
0.0
 10
95.7239
 20
110.5
 30
0.0
 10
96.0
 20
110.5
 30
0.0
 10
96.0
 20
110.5
 30
0.0
 10
96.2761
 20
110.5
 30
0.0
 10
96.5
 20
110.7239
 30
0.0
 10
96.5
 20
111.0
 30
0.0
 10
96.5
 20
111.0
 30
0.0
 10
96.5
 20
111.0
 30
0.0
 10
101.0
 20
111.0
 30
0.0
 10
101.0
 20
111.0
 30
0.0
 10
101.0
 20
111.0
 30
0.0
 10
101.0
 20
111.0
 30
0.0
 10
101.0
 20
101.0
 30
0.0
 10
101.0
 20
101.0
 30
0.0
 10
101.0
 20
101.0
 30
0.0
 10
101.0
 20
101.0
 30
0.0
 10
96.5
 20
101.0
 30
0.0
 10
96.5
 20
101.0
 30
0.0
 10
96.5
 20
101.0
 30
0.0
 10
96.5
 20
101.2761
 30
0.0
 10
96.2761
 20
101.5
 30
0.0
 10
96.0
 20
101.5
 30
0.0
 10
96.0
 20
101.5
 30
0.0
 10
95.7239
 20
101.5
 30
0.0
 10
95.5
 20
101.2761
 30
0.0
 10
95.5
 20
101.0
 30
0.0
 10
95.5
 20
101.0
 30
0.0
 10
95.5
 20
100.7239
 30
0.0
 10
95.7239
 20
100.5
 30
0.0
 10
96.0
 20
100.5
 30
0.0
 10
96.0
 20
100.5
 30
0.0
 10
96.0
 20
100.5
 30
0.0
 10
96.0
 20
99.0
 30
0.0
 10
96.0
 20
99.0
 30
0.0
 10
96.0
 20
99.0
 30
0.0
 10
96.0
 20
99.0
 30
0.0
 10
96.0
 20
98.0
 30
0.0
 10
96.0
 20
98.0
 30
0.0
 10
96.0
 20
98.0
 30
0.0
 10
96.0
 20
98.0
 30
0.0
 10
96.0
 20
20.5
 30
0.0
 10
96.0
 20
20.5
 30
0.0
 10
96.0
 20
20.5
 30
0.0
 10
96.0
 20
20.5
 30
0.0
 10
96.0
 20
18.0
 30
0.0
 10
96.0
 20
18.0
 30
0.0
 10
96.0
 20
18.0
 30
0.0
 10
95.7239
 20
18.0
 30
0.0
 10
95.5
 20
17.7761
 30
0.0
 10
95.5
 20
17.5
 30
0.0
 10
95.5
 20
17.5
 30
0.0
 10
95.5
 20
17.2239
 30
0.0
 10
95.7239
 20
17.0
 30
0.0
 10
96.0
 20
17.0
 30
0.0
 10
96.0
 20
17.0
 30
0.0
 10
96.2761
 20
17.0
 30
0.0
 10
96.5
 20
17.2239
 30
0.0
 10
96.5
 20
17.5
 30
0.0
 10
96.5
 20
17.5
 30
0.0
 10
96.5
 20
17.5
 30
0.0
 10
101.0
 20
17.5
 30
0.0
 10
101.0
 20
17.5
 30
0.0
 10
101.0
 20
17.5
 30
0.0
 10
101.0
 20
17.5
 30
0.0
 10
101.0
 20
7.5
 30
0.0
 10
101.0
 20
7.5
 30
0.0
 10
101.0
 20
7.5
 30
0.0
 10
101.0
 20
7.5
 30
0.0
 10
96.5
 20
7.5
 30
0.0
 10
96.5
 20
7.5
 30
0.0
 10
96.5
 20
7.5
 30
0.0
 10
96.5
 20
7.7761
 30
0.0
 10
96.2761
 20
8.0
 30
0.0
 10
96.0
 20
8.0
 30
0.0
 10
96.0
 20
8.0
 30
0.0
 10
95.7239
 20
8.0
 30
0.0
 10
95.5
 20
7.7761
 30
0.0
 10
95.5
 20
7.5
 30
0.0
 10
95.5
 20
7.5
 30
0.0
 10
95.5
 20
7.2239
 30
0.0
 10
95.7239
 20
7.0
 30
0.0
 10
96.0
 20
7.0
 30
0.0
 10
96.0
 20
7.0
 30
0.0
 10
96.0
 20
7.0
 30
0.0
 10
96.0
 20
4.0
 30
0.0
 10
96.0
 20
4.0
 30
0.0
 10
96.0
 20
4.0
 30
0.0
 10
96.0
 20
4.0
 30
0.0
 10
92.0553
 20
4.0
 30
0.0
 10
92.0553
 20
4.0
 30
0.0
 10
92.0553
 20
4.0
 30
0.0
 10
92.0553
 20
4.0
 30
0.0
 10
92.0553
 20
5.25
 30
0.0
 10
92.0553
 20
5.25
 30
0.0
 10
92.0553
 20
5.25
 30
0.0
 10
92.0553
 20
5.25
 30
0.0
 10
89.5553
 20
5.25
 30
0.0
 10
89.5553
 20
5.25
 30
0.0
 10
89.5553
 20
5.25
 30
0.0
 10
89.5553
 20
5.25
 30
0.0
 10
89.5553
 20
4.0
 30
0.0
 10
89.5553
 20
4.0
 30
0.0
 10
89.5553
 20
4.0
 30
0.0
 10
89.5553
 20
4.0
 30
0.0
 10
85.0
 20
4.0
 30
0.0
 10
85.0
 20
4.0
 30
0.0
 10
85.0
 20
4.0
 30
0.0
 10
85.0
 20
4.0
 30
0.0
 10
85.0
 20
1.0
 30
0.0
 10
85.0
 20
1.0
 30
0.0
 10
85.0
 20
1.0
 30
0.0
 10
85.0
 20
1.0
 30
0.0
 10
89.5553
 20
1.0
 30
0.0
 10
89.5553
 20
1.0
 30
0.0
 10
89.5553
 20
1.0
 30
0.0
 10
89.5553
 20
1.0
 30
0.0
 10
89.5553
 20
-0.25
 30
0.0
 10
89.5553
 20
-0.25
 30
0.0
 10
89.5553
 20
-0.25
 30
0.0
 10
89.5553
 20
-0.25
 30
0.0
 10
92.0553
 20
-0.25
 30
0.0
 10
92.0553
 20
-0.25
 30
0.0
 10
92.0553
 20
-0.25
 30
0.0
 10
92.0553
 20
-0.25
 30
0.0
 10
92.0553
 20
1.0
 30
0.0
 10
92.0553
 20
1.0
 30
0.0
 10
92.0553
 20
1.0
 30
0.0
 10
92.0553
 20
1.0
 30
0.0
 10
96.0
 20
1.0
 30
0.0
 10
96.0
 20
1.0
 30
0.0
 10
96.0
 20
1.0
 30
0.0
 10
96.0
 20
1.0
 30
0.0
 10
96.0
 20
-2.0
 30
0.0
 10
96.0
 20
-2.0
 30
0.0
 10
96.0
 20
-2.0
 30
0.0
 10
95.7239
 20
-2.0
 30
0.0
 10
95.5
 20
-2.2239
 30
0.0
 10
95.5
 20
-2.5
 30
0.0
 10
95.5
 20
-2.5
 30
0.0
 10
95.5
 20
-2.7761
 30
0.0
 10
95.7239
 20
-3.0
 30
0.0
 10
96.0
 20
-3.0
 30
0.0
 10
96.0
 20
-3.0
 30
0.0
 10
96.2761
 20
-3.0
 30
0.0
 10
96.5
 20
-2.7761
 30
0.0
 10
96.5
 20
-2.5
 30
0.0
 10
96.5
 20
-2.5
 30
0.0
 10
96.5
 20
-2.5
 30
0.0
 10
101.0
 20
-2.5
 30
0.0
 10
101.0
 20
-2.5
 30
0.0
 10
101.0
 20
-2.5
 30
0.0
 10
101.0
 20
-2.5
 30
0.0
 10
101.0
 20
-12.5
 30
0.0
 10
101.0
 20
-12.5
 30
0.0
 10
101.0
 20
-12.5
 30
0.0
 10
101.0
 20
-12.5
 30
0.0
 10
96.5
 20
-12.5
 30
0.0
 10
96.5
 20
-12.5
 30
0.0
 10
96.5
 20
-12.5
 30
0.0
 10
96.5
 20
-12.2239
 30
0.0
 10
96.2761
 20
-12.0
 30
0.0
 10
96.0
 20
-12.0
 30
0.0
 10
96.0
 20
-12.0
 30
0.0
 10
95.7239
 20
-12.0
 30
0.0
 10
95.5
 20
-12.2239
 30
0.0
 10
95.5
 20
-12.5
 30
0.0
 10
95.5
 20
-12.5
 30
0.0
 10
95.5
 20
-12.7761
 30
0.0
 10
95.7239
 20
-13.0
 30
0.0
 10
96.0
 20
-13.0
 30
0.0
 10
96.0
 20
-13.0
 30
0.0
 10
96.0
 20
-13.0
 30
0.0
 10
96.0
 20
-14.5
 30
0.0
 10
96.0
 20
-14.5
 30
0.0
 10
96.0
 20
-14.5
 30
0.0
 10
96.0
 20
-14.5
 30
0.0
 10
96.0
 20
-15.5
 30
0.0
 10
96.0
 20
-15.5
 30
0.0
 10
96.0
 20
-15.5
 30
0.0
 10
96.0
 20
-15.5
 30
0.0
 10
96.0
 20
-22.0
 30
0.0
 10
96.0
 20
-22.0
 30
0.0
 10
96.0
 20
-22.0
 30
0.0
 10
96.0
 20
-22.0
 30
0.0
 10
96.0
 20
-93.0
 30
0.0
 10
96.0
 20
-93.0
 30
0.0
 10
96.0
 20
-93.0
 30
0.0
 10
96.0
 20
-93.0
 30
0.0
 10
96.0
 20
-95.5
 30
0.0
 10
96.0
 20
-95.5
 30
0.0
 10
96.0
 20
-95.5
 30
0.0
 10
95.7239
 20
-95.5
 30
0.0
 10
95.5
 20
-95.7239
 30
0.0
 10
95.5
 20
-96.0
 30
0.0
 10
95.5
 20
-96.0
 30
0.0
 10
95.5
 20
-96.2761
 30
0.0
 10
95.7239
 20
-96.5
 30
0.0
 10
96.0
 20
-96.5
 30
0.0
 10
96.0
 20
-96.5
 30
0.0
 10
96.2761
 20
-96.5
 30
0.0
 10
96.5
 20
-96.2761
 30
0.0
 10
96.5
 20
-96.0
 30
0.0
 10
96.5
 20
-96.0
 30
0.0
 10
96.5
 20
-96.0
 30
0.0
 10
101.0
 20
-96.0
 30
0.0
 10
101.0
 20
-96.0
 30
0.0
 10
101.0
 20
-96.0
 30
0.0
 10
101.0
 20
-96.0
 30
0.0
 10
101.0
 20
-106.0
 30
0.0
 10
101.0
 20
-106.0
 30
0.0
 10
101.0
 20
-106.0
 30
0.0
 10
101.0
 20
-106.0
 30
0.0
 10
96.5
 20
-106.0
 30
0.0
 10
96.5
 20
-106.0
 30
0.0
 10
96.5
 20
-106.0
 30
0.0
 10
96.5
 20
-105.7239
 30
0.0
 10
96.2761
 20
-105.5
 30
0.0
 10
96.0
 20
-105.5
 30
0.0
 10
96.0
 20
-105.5
 30
0.0
 10
95.7239
 20
-105.5
 30
0.0
 10
95.5
 20
-105.7239
 30
0.0
 10
95.5
 20
-106.0
 30
0.0
 10
95.5
 20
-106.0
 30
0.0
 10
95.5
 20
-106.2761
 30
0.0
 10
95.7239
 20
-106.5
 30
0.0
 10
96.0
 20
-106.5
 30
0.0
 10
96.0
 20
-106.5
 30
0.0
 10
96.0
 20
-106.5
 30
0.0
 10
96.0
 20
-109.5
 30
0.0
 10
96.0
 20
-109.5
 30
0.0
 10
96.0
 20
-109.5
 30
0.0
 10
96.0
 20
-109.5
 30
0.0
 10
92.0553
 20
-109.5
 30
0.0
 10
92.0553
 20
-109.5
 30
0.0
 10
92.0553
 20
-109.5
 30
0.0
 10
92.0553
 20
-109.5
 30
0.0
 10
92.0553
 20
-108.25
 30
0.0
 10
92.0553
 20
-108.25
 30
0.0
 10
92.0553
 20
-108.25
 30
0.0
 10
92.0553
 20
-108.25
 30
0.0
 10
89.5553
 20
-108.25
 30
0.0
 10
89.5553
 20
-108.25
 30
0.0
 10
89.5553
 20
-108.25
 30
0.0
 10
89.5553
 20
-108.25
 30
0.0
 10
89.5553
 20
-109.5
 30
0.0
 10
89.5553
 20
-109.5
 30
0.0
 10
89.5553
 20
-109.5
 30
0.0
 10
89.5553
 20
-109.5
 30
0.0
 10
85.0
 20
-109.5
 30
0.0
 10
85.0
 20
-109.5
 30
0.0
 10
85.0
 20
-109.5
 30
0.0
 10
85.0
 20
-109.5
 30
0.0
 10
85.0
 20
-112.5
 30
0.0
 10
85.0
 20
-112.5
 30
0.0
 10
85.0
 20
-112.5
 30
0.0
 10
85.0
 20
-112.5
 30
0.0
 10
89.5553
 20
-112.5
 30
0.0
 10
89.5553
 20
-112.5
 30
0.0
 10
89.5553
 20
-112.5
 30
0.0
 10
89.5553
 20
-112.5
 30
0.0
 10
89.5553
 20
-113.75
 30
0.0
 10
89.5553
 20
-113.75
 30
0.0
 10
89.5553
 20
-113.75
 30
0.0
 10
89.5553
 20
-113.75
 30
0.0
 10
92.0553
 20
-113.75
 30
0.0
 10
92.0553
 20
-113.75
 30
0.0
 10
92.0553
 20
-113.75
 30
0.0
 10
92.0553
 20
-113.75
 30
0.0
 10
92.0553
 20
-112.5
 30
0.0
 10
92.0553
 20
-112.5
 30
0.0
 10
92.0553
 20
-112.5
 30
0.0
 10
92.0553
 20
-112.5
 30
0.0
 10
96.0
 20
-112.5
 30
0.0
 10
96.0
 20
-112.5
 30
0.0
 10
96.0
 20
-112.5
 30
0.0
 10
96.0
 20
-112.5
 30
0.0
 10
96.0
 20
-115.5
 30
0.0
 10
96.0
 20
-115.5
 30
0.0
 10
96.0
 20
-115.5
 30
0.0
 10
95.7239
 20
-115.5
 30
0.0
 10
95.5
 20
-115.7239
 30
0.0
 10
95.5
 20
-116.0
 30
0.0
 10
95.5
 20
-116.0
 30
0.0
 10
95.5
 20
-116.2761
 30
0.0
 10
95.7239
 20
-116.5
 30
0.0
 10
96.0
 20
-116.5
 30
0.0
 10
96.0
 20
-116.5
 30
0.0
 10
96.2761
 20
-116.5
 30
0.0
 10
96.5
 20
-116.2761
 30
0.0
 10
96.5
 20
-116.0
 30
0.0
 10
96.5
 20
-116.0
 30
0.0
 10
96.5
 20
-116.0
 30
0.0
 10
101.0
 20
-116.0
 30
0.0
 10
101.0
 20
-116.0
 30
0.0
 10
101.0
 20
-116.0
 30
0.0
 10
101.0
 20
-116.0
 30
0.0
 10
101.0
 20
-126.0
 30
0.0
 10
101.0
 20
-126.0
 30
0.0
 10
101.0
 20
-126.0
 30
0.0
 10
101.0
 20
-126.0
 30
0.0
 10
96.5
 20
-126.0
 30
0.0
 10
96.5
 20
-126.0
 30
0.0
 10
96.5
 20
-126.0
 30
0.0
 10
96.5
 20
-125.7239
 30
0.0
 10
96.2761
 20
-125.5
 30
0.0
 10
96.0
 20
-125.5
 30
0.0
 10
96.0
 20
-125.5
 30
0.0
 10
95.7239
 20
-125.5
 30
0.0
 10
95.5
 20
-125.7239
 30
0.0
 10
95.5
 20
-126.0
 30
0.0
 10
95.5
 20
-126.0
 30
0.0
 10
95.5
 20
-126.2761
 30
0.0
 10
95.7239
 20
-126.5
 30
0.0
 10
96.0
 20
-126.5
 30
0.0
 10
96.0
 20
-126.5
 30
0.0
 10
96.0
 20
-126.5
 30
0.0
 10
96.0
 20
-128.0
 30
0.0
 10
96.0
 20
-128.0
 30
0.0
 10
96.0
 20
-128.0
 30
0.0
 10
96.0
 20
-128.0
 30
0.0
 10
96.0
 20
-129.0
 30
0.0
 10
96.0
 20
-129.0
 30
0.0
 10
96.0
 20
-129.0
 30
0.0
 10
96.0
 20
-129.0
 30
0.0
 10
96.0
 20
-139.0
 30
0.0
 10
96.0
 20
-139.0
 30
0.0
 10
96.0
 20
-139.0
 30
0.0
 10
96.0
 20
-139.0
 30
0.0
 10
96.0
 20
-142.0
 30
0.0
 10
96.0
 20
-142.0
 30
0.0
 10
96.0
 20
-142.0
 30
0.0
 10
96.0
 20
-142.0
 30
0.0
 10
91.0
 20
-142.0
 30
0.0
 10
91.0
 20
-142.0
 30
0.0
 10
91.0
 20
-142.0
 30
0.0
 10
91.0
 20
-142.0
 30
0.0
 10
90.6796
 20
-142.0
 30
0.0
 10
90.6796
 20
-142.0
 30
0.0
 10
90.6796
 20
-142.0
 30
0.0
 10
90.6796
 20
-142.0
 30
0.0
 10
86.5
 20
-142.0
 30
0.0
 10
86.5
 20
-142.0
 30
0.0
 10
86.5
 20
-142.0
 30
0.0
 10
86.5
 20
-141.7239
 30
0.0
 10
86.2761
 20
-141.5
 30
0.0
 10
86.0
 20
-141.5
 30
0.0
 10
86.0
 20
-141.5
 30
0.0
 10
85.7239
 20
-141.5
 30
0.0
 10
85.5
 20
-141.7239
 30
0.0
 10
85.5
 20
-142.0
 30
0.0
 10
85.5
 20
-142.0
 30
0.0
 10
85.5
 20
-142.2761
 30
0.0
 10
85.7239
 20
-142.5
 30
0.0
 10
86.0
 20
-142.5
 30
0.0
 10
86.0
 20
-142.5
 30
0.0
 10
86.0
 20
-142.5
 30
0.0
 10
86.0
 20
-146.0
 30
0.0
 10
86.0
 20
-146.0
 30
0.0
 10
86.0
 20
-146.0
 30
0.0
 10
86.0
 20
-146.0
 30
0.0
 10
76.0
 20
-146.0
 30
0.0
 10
76.0
 20
-146.0
 30
0.0
 10
76.0
 20
-146.0
 30
0.0
 10
76.0
 20
-146.0
 30
0.0
 10
76.0
 20
-142.5
 30
0.0
 10
76.0
 20
-142.5
 30
0.0
 10
76.0
 20
-142.5
 30
0.0
 10
76.2761
 20
-142.5
 30
0.0
 10
76.5
 20
-142.2761
 30
0.0
 10
76.5
 20
-142.0
 30
0.0
 10
76.5
 20
-142.0
 30
0.0
 10
76.5
 20
-141.7239
 30
0.0
 10
76.2761
 20
-141.5
 30
0.0
 10
76.0
 20
-141.5
 30
0.0
 10
76.0
 20
-141.5
 30
0.0
 10
75.7239
 20
-141.5
 30
0.0
 10
75.5
 20
-141.7239
 30
0.0
 10
75.5
 20
-142.0
 30
0.0
 10
75.5
 20
-142.0
 30
0.0
 10
75.5
 20
-142.0
 30
0.0
 10
71.0
 20
-142.0
 30
0.0
 10
71.0
 20
-142.0
 30
0.0
 10
71.0
 20
-142.0
 30
0.0
 10
71.0
 20
-142.0
 30
0.0
 10
70.6796
 20
-142.0
 30
0.0
 10
70.6796
 20
-142.0
 30
0.0
 10
70.6796
 20
-142.0
 30
0.0
 10
70.6796
 20
-142.0
 30
0.0
 10
66.5
 20
-142.0
 30
0.0
 10
66.5
 20
-142.0
 30
0.0
 10
66.5
 20
-142.0
 30
0.0
 10
66.5
 20
-141.7239
 30
0.0
 10
66.2761
 20
-141.5
 30
0.0
 10
66.0
 20
-141.5
 30
0.0
 10
66.0
 20
-141.5
 30
0.0
 10
65.7239
 20
-141.5
 30
0.0
 10
65.5
 20
-141.7239
 30
0.0
 10
65.5
 20
-142.0
 30
0.0
 10
65.5
 20
-142.0
 30
0.0
 10
65.5
 20
-142.2761
 30
0.0
 10
65.7239
 20
-142.5
 30
0.0
 10
66.0
 20
-142.5
 30
0.0
 10
66.0
 20
-142.5
 30
0.0
 10
66.0
 20
-142.5
 30
0.0
 10
66.0
 20
-146.0
 30
0.0
 10
66.0
 20
-146.0
 30
0.0
 10
66.0
 20
-146.0
 30
0.0
 10
66.0
 20
-146.0
 30
0.0
 10
56.0
 20
-146.0
 30
0.0
 10
56.0
 20
-146.0
 30
0.0
 10
56.0
 20
-146.0
 30
0.0
 10
56.0
 20
-146.0
 30
0.0
 10
56.0
 20
-142.5
 30
0.0
 10
56.0
 20
-142.5
 30
0.0
 10
56.0
 20
-142.5
 30
0.0
 10
56.2761
 20
-142.5
 30
0.0
 10
56.5
 20
-142.2761
 30
0.0
 10
56.5
 20
-142.0
 30
0.0
 10
56.5
 20
-142.0
 30
0.0
 10
56.5
 20
-141.7239
 30
0.0
 10
56.2761
 20
-141.5
 30
0.0
 10
56.0
 20
-141.5
 30
0.0
 10
56.0
 20
-141.5
 30
0.0
 10
55.7239
 20
-141.5
 30
0.0
 10
55.5
 20
-141.7239
 30
0.0
 10
55.5
 20
-142.0
 30
0.0
 10
55.5
 20
-142.0
 30
0.0
 10
55.5
 20
-142.0
 30
0.0
 10
51.0
 20
-142.0
 30
0.0
 10
51.0
 20
-142.0
 30
0.0
 10
51.0
 20
-142.0
 30
0.0
 10
51.0
 20
-142.0
 30
0.0
 10
50.6796
 20
-142.0
 30
0.0
 10
50.6796
 20
-142.0
 30
0.0
 10
50.6796
 20
-142.0
 30
0.0
 10
50.6796
 20
-142.0
 30
0.0
 10
46.5
 20
-142.0
 30
0.0
 10
46.5
 20
-142.0
 30
0.0
 10
46.5
 20
-142.0
 30
0.0
 10
46.5
 20
-141.7239
 30
0.0
 10
46.2761
 20
-141.5
 30
0.0
 10
46.0
 20
-141.5
 30
0.0
 10
46.0
 20
-141.5
 30
0.0
 10
45.7239
 20
-141.5
 30
0.0
 10
45.5
 20
-141.7239
 30
0.0
 10
45.5
 20
-142.0
 30
0.0
 10
45.5
 20
-142.0
 30
0.0
 10
45.5
 20
-142.2761
 30
0.0
 10
45.7239
 20
-142.5
 30
0.0
 10
46.0
 20
-142.5
 30
0.0
 10
46.0
 20
-142.5
 30
0.0
 10
46.0
 20
-142.5
 30
0.0
 10
46.0
 20
-146.0
 30
0.0
 10
46.0
 20
-146.0
 30
0.0
 10
46.0
 20
-146.0
 30
0.0
 10
46.0
 20
-146.0
 30
0.0
 10
36.0
 20
-146.0
 30
0.0
 10
36.0
 20
-146.0
 30
0.0
 10
36.0
 20
-146.0
 30
0.0
 10
36.0
 20
-146.0
 30
0.0
 10
36.0
 20
-142.5
 30
0.0
 10
36.0
 20
-142.5
 30
0.0
 10
36.0
 20
-142.5
 30
0.0
 10
36.2761
 20
-142.5
 30
0.0
 10
36.5
 20
-142.2761
 30
0.0
 10
36.5
 20
-142.0
 30
0.0
 10
36.5
 20
-142.0
 30
0.0
 10
36.5
 20
-141.7239
 30
0.0
 10
36.2761
 20
-141.5
 30
0.0
 10
36.0
 20
-141.5
 30
0.0
 10
36.0
 20
-141.5
 30
0.0
 10
35.7239
 20
-141.5
 30
0.0
 10
35.5
 20
-141.7239
 30
0.0
 10
35.5
 20
-142.0
 30
0.0
 10
35.5
 20
-142.0
 30
0.0
 10
35.5
 20
-142.0
 30
0.0
 10
31.0
 20
-142.0
 30
0.0
 10
31.0
 20
-142.0
 30
0.0
 10
31.0
 20
-142.0
 30
0.0
 10
31.0
 20
-142.0
 30
0.0
 10
30.6796
 20
-142.0
 30
0.0
 10
30.6796
 20
-142.0
 30
0.0
 10
30.6796
 20
-142.0
 30
0.0
 10
30.6796
 20
-142.0
 30
0.0
 10
26.5
 20
-142.0
 30
0.0
 10
26.5
 20
-142.0
 30
0.0
 10
26.5
 20
-142.0
 30
0.0
 10
26.5
 20
-141.7239
 30
0.0
 10
26.2761
 20
-141.5
 30
0.0
 10
26.0
 20
-141.5
 30
0.0
 10
26.0
 20
-141.5
 30
0.0
 10
25.7239
 20
-141.5
 30
0.0
 10
25.5
 20
-141.7239
 30
0.0
 10
25.5
 20
-142.0
 30
0.0
 10
25.5
 20
-142.0
 30
0.0
 10
25.5
 20
-142.2761
 30
0.0
 10
25.7239
 20
-142.5
 30
0.0
 10
26.0
 20
-142.5
 30
0.0
 10
26.0
 20
-142.5
 30
0.0
 10
26.0
 20
-142.5
 30
0.0
 10
26.0
 20
-146.0
 30
0.0
 10
26.0
 20
-146.0
 30
0.0
 10
26.0
 20
-146.0
 30
0.0
 10
26.0
 20
-146.0
 30
0.0
 10
16.0
 20
-146.0
 30
0.0
 10
16.0
 20
-146.0
 30
0.0
 10
16.0
 20
-146.0
 30
0.0
 10
16.0
 20
-146.0
 30
0.0
 10
16.0
 20
-142.5
 30
0.0
 10
16.0
 20
-142.5
 30
0.0
 10
16.0
 20
-142.5
 30
0.0
 10
16.2761
 20
-142.5
 30
0.0
 10
16.5
 20
-142.2761
 30
0.0
 10
16.5
 20
-142.0
 30
0.0
 10
16.5
 20
-142.0
 30
0.0
 10
16.5
 20
-141.7239
 30
0.0
 10
16.2761
 20
-141.5
 30
0.0
 10
16.0
 20
-141.5
 30
0.0
 10
16.0
 20
-141.5
 30
0.0
 10
15.7239
 20
-141.5
 30
0.0
 10
15.5
 20
-141.7239
 30
0.0
 10
15.5
 20
-142.0
 30
0.0
 10
15.5
 20
-142.0
 30
0.0
 10
15.5
 20
-142.0
 30
0.0
 10
11.0
 20
-142.0
 30
0.0
 10
11.0
 20
-142.0
 30
0.0
 10
11.0
 20
-142.0
 30
0.0
 10
11.0
 20
-142.0
 30
0.0
 10
10.6796
 20
-142.0
 30
0.0
 10
10.6796
 20
-142.0
 30
0.0
 10
10.6796
 20
-142.0
 30
0.0
 10
10.6796
 20
-142.0
 30
0.0
 10
6.5
 20
-142.0
 30
0.0
 10
6.5
 20
-142.0
 30
0.0
 10
6.5
 20
-142.0
 30
0.0
 10
6.5
 20
-141.7239
 30
0.0
 10
6.2761
 20
-141.5
 30
0.0
 10
6.0
 20
-141.5
 30
0.0
 10
6.0
 20
-141.5
 30
0.0
 10
5.7239
 20
-141.5
 30
0.0
 10
5.5
 20
-141.7239
 30
0.0
 10
5.5
 20
-142.0
 30
0.0
 10
5.5
 20
-142.0
 30
0.0
 10
5.5
 20
-142.2761
 30
0.0
 10
5.7239
 20
-142.5
 30
0.0
 10
6.0
 20
-142.5
 30
0.0
 10
6.0
 20
-142.5
 30
0.0
 10
6.0
 20
-142.5
 30
0.0
 10
6.0
 20
-146.0
 30
0.0
 10
6.0
 20
-146.0
 30
0.0
 10
6.0
 20
-146.0
 30
0.0
 10
6.0
 20
-146.0
 30
0.0
 10
-4.0
 20
-146.0
 30
0.0
 10
-4.0
 20
-146.0
 30
0.0
 10
-4.0
 20
-146.0
 30
0.0
 10
-4.0
 20
-146.0
 30
0.0
 10
-4.0
 20
-142.5
 30
0.0
 10
-4.0
 20
-142.5
 30
0.0
 10
-4.0
 20
-142.5
 30
0.0
 10
-3.7239
 20
-142.5
 30
0.0
 10
-3.5
 20
-142.2761
 30
0.0
 10
-3.5
 20
-142.0
 30
0.0
 10
-3.5
 20
-142.0
 30
0.0
 10
-3.5
 20
-141.7239
 30
0.0
 10
-3.7239
 20
-141.5
 30
0.0
 10
-4.0
 20
-141.5
 30
0.0
 10
-4.0
 20
-141.5
 30
0.0
 10
-4.2761
 20
-141.5
 30
0.0
 10
-4.5
 20
-141.7239
 30
0.0
 10
-4.5
 20
-142.0
 30
0.0
 10
-4.5
 20
-142.0
 30
0.0
 10
-4.5
 20
-142.0
 30
0.0
 10
-9.0
 20
-142.0
 30
0.0
 10
-9.0
 20
-142.0
 30
0.0
 10
-9.0
 20
-142.0
 30
0.0
 10
-9.0
 20
-142.0
 30
0.0
 10
-9.3204
 20
-142.0
 30
0.0
 10
-9.3204
 20
-142.0
 30
0.0
 10
-9.3204
 20
-142.0
 30
0.0
 10
-9.3204
 20
-142.0
 30
0.0
 10
-13.5
 20
-142.0
 30
0.0
 10
-13.5
 20
-142.0
 30
0.0
 10
-13.5
 20
-142.0
 30
0.0
 10
-13.5
 20
-141.7239
 30
0.0
 10
-13.7239
 20
-141.5
 30
0.0
 10
-14.0
 20
-141.5
 30
0.0
 10
-14.0
 20
-141.5
 30
0.0
 10
-14.2761
 20
-141.5
 30
0.0
 10
-14.5
 20
-141.7239
 30
0.0
 10
-14.5
 20
-142.0
 30
0.0
 10
-14.5
 20
-142.0
 30
0.0
 10
-14.5
 20
-142.2761
 30
0.0
 10
-14.2761
 20
-142.5
 30
0.0
 10
-14.0
 20
-142.5
 30
0.0
 10
-14.0
 20
-142.5
 30
0.0
 10
-14.0
 20
-142.5
 30
0.0
 10
-14.0
 20
-146.0
 30
0.0
 10
-14.0
 20
-146.0
 30
0.0
 10
-14.0
 20
-146.0
 30
0.0
 10
-14.0
 20
-146.0
 30
0.0
 10
-24.0
 20
-146.0
 30
0.0
 10
-24.0
 20
-146.0
 30
0.0
 10
-24.0
 20
-146.0
 30
0.0
 10
-24.0
 20
-146.0
 30
0.0
 10
-24.0
 20
-142.5
 30
0.0
 10
-24.0
 20
-142.5
 30
0.0
 10
-24.0
 20
-142.5
 30
0.0
 10
-23.7239
 20
-142.5
 30
0.0
 10
-23.5
 20
-142.2761
 30
0.0
 10
-23.5
 20
-142.0
 30
0.0
 10
-23.5
 20
-142.0
 30
0.0
 10
-23.5
 20
-141.7239
 30
0.0
 10
-23.7239
 20
-141.5
 30
0.0
 10
-24.0
 20
-141.5
 30
0.0
 10
-24.0
 20
-141.5
 30
0.0
 10
-24.2761
 20
-141.5
 30
0.0
 10
-24.5
 20
-141.7239
 30
0.0
 10
-24.5
 20
-142.0
 30
0.0
 10
-24.5
 20
-142.0
 30
0.0
 10
-24.5
 20
-142.0
 30
0.0
 10
-29.0
 20
-142.0
 30
0.0
 10
-29.0
 20
-142.0
 30
0.0
 10
-29.0
 20
-142.0
 30
0.0
 10
-29.0
 20
-142.0
 30
0.0
 10
-29.3204
 20
-142.0
 30
0.0
 10
-29.3204
 20
-142.0
 30
0.0
 10
-29.3204
 20
-142.0
 30
0.0
 10
-29.3204
 20
-142.0
 30
0.0
 10
-33.5
 20
-142.0
 30
0.0
 10
-33.5
 20
-142.0
 30
0.0
 10
-33.5
 20
-142.0
 30
0.0
 10
-33.5
 20
-141.7239
 30
0.0
 10
-33.7239
 20
-141.5
 30
0.0
 10
-34.0
 20
-141.5
 30
0.0
 10
-34.0
 20
-141.5
 30
0.0
 10
-34.2761
 20
-141.5
 30
0.0
 10
-34.5
 20
-141.7239
 30
0.0
 10
-34.5
 20
-142.0
 30
0.0
 10
-34.5
 20
-142.0
 30
0.0
 10
-34.5
 20
-142.2761
 30
0.0
 10
-34.2761
 20
-142.5
 30
0.0
 10
-34.0
 20
-142.5
 30
0.0
 10
-34.0
 20
-142.5
 30
0.0
 10
-34.0
 20
-142.5
 30
0.0
 10
-34.0
 20
-146.0
 30
0.0
 10
-34.0
 20
-146.0
 30
0.0
 10
-34.0
 20
-146.0
 30
0.0
 10
-34.0
 20
-146.0
 30
0.0
 10
-44.0
 20
-146.0
 30
0.0
 10
-44.0
 20
-146.0
 30
0.0
 10
-44.0
 20
-146.0
 30
0.0
 10
-44.0
 20
-146.0
 30
0.0
 10
-44.0
 20
-142.5
 30
0.0
 10
-44.0
 20
-142.5
 30
0.0
 10
-44.0
 20
-142.5
 30
0.0
 10
-43.7239
 20
-142.5
 30
0.0
 10
-43.5
 20
-142.2761
 30
0.0
 10
-43.5
 20
-142.0
 30
0.0
 10
-43.5
 20
-142.0
 30
0.0
 10
-43.5
 20
-141.7239
 30
0.0
 10
-43.7239
 20
-141.5
 30
0.0
 10
-44.0
 20
-141.5
 30
0.0
 10
-44.0
 20
-141.5
 30
0.0
 10
-44.2761
 20
-141.5
 30
0.0
 10
-44.5
 20
-141.7239
 30
0.0
 10
-44.5
 20
-142.0
 30
0.0
 10
-44.5
 20
-142.0
 30
0.0
 10
-44.5
 20
-142.0
 30
0.0
 10
-49.0
 20
-142.0
 30
0.0
 10
-49.0
 20
-142.0
 30
0.0
 10
-49.0
 20
-142.0
 30
0.0
 10
-49.0
 20
-142.0
 30
0.0
 10
-49.3204
 20
-142.0
 30
0.0
 10
-49.3204
 20
-142.0
 30
0.0
 10
-49.3204
 20
-142.0
 30
0.0
 10
-49.3204
 20
-142.0
 30
0.0
 10
-53.5
 20
-142.0
 30
0.0
 10
-53.5
 20
-142.0
 30
0.0
 10
-53.5
 20
-142.0
 30
0.0
 10
-53.5
 20
-141.7239
 30
0.0
 10
-53.7239
 20
-141.5
 30
0.0
 10
-54.0
 20
-141.5
 30
0.0
 10
-54.0
 20
-141.5
 30
0.0
 10
-54.2761
 20
-141.5
 30
0.0
 10
-54.5
 20
-141.7239
 30
0.0
 10
-54.5
 20
-142.0
 30
0.0
 10
-54.5
 20
-142.0
 30
0.0
 10
-54.5
 20
-142.2761
 30
0.0
 10
-54.2761
 20
-142.5
 30
0.0
 10
-54.0
 20
-142.5
 30
0.0
 10
-54.0
 20
-142.5
 30
0.0
 10
-54.0
 20
-142.5
 30
0.0
 10
-54.0
 20
-146.0
 30
0.0
 10
-54.0
 20
-146.0
 30
0.0
 10
-54.0
 20
-146.0
 30
0.0
 10
-54.0
 20
-146.0
 30
0.0
 10
-64.0
 20
-146.0
 30
0.0
 10
-64.0
 20
-146.0
 30
0.0
 10
-64.0
 20
-146.0
 30
0.0
 10
-64.0
 20
-146.0
 30
0.0
 10
-64.0
 20
-142.5
 30
0.0
 10
-64.0
 20
-142.5
 30
0.0
 10
-64.0
 20
-142.5
 30
0.0
 10
-63.7239
 20
-142.5
 30
0.0
 10
-63.5
 20
-142.2761
 30
0.0
 10
-63.5
 20
-142.0
 30
0.0
 10
-63.5
 20
-142.0
 30
0.0
 10
-63.5
 20
-141.7239
 30
0.0
 10
-63.7239
 20
-141.5
 30
0.0
 10
-64.0
 20
-141.5
 30
0.0
 10
-64.0
 20
-141.5
 30
0.0
 10
-64.2761
 20
-141.5
 30
0.0
 10
-64.5
 20
-141.7239
 30
0.0
 10
-64.5
 20
-142.0
 30
0.0
 10
-64.5
 20
-142.0
 30
0.0
 10
-64.5
 20
-142.0
 30
0.0
 10
-69.0
 20
-142.0
 30
0.0
 10
-69.0
 20
-142.0
 30
0.0
 10
-69.0
 20
-142.0
 30
0.0
 10
-69.0
 20
-142.0
 30
0.0
 10
-69.3204
 20
-142.0
 30
0.0
 10
-69.3204
 20
-142.0
 30
0.0
 10
-69.3204
 20
-142.0
 30
0.0
 10
-69.3204
 20
-142.0
 30
0.0
 10
-73.5
 20
-142.0
 30
0.0
 10
-73.5
 20
-142.0
 30
0.0
 10
-73.5
 20
-142.0
 30
0.0
 10
-73.5
 20
-141.7239
 30
0.0
 10
-73.7239
 20
-141.5
 30
0.0
 10
-74.0
 20
-141.5
 30
0.0
 10
-74.0
 20
-141.5
 30
0.0
 10
-74.2761
 20
-141.5
 30
0.0
 10
-74.5
 20
-141.7239
 30
0.0
 10
-74.5
 20
-142.0
 30
0.0
 10
-74.5
 20
-142.0
 30
0.0
 10
-74.5
 20
-142.2761
 30
0.0
 10
-74.2761
 20
-142.5
 30
0.0
 10
-74.0
 20
-142.5
 30
0.0
 10
-74.0
 20
-142.5
 30
0.0
 10
-74.0
 20
-142.5
 30
0.0
 10
-74.0
 20
-146.0
 30
0.0
 10
-74.0
 20
-146.0
 30
0.0
 10
-74.0
 20
-146.0
 30
0.0
 10
-74.0
 20
-146.0
 30
0.0
 10
-84.0
 20
-146.0
 30
0.0
 10
-84.0
 20
-146.0
 30
0.0
 10
-84.0
 20
-146.0
 30
0.0
 10
-84.0
 20
-146.0
 30
0.0
 10
-84.0
 20
-142.5
 30
0.0
 10
-84.0
 20
-142.5
 30
0.0
 10
-84.0
 20
-142.5
 30
0.0
 10
-83.7239
 20
-142.5
 30
0.0
 10
-83.5
 20
-142.2761
 30
0.0
 10
-83.5
 20
-142.0
 30
0.0
 10
-83.5
 20
-142.0
 30
0.0
 10
-83.5
 20
-141.7239
 30
0.0
 10
-83.7239
 20
-141.5
 30
0.0
 10
-84.0
 20
-141.5
 30
0.0
 10
-84.0
 20
-141.5
 30
0.0
 10
-84.2761
 20
-141.5
 30
0.0
 10
-84.5
 20
-141.7239
 30
0.0
 10
-84.5
 20
-142.0
 30
0.0
 10
-84.5
 20
-142.0
 30
0.0
 10
-84.5
 20
-142.0
 30
0.0
 10
-89.0
 20
-142.0
 30
0.0
 10
-89.0
 20
-142.0
 30
0.0
 10
-89.0
 20
-142.0
 30
0.0
 10
-89.0
 20
-142.0
 30
0.0
 10
-89.3204
 20
-142.0
 30
0.0
 10
-89.3204
 20
-142.0
 30
0.0
 10
-89.3204
 20
-142.0
 30
0.0
 10
-89.3204
 20
-142.0
 30
0.0
 10
-93.5
 20
-142.0
 30
0.0
 10
-93.5
 20
-142.0
 30
0.0
 10
-93.5
 20
-142.0
 30
0.0
 10
-93.5
 20
-141.7239
 30
0.0
 10
-93.7239
 20
-141.5
 30
0.0
 10
-94.0
 20
-141.5
 30
0.0
 10
-94.0
 20
-141.5
 30
0.0
 10
-94.2761
 20
-141.5
 30
0.0
 10
-94.5
 20
-141.7239
 30
0.0
 10
-94.5
 20
-142.0
 30
0.0
 10
-94.5
 20
-142.0
 30
0.0
 10
-94.5
 20
-142.2761
 30
0.0
 10
-94.2761
 20
-142.5
 30
0.0
 10
-94.0
 20
-142.5
 30
0.0
 10
-94.0
 20
-142.5
 30
0.0
 10
-94.0
 20
-142.5
 30
0.0
 10
-94.0
 20
-146.0
 30
0.0
 10
-94.0
 20
-146.0
 30
0.0
 10
-94.0
 20
-146.0
 30
0.0
 10
-94.0
 20
-146.0
 30
0.0
 10
-104.0
 20
-146.0
 30
0.0
 10
-104.0
 20
-146.0
 30
0.0
 10
-104.0
 20
-146.0
 30
0.0
 10
-104.0
 20
-146.0
 30
0.0
 10
-104.0
 20
-142.5
 30
0.0
 10
-104.0
 20
-142.5
 30
0.0
 10
-104.0
 20
-142.5
 30
0.0
 10
-103.7239
 20
-142.5
 30
0.0
 10
-103.5
 20
-142.2761
 30
0.0
 10
-103.5
 20
-142.0
 30
0.0
 10
-103.5
 20
-142.0
 30
0.0
 10
-103.5
 20
-141.7239
 30
0.0
 10
-103.7239
 20
-141.5
 30
0.0
 10
-104.0
 20
-141.5
 30
0.0
 10
-104.0
 20
-141.5
 30
0.0
 10
-104.2761
 20
-141.5
 30
0.0
 10
-104.5
 20
-141.7239
 30
0.0
 10
-104.5
 20
-142.0
 30
0.0
 10
-104.5
 20
-142.0
 30
0.0
 10
-104.5
 20
-142.0
 30
0.0
 10
-109.0
 20
-142.0
 30
0.0
 10
-109.0
 20
-142.0
 30
0.0
 10
-109.0
 20
-142.0
 30
0.0
 10
-109.0
 20
-142.0
 30
0.0
 10
-109.3204
 20
-142.0
 30
0.0
 10
-109.3204
 20
-142.0
 30
0.0
 10
-109.3204
 20
-142.0
 30
0.0
 10
-109.3204
 20
-142.0
 30
0.0
 10
-113.5
 20
-142.0
 30
0.0
 10
-113.5
 20
-142.0
 30
0.0
 10
-113.5
 20
-142.0
 30
0.0
 10
-113.5
 20
-141.7239
 30
0.0
 10
-113.7239
 20
-141.5
 30
0.0
 10
-114.0
 20
-141.5
 30
0.0
 10
-114.0
 20
-141.5
 30
0.0
 10
-114.2761
 20
-141.5
 30
0.0
 10
-114.5
 20
-141.7239
 30
0.0
 10
-114.5
 20
-142.0
 30
0.0
 10
-114.5
 20
-142.0
 30
0.0
 10
-114.5
 20
-142.2761
 30
0.0
 10
-114.2761
 20
-142.5
 30
0.0
 10
-114.0
 20
-142.5
 30
0.0
 10
-114.0
 20
-142.5
 30
0.0
 10
-114.0
 20
-142.5
 30
0.0
 10
-114.0
 20
-146.0
 30
0.0
 10
-114.0
 20
-146.0
 30
0.0
 10
-114.0
 20
-146.0
 30
0.0
 10
-114.0
 20
-146.0
 30
0.0
 10
-124.0
 20
-146.0
 30
0.0
 10
-124.0
 20
-146.0
 30
0.0
 10
-124.0
 20
-146.0
 30
0.0
 10
-124.0
 20
-146.0
 30
0.0
 10
-124.0
 20
-142.5
 30
0.0
 10
-124.0
 20
-142.5
 30
0.0
 10
-124.0
 20
-142.5
 30
0.0
 10
-123.7239
 20
-142.5
 30
0.0
 10
-123.5
 20
-142.2761
 30
0.0
 10
-123.5
 20
-142.0
 30
0.0
 10
-123.5
 20
-142.0
 30
0.0
 10
-123.5
 20
-141.7239
 30
0.0
 10
-123.7239
 20
-141.5
 30
0.0
 10
-124.0
 20
-141.5
 30
0.0
 10
-124.0
 20
-141.5
 30
0.0
 10
-124.2761
 20
-141.5
 30
0.0
 10
-124.5
 20
-141.7239
 30
0.0
 10
-124.5
 20
-142.0
 30
0.0
 10
-124.5
 20
-142.0
 30
0.0
 10
-124.5
 20
-142.0
 30
0.0
 10
-129.0
 20
-142.0
 30
0.0
 10
-129.0
 20
-142.0
 30
0.0
 10
-129.0
 20
-142.0
 30
0.0
 10
-129.0
 20
-142.0
 30
0.0
 10
-129.3204
 20
-142.0
 30
0.0
 10
-129.3204
 20
-142.0
 30
0.0
 10
-129.3204
 20
-142.0
 30
0.0
 10
-129.3204
 20
-142.0
 30
0.0
 10
-133.5
 20
-142.0
 30
0.0
 10
-133.5
 20
-142.0
 30
0.0
 10
-133.5
 20
-142.0
 30
0.0
 10
-133.5
 20
-141.7239
 30
0.0
 10
-133.7239
 20
-141.5
 30
0.0
 10
-134.0
 20
-141.5
 30
0.0
 10
-134.0
 20
-141.5
 30
0.0
 10
-134.2761
 20
-141.5
 30
0.0
 10
-134.5
 20
-141.7239
 30
0.0
 10
-134.5
 20
-142.0
 30
0.0
 10
-134.5
 20
-142.0
 30
0.0
 10
-134.5
 20
-142.2761
 30
0.0
 10
-134.2761
 20
-142.5
 30
0.0
 10
-134.0
 20
-142.5
 30
0.0
 10
-134.0
 20
-142.5
 30
0.0
 10
-134.0
 20
-142.5
 30
0.0
 10
-134.0
 20
-146.0
 30
0.0
 10
-134.0
 20
-146.0
 30
0.0
 10
-134.0
 20
-146.0
 30
0.0
 10
-134.0
 20
-146.0
 30
0.0
 10
-144.0
 20
-146.0
 30
0.0
 10
-144.0
 20
-146.0
 30
0.0
 10
-144.0
 20
-146.0
 30
0.0
 10
-144.0
 20
-146.0
 30
0.0
 10
-144.0
 20
-142.5
 30
0.0
 10
-144.0
 20
-142.5
 30
0.0
 10
-144.0
 20
-142.5
 30
0.0
 10
-143.7239
 20
-142.5
 30
0.0
 10
-143.5
 20
-142.2761
 30
0.0
 10
-143.5
 20
-142.0
 30
0.0
 10
-143.5
 20
-142.0
 30
0.0
 10
-143.5
 20
-141.7239
 30
0.0
 10
-143.7239
 20
-141.5
 30
0.0
 10
-144.0
 20
-141.5
 30
0.0
 10
-144.0
 20
-141.5
 30
0.0
 10
-144.2761
 20
-141.5
 30
0.0
 10
-144.5
 20
-141.7239
 30
0.0
 10
-144.5
 20
-142.0
 30
0.0
 10
-144.5
 20
-142.0
 30
0.0
 10
-144.5
 20
-142.0
 30
0.0
 10
-149.0
 20
-142.0
 30
0.0
 10
-149.0
 20
-142.0
 30
0.0
 10
-149.0
 20
-142.0
 30
0.0
 10
-149.0
 20
-142.0
 30
0.0
 10
-149.3204
 20
-142.0
 30
0.0
 10
-149.3204
 20
-142.0
 30
0.0
 10
-149.3204
 20
-142.0
 30
0.0
 10
-149.3204
 20
-142.0
 30
0.0
 10
-153.5
 20
-142.0
 30
0.0
 10
-153.5
 20
-142.0
 30
0.0
 10
-153.5
 20
-142.0
 30
0.0
 10
-153.5
 20
-141.7239
 30
0.0
 10
-153.7239
 20
-141.5
 30
0.0
 10
-154.0
 20
-141.5
 30
0.0
 10
-154.0
 20
-141.5
 30
0.0
 10
-154.2761
 20
-141.5
 30
0.0
 10
-154.5
 20
-141.7239
 30
0.0
 10
-154.5
 20
-142.0
 30
0.0
 10
-154.5
 20
-142.0
 30
0.0
 10
-154.5
 20
-142.2761
 30
0.0
 10
-154.2761
 20
-142.5
 30
0.0
 10
-154.0
 20
-142.5
 30
0.0
 10
-154.0
 20
-142.5
 30
0.0
 10
-154.0
 20
-142.5
 30
0.0
 10
-154.0
 20
-146.0
 30
0.0
 10
-154.0
 20
-146.0
 30
0.0
 10
-154.0
 20
-146.0
 30
0.0
 10
-154.0
 20
-146.0
 30
0.0
 10
-164.0
 20
-146.0
 30
0.0
 10
-164.0
 20
-146.0
 30
0.0
 10
-164.0
 20
-146.0
 30
0.0
 10
-164.0
 20
-146.0
 30
0.0
 10
-164.0
 20
-142.5
 30
0.0
 10
-164.0
 20
-142.5
 30
0.0
 10
-164.0
 20
-142.5
 30
0.0
 10
-163.7239
 20
-142.5
 30
0.0
 10
-163.5
 20
-142.2761
 30
0.0
 10
-163.5
 20
-142.0
 30
0.0
 10
-163.5
 20
-142.0
 30
0.0
 10
-163.5
 20
-141.7239
 30
0.0
 10
-163.7239
 20
-141.5
 30
0.0
 10
-164.0
 20
-141.5
 30
0.0
 10
-164.0
 20
-141.5
 30
0.0
 10
-164.2761
 20
-141.5
 30
0.0
 10
-164.5
 20
-141.7239
 30
0.0
 10
-164.5
 20
-142.0
 30
0.0
 10
-164.5
 20
-142.0
 30
0.0
 10
-164.5
 20
-142.0
 30
0.0
 10
-169.0
 20
-142.0
 30
0.0
 10
-169.0
 20
-142.0
 30
0.0
 10
-169.0
 20
-142.0
 30
0.0
 10
-169.0
 20
-142.0
 30
0.0
 10
-169.3204
 20
-142.0
 30
0.0
 10
-169.3204
 20
-142.0
 30
0.0
 10
-169.3204
 20
-142.0
 30
0.0
 10
-169.3204
 20
-142.0
 30
0.0
 10
-173.5
 20
-142.0
 30
0.0
 10
-173.5
 20
-142.0
 30
0.0
 10
-173.5
 20
-142.0
 30
0.0
 10
-173.5
 20
-141.7239
 30
0.0
 10
-173.7239
 20
-141.5
 30
0.0
 10
-174.0
 20
-141.5
 30
0.0
 10
-174.0
 20
-141.5
 30
0.0
 10
-174.2761
 20
-141.5
 30
0.0
 10
-174.5
 20
-141.7239
 30
0.0
 10
-174.5
 20
-142.0
 30
0.0
 10
-174.5
 20
-142.0
 30
0.0
 10
-174.5
 20
-142.2761
 30
0.0
 10
-174.2761
 20
-142.5
 30
0.0
 10
-174.0
 20
-142.5
 30
0.0
 10
-174.0
 20
-142.5
 30
0.0
 10
-174.0
 20
-142.5
 30
0.0
 10
-174.0
 20
-146.0
 30
0.0
 10
-174.0
 20
-146.0
 30
0.0
 10
-174.0
 20
-146.0
 30
0.0
 10
-174.0
 20
-146.0
 30
0.0
 10
-184.0
 20
-146.0
 30
0.0
 10
-184.0
 20
-146.0
 30
0.0
 10
-184.0
 20
-146.0
 30
0.0
 10
-184.0
 20
-146.0
 30
0.0
 10
-184.0
 20
-142.5
 30
0.0
 10
-184.0
 20
-142.5
 30
0.0
 10
-184.0
 20
-142.5
 30
0.0
 10
-183.7239
 20
-142.5
 30
0.0
 10
-183.5
 20
-142.2761
 30
0.0
 10
-183.5
 20
-142.0
 30
0.0
 10
-183.5
 20
-142.0
 30
0.0
 10
-183.5
 20
-141.7239
 30
0.0
 10
-183.7239
 20
-141.5
 30
0.0
 10
-184.0
 20
-141.5
 30
0.0
 10
-184.0
 20
-141.5
 30
0.0
 10
-184.2761
 20
-141.5
 30
0.0
 10
-184.5
 20
-141.7239
 30
0.0
 10
-184.5
 20
-142.0
 30
0.0
 10
-184.5
 20
-142.0
 30
0.0
 10
-184.5
 20
-142.0
 30
0.0
 10
-189.0
 20
-142.0
 30
0.0
 10
-189.0
 20
-142.0
 30
0.0
 10
-189.0
 20
-142.0
 30
0.0
 10
-189.0
 20
-142.0
 30
0.0
 10
-189.3204
 20
-142.0
 30
0.0
 10
-189.3204
 20
-142.0
 30
0.0
 10
-189.3204
 20
-142.0
 30
0.0
 10
-189.3204
 20
-142.0
 30
0.0
 10
-193.5
 20
-142.0
 30
0.0
 10
-193.5
 20
-142.0
 30
0.0
 10
-193.5
 20
-142.0
 30
0.0
 10
-193.5
 20
-141.7239
 30
0.0
 10
-193.7239
 20
-141.5
 30
0.0
 10
-194.0
 20
-141.5
 30
0.0
 10
-194.0
 20
-141.5
 30
0.0
 10
-194.2761
 20
-141.5
 30
0.0
 10
-194.5
 20
-141.7239
 30
0.0
 10
-194.5
 20
-142.0
 30
0.0
 10
-194.5
 20
-142.0
 30
0.0
 10
-194.5
 20
-142.2761
 30
0.0
 10
-194.2761
 20
-142.5
 30
0.0
 10
-194.0
 20
-142.5
 30
0.0
 10
-194.0
 20
-142.5
 30
0.0
 10
-194.0
 20
-142.5
 30
0.0
 10
-194.0
 20
-146.0
 30
0.0
 10
-194.0
 20
-146.0
 30
0.0
 10
-194.0
 20
-146.0
 30
0.0
 10
-194.0
 20
-146.0
 30
0.0
 10
-204.0
 20
-146.0
 30
0.0
 10
-204.0
 20
-146.0
 30
0.0
 10
-204.0
 20
-146.0
 30
0.0
 10
-204.0
 20
-146.0
 30
0.0
 10
-204.0
 20
-142.5
 30
0.0
 10
-204.0
 20
-142.5
 30
0.0
 10
-204.0
 20
-142.5
 30
0.0
 10
-203.7239
 20
-142.5
 30
0.0
 10
-203.5
 20
-142.2761
 30
0.0
 10
-203.5
 20
-142.0
 30
0.0
 10
-203.5
 20
-142.0
 30
0.0
 10
-203.5
 20
-141.7239
 30
0.0
 10
-203.7239
 20
-141.5
 30
0.0
 10
-204.0
 20
-141.5
 30
0.0
 10
-204.0
 20
-141.5
 30
0.0
 10
-204.2761
 20
-141.5
 30
0.0
 10
-204.5
 20
-141.7239
 30
0.0
 10
-204.5
 20
-142.0
 30
0.0
 10
-204.5
 20
-142.0
 30
0.0
 10
-204.5
 20
-142.0
 30
0.0
 10
-209.0
 20
-142.0
 30
0.0
 10
-209.0
 20
-142.0
 30
0.0
 10
-209.0
 20
-142.0
 30
0.0
 10
-209.0
 20
-142.0
 30
0.0
 10
-209.3204
 20
-142.0
 30
0.0
 10
-209.3204
 20
-142.0
 30
0.0
 10
-209.3204
 20
-142.0
 30
0.0
 10
-209.3204
 20
-142.0
 30
0.0
 10
-213.5
 20
-142.0
 30
0.0
 10
-213.5
 20
-142.0
 30
0.0
 10
-213.5
 20
-142.0
 30
0.0
 10
-213.5
 20
-141.7239
 30
0.0
 10
-213.7239
 20
-141.5
 30
0.0
 10
-214.0
 20
-141.5
 30
0.0
 10
-214.0
 20
-141.5
 30
0.0
 10
-214.2761
 20
-141.5
 30
0.0
 10
-214.5
 20
-141.7239
 30
0.0
 10
-214.5
 20
-142.0
 30
0.0
 10
-214.5
 20
-142.0
 30
0.0
 10
-214.5
 20
-142.2761
 30
0.0
 10
-214.2761
 20
-142.5
 30
0.0
 10
-214.0
 20
-142.5
 30
0.0
 10
-214.0
 20
-142.5
 30
0.0
 10
-214.0
 20
-142.5
 30
0.0
 10
-214.0
 20
-146.0
 30
0.0
 10
-214.0
 20
-146.0
 30
0.0
 10
-214.0
 20
-146.0
 30
0.0
 10
-214.0
 20
-146.0
 30
0.0
 10
-224.0
 20
-146.0
 30
0.0
 10
-224.0
 20
-146.0
 30
0.0
 10
-224.0
 20
-146.0
 30
0.0
 10
-224.0
 20
-146.0
 30
0.0
 10
-224.0
 20
-142.5
 30
0.0
 10
-224.0
 20
-142.5
 30
0.0
 10
-224.0
 20
-142.5
 30
0.0
 10
-223.7239
 20
-142.5
 30
0.0
 10
-223.5
 20
-142.2761
 30
0.0
 10
-223.5
 20
-142.0
 30
0.0
 10
-223.5
 20
-142.0
 30
0.0
 10
-223.5
 20
-141.7239
 30
0.0
 10
-223.7239
 20
-141.5
 30
0.0
 10
-224.0
 20
-141.5
 30
0.0
 10
-224.0
 20
-141.5
 30
0.0
 10
-224.2761
 20
-141.5
 30
0.0
 10
-224.5
 20
-141.7239
 30
0.0
 10
-224.5
 20
-142.0
 30
0.0
 10
-224.5
 20
-142.0
 30
0.0
 10
-224.5
 20
-142.0
 30
0.0
 10
-229.0
 20
-142.0
 30
0.0
 10
-229.0
 20
-142.0
 30
0.0
 10
-229.0
 20
-142.0
 30
0.0
 10
-229.0
 20
-142.0
 30
0.0
 10
-229.3204
 20
-142.0
 30
0.0
 10
-229.3204
 20
-142.0
 30
0.0
 10
-229.3204
 20
-142.0
 30
0.0
 10
-229.3204
 20
-142.0
 30
0.0
 10
-233.5
 20
-142.0
 30
0.0
 10
-233.5
 20
-142.0
 30
0.0
 10
-233.5
 20
-142.0
 30
0.0
 10
-233.5
 20
-141.7239
 30
0.0
 10
-233.7239
 20
-141.5
 30
0.0
 10
-234.0
 20
-141.5
 30
0.0
 10
-234.0
 20
-141.5
 30
0.0
 10
-234.2761
 20
-141.5
 30
0.0
 10
-234.5
 20
-141.7239
 30
0.0
 10
-234.5
 20
-142.0
 30
0.0
 10
-234.5
 20
-142.0
 30
0.0
 10
-234.5
 20
-142.2761
 30
0.0
 10
-234.2761
 20
-142.5
 30
0.0
 10
-234.0
 20
-142.5
 30
0.0
 10
-234.0
 20
-142.5
 30
0.0
 10
-234.0
 20
-142.5
 30
0.0
 10
-234.0
 20
-146.0
 30
0.0
 10
-234.0
 20
-146.0
 30
0.0
 10
-234.0
 20
-146.0
 30
0.0
 10
-234.0
 20
-146.0
 30
0.0
 10
-244.0
 20
-146.0
 30
0.0
 10
-244.0
 20
-146.0
 30
0.0
 10
-244.0
 20
-146.0
 30
0.0
 10
-244.0
 20
-146.0
 30
0.0
 10
-244.0
 20
-142.5
 30
0.0
 10
-244.0
 20
-142.5
 30
0.0
 10
-244.0
 20
-142.5
 30
0.0
 10
-243.7239
 20
-142.5
 30
0.0
 10
-243.5
 20
-142.2761
 30
0.0
 10
-243.5
 20
-142.0
 30
0.0
 10
-243.5
 20
-142.0
 30
0.0
 10
-243.5
 20
-141.7239
 30
0.0
 10
-243.7239
 20
-141.5
 30
0.0
 10
-244.0
 20
-141.5
 30
0.0
 10
-244.0
 20
-141.5
 30
0.0
 10
-244.2761
 20
-141.5
 30
0.0
 10
-244.5
 20
-141.7239
 30
0.0
 10
-244.5
 20
-142.0
 30
0.0
 10
-244.5
 20
-142.0
 30
0.0
 10
-244.5
 20
-142.0
 30
0.0
 10
-249.0
 20
-142.0
 30
0.0
 10
-249.0
 20
-142.0
 30
0.0
 10
-249.0
 20
-142.0
 30
0.0
 10
-249.0
 20
-142.0
 30
0.0
 10
-249.3204
 20
-142.0
 30
0.0
 10
-249.3204
 20
-142.0
 30
0.0
 10
-249.3204
 20
-142.0
 30
0.0
 10
-249.3204
 20
-142.0
 30
0.0
 10
-253.5
 20
-142.0
 30
0.0
 10
-253.5
 20
-142.0
 30
0.0
 10
-253.5
 20
-142.0
 30
0.0
 10
-253.5
 20
-141.7239
 30
0.0
 10
-253.7239
 20
-141.5
 30
0.0
 10
-254.0
 20
-141.5
 30
0.0
 10
-254.0
 20
-141.5
 30
0.0
 10
-254.2761
 20
-141.5
 30
0.0
 10
-254.5
 20
-141.7239
 30
0.0
 10
-254.5
 20
-142.0
 30
0.0
 10
-254.5
 20
-142.0
 30
0.0
 10
-254.5
 20
-142.2761
 30
0.0
 10
-254.2761
 20
-142.5
 30
0.0
 10
-254.0
 20
-142.5
 30
0.0
 10
-254.0
 20
-142.5
 30
0.0
 10
-254.0
 20
-142.5
 30
0.0
 10
-254.0
 20
-146.0
 30
0.0
 10
-254.0
 20
-146.0
 30
0.0
 10
-254.0
 20
-146.0
 30
0.0
 10
-254.0
 20
-146.0
 30
0.0
 10
-264.0
 20
-146.0
 30
0.0
 10
-264.0
 20
-146.0
 30
0.0
 10
-264.0
 20
-146.0
 30
0.0
 10
-264.0
 20
-146.0
 30
0.0
 10
-264.0
 20
-142.5
 30
0.0
 10
-264.0
 20
-142.5
 30
0.0
 10
-264.0
 20
-142.5
 30
0.0
 10
-263.7239
 20
-142.5
 30
0.0
 10
-263.5
 20
-142.2761
 30
0.0
 10
-263.5
 20
-142.0
 30
0.0
 10
-263.5
 20
-142.0
 30
0.0
 10
-263.5
 20
-141.7239
 30
0.0
 10
-263.7239
 20
-141.5
 30
0.0
 10
-264.0
 20
-141.5
 30
0.0
 10
-264.0
 20
-141.5
 30
0.0
 10
-264.2761
 20
-141.5
 30
0.0
 10
-264.5
 20
-141.7239
 30
0.0
 10
-264.5
 20
-142.0
 30
0.0
 10
-264.5
 20
-142.0
 30
0.0
 10
-264.5
 20
-142.0
 30
0.0
 10
-269.0
 20
-142.0
 30
0.0
 10
-269.0
 20
-142.0
 30
0.0
 10
-269.0
 20
-142.0
 30
0.0
 10
-269.0
 20
-142.0
 30
0.0
 10
-269.3204
 20
-142.0
 30
0.0
 10
-269.3204
 20
-142.0
 30
0.0
 10
-269.3204
 20
-142.0
 30
0.0
 10
-269.3204
 20
-142.0
 30
0.0
 10
-273.5
 20
-142.0
 30
0.0
 10
-273.5
 20
-142.0
 30
0.0
 10
-273.5
 20
-142.0
 30
0.0
 10
-273.5
 20
-141.7239
 30
0.0
 10
-273.7239
 20
-141.5
 30
0.0
 10
-274.0
 20
-141.5
 30
0.0
 10
-274.0
 20
-141.5
 30
0.0
 10
-274.2761
 20
-141.5
 30
0.0
 10
-274.5
 20
-141.7239
 30
0.0
 10
-274.5
 20
-142.0
 30
0.0
 10
-274.5
 20
-142.0
 30
0.0
 10
-274.5
 20
-142.2761
 30
0.0
 10
-274.2761
 20
-142.5
 30
0.0
 10
-274.0
 20
-142.5
 30
0.0
 10
-274.0
 20
-142.5
 30
0.0
 10
-274.0
 20
-142.5
 30
0.0
 10
-274.0
 20
-146.0
 30
0.0
 10
-274.0
 20
-146.0
 30
0.0
 10
-274.0
 20
-146.0
 30
0.0
 10
-274.0
 20
-146.0
 30
0.0
 10
-284.0
 20
-146.0
 30
0.0
 10
-284.0
 20
-146.0
 30
0.0
 10
-284.0
 20
-146.0
 30
0.0
 10
-284.0
 20
-146.0
 30
0.0
 10
-284.0
 20
-142.5
 30
0.0
 10
-284.0
 20
-142.5
 30
0.0
 10
-284.0
 20
-142.5
 30
0.0
 10
-283.7239
 20
-142.5
 30
0.0
 10
-283.5
 20
-142.2761
 30
0.0
 10
-283.5
 20
-142.0
 30
0.0
 10
-283.5
 20
-142.0
 30
0.0
 10
-283.5
 20
-141.7239
 30
0.0
 10
-283.7239
 20
-141.5
 30
0.0
 10
-284.0
 20
-141.5
 30
0.0
 10
-284.0
 20
-141.5
 30
0.0
 10
-284.2761
 20
-141.5
 30
0.0
 10
-284.5
 20
-141.7239
 30
0.0
 10
-284.5
 20
-142.0
 30
0.0
 10
-284.5
 20
-142.0
 30
0.0
 10
-284.5
 20
-142.0
 30
0.0
 10
-289.0
 20
-142.0
 30
0.0
 10
-289.0
 20
-142.0
 30
0.0
 10
-289.0
 20
-142.0
 30
0.0
 10
-289.0
 20
-142.0
 30
0.0
 10
-296.0
 20
-142.0
 30
0.0
 10
-296.0
 20
-142.0
 30
0.0
 10
-296.0
 20
-142.0
 30
0.0
 10
-296.0
 20
-142.0
 30
0.0
 10
-296.0
 20
-139.0
 30
0.0
 10
-296.0
 20
-139.0
 30
0.0
 10
-296.0
 20
-139.0
 30
0.0
 10
-296.0
 20
-139.0
 30
0.0
 10
-296.0
 20
-28.0
 30
0.0
 10
-296.0
 20
-28.0
 30
0.0
 10
-296.0
 20
-28.0
 30
0.0
 10
-296.0
 20
-28.0
 30
0.0
 10
-295.9975
 20
-28.0
 30
0.0
 10
-295.9975
 20
-28.0
 30
0.0
 10
-295.9975
 20
-28.0
 30
0.0
 10
-295.947
 20
-24.1397
 30
0.0
 10
-294.437
 20
-20.6312
 30
0.0
 10
-291.9949
 20
-18.0
 30
0.0
 10
-291.9949
 20
-18.0
 30
0.0
 10
-291.9949
 20
-18.0
 30
0.0
 10
-292.0
 20
-18.0
 30
0.0
 10
-292.0
 20
-18.0
 30
0.0
 10
-292.0
 20
-18.0
 30
0.0
 10
-292.0
 20
-18.0
 30
0.0
 10
-134.3939
 20
139.6061
 30
0.0
 10
-134.3939
 20
139.6061
 30
0.0
 10
-134.3939
 20
139.6061
 30
0.0
 10
-134.3939
 20
139.6061
 30
0.0
 10
-134.4061
 20
139.6061
 30
0.0
 10
-134.4061
 20
139.6061
 30
0.0
  0
SPLINE
  5
60
330
1F
100
AcDbEntity
  8
Layer 1
 62
   250
370
     9
100
AcDbSpline
210
0.0
220
0.0
230
1.0
 70
    11
 71
     3
 72
    20
 73
    16
 74
     0
 42
0.0000000001
 43
0.0000000001
 40
0.0
 40
0.0
 40
0.0
 40
0.0
 40
0.25
 40
0.25
 40
0.25
 40
0.25
 40
0.5
 40
0.5
 40
0.5
 40
0.5
 40
0.75
 40
0.75
 40
0.75
 40
0.75
 40
1.0
 40
1.0
 40
1.0
 40
1.0
 10
-289.0
 20
-111.0
 30
0.0
 10
-289.0
 20
-111.8283
 30
0.0
 10
-289.6717
 20
-112.5
 30
0.0
 10
-290.5
 20
-112.5
 30
0.0
 10
-290.5
 20
-112.5
 30
0.0
 10
-291.3283
 20
-112.5
 30
0.0
 10
-292.0
 20
-111.8283
 30
0.0
 10
-292.0
 20
-111.0
 30
0.0
 10
-292.0
 20
-111.0
 30
0.0
 10
-292.0
 20
-110.1717
 30
0.0
 10
-291.3283
 20
-109.5
 30
0.0
 10
-290.5
 20
-109.5
 30
0.0
 10
-290.5
 20
-109.5
 30
0.0
 10
-289.6717
 20
-109.5
 30
0.0
 10
-289.0
 20
-110.1717
 30
0.0
 10
-289.0
 20
-111.0
 30
0.0
  0
SPLINE
  5
61
330
1F
100
AcDbEntity
  8
Layer 1
 62
   250
370
     9
100
AcDbSpline
210
0.0
220
0.0
230
1.0
 70
    11
 71
     3
 72
    68
 73
    64
 74
     0
 42
0.0000000001
 43
0.0000000001
 40
0.0
 40
0.0
 40
0.0
 40
0.0
 40
0.0625
 40
0.0625
 40
0.0625
 40
0.0625
 40
0.125
 40
0.125
 40
0.125
 40
0.125
 40
0.1875
 40
0.1875
 40
0.1875
 40
0.1875
 40
0.25
 40
0.25
 40
0.25
 40
0.25
 40
0.3125
 40
0.3125
 40
0.3125
 40
0.3125
 40
0.375
 40
0.375
 40
0.375
 40
0.375
 40
0.4375
 40
0.4375
 40
0.4375
 40
0.4375
 40
0.5
 40
0.5
 40
0.5
 40
0.5
 40
0.5625
 40
0.5625
 40
0.5625
 40
0.5625
 40
0.625
 40
0.625
 40
0.625
 40
0.625
 40
0.6875
 40
0.6875
 40
0.6875
 40
0.6875
 40
0.75
 40
0.75
 40
0.75
 40
0.75
 40
0.8125
 40
0.8125
 40
0.8125
 40
0.8125
 40
0.875
 40
0.875
 40
0.875
 40
0.875
 40
0.9375
 40
0.9375
 40
0.9375
 40
0.9375
 40
1.0
 40
1.0
 40
1.0
 40
1.0
 10
-293.5
 20
-96.0
 30
0.0
 10
-293.5
 20
-95.7239
 30
0.0
 10
-293.2761
 20
-95.5
 30
0.0
 10
-293.0
 20
-95.5
 30
0.0
 10
-293.0
 20
-95.5
 30
0.0
 10
-292.7239
 20
-95.5
 30
0.0
 10
-292.5
 20
-95.7239
 30
0.0
 10
-292.5
 20
-96.0
 30
0.0
 10
-292.5
 20
-96.0
 30
0.0
 10
-292.5
 20
-96.0
 30
0.0
 10
-288.5
 20
-96.0
 30
0.0
 10
-288.5
 20
-96.0
 30
0.0
 10
-288.5
 20
-96.0
 30
0.0
 10
-288.5
 20
-95.7239
 30
0.0
 10
-288.2761
 20
-95.5
 30
0.0
 10
-288.0
 20
-95.5
 30
0.0
 10
-288.0
 20
-95.5
 30
0.0
 10
-287.7239
 20
-95.5
 30
0.0
 10
-287.5
 20
-95.7239
 30
0.0
 10
-287.5
 20
-96.0
 30
0.0
 10
-287.5
 20
-96.0
 30
0.0
 10
-287.5
 20
-96.2761
 30
0.0
 10
-287.7239
 20
-96.5
 30
0.0
 10
-288.0
 20
-96.5
 30
0.0
 10
-288.0
 20
-96.5
 30
0.0
 10
-288.0
 20
-96.5
 30
0.0
 10
-288.0
 20
-105.5
 30
0.0
 10
-288.0
 20
-105.5
 30
0.0
 10
-288.0
 20
-105.5
 30
0.0
 10
-287.7239
 20
-105.5
 30
0.0
 10
-287.5
 20
-105.7239
 30
0.0
 10
-287.5
 20
-106.0
 30
0.0
 10
-287.5
 20
-106.0
 30
0.0
 10
-287.5
 20
-106.2761
 30
0.0
 10
-287.7239
 20
-106.5
 30
0.0
 10
-288.0
 20
-106.5
 30
0.0
 10
-288.0
 20
-106.5
 30
0.0
 10
-288.2761
 20
-106.5
 30
0.0
 10
-288.5
 20
-106.2761
 30
0.0
 10
-288.5
 20
-106.0
 30
0.0
 10
-288.5
 20
-106.0
 30
0.0
 10
-288.5
 20
-106.0
 30
0.0
 10
-292.5
 20
-106.0
 30
0.0
 10
-292.5
 20
-106.0
 30
0.0
 10
-292.5
 20
-106.0
 30
0.0
 10
-292.5
 20
-106.2761
 30
0.0
 10
-292.7239
 20
-106.5
 30
0.0
 10
-293.0
 20
-106.5
 30
0.0
 10
-293.0
 20
-106.5
 30
0.0
 10
-293.2761
 20
-106.5
 30
0.0
 10
-293.5
 20
-106.2761
 30
0.0
 10
-293.5
 20
-106.0
 30
0.0
 10
-293.5
 20
-106.0
 30
0.0
 10
-293.5
 20
-105.7239
 30
0.0
 10
-293.2761
 20
-105.5
 30
0.0
 10
-293.0
 20
-105.5
 30
0.0
 10
-293.0
 20
-105.5
 30
0.0
 10
-293.0
 20
-105.5
 30
0.0
 10
-293.0
 20
-96.5
 30
0.0
 10
-293.0
 20
-96.5
 30
0.0
 10
-293.0
 20
-96.5
 30
0.0
 10
-293.2761
 20
-96.5
 30
0.0
 10
-293.5
 20
-96.2761
 30
0.0
 10
-293.5
 20
-96.0
 30
0.0
  0
SPLINE
  5
62
330
1F
100
AcDbEntity
  8
Layer 1
 62
   250
370
     9
100
AcDbSpline
210
0.0
220
0.0
230
1.0
 70
    11
 71
     3
 72
    68
 73
    64
 74
     0
 42
0.0000000001
 43
0.0000000001
 40
0.0
 40
0.0
 40
0.0
 40
0.0
 40
0.0625
 40
0.0625
 40
0.0625
 40
0.0625
 40
0.125
 40
0.125
 40
0.125
 40
0.125
 40
0.1875
 40
0.1875
 40
0.1875
 40
0.1875
 40
0.25
 40
0.25
 40
0.25
 40
0.25
 40
0.3125
 40
0.3125
 40
0.3125
 40
0.3125
 40
0.375
 40
0.375
 40
0.375
 40
0.375
 40
0.4375
 40
0.4375
 40
0.4375
 40
0.4375
 40
0.5
 40
0.5
 40
0.5
 40
0.5
 40
0.5625
 40
0.5625
 40
0.5625
 40
0.5625
 40
0.625
 40
0.625
 40
0.625
 40
0.625
 40
0.6875
 40
0.6875
 40
0.6875
 40
0.6875
 40
0.75
 40
0.75
 40
0.75
 40
0.75
 40
0.8125
 40
0.8125
 40
0.8125
 40
0.8125
 40
0.875
 40
0.875
 40
0.875
 40
0.875
 40
0.9375
 40
0.9375
 40
0.9375
 40
0.9375
 40
1.0
 40
1.0
 40
1.0
 40
1.0
 10
-293.5
 20
-116.0
 30
0.0
 10
-293.5
 20
-115.7239
 30
0.0
 10
-293.2761
 20
-115.5
 30
0.0
 10
-293.0
 20
-115.5
 30
0.0
 10
-293.0
 20
-115.5
 30
0.0
 10
-292.7239
 20
-115.5
 30
0.0
 10
-292.5
 20
-115.7239
 30
0.0
 10
-292.5
 20
-116.0
 30
0.0
 10
-292.5
 20
-116.0
 30
0.0
 10
-292.5
 20
-116.0
 30
0.0
 10
-288.5
 20
-116.0
 30
0.0
 10
-288.5
 20
-116.0
 30
0.0
 10
-288.5
 20
-116.0
 30
0.0
 10
-288.5
 20
-115.7239
 30
0.0
 10
-288.2761
 20
-115.5
 30
0.0
 10
-288.0
 20
-115.5
 30
0.0
 10
-288.0
 20
-115.5
 30
0.0
 10
-287.7239
 20
-115.5
 30
0.0
 10
-287.5
 20
-115.7239
 30
0.0
 10
-287.5
 20
-116.0
 30
0.0
 10
-287.5
 20
-116.0
 30
0.0
 10
-287.5
 20
-116.2761
 30
0.0
 10
-287.7239
 20
-116.5
 30
0.0
 10
-288.0
 20
-116.5
 30
0.0
 10
-288.0
 20
-116.5
 30
0.0
 10
-288.0
 20
-116.5
 30
0.0
 10
-288.0
 20
-125.5
 30
0.0
 10
-288.0
 20
-125.5
 30
0.0
 10
-288.0
 20
-125.5
 30
0.0
 10
-287.7239
 20
-125.5
 30
0.0
 10
-287.5
 20
-125.7239
 30
0.0
 10
-287.5
 20
-126.0
 30
0.0
 10
-287.5
 20
-126.0
 30
0.0
 10
-287.5
 20
-126.2761
 30
0.0
 10
-287.7239
 20
-126.5
 30
0.0
 10
-288.0
 20
-126.5
 30
0.0
 10
-288.0
 20
-126.5
 30
0.0
 10
-288.2761
 20
-126.5
 30
0.0
 10
-288.5
 20
-126.2761
 30
0.0
 10
-288.5
 20
-126.0
 30
0.0
 10
-288.5
 20
-126.0
 30
0.0
 10
-288.5
 20
-126.0
 30
0.0
 10
-292.5
 20
-126.0
 30
0.0
 10
-292.5
 20
-126.0
 30
0.0
 10
-292.5
 20
-126.0
 30
0.0
 10
-292.5
 20
-126.2761
 30
0.0
 10
-292.7239
 20
-126.5
 30
0.0
 10
-293.0
 20
-126.5
 30
0.0
 10
-293.0
 20
-126.5
 30
0.0
 10
-293.2761
 20
-126.5
 30
0.0
 10
-293.5
 20
-126.2761
 30
0.0
 10
-293.5
 20
-126.0
 30
0.0
 10
-293.5
 20
-126.0
 30
0.0
 10
-293.5
 20
-125.7239
 30
0.0
 10
-293.2761
 20
-125.5
 30
0.0
 10
-293.0
 20
-125.5
 30
0.0
 10
-293.0
 20
-125.5
 30
0.0
 10
-293.0
 20
-125.5
 30
0.0
 10
-293.0
 20
-116.5
 30
0.0
 10
-293.0
 20
-116.5
 30
0.0
 10
-293.0
 20
-116.5
 30
0.0
 10
-293.2761
 20
-116.5
 30
0.0
 10
-293.5
 20
-116.2761
 30
0.0
 10
-293.5
 20
-116.0
 30
0.0
  0
SPLINE
  5
63
330
1F
100
AcDbEntity
  8
Layer 1
 62
   250
370
     9
100
AcDbSpline
210
0.0
220
0.0
230
1.0
 70
    11
 71
     3
 72
    20
 73
    16
 74
     0
 42
0.0000000001
 43
0.0000000001
 40
0.0
 40
0.0
 40
0.0
 40
0.0
 40
0.25
 40
0.25
 40
0.25
 40
0.25
 40
0.5
 40
0.5
 40
0.5
 40
0.5
 40
0.75
 40
0.75
 40
0.75
 40
0.75
 40
1.0
 40
1.0
 40
1.0
 40
1.0
 10
-289.0
 20
-50.0
 30
0.0
 10
-289.0
 20
-50.8283
 30
0.0
 10
-289.6717
 20
-51.5
 30
0.0
 10
-290.5
 20
-51.5
 30
0.0
 10
-290.5
 20
-51.5
 30
0.0
 10
-291.3283
 20
-51.5
 30
0.0
 10
-292.0
 20
-50.8283
 30
0.0
 10
-292.0
 20
-50.0
 30
0.0
 10
-292.0
 20
-50.0
 30
0.0
 10
-292.0
 20
-49.1717
 30
0.0
 10
-291.3283
 20
-48.5
 30
0.0
 10
-290.5
 20
-48.5
 30
0.0
 10
-290.5
 20
-48.5
 30
0.0
 10
-289.6717
 20
-48.5
 30
0.0
 10
-289.0
 20
-49.1717
 30
0.0
 10
-289.0
 20
-50.0
 30
0.0
  0
SPLINE
  5
64
330
1F
100
AcDbEntity
  8
Layer 1
 62
   250
370
     9
100
AcDbSpline
210
0.0
220
0.0
230
1.0
 70
    11
 71
     3
 72
    68
 73
    64
 74
     0
 42
0.0000000001
 43
0.0000000001
 40
0.0
 40
0.0
 40
0.0
 40
0.0
 40
0.0625
 40
0.0625
 40
0.0625
 40
0.0625
 40
0.125
 40
0.125
 40
0.125
 40
0.125
 40
0.1875
 40
0.1875
 40
0.1875
 40
0.1875
 40
0.25
 40
0.25
 40
0.25
 40
0.25
 40
0.3125
 40
0.3125
 40
0.3125
 40
0.3125
 40
0.375
 40
0.375
 40
0.375
 40
0.375
 40
0.4375
 40
0.4375
 40
0.4375
 40
0.4375
 40
0.5
 40
0.5
 40
0.5
 40
0.5
 40
0.5625
 40
0.5625
 40
0.5625
 40
0.5625
 40
0.625
 40
0.625
 40
0.625
 40
0.625
 40
0.6875
 40
0.6875
 40
0.6875
 40
0.6875
 40
0.75
 40
0.75
 40
0.75
 40
0.75
 40
0.8125
 40
0.8125
 40
0.8125
 40
0.8125
 40
0.875
 40
0.875
 40
0.875
 40
0.875
 40
0.9375
 40
0.9375
 40
0.9375
 40
0.9375
 40
1.0
 40
1.0
 40
1.0
 40
1.0
 10
-293.5
 20
-35.0
 30
0.0
 10
-293.5
 20
-34.7239
 30
0.0
 10
-293.2761
 20
-34.5
 30
0.0
 10
-293.0
 20
-34.5
 30
0.0
 10
-293.0
 20
-34.5
 30
0.0
 10
-292.7239
 20
-34.5
 30
0.0
 10
-292.5
 20
-34.7239
 30
0.0
 10
-292.5
 20
-35.0
 30
0.0
 10
-292.5
 20
-35.0
 30
0.0
 10
-292.5
 20
-35.0
 30
0.0
 10
-288.5
 20
-35.0
 30
0.0
 10
-288.5
 20
-35.0
 30
0.0
 10
-288.5
 20
-35.0
 30
0.0
 10
-288.5
 20
-34.7239
 30
0.0
 10
-288.2761
 20
-34.5
 30
0.0
 10
-288.0
 20
-34.5
 30
0.0
 10
-288.0
 20
-34.5
 30
0.0
 10
-287.7239
 20
-34.5
 30
0.0
 10
-287.5
 20
-34.7239
 30
0.0
 10
-287.5
 20
-35.0
 30
0.0
 10
-287.5
 20
-35.0
 30
0.0
 10
-287.5
 20
-35.2761
 30
0.0
 10
-287.7239
 20
-35.5
 30
0.0
 10
-288.0
 20
-35.5
 30
0.0
 10
-288.0
 20
-35.5
 30
0.0
 10
-288.0
 20
-35.5
 30
0.0
 10
-288.0
 20
-44.5
 30
0.0
 10
-288.0
 20
-44.5
 30
0.0
 10
-288.0
 20
-44.5
 30
0.0
 10
-287.7239
 20
-44.5
 30
0.0
 10
-287.5
 20
-44.7239
 30
0.0
 10
-287.5
 20
-45.0
 30
0.0
 10
-287.5
 20
-45.0
 30
0.0
 10
-287.5
 20
-45.2761
 30
0.0
 10
-287.7239
 20
-45.5
 30
0.0
 10
-288.0
 20
-45.5
 30
0.0
 10
-288.0
 20
-45.5
 30
0.0
 10
-288.2761
 20
-45.5
 30
0.0
 10
-288.5
 20
-45.2761
 30
0.0
 10
-288.5
 20
-45.0
 30
0.0
 10
-288.5
 20
-45.0
 30
0.0
 10
-288.5
 20
-45.0
 30
0.0
 10
-292.5
 20
-45.0
 30
0.0
 10
-292.5
 20
-45.0
 30
0.0
 10
-292.5
 20
-45.0
 30
0.0
 10
-292.5
 20
-45.2761
 30
0.0
 10
-292.7239
 20
-45.5
 30
0.0
 10
-293.0
 20
-45.5
 30
0.0
 10
-293.0
 20
-45.5
 30
0.0
 10
-293.2761
 20
-45.5
 30
0.0
 10
-293.5
 20
-45.2761
 30
0.0
 10
-293.5
 20
-45.0
 30
0.0
 10
-293.5
 20
-45.0
 30
0.0
 10
-293.5
 20
-44.7239
 30
0.0
 10
-293.2761
 20
-44.5
 30
0.0
 10
-293.0
 20
-44.5
 30
0.0
 10
-293.0
 20
-44.5
 30
0.0
 10
-293.0
 20
-44.5
 30
0.0
 10
-293.0
 20
-35.5
 30
0.0
 10
-293.0
 20
-35.5
 30
0.0
 10
-293.0
 20
-35.5
 30
0.0
 10
-293.2761
 20
-35.5
 30
0.0
 10
-293.5
 20
-35.2761
 30
0.0
 10
-293.5
 20
-35.0
 30
0.0
  0
SPLINE
  5
65
330
1F
100
AcDbEntity
  8
Layer 1
 62
   250
370
     9
100
AcDbSpline
210
0.0
220
0.0
230
1.0
 70
    11
 71
     3
 72
    68
 73
    64
 74
     0
 42
0.0000000001
 43
0.0000000001
 40
0.0
 40
0.0
 40
0.0
 40
0.0
 40
0.0625
 40
0.0625
 40
0.0625
 40
0.0625
 40
0.125
 40
0.125
 40
0.125
 40
0.125
 40
0.1875
 40
0.1875
 40
0.1875
 40
0.1875
 40
0.25
 40
0.25
 40
0.25
 40
0.25
 40
0.3125
 40
0.3125
 40
0.3125
 40
0.3125
 40
0.375
 40
0.375
 40
0.375
 40
0.375
 40
0.4375
 40
0.4375
 40
0.4375
 40
0.4375
 40
0.5
 40
0.5
 40
0.5
 40
0.5
 40
0.5625
 40
0.5625
 40
0.5625
 40
0.5625
 40
0.625
 40
0.625
 40
0.625
 40
0.625
 40
0.6875
 40
0.6875
 40
0.6875
 40
0.6875
 40
0.75
 40
0.75
 40
0.75
 40
0.75
 40
0.8125
 40
0.8125
 40
0.8125
 40
0.8125
 40
0.875
 40
0.875
 40
0.875
 40
0.875
 40
0.9375
 40
0.9375
 40
0.9375
 40
0.9375
 40
1.0
 40
1.0
 40
1.0
 40
1.0
 10
-293.5
 20
-55.0
 30
0.0
 10
-293.5
 20
-54.7239
 30
0.0
 10
-293.2761
 20
-54.5
 30
0.0
 10
-293.0
 20
-54.5
 30
0.0
 10
-293.0
 20
-54.5
 30
0.0
 10
-292.7239
 20
-54.5
 30
0.0
 10
-292.5
 20
-54.7239
 30
0.0
 10
-292.5
 20
-55.0
 30
0.0
 10
-292.5
 20
-55.0
 30
0.0
 10
-292.5
 20
-55.0
 30
0.0
 10
-288.5
 20
-55.0
 30
0.0
 10
-288.5
 20
-55.0
 30
0.0
 10
-288.5
 20
-55.0
 30
0.0
 10
-288.5
 20
-54.7239
 30
0.0
 10
-288.2761
 20
-54.5
 30
0.0
 10
-288.0
 20
-54.5
 30
0.0
 10
-288.0
 20
-54.5
 30
0.0
 10
-287.7239
 20
-54.5
 30
0.0
 10
-287.5
 20
-54.7239
 30
0.0
 10
-287.5
 20
-55.0
 30
0.0
 10
-287.5
 20
-55.0
 30
0.0
 10
-287.5
 20
-55.2761
 30
0.0
 10
-287.7239
 20
-55.5
 30
0.0
 10
-288.0
 20
-55.5
 30
0.0
 10
-288.0
 20
-55.5
 30
0.0
 10
-288.0
 20
-55.5
 30
0.0
 10
-288.0
 20
-64.5
 30
0.0
 10
-288.0
 20
-64.5
 30
0.0
 10
-288.0
 20
-64.5
 30
0.0
 10
-287.7239
 20
-64.5
 30
0.0
 10
-287.5
 20
-64.7239
 30
0.0
 10
-287.5
 20
-65.0
 30
0.0
 10
-287.5
 20
-65.0
 30
0.0
 10
-287.5
 20
-65.2761
 30
0.0
 10
-287.7239
 20
-65.5
 30
0.0
 10
-288.0
 20
-65.5
 30
0.0
 10
-288.0
 20
-65.5
 30
0.0
 10
-288.2761
 20
-65.5
 30
0.0
 10
-288.5
 20
-65.2761
 30
0.0
 10
-288.5
 20
-65.0
 30
0.0
 10
-288.5
 20
-65.0
 30
0.0
 10
-288.5
 20
-65.0
 30
0.0
 10
-292.5
 20
-65.0
 30
0.0
 10
-292.5
 20
-65.0
 30
0.0
 10
-292.5
 20
-65.0
 30
0.0
 10
-292.5
 20
-65.2761
 30
0.0
 10
-292.7239
 20
-65.5
 30
0.0
 10
-293.0
 20
-65.5
 30
0.0
 10
-293.0
 20
-65.5
 30
0.0
 10
-293.2761
 20
-65.5
 30
0.0
 10
-293.5
 20
-65.2761
 30
0.0
 10
-293.5
 20
-65.0
 30
0.0
 10
-293.5
 20
-65.0
 30
0.0
 10
-293.5
 20
-64.7239
 30
0.0
 10
-293.2761
 20
-64.5
 30
0.0
 10
-293.0
 20
-64.5
 30
0.0
 10
-293.0
 20
-64.5
 30
0.0
 10
-293.0
 20
-64.5
 30
0.0
 10
-293.0
 20
-55.5
 30
0.0
 10
-293.0
 20
-55.5
 30
0.0
 10
-293.0
 20
-55.5
 30
0.0
 10
-293.2761
 20
-55.5
 30
0.0
 10
-293.5
 20
-55.2761
 30
0.0
 10
-293.5
 20
-55.0
 30
0.0
  0
SPLINE
  5
66
330
1F
100
AcDbEntity
  8
Layer 1
 62
   250
370
     9
100
AcDbSpline
210
0.0
220
0.0
230
1.0
 70
    11
 71
     3
 72
    20
 73
    16
 74
     0
 42
0.0000000001
 43
0.0000000001
 40
0.0
 40
0.0
 40
0.0
 40
0.0
 40
0.25
 40
0.25
 40
0.25
 40
0.25
 40
0.5
 40
0.5
 40
0.5
 40
0.5
 40
0.75
 40
0.75
 40
0.75
 40
0.75
 40
1.0
 40
1.0
 40
1.0
 40
1.0
 10
68.0
 20
137.0
 30
0.0
 10
67.1717
 20
137.0
 30
0.0
 10
66.5
 20
137.6717
 30
0.0
 10
66.5
 20
138.5
 30
0.0
 10
66.5
 20
138.5
 30
0.0
 10
66.5
 20
139.3283
 30
0.0
 10
67.1717
 20
140.0
 30
0.0
 10
68.0
 20
140.0
 30
0.0
 10
68.0
 20
140.0
 30
0.0
 10
68.8283
 20
140.0
 30
0.0
 10
69.5
 20
139.3283
 30
0.0
 10
69.5
 20
138.5
 30
0.0
 10
69.5
 20
138.5
 30
0.0
 10
69.5
 20
137.6717
 30
0.0
 10
68.8283
 20
137.0
 30
0.0
 10
68.0
 20
137.0
 30
0.0
  0
SPLINE
  5
67
330
1F
100
AcDbEntity
  8
Layer 1
 62
   250
370
     9
100
AcDbSpline
210
0.0
220
0.0
230
1.0
 70
    11
 71
     3
 72
    68
 73
    64
 74
     0
 42
0.0000000001
 43
0.0000000001
 40
0.0
 40
0.0
 40
0.0
 40
0.0
 40
0.0625
 40
0.0625
 40
0.0625
 40
0.0625
 40
0.125
 40
0.125
 40
0.125
 40
0.125
 40
0.1875
 40
0.1875
 40
0.1875
 40
0.1875
 40
0.25
 40
0.25
 40
0.25
 40
0.25
 40
0.3125
 40
0.3125
 40
0.3125
 40
0.3125
 40
0.375
 40
0.375
 40
0.375
 40
0.375
 40
0.4375
 40
0.4375
 40
0.4375
 40
0.4375
 40
0.5
 40
0.5
 40
0.5
 40
0.5
 40
0.5625
 40
0.5625
 40
0.5625
 40
0.5625
 40
0.625
 40
0.625
 40
0.625
 40
0.625
 40
0.6875
 40
0.6875
 40
0.6875
 40
0.6875
 40
0.75
 40
0.75
 40
0.75
 40
0.75
 40
0.8125
 40
0.8125
 40
0.8125
 40
0.8125
 40
0.875
 40
0.875
 40
0.875
 40
0.875
 40
0.9375
 40
0.9375
 40
0.9375
 40
0.9375
 40
1.0
 40
1.0
 40
1.0
 40
1.0
 10
83.0
 20
141.5
 30
0.0
 10
83.2761
 20
141.5
 30
0.0
 10
83.5
 20
141.2761
 30
0.0
 10
83.5
 20
141.0
 30
0.0
 10
83.5
 20
141.0
 30
0.0
 10
83.5
 20
140.7239
 30
0.0
 10
83.2761
 20
140.5
 30
0.0
 10
83.0
 20
140.5
 30
0.0
 10
83.0
 20
140.5
 30
0.0
 10
83.0
 20
140.5
 30
0.0
 10
83.0
 20
136.5
 30
0.0
 10
83.0
 20
136.5
 30
0.0
 10
83.0
 20
136.5
 30
0.0
 10
83.2761
 20
136.5
 30
0.0
 10
83.5
 20
136.2761
 30
0.0
 10
83.5
 20
136.0
 30
0.0
 10
83.5
 20
136.0
 30
0.0
 10
83.5
 20
135.7239
 30
0.0
 10
83.2761
 20
135.5
 30
0.0
 10
83.0
 20
135.5
 30
0.0
 10
83.0
 20
135.5
 30
0.0
 10
82.7239
 20
135.5
 30
0.0
 10
82.5
 20
135.7239
 30
0.0
 10
82.5
 20
136.0
 30
0.0
 10
82.5
 20
136.0
 30
0.0
 10
82.5
 20
136.0
 30
0.0
 10
73.5
 20
136.0
 30
0.0
 10
73.5
 20
136.0
 30
0.0
 10
73.5
 20
136.0
 30
0.0
 10
73.5
 20
135.7239
 30
0.0
 10
73.2761
 20
135.5
 30
0.0
 10
73.0
 20
135.5
 30
0.0
 10
73.0
 20
135.5
 30
0.0
 10
72.7239
 20
135.5
 30
0.0
 10
72.5
 20
135.7239
 30
0.0
 10
72.5
 20
136.0
 30
0.0
 10
72.5
 20
136.0
 30
0.0
 10
72.5
 20
136.2761
 30
0.0
 10
72.7239
 20
136.5
 30
0.0
 10
73.0
 20
136.5
 30
0.0
 10
73.0
 20
136.5
 30
0.0
 10
73.0
 20
136.5
 30
0.0
 10
73.0
 20
140.5
 30
0.0
 10
73.0
 20
140.5
 30
0.0
 10
73.0
 20
140.5
 30
0.0
 10
72.7239
 20
140.5
 30
0.0
 10
72.5
 20
140.7239
 30
0.0
 10
72.5
 20
141.0
 30
0.0
 10
72.5
 20
141.0
 30
0.0
 10
72.5
 20
141.2761
 30
0.0
 10
72.7239
 20
141.5
 30
0.0
 10
73.0
 20
141.5
 30
0.0
 10
73.0
 20
141.5
 30
0.0
 10
73.2761
 20
141.5
 30
0.0
 10
73.5
 20
141.2761
 30
0.0
 10
73.5
 20
141.0
 30
0.0
 10
73.5
 20
141.0
 30
0.0
 10
73.5
 20
141.0
 30
0.0
 10
82.5
 20
141.0
 30
0.0
 10
82.5
 20
141.0
 30
0.0
 10
82.5
 20
141.0
 30
0.0
 10
82.5
 20
141.2761
 30
0.0
 10
82.7239
 20
141.5
 30
0.0
 10
83.0
 20
141.5
 30
0.0
  0
SPLINE
  5
68
330
1F
100
AcDbEntity
  8
Layer 1
 62
   250
370
     9
100
AcDbSpline
210
0.0
220
0.0
230
1.0
 70
    11
 71
     3
 72
    68
 73
    64
 74
     0
 42
0.0000000001
 43
0.0000000001
 40
0.0
 40
0.0
 40
0.0
 40
0.0
 40
0.0625
 40
0.0625
 40
0.0625
 40
0.0625
 40
0.125
 40
0.125
 40
0.125
 40
0.125
 40
0.1875
 40
0.1875
 40
0.1875
 40
0.1875
 40
0.25
 40
0.25
 40
0.25
 40
0.25
 40
0.3125
 40
0.3125
 40
0.3125
 40
0.3125
 40
0.375
 40
0.375
 40
0.375
 40
0.375
 40
0.4375
 40
0.4375
 40
0.4375
 40
0.4375
 40
0.5
 40
0.5
 40
0.5
 40
0.5
 40
0.5625
 40
0.5625
 40
0.5625
 40
0.5625
 40
0.625
 40
0.625
 40
0.625
 40
0.625
 40
0.6875
 40
0.6875
 40
0.6875
 40
0.6875
 40
0.75
 40
0.75
 40
0.75
 40
0.75
 40
0.8125
 40
0.8125
 40
0.8125
 40
0.8125
 40
0.875
 40
0.875
 40
0.875
 40
0.875
 40
0.9375
 40
0.9375
 40
0.9375
 40
0.9375
 40
1.0
 40
1.0
 40
1.0
 40
1.0
 10
63.0
 20
141.5
 30
0.0
 10
63.2761
 20
141.5
 30
0.0
 10
63.5
 20
141.2761
 30
0.0
 10
63.5
 20
141.0
 30
0.0
 10
63.5
 20
141.0
 30
0.0
 10
63.5
 20
140.7239
 30
0.0
 10
63.2761
 20
140.5
 30
0.0
 10
63.0
 20
140.5
 30
0.0
 10
63.0
 20
140.5
 30
0.0
 10
63.0
 20
140.5
 30
0.0
 10
63.0
 20
136.5
 30
0.0
 10
63.0
 20
136.5
 30
0.0
 10
63.0
 20
136.5
 30
0.0
 10
63.2761
 20
136.5
 30
0.0
 10
63.5
 20
136.2761
 30
0.0
 10
63.5
 20
136.0
 30
0.0
 10
63.5
 20
136.0
 30
0.0
 10
63.5
 20
135.7239
 30
0.0
 10
63.2761
 20
135.5
 30
0.0
 10
63.0
 20
135.5
 30
0.0
 10
63.0
 20
135.5
 30
0.0
 10
62.7239
 20
135.5
 30
0.0
 10
62.5
 20
135.7239
 30
0.0
 10
62.5
 20
136.0
 30
0.0
 10
62.5
 20
136.0
 30
0.0
 10
62.5
 20
136.0
 30
0.0
 10
53.5
 20
136.0
 30
0.0
 10
53.5
 20
136.0
 30
0.0
 10
53.5
 20
136.0
 30
0.0
 10
53.5
 20
135.7239
 30
0.0
 10
53.2761
 20
135.5
 30
0.0
 10
53.0
 20
135.5
 30
0.0
 10
53.0
 20
135.5
 30
0.0
 10
52.7239
 20
135.5
 30
0.0
 10
52.5
 20
135.7239
 30
0.0
 10
52.5
 20
136.0
 30
0.0
 10
52.5
 20
136.0
 30
0.0
 10
52.5
 20
136.2761
 30
0.0
 10
52.7239
 20
136.5
 30
0.0
 10
53.0
 20
136.5
 30
0.0
 10
53.0
 20
136.5
 30
0.0
 10
53.0
 20
136.5
 30
0.0
 10
53.0
 20
140.5
 30
0.0
 10
53.0
 20
140.5
 30
0.0
 10
53.0
 20
140.5
 30
0.0
 10
52.7239
 20
140.5
 30
0.0
 10
52.5
 20
140.7239
 30
0.0
 10
52.5
 20
141.0
 30
0.0
 10
52.5
 20
141.0
 30
0.0
 10
52.5
 20
141.2761
 30
0.0
 10
52.7239
 20
141.5
 30
0.0
 10
53.0
 20
141.5
 30
0.0
 10
53.0
 20
141.5
 30
0.0
 10
53.2761
 20
141.5
 30
0.0
 10
53.5
 20
141.2761
 30
0.0
 10
53.5
 20
141.0
 30
0.0
 10
53.5
 20
141.0
 30
0.0
 10
53.5
 20
141.0
 30
0.0
 10
62.5
 20
141.0
 30
0.0
 10
62.5
 20
141.0
 30
0.0
 10
62.5
 20
141.0
 30
0.0
 10
62.5
 20
141.2761
 30
0.0
 10
62.7239
 20
141.5
 30
0.0
 10
63.0
 20
141.5
 30
0.0
  0
SPLINE
  5
69
330
1F
100
AcDbEntity
  8
Layer 1
 62
   250
370
     9
100
AcDbSpline
210
0.0
220
0.0
230
1.0
 70
    11
 71
     3
 72
    20
 73
    16
 74
     0
 42
0.0000000001
 43
0.0000000001
 40
0.0
 40
0.0
 40
0.0
 40
0.0
 40
0.25
 40
0.25
 40
0.25
 40
0.25
 40
0.5
 40
0.5
 40
0.5
 40
0.5
 40
0.75
 40
0.75
 40
0.75
 40
0.75
 40
1.0
 40
1.0
 40
1.0
 40
1.0
 10
-102.0
 20
137.0
 30
0.0
 10
-102.8283
 20
137.0
 30
0.0
 10
-103.5
 20
137.6717
 30
0.0
 10
-103.5
 20
138.5
 30
0.0
 10
-103.5
 20
138.5
 30
0.0
 10
-103.5
 20
139.3283
 30
0.0
 10
-102.8283
 20
140.0
 30
0.0
 10
-102.0
 20
140.0
 30
0.0
 10
-102.0
 20
140.0
 30
0.0
 10
-101.1717
 20
140.0
 30
0.0
 10
-100.5
 20
139.3283
 30
0.0
 10
-100.5
 20
138.5
 30
0.0
 10
-100.5
 20
138.5
 30
0.0
 10
-100.5
 20
137.6717
 30
0.0
 10
-101.1717
 20
137.0
 30
0.0
 10
-102.0
 20
137.0
 30
0.0
  0
SPLINE
  5
6A
330
1F
100
AcDbEntity
  8
Layer 1
 62
   250
370
     9
100
AcDbSpline
210
0.0
220
0.0
230
1.0
 70
    11
 71
     3
 72
    68
 73
    64
 74
     0
 42
0.0000000001
 43
0.0000000001
 40
0.0
 40
0.0
 40
0.0
 40
0.0
 40
0.0625
 40
0.0625
 40
0.0625
 40
0.0625
 40
0.125
 40
0.125
 40
0.125
 40
0.125
 40
0.1875
 40
0.1875
 40
0.1875
 40
0.1875
 40
0.25
 40
0.25
 40
0.25
 40
0.25
 40
0.3125
 40
0.3125
 40
0.3125
 40
0.3125
 40
0.375
 40
0.375
 40
0.375
 40
0.375
 40
0.4375
 40
0.4375
 40
0.4375
 40
0.4375
 40
0.5
 40
0.5
 40
0.5
 40
0.5
 40
0.5625
 40
0.5625
 40
0.5625
 40
0.5625
 40
0.625
 40
0.625
 40
0.625
 40
0.625
 40
0.6875
 40
0.6875
 40
0.6875
 40
0.6875
 40
0.75
 40
0.75
 40
0.75
 40
0.75
 40
0.8125
 40
0.8125
 40
0.8125
 40
0.8125
 40
0.875
 40
0.875
 40
0.875
 40
0.875
 40
0.9375
 40
0.9375
 40
0.9375
 40
0.9375
 40
1.0
 40
1.0
 40
1.0
 40
1.0
 10
-87.0
 20
141.5
 30
0.0
 10
-86.7239
 20
141.5
 30
0.0
 10
-86.5
 20
141.2761
 30
0.0
 10
-86.5
 20
141.0
 30
0.0
 10
-86.5
 20
141.0
 30
0.0
 10
-86.5
 20
140.7239
 30
0.0
 10
-86.7239
 20
140.5
 30
0.0
 10
-87.0
 20
140.5
 30
0.0
 10
-87.0
 20
140.5
 30
0.0
 10
-87.0
 20
140.5
 30
0.0
 10
-87.0
 20
136.5
 30
0.0
 10
-87.0
 20
136.5
 30
0.0
 10
-87.0
 20
136.5
 30
0.0
 10
-86.7239
 20
136.5
 30
0.0
 10
-86.5
 20
136.2761
 30
0.0
 10
-86.5
 20
136.0
 30
0.0
 10
-86.5
 20
136.0
 30
0.0
 10
-86.5
 20
135.7239
 30
0.0
 10
-86.7239
 20
135.5
 30
0.0
 10
-87.0
 20
135.5
 30
0.0
 10
-87.0
 20
135.5
 30
0.0
 10
-87.2761
 20
135.5
 30
0.0
 10
-87.5
 20
135.7239
 30
0.0
 10
-87.5
 20
136.0
 30
0.0
 10
-87.5
 20
136.0
 30
0.0
 10
-87.5
 20
136.0
 30
0.0
 10
-96.5
 20
136.0
 30
0.0
 10
-96.5
 20
136.0
 30
0.0
 10
-96.5
 20
136.0
 30
0.0
 10
-96.5
 20
135.7239
 30
0.0
 10
-96.7239
 20
135.5
 30
0.0
 10
-97.0
 20
135.5
 30
0.0
 10
-97.0
 20
135.5
 30
0.0
 10
-97.2761
 20
135.5
 30
0.0
 10
-97.5
 20
135.7239
 30
0.0
 10
-97.5
 20
136.0
 30
0.0
 10
-97.5
 20
136.0
 30
0.0
 10
-97.5
 20
136.2761
 30
0.0
 10
-97.2761
 20
136.5
 30
0.0
 10
-97.0
 20
136.5
 30
0.0
 10
-97.0
 20
136.5
 30
0.0
 10
-97.0
 20
136.5
 30
0.0
 10
-97.0
 20
140.5
 30
0.0
 10
-97.0
 20
140.5
 30
0.0
 10
-97.0
 20
140.5
 30
0.0
 10
-97.2761
 20
140.5
 30
0.0
 10
-97.5
 20
140.7239
 30
0.0
 10
-97.5
 20
141.0
 30
0.0
 10
-97.5
 20
141.0
 30
0.0
 10
-97.5
 20
141.2761
 30
0.0
 10
-97.2761
 20
141.5
 30
0.0
 10
-97.0
 20
141.5
 30
0.0
 10
-97.0
 20
141.5
 30
0.0
 10
-96.7239
 20
141.5
 30
0.0
 10
-96.5
 20
141.2761
 30
0.0
 10
-96.5
 20
141.0
 30
0.0
 10
-96.5
 20
141.0
 30
0.0
 10
-96.5
 20
141.0
 30
0.0
 10
-87.5
 20
141.0
 30
0.0
 10
-87.5
 20
141.0
 30
0.0
 10
-87.5
 20
141.0
 30
0.0
 10
-87.5
 20
141.2761
 30
0.0
 10
-87.2761
 20
141.5
 30
0.0
 10
-87.0
 20
141.5
 30
0.0
  0
SPLINE
  5
6B
330
1F
100
AcDbEntity
  8
Layer 1
 62
   250
370
     9
100
AcDbSpline
210
0.0
220
0.0
230
1.0
 70
    11
 71
     3
 72
    68
 73
    64
 74
     0
 42
0.0000000001
 43
0.0000000001
 40
0.0
 40
0.0
 40
0.0
 40
0.0
 40
0.0625
 40
0.0625
 40
0.0625
 40
0.0625
 40
0.125
 40
0.125
 40
0.125
 40
0.125
 40
0.1875
 40
0.1875
 40
0.1875
 40
0.1875
 40
0.25
 40
0.25
 40
0.25
 40
0.25
 40
0.3125
 40
0.3125
 40
0.3125
 40
0.3125
 40
0.375
 40
0.375
 40
0.375
 40
0.375
 40
0.4375
 40
0.4375
 40
0.4375
 40
0.4375
 40
0.5
 40
0.5
 40
0.5
 40
0.5
 40
0.5625
 40
0.5625
 40
0.5625
 40
0.5625
 40
0.625
 40
0.625
 40
0.625
 40
0.625
 40
0.6875
 40
0.6875
 40
0.6875
 40
0.6875
 40
0.75
 40
0.75
 40
0.75
 40
0.75
 40
0.8125
 40
0.8125
 40
0.8125
 40
0.8125
 40
0.875
 40
0.875
 40
0.875
 40
0.875
 40
0.9375
 40
0.9375
 40
0.9375
 40
0.9375
 40
1.0
 40
1.0
 40
1.0
 40
1.0
 10
-107.0
 20
141.5
 30
0.0
 10
-106.7239
 20
141.5
 30
0.0
 10
-106.5
 20
141.2761
 30
0.0
 10
-106.5
 20
141.0
 30
0.0
 10
-106.5
 20
141.0
 30
0.0
 10
-106.5
 20
140.7239
 30
0.0
 10
-106.7239
 20
140.5
 30
0.0
 10
-107.0
 20
140.5
 30
0.0
 10
-107.0
 20
140.5
 30
0.0
 10
-107.0
 20
140.5
 30
0.0
 10
-107.0
 20
136.5
 30
0.0
 10
-107.0
 20
136.5
 30
0.0
 10
-107.0
 20
136.5
 30
0.0
 10
-106.7239
 20
136.5
 30
0.0
 10
-106.5
 20
136.2761
 30
0.0
 10
-106.5
 20
136.0
 30
0.0
 10
-106.5
 20
136.0
 30
0.0
 10
-106.5
 20
135.7239
 30
0.0
 10
-106.7239
 20
135.5
 30
0.0
 10
-107.0
 20
135.5
 30
0.0
 10
-107.0
 20
135.5
 30
0.0
 10
-107.2761
 20
135.5
 30
0.0
 10
-107.5
 20
135.7239
 30
0.0
 10
-107.5
 20
136.0
 30
0.0
 10
-107.5
 20
136.0
 30
0.0
 10
-107.5
 20
136.0
 30
0.0
 10
-116.5
 20
136.0
 30
0.0
 10
-116.5
 20
136.0
 30
0.0
 10
-116.5
 20
136.0
 30
0.0
 10
-116.5
 20
135.7239
 30
0.0
 10
-116.7239
 20
135.5
 30
0.0
 10
-117.0
 20
135.5
 30
0.0
 10
-117.0
 20
135.5
 30
0.0
 10
-117.2761
 20
135.5
 30
0.0
 10
-117.5
 20
135.7239
 30
0.0
 10
-117.5
 20
136.0
 30
0.0
 10
-117.5
 20
136.0
 30
0.0
 10
-117.5
 20
136.2761
 30
0.0
 10
-117.2761
 20
136.5
 30
0.0
 10
-117.0
 20
136.5
 30
0.0
 10
-117.0
 20
136.5
 30
0.0
 10
-117.0
 20
136.5
 30
0.0
 10
-117.0
 20
140.5
 30
0.0
 10
-117.0
 20
140.5
 30
0.0
 10
-117.0
 20
140.5
 30
0.0
 10
-117.2761
 20
140.5
 30
0.0
 10
-117.5
 20
140.7239
 30
0.0
 10
-117.5
 20
141.0
 30
0.0
 10
-117.5
 20
141.0
 30
0.0
 10
-117.5
 20
141.2761
 30
0.0
 10
-117.2761
 20
141.5
 30
0.0
 10
-117.0
 20
141.5
 30
0.0
 10
-117.0
 20
141.5
 30
0.0
 10
-116.7239
 20
141.5
 30
0.0
 10
-116.5
 20
141.2761
 30
0.0
 10
-116.5
 20
141.0
 30
0.0
 10
-116.5
 20
141.0
 30
0.0
 10
-116.5
 20
141.0
 30
0.0
 10
-107.5
 20
141.0
 30
0.0
 10
-107.5
 20
141.0
 30
0.0
 10
-107.5
 20
141.0
 30
0.0
 10
-107.5
 20
141.2761
 30
0.0
 10
-107.2761
 20
141.5
 30
0.0
 10
-107.0
 20
141.5
 30
0.0
  0
SPLINE
  5
6C
330
1F
100
AcDbEntity
  8
Layer 1
 62
   250
370
     9
100
AcDbSpline
210
0.0
220
0.0
230
1.0
 70
    11
 71
     3
 72
    68
 73
    64
 74
     0
 42
0.0000000001
 43
0.0000000001
 40
0.0
 40
0.0
 40
0.0
 40
0.0
 40
0.0625
 40
0.0625
 40
0.0625
 40
0.0625
 40
0.125
 40
0.125
 40
0.125
 40
0.125
 40
0.1875
 40
0.1875
 40
0.1875
 40
0.1875
 40
0.25
 40
0.25
 40
0.25
 40
0.25
 40
0.3125
 40
0.3125
 40
0.3125
 40
0.3125
 40
0.375
 40
0.375
 40
0.375
 40
0.375
 40
0.4375
 40
0.4375
 40
0.4375
 40
0.4375
 40
0.5
 40
0.5
 40
0.5
 40
0.5
 40
0.5625
 40
0.5625
 40
0.5625
 40
0.5625
 40
0.625
 40
0.625
 40
0.625
 40
0.625
 40
0.6875
 40
0.6875
 40
0.6875
 40
0.6875
 40
0.75
 40
0.75
 40
0.75
 40
0.75
 40
0.8125
 40
0.8125
 40
0.8125
 40
0.8125
 40
0.875
 40
0.875
 40
0.875
 40
0.875
 40
0.9375
 40
0.9375
 40
0.9375
 40
0.9375
 40
1.0
 40
1.0
 40
1.0
 40
1.0
 10
-2.0
 20
141.5
 30
0.0
 10
-1.7239
 20
141.5
 30
0.0
 10
-1.5
 20
141.2761
 30
0.0
 10
-1.5
 20
141.0
 30
0.0
 10
-1.5
 20
141.0
 30
0.0
 10
-1.5
 20
140.7239
 30
0.0
 10
-1.7239
 20
140.5
 30
0.0
 10
-2.0
 20
140.5
 30
0.0
 10
-2.0
 20
140.5
 30
0.0
 10
-2.0
 20
140.5
 30
0.0
 10
-2.0
 20
136.5
 30
0.0
 10
-2.0
 20
136.5
 30
0.0
 10
-2.0
 20
136.5
 30
0.0
 10
-1.7239
 20
136.5
 30
0.0
 10
-1.5
 20
136.2761
 30
0.0
 10
-1.5
 20
136.0
 30
0.0
 10
-1.5
 20
136.0
 30
0.0
 10
-1.5
 20
135.7239
 30
0.0
 10
-1.7239
 20
135.5
 30
0.0
 10
-2.0
 20
135.5
 30
0.0
 10
-2.0
 20
135.5
 30
0.0
 10
-2.2761
 20
135.5
 30
0.0
 10
-2.5
 20
135.7239
 30
0.0
 10
-2.5
 20
136.0
 30
0.0
 10
-2.5
 20
136.0
 30
0.0
 10
-2.5
 20
136.0
 30
0.0
 10
-11.5
 20
136.0
 30
0.0
 10
-11.5
 20
136.0
 30
0.0
 10
-11.5
 20
136.0
 30
0.0
 10
-11.5
 20
135.7239
 30
0.0
 10
-11.7239
 20
135.5
 30
0.0
 10
-12.0
 20
135.5
 30
0.0
 10
-12.0
 20
135.5
 30
0.0
 10
-12.2761
 20
135.5
 30
0.0
 10
-12.5
 20
135.7239
 30
0.0
 10
-12.5
 20
136.0
 30
0.0
 10
-12.5
 20
136.0
 30
0.0
 10
-12.5
 20
136.2761
 30
0.0
 10
-12.2761
 20
136.5
 30
0.0
 10
-12.0
 20
136.5
 30
0.0
 10
-12.0
 20
136.5
 30
0.0
 10
-12.0
 20
136.5
 30
0.0
 10
-12.0
 20
140.5
 30
0.0
 10
-12.0
 20
140.5
 30
0.0
 10
-12.0
 20
140.5
 30
0.0
 10
-12.2761
 20
140.5
 30
0.0
 10
-12.5
 20
140.7239
 30
0.0
 10
-12.5
 20
141.0
 30
0.0
 10
-12.5
 20
141.0
 30
0.0
 10
-12.5
 20
141.2761
 30
0.0
 10
-12.2761
 20
141.5
 30
0.0
 10
-12.0
 20
141.5
 30
0.0
 10
-12.0
 20
141.5
 30
0.0
 10
-11.7239
 20
141.5
 30
0.0
 10
-11.5
 20
141.2761
 30
0.0
 10
-11.5
 20
141.0
 30
0.0
 10
-11.5
 20
141.0
 30
0.0
 10
-11.5
 20
141.0
 30
0.0
 10
-2.5
 20
141.0
 30
0.0
 10
-2.5
 20
141.0
 30
0.0
 10
-2.5
 20
141.0
 30
0.0
 10
-2.5
 20
141.2761
 30
0.0
 10
-2.2761
 20
141.5
 30
0.0
 10
-2.0
 20
141.5
 30
0.0
  0
SPLINE
  5
6D
330
1F
100
AcDbEntity
  8
Layer 1
 62
   250
370
     9
100
AcDbSpline
210
0.0
220
0.0
230
1.0
 70
    11
 71
     3
 72
    68
 73
    64
 74
     0
 42
0.0000000001
 43
0.0000000001
 40
0.0
 40
0.0
 40
0.0
 40
0.0
 40
0.0625
 40
0.0625
 40
0.0625
 40
0.0625
 40
0.125
 40
0.125
 40
0.125
 40
0.125
 40
0.1875
 40
0.1875
 40
0.1875
 40
0.1875
 40
0.25
 40
0.25
 40
0.25
 40
0.25
 40
0.3125
 40
0.3125
 40
0.3125
 40
0.3125
 40
0.375
 40
0.375
 40
0.375
 40
0.375
 40
0.4375
 40
0.4375
 40
0.4375
 40
0.4375
 40
0.5
 40
0.5
 40
0.5
 40
0.5
 40
0.5625
 40
0.5625
 40
0.5625
 40
0.5625
 40
0.625
 40
0.625
 40
0.625
 40
0.625
 40
0.6875
 40
0.6875
 40
0.6875
 40
0.6875
 40
0.75
 40
0.75
 40
0.75
 40
0.75
 40
0.8125
 40
0.8125
 40
0.8125
 40
0.8125
 40
0.875
 40
0.875
 40
0.875
 40
0.875
 40
0.9375
 40
0.9375
 40
0.9375
 40
0.9375
 40
1.0
 40
1.0
 40
1.0
 40
1.0
 10
-22.0
 20
141.5
 30
0.0
 10
-21.7239
 20
141.5
 30
0.0
 10
-21.5
 20
141.2761
 30
0.0
 10
-21.5
 20
141.0
 30
0.0
 10
-21.5
 20
141.0
 30
0.0
 10
-21.5
 20
140.7239
 30
0.0
 10
-21.7239
 20
140.5
 30
0.0
 10
-22.0
 20
140.5
 30
0.0
 10
-22.0
 20
140.5
 30
0.0
 10
-22.0
 20
140.5
 30
0.0
 10
-22.0
 20
136.5
 30
0.0
 10
-22.0
 20
136.5
 30
0.0
 10
-22.0
 20
136.5
 30
0.0
 10
-21.7239
 20
136.5
 30
0.0
 10
-21.5
 20
136.2761
 30
0.0
 10
-21.5
 20
136.0
 30
0.0
 10
-21.5
 20
136.0
 30
0.0
 10
-21.5
 20
135.7239
 30
0.0
 10
-21.7239
 20
135.5
 30
0.0
 10
-22.0
 20
135.5
 30
0.0
 10
-22.0
 20
135.5
 30
0.0
 10
-22.2761
 20
135.5
 30
0.0
 10
-22.5
 20
135.7239
 30
0.0
 10
-22.5
 20
136.0
 30
0.0
 10
-22.5
 20
136.0
 30
0.0
 10
-22.5
 20
136.0
 30
0.0
 10
-31.5
 20
136.0
 30
0.0
 10
-31.5
 20
136.0
 30
0.0
 10
-31.5
 20
136.0
 30
0.0
 10
-31.5
 20
135.7239
 30
0.0
 10
-31.7239
 20
135.5
 30
0.0
 10
-32.0
 20
135.5
 30
0.0
 10
-32.0
 20
135.5
 30
0.0
 10
-32.2761
 20
135.5
 30
0.0
 10
-32.5
 20
135.7239
 30
0.0
 10
-32.5
 20
136.0
 30
0.0
 10
-32.5
 20
136.0
 30
0.0
 10
-32.5
 20
136.2761
 30
0.0
 10
-32.2761
 20
136.5
 30
0.0
 10
-32.0
 20
136.5
 30
0.0
 10
-32.0
 20
136.5
 30
0.0
 10
-32.0
 20
136.5
 30
0.0
 10
-32.0
 20
140.5
 30
0.0
 10
-32.0
 20
140.5
 30
0.0
 10
-32.0
 20
140.5
 30
0.0
 10
-32.2761
 20
140.5
 30
0.0
 10
-32.5
 20
140.7239
 30
0.0
 10
-32.5
 20
141.0
 30
0.0
 10
-32.5
 20
141.0
 30
0.0
 10
-32.5
 20
141.2761
 30
0.0
 10
-32.2761
 20
141.5
 30
0.0
 10
-32.0
 20
141.5
 30
0.0
 10
-32.0
 20
141.5
 30
0.0
 10
-31.7239
 20
141.5
 30
0.0
 10
-31.5
 20
141.2761
 30
0.0
 10
-31.5
 20
141.0
 30
0.0
 10
-31.5
 20
141.0
 30
0.0
 10
-31.5
 20
141.0
 30
0.0
 10
-22.5
 20
141.0
 30
0.0
 10
-22.5
 20
141.0
 30
0.0
 10
-22.5
 20
141.0
 30
0.0
 10
-22.5
 20
141.2761
 30
0.0
 10
-22.2761
 20
141.5
 30
0.0
 10
-22.0
 20
141.5
 30
0.0
  0
SPLINE
  5
6E
330
1F
100
AcDbEntity
  8
Layer 1
 62
   250
370
     9
100
AcDbSpline
210
0.0
220
0.0
230
1.0
 70
    11
 71
     3
 72
    20
 73
    16
 74
     0
 42
0.0000000001
 43
0.0000000001
 40
0.0
 40
0.0
 40
0.0
 40
0.0
 40
0.25
 40
0.25
 40
0.25
 40
0.25
 40
0.5
 40
0.5
 40
0.5
 40
0.5
 40
0.75
 40
0.75
 40
0.75
 40
0.75
 40
1.0
 40
1.0
 40
1.0
 40
1.0
 10
-147.1142
 20
116.9223
 30
0.0
 10
-147.6999
 20
116.3366
 30
0.0
 10
-148.6498
 20
116.3366
 30
0.0
 10
-149.2355
 20
116.9223
 30
0.0
 10
-149.2355
 20
116.9223
 30
0.0
 10
-149.8212
 20
117.508
 30
0.0
 10
-149.8212
 20
118.4579
 30
0.0
 10
-149.2355
 20
119.0436
 30
0.0
 10
-149.2355
 20
119.0436
 30
0.0
 10
-148.6498
 20
119.6293
 30
0.0
 10
-147.6999
 20
119.6293
 30
0.0
 10
-147.1142
 20
119.0436
 30
0.0
 10
-147.1142
 20
119.0436
 30
0.0
 10
-146.5285
 20
118.4579
 30
0.0
 10
-146.5285
 20
117.508
 30
0.0
 10
-147.1142
 20
116.9223
 30
0.0
  0
SPLINE
  5
6F
330
1F
100
AcDbEntity
  8
Layer 1
 62
   250
370
     9
100
AcDbSpline
210
0.0
220
0.0
230
1.0
 70
    11
 71
     3
 72
    68
 73
    64
 74
     0
 42
0.0000000001
 43
0.0000000001
 40
0.0
 40
0.0
 40
0.0
 40
0.0
 40
0.0625
 40
0.0625
 40
0.0625
 40
0.0625
 40
0.125
 40
0.125
 40
0.125
 40
0.125
 40
0.1875
 40
0.1875
 40
0.1875
 40
0.1875
 40
0.25
 40
0.25
 40
0.25
 40
0.25
 40
0.3125
 40
0.3125
 40
0.3125
 40
0.3125
 40
0.375
 40
0.375
 40
0.375
 40
0.375
 40
0.4375
 40
0.4375
 40
0.4375
 40
0.4375
 40
0.5
 40
0.5
 40
0.5
 40
0.5
 40
0.5625
 40
0.5625
 40
0.5625
 40
0.5625
 40
0.625
 40
0.625
 40
0.625
 40
0.625
 40
0.6875
 40
0.6875
 40
0.6875
 40
0.6875
 40
0.75
 40
0.75
 40
0.75
 40
0.75
 40
0.8125
 40
0.8125
 40
0.8125
 40
0.8125
 40
0.875
 40
0.875
 40
0.875
 40
0.875
 40
0.9375
 40
0.9375
 40
0.9375
 40
0.9375
 40
1.0
 40
1.0
 40
1.0
 40
1.0
 10
-139.6895
 20
130.7109
 30
0.0
 10
-139.4943
 20
130.9061
 30
0.0
 10
-139.1777
 20
130.9061
 30
0.0
 10
-138.9824
 20
130.7109
 30
0.0
 10
-138.9824
 20
130.7109
 30
0.0
 10
-138.7872
 20
130.5157
 30
0.0
 10
-138.7872
 20
130.199
 30
0.0
 10
-138.9824
 20
130.0038
 30
0.0
 10
-138.9824
 20
130.0038
 30
0.0
 10
-138.9824
 20
130.0038
 30
0.0
 10
-136.154
 20
127.1754
 30
0.0
 10
-136.154
 20
127.1754
 30
0.0
 10
-136.154
 20
127.1754
 30
0.0
 10
-135.9588
 20
127.3706
 30
0.0
 10
-135.6421
 20
127.3706
 30
0.0
 10
-135.4469
 20
127.1754
 30
0.0
 10
-135.4469
 20
127.1754
 30
0.0
 10
-135.2517
 20
126.9801
 30
0.0
 10
-135.2517
 20
126.6635
 30
0.0
 10
-135.4469
 20
126.4683
 30
0.0
 10
-135.4469
 20
126.4683
 30
0.0
 10
-135.6421
 20
126.273
 30
0.0
 10
-135.9588
 20
126.273
 30
0.0
 10
-136.154
 20
126.4683
 30
0.0
 10
-136.154
 20
126.4683
 30
0.0
 10
-136.154
 20
126.4683
 30
0.0
 10
-142.518
 20
120.1043
 30
0.0
 10
-142.518
 20
120.1043
 30
0.0
 10
-142.518
 20
120.1043
 30
0.0
 10
-142.3227
 20
119.9091
 30
0.0
 10
-142.3227
 20
119.5924
 30
0.0
 10
-142.518
 20
119.3972
 30
0.0
 10
-142.518
 20
119.3972
 30
0.0
 10
-142.7132
 20
119.202
 30
0.0
 10
-143.0298
 20
119.202
 30
0.0
 10
-143.2251
 20
119.3972
 30
0.0
 10
-143.2251
 20
119.3972
 30
0.0
 10
-143.4203
 20
119.5924
 30
0.0
 10
-143.4203
 20
119.9091
 30
0.0
 10
-143.2251
 20
120.1043
 30
0.0
 10
-143.2251
 20
120.1043
 30
0.0
 10
-143.2251
 20
120.1043
 30
0.0
 10
-146.0535
 20
122.9327
 30
0.0
 10
-146.0535
 20
122.9327
 30
0.0
 10
-146.0535
 20
122.9327
 30
0.0
 10
-146.2487
 20
122.7375
 30
0.0
 10
-146.5654
 20
122.7375
 30
0.0
 10
-146.7606
 20
122.9327
 30
0.0
 10
-146.7606
 20
122.9327
 30
0.0
 10
-146.9558
 20
123.128
 30
0.0
 10
-146.9558
 20
123.4446
 30
0.0
 10
-146.7606
 20
123.6398
 30
0.0
 10
-146.7606
 20
123.6398
 30
0.0
 10
-146.5654
 20
123.8351
 30
0.0
 10
-146.2487
 20
123.8351
 30
0.0
 10
-146.0535
 20
123.6398
 30
0.0
 10
-146.0535
 20
123.6398
 30
0.0
 10
-146.0535
 20
123.6398
 30
0.0
 10
-139.6895
 20
130.0038
 30
0.0
 10
-139.6895
 20
130.0038
 30
0.0
 10
-139.6895
 20
130.0038
 30
0.0
 10
-139.8848
 20
130.199
 30
0.0
 10
-139.8848
 20
130.5157
 30
0.0
 10
-139.6895
 20
130.7109
 30
0.0
  0
SPLINE
  5
70
330
1F
100
AcDbEntity
  8
Layer 1
 62
   250
370
     9
100
AcDbSpline
210
0.0
220
0.0
230
1.0
 70
    11
 71
     3
 72
    68
 73
    64
 74
     0
 42
0.0000000001
 43
0.0000000001
 40
0.0
 40
0.0
 40
0.0
 40
0.0
 40
0.0625
 40
0.0625
 40
0.0625
 40
0.0625
 40
0.125
 40
0.125
 40
0.125
 40
0.125
 40
0.1875
 40
0.1875
 40
0.1875
 40
0.1875
 40
0.25
 40
0.25
 40
0.25
 40
0.25
 40
0.3125
 40
0.3125
 40
0.3125
 40
0.3125
 40
0.375
 40
0.375
 40
0.375
 40
0.375
 40
0.4375
 40
0.4375
 40
0.4375
 40
0.4375
 40
0.5
 40
0.5
 40
0.5
 40
0.5
 40
0.5625
 40
0.5625
 40
0.5625
 40
0.5625
 40
0.625
 40
0.625
 40
0.625
 40
0.625
 40
0.6875
 40
0.6875
 40
0.6875
 40
0.6875
 40
0.75
 40
0.75
 40
0.75
 40
0.75
 40
0.8125
 40
0.8125
 40
0.8125
 40
0.8125
 40
0.875
 40
0.875
 40
0.875
 40
0.875
 40
0.9375
 40
0.9375
 40
0.9375
 40
0.9375
 40
1.0
 40
1.0
 40
1.0
 40
1.0
 10
-153.8317
 20
116.5688
 30
0.0
 10
-153.6364
 20
116.764
 30
0.0
 10
-153.3198
 20
116.764
 30
0.0
 10
-153.1246
 20
116.5688
 30
0.0
 10
-153.1246
 20
116.5688
 30
0.0
 10
-152.9293
 20
116.3735
 30
0.0
 10
-152.9293
 20
116.0569
 30
0.0
 10
-153.1246
 20
115.8617
 30
0.0
 10
-153.1246
 20
115.8617
 30
0.0
 10
-153.1246
 20
115.8617
 30
0.0
 10
-150.2961
 20
113.0332
 30
0.0
 10
-150.2961
 20
113.0332
 30
0.0
 10
-150.2961
 20
113.0332
 30
0.0
 10
-150.1009
 20
113.2285
 30
0.0
 10
-149.7843
 20
113.2285
 30
0.0
 10
-149.589
 20
113.0332
 30
0.0
 10
-149.589
 20
113.0332
 30
0.0
 10
-149.3938
 20
112.838
 30
0.0
 10
-149.3938
 20
112.5214
 30
0.0
 10
-149.589
 20
112.3261
 30
0.0
 10
-149.589
 20
112.3261
 30
0.0
 10
-149.7843
 20
112.1309
 30
0.0
 10
-150.1009
 20
112.1309
 30
0.0
 10
-150.2961
 20
112.3261
 30
0.0
 10
-150.2961
 20
112.3261
 30
0.0
 10
-150.2961
 20
112.3261
 30
0.0
 10
-156.6601
 20
105.9622
 30
0.0
 10
-156.6601
 20
105.9622
 30
0.0
 10
-156.6601
 20
105.9622
 30
0.0
 10
-156.4649
 20
105.7669
 30
0.0
 10
-156.4649
 20
105.4503
 30
0.0
 10
-156.6601
 20
105.2551
 30
0.0
 10
-156.6601
 20
105.2551
 30
0.0
 10
-156.8553
 20
105.0598
 30
0.0
 10
-157.172
 20
105.0598
 30
0.0
 10
-157.3672
 20
105.2551
 30
0.0
 10
-157.3672
 20
105.2551
 30
0.0
 10
-157.5624
 20
105.4503
 30
0.0
 10
-157.5624
 20
105.7669
 30
0.0
 10
-157.3672
 20
105.9622
 30
0.0
 10
-157.3672
 20
105.9622
 30
0.0
 10
-157.3672
 20
105.9622
 30
0.0
 10
-160.1956
 20
108.7906
 30
0.0
 10
-160.1956
 20
108.7906
 30
0.0
 10
-160.1956
 20
108.7906
 30
0.0
 10
-160.3909
 20
108.5954
 30
0.0
 10
-160.7075
 20
108.5954
 30
0.0
 10
-160.9027
 20
108.7906
 30
0.0
 10
-160.9027
 20
108.7906
 30
0.0
 10
-161.098
 20
108.9858
 30
0.0
 10
-161.098
 20
109.3025
 30
0.0
 10
-160.9027
 20
109.4977
 30
0.0
 10
-160.9027
 20
109.4977
 30
0.0
 10
-160.7075
 20
109.6929
 30
0.0
 10
-160.3909
 20
109.6929
 30
0.0
 10
-160.1956
 20
109.4977
 30
0.0
 10
-160.1956
 20
109.4977
 30
0.0
 10
-160.1956
 20
109.4977
 30
0.0
 10
-153.8317
 20
115.8617
 30
0.0
 10
-153.8317
 20
115.8617
 30
0.0
 10
-153.8317
 20
115.8617
 30
0.0
 10
-154.0269
 20
116.0569
 30
0.0
 10
-154.0269
 20
116.3735
 30
0.0
 10
-153.8317
 20
116.5688
 30
0.0
  0
SPLINE
  5
71
330
1F
100
AcDbEntity
  8
Layer 1
 62
   250
370
     9
100
AcDbSpline
210
0.0
220
0.0
230
1.0
 70
    11
 71
     3
 72
    20
 73
    16
 74
     0
 42
0.0000000001
 43
0.0000000001
 40
0.0
 40
0.0
 40
0.0
 40
0.0
 40
0.25
 40
0.25
 40
0.25
 40
0.25
 40
0.5
 40
0.5
 40
0.5
 40
0.5
 40
0.75
 40
0.75
 40
0.75
 40
0.75
 40
1.0
 40
1.0
 40
1.0
 40
1.0
 10
-267.3223
 20
-3.2858
 30
0.0
 10
-267.908
 20
-3.8715
 30
0.0
 10
-268.8579
 20
-3.8715
 30
0.0
 10
-269.4436
 20
-3.2858
 30
0.0
 10
-269.4436
 20
-3.2858
 30
0.0
 10
-270.0293
 20
-2.7001
 30
0.0
 10
-270.0293
 20
-1.7502
 30
0.0
 10
-269.4436
 20
-1.1645
 30
0.0
 10
-269.4436
 20
-1.1645
 30
0.0
 10
-268.8579
 20
-0.5788
 30
0.0
 10
-267.908
 20
-0.5788
 30
0.0
 10
-267.3223
 20
-1.1645
 30
0.0
 10
-267.3223
 20
-1.1645
 30
0.0
 10
-266.7366
 20
-1.7502
 30
0.0
 10
-266.7366
 20
-2.7001
 30
0.0
 10
-267.3223
 20
-3.2858
 30
0.0
  0
SPLINE
  5
72
330
1F
100
AcDbEntity
  8
Layer 1
 62
   250
370
     9
100
AcDbSpline
210
0.0
220
0.0
230
1.0
 70
    11
 71
     3
 72
    68
 73
    64
 74
     0
 42
0.0000000001
 43
0.0000000001
 40
0.0
 40
0.0
 40
0.0
 40
0.0
 40
0.0625
 40
0.0625
 40
0.0625
 40
0.0625
 40
0.125
 40
0.125
 40
0.125
 40
0.125
 40
0.1875
 40
0.1875
 40
0.1875
 40
0.1875
 40
0.25
 40
0.25
 40
0.25
 40
0.25
 40
0.3125
 40
0.3125
 40
0.3125
 40
0.3125
 40
0.375
 40
0.375
 40
0.375
 40
0.375
 40
0.4375
 40
0.4375
 40
0.4375
 40
0.4375
 40
0.5
 40
0.5
 40
0.5
 40
0.5
 40
0.5625
 40
0.5625
 40
0.5625
 40
0.5625
 40
0.625
 40
0.625
 40
0.625
 40
0.625
 40
0.6875
 40
0.6875
 40
0.6875
 40
0.6875
 40
0.75
 40
0.75
 40
0.75
 40
0.75
 40
0.8125
 40
0.8125
 40
0.8125
 40
0.8125
 40
0.875
 40
0.875
 40
0.875
 40
0.875
 40
0.9375
 40
0.9375
 40
0.9375
 40
0.9375
 40
1.0
 40
1.0
 40
1.0
 40
1.0
 10
-259.8977
 20
10.5027
 30
0.0
 10
-259.7025
 20
10.698
 30
0.0
 10
-259.3858
 20
10.698
 30
0.0
 10
-259.1906
 20
10.5027
 30
0.0
 10
-259.1906
 20
10.5027
 30
0.0
 10
-258.9954
 20
10.3075
 30
0.0
 10
-258.9954
 20
9.9909
 30
0.0
 10
-259.1906
 20
9.7956
 30
0.0
 10
-259.1906
 20
9.7956
 30
0.0
 10
-259.1906
 20
9.7956
 30
0.0
 10
-256.3622
 20
6.9672
 30
0.0
 10
-256.3622
 20
6.9672
 30
0.0
 10
-256.3622
 20
6.9672
 30
0.0
 10
-256.1669
 20
7.1624
 30
0.0
 10
-255.8503
 20
7.1624
 30
0.0
 10
-255.6551
 20
6.9672
 30
0.0
 10
-255.6551
 20
6.9672
 30
0.0
 10
-255.4598
 20
6.772
 30
0.0
 10
-255.4598
 20
6.4553
 30
0.0
 10
-255.6551
 20
6.2601
 30
0.0
 10
-255.6551
 20
6.2601
 30
0.0
 10
-255.8503
 20
6.0649
 30
0.0
 10
-256.1669
 20
6.0649
 30
0.0
 10
-256.3622
 20
6.2601
 30
0.0
 10
-256.3622
 20
6.2601
 30
0.0
 10
-256.3622
 20
6.2601
 30
0.0
 10
-262.7261
 20
-0.1039
 30
0.0
 10
-262.7261
 20
-0.1039
 30
0.0
 10
-262.7261
 20
-0.1039
 30
0.0
 10
-262.5309
 20
-0.2991
 30
0.0
 10
-262.5309
 20
-0.6157
 30
0.0
 10
-262.7261
 20
-0.811
 30
0.0
 10
-262.7261
 20
-0.811
 30
0.0
 10
-262.9214
 20
-1.0062
 30
0.0
 10
-263.238
 20
-1.0062
 30
0.0
 10
-263.4332
 20
-0.811
 30
0.0
 10
-263.4332
 20
-0.811
 30
0.0
 10
-263.6285
 20
-0.6157
 30
0.0
 10
-263.6285
 20
-0.2991
 30
0.0
 10
-263.4332
 20
-0.1039
 30
0.0
 10
-263.4332
 20
-0.1039
 30
0.0
 10
-263.4332
 20
-0.1039
 30
0.0
 10
-266.2617
 20
2.7246
 30
0.0
 10
-266.2617
 20
2.7246
 30
0.0
 10
-266.2617
 20
2.7246
 30
0.0
 10
-266.4569
 20
2.5293
 30
0.0
 10
-266.7735
 20
2.5293
 30
0.0
 10
-266.9688
 20
2.7246
 30
0.0
 10
-266.9688
 20
2.7246
 30
0.0
 10
-267.164
 20
2.9198
 30
0.0
 10
-267.164
 20
3.2364
 30
0.0
 10
-266.9688
 20
3.4317
 30
0.0
 10
-266.9688
 20
3.4317
 30
0.0
 10
-266.7735
 20
3.6269
 30
0.0
 10
-266.4569
 20
3.6269
 30
0.0
 10
-266.2617
 20
3.4317
 30
0.0
 10
-266.2617
 20
3.4317
 30
0.0
 10
-266.2617
 20
3.4317
 30
0.0
 10
-259.8977
 20
9.7956
 30
0.0
 10
-259.8977
 20
9.7956
 30
0.0
 10
-259.8977
 20
9.7956
 30
0.0
 10
-260.0929
 20
9.9909
 30
0.0
 10
-260.0929
 20
10.3075
 30
0.0
 10
-259.8977
 20
10.5027
 30
0.0
  0
SPLINE
  5
73
330
1F
100
AcDbEntity
  8
Layer 1
 62
   250
370
     9
100
AcDbSpline
210
0.0
220
0.0
230
1.0
 70
    11
 71
     3
 72
    68
 73
    64
 74
     0
 42
0.0000000001
 43
0.0000000001
 40
0.0
 40
0.0
 40
0.0
 40
0.0
 40
0.0625
 40
0.0625
 40
0.0625
 40
0.0625
 40
0.125
 40
0.125
 40
0.125
 40
0.125
 40
0.1875
 40
0.1875
 40
0.1875
 40
0.1875
 40
0.25
 40
0.25
 40
0.25
 40
0.25
 40
0.3125
 40
0.3125
 40
0.3125
 40
0.3125
 40
0.375
 40
0.375
 40
0.375
 40
0.375
 40
0.4375
 40
0.4375
 40
0.4375
 40
0.4375
 40
0.5
 40
0.5
 40
0.5
 40
0.5
 40
0.5625
 40
0.5625
 40
0.5625
 40
0.5625
 40
0.625
 40
0.625
 40
0.625
 40
0.625
 40
0.6875
 40
0.6875
 40
0.6875
 40
0.6875
 40
0.75
 40
0.75
 40
0.75
 40
0.75
 40
0.8125
 40
0.8125
 40
0.8125
 40
0.8125
 40
0.875
 40
0.875
 40
0.875
 40
0.875
 40
0.9375
 40
0.9375
 40
0.9375
 40
0.9375
 40
1.0
 40
1.0
 40
1.0
 40
1.0
 10
-274.0398
 20
-3.6394
 30
0.0
 10
-273.8446
 20
-3.4442
 30
0.0
 10
-273.528
 20
-3.4442
 30
0.0
 10
-273.3327
 20
-3.6394
 30
0.0
 10
-273.3327
 20
-3.6394
 30
0.0
 10
-273.1375
 20
-3.8346
 30
0.0
 10
-273.1375
 20
-4.1513
 30
0.0
 10
-273.3327
 20
-4.3465
 30
0.0
 10
-273.3327
 20
-4.3465
 30
0.0
 10
-273.3327
 20
-4.3465
 30
0.0
 10
-270.5043
 20
-7.1749
 30
0.0
 10
-270.5043
 20
-7.1749
 30
0.0
 10
-270.5043
 20
-7.1749
 30
0.0
 10
-270.3091
 20
-6.9797
 30
0.0
 10
-269.9924
 20
-6.9797
 30
0.0
 10
-269.7972
 20
-7.1749
 30
0.0
 10
-269.7972
 20
-7.1749
 30
0.0
 10
-269.602
 20
-7.3702
 30
0.0
 10
-269.602
 20
-7.6868
 30
0.0
 10
-269.7972
 20
-7.882
 30
0.0
 10
-269.7972
 20
-7.882
 30
0.0
 10
-269.9924
 20
-8.0773
 30
0.0
 10
-270.3091
 20
-8.0773
 30
0.0
 10
-270.5043
 20
-7.882
 30
0.0
 10
-270.5043
 20
-7.882
 30
0.0
 10
-270.5043
 20
-7.882
 30
0.0
 10
-276.8683
 20
-14.246
 30
0.0
 10
-276.8683
 20
-14.246
 30
0.0
 10
-276.8683
 20
-14.246
 30
0.0
 10
-276.673
 20
-14.4412
 30
0.0
 10
-276.673
 20
-14.7579
 30
0.0
 10
-276.8683
 20
-14.9531
 30
0.0
 10
-276.8683
 20
-14.9531
 30
0.0
 10
-277.0635
 20
-15.1483
 30
0.0
 10
-277.3801
 20
-15.1483
 30
0.0
 10
-277.5754
 20
-14.9531
 30
0.0
 10
-277.5754
 20
-14.9531
 30
0.0
 10
-277.7706
 20
-14.7579
 30
0.0
 10
-277.7706
 20
-14.4412
 30
0.0
 10
-277.5754
 20
-14.246
 30
0.0
 10
-277.5754
 20
-14.246
 30
0.0
 10
-277.5754
 20
-14.246
 30
0.0
 10
-280.4038
 20
-11.4176
 30
0.0
 10
-280.4038
 20
-11.4176
 30
0.0
 10
-280.4038
 20
-11.4176
 30
0.0
 10
-280.599
 20
-11.6128
 30
0.0
 10
-280.9157
 20
-11.6128
 30
0.0
 10
-281.1109
 20
-11.4176
 30
0.0
 10
-281.1109
 20
-11.4176
 30
0.0
 10
-281.3061
 20
-11.2223
 30
0.0
 10
-281.3061
 20
-10.9057
 30
0.0
 10
-281.1109
 20
-10.7105
 30
0.0
 10
-281.1109
 20
-10.7105
 30
0.0
 10
-280.9157
 20
-10.5152
 30
0.0
 10
-280.599
 20
-10.5152
 30
0.0
 10
-280.4038
 20
-10.7105
 30
0.0
 10
-280.4038
 20
-10.7105
 30
0.0
 10
-280.4038
 20
-10.7105
 30
0.0
 10
-274.0398
 20
-4.3465
 30
0.0
 10
-274.0398
 20
-4.3465
 30
0.0
 10
-274.0398
 20
-4.3465
 30
0.0
 10
-274.2351
 20
-4.1513
 30
0.0
 10
-274.2351
 20
-3.8346
 30
0.0
 10
-274.0398
 20
-3.6394
 30
0.0
  0
SPLINE
  5
74
330
1F
100
AcDbEntity
  8
Layer 1
 62
   250
370
     9
100
AcDbSpline
210
0.0
220
0.0
230
1.0
 70
    11
 71
     3
 72
    68
 73
    64
 74
     0
 42
0.0000000001
 43
0.0000000001
 40
0.0
 40
0.0
 40
0.0
 40
0.0
 40
0.0625
 40
0.0625
 40
0.0625
 40
0.0625
 40
0.125
 40
0.125
 40
0.125
 40
0.125
 40
0.1875
 40
0.1875
 40
0.1875
 40
0.1875
 40
0.25
 40
0.25
 40
0.25
 40
0.25
 40
0.3125
 40
0.3125
 40
0.3125
 40
0.3125
 40
0.375
 40
0.375
 40
0.375
 40
0.375
 40
0.4375
 40
0.4375
 40
0.4375
 40
0.4375
 40
0.5
 40
0.5
 40
0.5
 40
0.5
 40
0.5625
 40
0.5625
 40
0.5625
 40
0.5625
 40
0.625
 40
0.625
 40
0.625
 40
0.625
 40
0.6875
 40
0.6875
 40
0.6875
 40
0.6875
 40
0.75
 40
0.75
 40
0.75
 40
0.75
 40
0.8125
 40
0.8125
 40
0.8125
 40
0.8125
 40
0.875
 40
0.875
 40
0.875
 40
0.875
 40
0.9375
 40
0.9375
 40
0.9375
 40
0.9375
 40
1.0
 40
1.0
 40
1.0
 40
1.0
 10
-199.7936
 20
70.6068
 30
0.0
 10
-199.5984
 20
70.8021
 30
0.0
 10
-199.2817
 20
70.8021
 30
0.0
 10
-199.0865
 20
70.6068
 30
0.0
 10
-199.0865
 20
70.6068
 30
0.0
 10
-198.8913
 20
70.4116
 30
0.0
 10
-198.8913
 20
70.0949
 30
0.0
 10
-199.0865
 20
69.8997
 30
0.0
 10
-199.0865
 20
69.8997
 30
0.0
 10
-199.0865
 20
69.8997
 30
0.0
 10
-196.2581
 20
67.0713
 30
0.0
 10
-196.2581
 20
67.0713
 30
0.0
 10
-196.2581
 20
67.0713
 30
0.0
 10
-196.0629
 20
67.2665
 30
0.0
 10
-195.7462
 20
67.2665
 30
0.0
 10
-195.551
 20
67.0713
 30
0.0
 10
-195.551
 20
67.0713
 30
0.0
 10
-195.3557
 20
66.8761
 30
0.0
 10
-195.3557
 20
66.5594
 30
0.0
 10
-195.551
 20
66.3642
 30
0.0
 10
-195.551
 20
66.3642
 30
0.0
 10
-195.7462
 20
66.1689
 30
0.0
 10
-196.0629
 20
66.1689
 30
0.0
 10
-196.2581
 20
66.3642
 30
0.0
 10
-196.2581
 20
66.3642
 30
0.0
 10
-196.2581
 20
66.3642
 30
0.0
 10
-202.622
 20
60.0002
 30
0.0
 10
-202.622
 20
60.0002
 30
0.0
 10
-202.622
 20
60.0002
 30
0.0
 10
-202.4268
 20
59.805
 30
0.0
 10
-202.4268
 20
59.4883
 30
0.0
 10
-202.622
 20
59.2931
 30
0.0
 10
-202.622
 20
59.2931
 30
0.0
 10
-202.8173
 20
59.0979
 30
0.0
 10
-203.1339
 20
59.0979
 30
0.0
 10
-203.3292
 20
59.2931
 30
0.0
 10
-203.3292
 20
59.2931
 30
0.0
 10
-203.5244
 20
59.4883
 30
0.0
 10
-203.5244
 20
59.805
 30
0.0
 10
-203.3292
 20
60.0002
 30
0.0
 10
-203.3292
 20
60.0002
 30
0.0
 10
-203.3292
 20
60.0002
 30
0.0
 10
-206.1576
 20
62.8286
 30
0.0
 10
-206.1576
 20
62.8286
 30
0.0
 10
-206.1576
 20
62.8286
 30
0.0
 10
-206.3528
 20
62.6334
 30
0.0
 10
-206.6695
 20
62.6334
 30
0.0
 10
-206.8647
 20
62.8286
 30
0.0
 10
-206.8647
 20
62.8286
 30
0.0
 10
-207.0599
 20
63.0239
 30
0.0
 10
-207.0599
 20
63.3405
 30
0.0
 10
-206.8647
 20
63.5358
 30
0.0
 10
-206.8647
 20
63.5358
 30
0.0
 10
-206.6695
 20
63.731
 30
0.0
 10
-206.3528
 20
63.731
 30
0.0
 10
-206.1576
 20
63.5358
 30
0.0
 10
-206.1576
 20
63.5358
 30
0.0
 10
-206.1576
 20
63.5358
 30
0.0
 10
-199.7936
 20
69.8997
 30
0.0
 10
-199.7936
 20
69.8997
 30
0.0
 10
-199.7936
 20
69.8997
 30
0.0
 10
-199.9889
 20
70.0949
 30
0.0
 10
-199.9889
 20
70.4116
 30
0.0
 10
-199.7936
 20
70.6068
 30
0.0
  0
SPLINE
  5
75
330
1F
100
AcDbEntity
  8
Layer 1
 62
   250
370
     9
100
AcDbSpline
210
0.0
220
0.0
230
1.0
 70
    11
 71
     3
 72
    68
 73
    64
 74
     0
 42
0.0000000001
 43
0.0000000001
 40
0.0
 40
0.0
 40
0.0
 40
0.0
 40
0.0625
 40
0.0625
 40
0.0625
 40
0.0625
 40
0.125
 40
0.125
 40
0.125
 40
0.125
 40
0.1875
 40
0.1875
 40
0.1875
 40
0.1875
 40
0.25
 40
0.25
 40
0.25
 40
0.25
 40
0.3125
 40
0.3125
 40
0.3125
 40
0.3125
 40
0.375
 40
0.375
 40
0.375
 40
0.375
 40
0.4375
 40
0.4375
 40
0.4375
 40
0.4375
 40
0.5
 40
0.5
 40
0.5
 40
0.5
 40
0.5625
 40
0.5625
 40
0.5625
 40
0.5625
 40
0.625
 40
0.625
 40
0.625
 40
0.625
 40
0.6875
 40
0.6875
 40
0.6875
 40
0.6875
 40
0.75
 40
0.75
 40
0.75
 40
0.75
 40
0.8125
 40
0.8125
 40
0.8125
 40
0.8125
 40
0.875
 40
0.875
 40
0.875
 40
0.875
 40
0.9375
 40
0.9375
 40
0.9375
 40
0.9375
 40
1.0
 40
1.0
 40
1.0
 40
1.0
 10
-213.9358
 20
56.4647
 30
0.0
 10
-213.7405
 20
56.6599
 30
0.0
 10
-213.4239
 20
56.6599
 30
0.0
 10
-213.2286
 20
56.4647
 30
0.0
 10
-213.2286
 20
56.4647
 30
0.0
 10
-213.0334
 20
56.2695
 30
0.0
 10
-213.0334
 20
55.9528
 30
0.0
 10
-213.2286
 20
55.7576
 30
0.0
 10
-213.2286
 20
55.7576
 30
0.0
 10
-213.2286
 20
55.7576
 30
0.0
 10
-210.4002
 20
52.9292
 30
0.0
 10
-210.4002
 20
52.9292
 30
0.0
 10
-210.4002
 20
52.9292
 30
0.0
 10
-210.205
 20
53.1244
 30
0.0
 10
-209.8883
 20
53.1244
 30
0.0
 10
-209.6931
 20
52.9292
 30
0.0
 10
-209.6931
 20
52.9292
 30
0.0
 10
-209.4979
 20
52.7339
 30
0.0
 10
-209.4979
 20
52.4173
 30
0.0
 10
-209.6931
 20
52.222
 30
0.0
 10
-209.6931
 20
52.222
 30
0.0
 10
-209.8883
 20
52.0268
 30
0.0
 10
-210.205
 20
52.0268
 30
0.0
 10
-210.4002
 20
52.222
 30
0.0
 10
-210.4002
 20
52.222
 30
0.0
 10
-210.4002
 20
52.222
 30
0.0
 10
-216.7642
 20
45.8581
 30
0.0
 10
-216.7642
 20
45.8581
 30
0.0
 10
-216.7642
 20
45.8581
 30
0.0
 10
-216.5689
 20
45.6629
 30
0.0
 10
-216.5689
 20
45.3462
 30
0.0
 10
-216.7642
 20
45.151
 30
0.0
 10
-216.7642
 20
45.151
 30
0.0
 10
-216.9594
 20
44.9557
 30
0.0
 10
-217.2761
 20
44.9557
 30
0.0
 10
-217.4713
 20
45.151
 30
0.0
 10
-217.4713
 20
45.151
 30
0.0
 10
-217.6665
 20
45.3462
 30
0.0
 10
-217.6665
 20
45.6629
 30
0.0
 10
-217.4713
 20
45.8581
 30
0.0
 10
-217.4713
 20
45.8581
 30
0.0
 10
-217.4713
 20
45.8581
 30
0.0
 10
-220.2997
 20
48.6865
 30
0.0
 10
-220.2997
 20
48.6865
 30
0.0
 10
-220.2997
 20
48.6865
 30
0.0
 10
-220.4949
 20
48.4913
 30
0.0
 10
-220.8116
 20
48.4913
 30
0.0
 10
-221.0068
 20
48.6865
 30
0.0
 10
-221.0068
 20
48.6865
 30
0.0
 10
-221.2021
 20
48.8817
 30
0.0
 10
-221.2021
 20
49.1984
 30
0.0
 10
-221.0068
 20
49.3936
 30
0.0
 10
-221.0068
 20
49.3936
 30
0.0
 10
-220.8116
 20
49.5889
 30
0.0
 10
-220.4949
 20
49.5889
 30
0.0
 10
-220.2997
 20
49.3936
 30
0.0
 10
-220.2997
 20
49.3936
 30
0.0
 10
-220.2997
 20
49.3936
 30
0.0
 10
-213.9358
 20
55.7576
 30
0.0
 10
-213.9358
 20
55.7576
 30
0.0
 10
-213.9358
 20
55.7576
 30
0.0
 10
-214.131
 20
55.9528
 30
0.0
 10
-214.131
 20
56.2695
 30
0.0
 10
-213.9358
 20
56.4647
 30
0.0
  0
ELLIPSE
  5
76
330
1F
100
AcDbEntity
  8
Layer 1
 62
   250
370
     9
100
AcDbEllipse
 10
26.0
 20
-50.0
 30
0.0
 11
0.0
 21
1.5
 31
0.0
210
0.0
220
0.0
230
1.0
 40
1.0
 41
0.0
 42
6.283185307179586
  0
ELLIPSE
  5
77
330
1F
100
AcDbEntity
  8
Layer 1
 62
   250
370
     9
100
AcDbEllipse
 10
-54.0
 20
-50.0
 30
0.0
 11
0.0
 21
1.5
 31
0.0
210
0.0
220
0.0
230
1.0
 40
1.0
 41
0.0
 42
6.283185307179586
  0
ENDSEC
  0
SECTION
  2
OBJECTS
  0
DICTIONARY
  5
C
330
0
100
AcDbDictionary
281
     1
  3
ACAD_GROUP
350
D
  3
ACAD_LAYOUT
350
1A
  3
ACAD_MLEADERSTYLE
350
7B
  3
ACAD_MLINESTYLE
350
17
  3
ACAD_PLOTSETTINGS
350
19
  3
ACAD_PLOTSTYLENAME
350
E
  3
ACAD_SCALELIST
350
3B
  3
ACAD_TABLESTYLE
350
7A
  3
ACAD_VISUALSTYLE
350
2A
  3
AcDbVariableDictionary
350
78
  0
DICTIONARY
  5
D
102
{ACAD_REACTORS
330
C
102
}
330
C
100
AcDbDictionary
281
     1
  0
DICTIONARY
  5
1A
102
{ACAD_REACTORS
330
C
102
}
330
C
100
AcDbDictionary
281
     1
  3
Layout1
350
1E
  3
Layout2
350
26
  3
Model
350
22
  0
DICTIONARY
  5
7B
102
{ACAD_REACTORS
330
C
102
}
330
C
100
AcDbDictionary
281
     1
  0
DICTIONARY
  5
17
102
{ACAD_REACTORS
330
C
102
}
330
C
100
AcDbDictionary
281
     1
  3
Standard
350
18
  0
DICTIONARY
  5
19
102
{ACAD_REACTORS
330
C
102
}
330
C
100
AcDbDictionary
281
     1
  0
ACDBDICTIONARYWDFLT
  5
E
102
{ACAD_REACTORS
330
C
102
}
330
C
100
AcDbDictionary
281
     1
  3
Normal
350
F
100
AcDbDictionaryWithDefault
340
F
  0
DICTIONARY
  5
3B
102
{ACAD_REACTORS
330
C
102
}
330
C
100
AcDbDictionary
281
     1
  3
A0
350
3C
  3
A1
350
3D
  3
A2
350
3E
  3
A3
350
3F
  3
A4
350
40
  3
A5
350
41
  3
A6
350
42
  3
A7
350
43
  3
A8
350
44
  3
A9
350
45
  3
B0
350
46
  3
B1
350
47
  3
B2
350
48
  3
B3
350
49
  3
B4
350
4A
  3
B5
350
4B
  3
B6
350
4C
  3
B7
350
4D
  3
B8
350
4E
  3
B9
350
4F
  3
C0
350
50
  3
C1
350
51
  3
C2
350
52
  3
C3
350
53
  3
C4
350
54
  3
C5
350
55
  3
C6
350
56
  3
C7
350
57
  3
C8
350
58
  3
C9
350
59
  3
D0
350
5A
  3
D1
350
5B
  3
D2
350
5C
  0
DICTIONARY
  5
7A
102
{ACAD_REACTORS
330
C
102
}
330
C
100
AcDbDictionary
281
     1
  0
DICTIONARY
  5
2A
102
{ACAD_REACTORS
330
C
102
}
330
C
100
AcDbDictionary
281
     1
  3
2dWireframe
350
2F
  3
3D Hidden
350
31
  3
3dWireframe
350
30
  3
Basic
350
32
  3
Brighten
350
36
  3
ColorChange
350
3A
  3
Conceptual
350
34
  3
Dim
350
35
  3
Facepattern
350
39
  3
Flat
350
2B
  3
FlatWithEdges
350
2C
  3
Gouraud
350
2D
  3
GouraudWithEdges
350
2E
  3
Linepattern
350
38
  3
Realistic
350
33
  3
Thicken
350
37
  0
DICTIONARY
  5
78
102
{ACAD_REACTORS
330
C
102
}
330
C
100
AcDbDictionary
281
     1
  3
CANNOSCALE
350
79
  0
LAYOUT
  5
1E
102
{ACAD_REACTORS
330
1A
102
}
330
1A
100
AcDbPlotSettings
  1

  2
none_device
  4

  6

 40
0.0
 41
0.0
 42
0.0
 43
0.0
 44
0.0
 45
0.0
 46
0.0
 47
0.0
 48
0.0
 49
0.0
140
0.0
141
0.0
142
1.0
143
1.0
 70
   688
 72
     0
 73
     0
 74
     5
  7

 75
    16
147
1.0
148
0.0
149
0.0
100
AcDbLayout
  1
Layout1
 70
     1
 71
     1
 10
0.0
 20
0.0
 11
12.0
 21
9.0
 12
0.0
 22
0.0
 32
0.0
 14
1.000000000000000E+20
 24
1.000000000000000E+20
 34
1.000000000000000E+20
 15
-1.000000000000000E+20
 25
-1.000000000000000E+20
 35
-1.000000000000000E+20
146
0.0
 13
0.0
 23
0.0
 33
0.0
 16
1.0
 26
0.0
 36
0.0
 17
0.0
 27
1.0
 37
0.0
 76
     0
330
1B
  0
LAYOUT
  5
26
102
{ACAD_REACTORS
330
1A
102
}
330
1A
100
AcDbPlotSettings
  1

  2
none_device
  4

  6

 40
0.0
 41
0.0
 42
0.0
 43
0.0
 44
0.0
 45
0.0
 46
0.0
 47
0.0
 48
0.0
 49
0.0
140
0.0
141
0.0
142
1.0
143
1.0
 70
   688
 72
     0
 73
     0
 74
     5
  7

 75
    16
147
1.0
148
0.0
149
0.0
100
AcDbLayout
  1
Layout2
 70
     1
 71
     2
 10
0.0
 20
0.0
 11
0.0
 21
0.0
 12
0.0
 22
0.0
 32
0.0
 14
0.0
 24
0.0
 34
0.0
 15
0.0
 25
0.0
 35
0.0
146
0.0
 13
0.0
 23
0.0
 33
0.0
 16
1.0
 26
0.0
 36
0.0
 17
0.0
 27
1.0
 37
0.0
 76
     0
330
23
  0
LAYOUT
  5
22
102
{ACAD_REACTORS
330
1A
102
}
330
1A
100
AcDbPlotSettings
  1

  2
none_device
  4

  6

 40
0.0
 41
0.0
 42
0.0
 43
0.0
 44
0.0
 45
0.0
 46
0.0
 47
0.0
 48
0.0
 49
0.0
140
0.0
141
0.0
142
1.0
143
1.0
 70
  1712
 72
     0
 73
     0
 74
     0
  7

 75
     0
147
1.0
148
0.0
149
0.0
100
AcDbLayout
  1
Model
 70
     1
 71
     0
 10
0.0
 20
0.0
 11
12.0
 21
9.0
 12
0.0
 22
0.0
 32
0.0
 14
-296.0381
 24
-146.0381
 34
0.0
 15
101.0381
 25
144.0381
 35
0.0
146
0.0
 13
0.0
 23
0.0
 33
0.0
 16
1.0
 26
0.0
 36
0.0
 17
0.0
 27
1.0
 37
0.0
 76
     0
330
1F
331
29
  0
MLINESTYLE
  5
18
102
{ACAD_REACTORS
330
17
102
}
330
17
100
AcDbMlineStyle
  2
Standard
 70
     0
  3

 62
   256
 51
90.0
 52
90.0
 71
     2
 49
0.5
 62
   256
  6
BYLAYER
 49
-0.5
 62
   256
  6
BYLAYER
  0
ACDBPLACEHOLDER
  5
F
102
{ACAD_REACTORS
330
E
102
}
330
E
  0
SCALE
  5
3C
102
{ACAD_REACTORS
330
3B
102
}
330
3B
100
AcDbScale
 70
     0
300
1:1
140
1.0
141
1.0
290
     1
  0
SCALE
  5
3D
102
{ACAD_REACTORS
330
3B
102
}
330
3B
100
AcDbScale
 70
     0
300
1:2
140
1.0
141
2.0
290
     0
  0
SCALE
  5
3E
102
{ACAD_REACTORS
330
3B
102
}
330
3B
100
AcDbScale
 70
     0
300
1:4
140
1.0
141
4.0
290
     0
  0
SCALE
  5
3F
102
{ACAD_REACTORS
330
3B
102
}
330
3B
100
AcDbScale
 70
     0
300
1:5
140
1.0
141
5.0
290
     0
  0
SCALE
  5
40
102
{ACAD_REACTORS
330
3B
102
}
330
3B
100
AcDbScale
 70
     0
300
1:8
140
1.0
141
8.0
290
     0
  0
SCALE
  5
41
102
{ACAD_REACTORS
330
3B
102
}
330
3B
100
AcDbScale
 70
     0
300
1:10
140
1.0
141
10.0
290
     0
  0
SCALE
  5
42
102
{ACAD_REACTORS
330
3B
102
}
330
3B
100
AcDbScale
 70
     0
300
1:16
140
1.0
141
16.0
290
     0
  0
SCALE
  5
43
102
{ACAD_REACTORS
330
3B
102
}
330
3B
100
AcDbScale
 70
     0
300
1:20
140
1.0
141
20.0
290
     0
  0
SCALE
  5
44
102
{ACAD_REACTORS
330
3B
102
}
330
3B
100
AcDbScale
 70
     0
300
1:30
140
1.0
141
30.0
290
     0
  0
SCALE
  5
45
102
{ACAD_REACTORS
330
3B
102
}
330
3B
100
AcDbScale
 70
     0
300
1:40
140
1.0
141
40.0
290
     0
  0
SCALE
  5
46
102
{ACAD_REACTORS
330
3B
102
}
330
3B
100
AcDbScale
 70
     0
300
1:50
140
1.0
141
50.0
290
     0
  0
SCALE
  5
47
102
{ACAD_REACTORS
330
3B
102
}
330
3B
100
AcDbScale
 70
     0
300
1:100
140
1.0
141
100.0
290
     0
  0
SCALE
  5
48
102
{ACAD_REACTORS
330
3B
102
}
330
3B
100
AcDbScale
 70
     0
300
2:1
140
2.0
141
1.0
290
     0
  0
SCALE
  5
49
102
{ACAD_REACTORS
330
3B
102
}
330
3B
100
AcDbScale
 70
     0
300
4:1
140
4.0
141
1.0
290
     0
  0
SCALE
  5
4A
102
{ACAD_REACTORS
330
3B
102
}
330
3B
100
AcDbScale
 70
     0
300
8:1
140
8.0
141
1.0
290
     0
  0
SCALE
  5
4B
102
{ACAD_REACTORS
330
3B
102
}
330
3B
100
AcDbScale
 70
     0
300
10:1
140
10.0
141
1.0
290
     0
  0
SCALE
  5
4C
102
{ACAD_REACTORS
330
3B
102
}
330
3B
100
AcDbScale
 70
     0
300
100:1
140
100.0
141
1.0
290
     0
  0
SCALE
  5
4D
102
{ACAD_REACTORS
330
3B
102
}
330
3B
100
AcDbScale
 70
     0
300
1/128" = 1'-0"
140
0.0078125
141
12.0
290
     0
  0
SCALE
  5
4E
102
{ACAD_REACTORS
330
3B
102
}
330
3B
100
AcDbScale
 70
     0
300
1/64" = 1'-0"
140
0.015625
141
12.0
290
     0
  0
SCALE
  5
4F
102
{ACAD_REACTORS
330
3B
102
}
330
3B
100
AcDbScale
 70
     0
300
1/32" = 1'-0"
140
0.03125
141
12.0
290
     0
  0
SCALE
  5
50
102
{ACAD_REACTORS
330
3B
102
}
330
3B
100
AcDbScale
 70
     0
300
1/16" = 1'-0"
140
0.0625
141
12.0
290
     0
  0
SCALE
  5
51
102
{ACAD_REACTORS
330
3B
102
}
330
3B
100
AcDbScale
 70
     0
300
3/32" = 1'-0"
140
0.09375
141
12.0
290
     0
  0
SCALE
  5
52
102
{ACAD_REACTORS
330
3B
102
}
330
3B
100
AcDbScale
 70
     0
300
1/8" = 1'-0"
140
0.125
141
12.0
290
     0
  0
SCALE
  5
53
102
{ACAD_REACTORS
330
3B
102
}
330
3B
100
AcDbScale
 70
     0
300
3/16" = 1'-0"
140
0.1875
141
12.0
290
     0
  0
SCALE
  5
54
102
{ACAD_REACTORS
330
3B
102
}
330
3B
100
AcDbScale
 70
     0
300
1/4" = 1'-0"
140
0.25
141
12.0
290
     0
  0
SCALE
  5
55
102
{ACAD_REACTORS
330
3B
102
}
330
3B
100
AcDbScale
 70
     0
300
3/8" = 1'-0"
140
0.375
141
12.0
290
     0
  0
SCALE
  5
56
102
{ACAD_REACTORS
330
3B
102
}
330
3B
100
AcDbScale
 70
     0
300
1/2" = 1'-0"
140
0.5
141
12.0
290
     0
  0
SCALE
  5
57
102
{ACAD_REACTORS
330
3B
102
}
330
3B
100
AcDbScale
 70
     0
300
3/4" = 1'-0"
140
0.75
141
12.0
290
     0
  0
SCALE
  5
58
102
{ACAD_REACTORS
330
3B
102
}
330
3B
100
AcDbScale
 70
     0
300
1" = 1'-0"
140
1.0
141
12.0
290
     0
  0
SCALE
  5
59
102
{ACAD_REACTORS
330
3B
102
}
330
3B
100
AcDbScale
 70
     0
300
1-1/2" = 1'-0"
140
1.5
141
12.0
290
     0
  0
SCALE
  5
5A
102
{ACAD_REACTORS
330
3B
102
}
330
3B
100
AcDbScale
 70
     0
300
3" = 1'-0"
140
3.0
141
12.0
290
     0
  0
SCALE
  5
5B
102
{ACAD_REACTORS
330
3B
102
}
330
3B
100
AcDbScale
 70
     0
300
6" = 1'-0"
140
6.0
141
12.0
290
     0
  0
SCALE
  5
5C
102
{ACAD_REACTORS
330
3B
102
}
330
3B
100
AcDbScale
 70
     0
300
1'-0" = 1'-0"
140
12.0
141
12.0
290
     0
  0
VISUALSTYLE
  5
2F
102
{ACAD_REACTORS
330
2A
102
}
330
2A
100
AcDbVisualStyle
  2
2dWireframe
 70
     4
 71
     0
 72
     2
 73
     0
 90
        0
 40
-0.6
 41
-30.0
 62
     5
 63
     7
 74
     1
 91
        4
 64
     7
 65
   257
 75
     1
175
     1
 42
1.0
 92
        0
 66
   257
 43
1.0
 76
     1
 77
     6
 78
     2
 67
     7
 79
     5
170
     0
171
     0
290
     0
174
     0
 93
        1
 44
0.0
173
     0
291
     0
 45
0.0
1001
ACAD
1000
AcDbSavedByObjectVersion
1070
     0
  0
VISUALSTYLE
  5
31
102
{ACAD_REACTORS
330
2A
102
}
330
2A
100
AcDbVisualStyle
  2
3D Hidden
 70
     6
 71
     1
 72
     2
 73
     2
 90
        0
 40
-0.6
 41
-30.0
 62
     5
 63
     7
 74
     2
 91
        2
 64
     7
 65
   257
 75
     2
175
     1
 42
40.0
 92
        0
 66
   257
 43
1.0
 76
     1
 77
     6
 78
     2
 67
     7
 79
     3
170
     0
171
     0
290
     0
174
     0
 93
        1
 44
0.0
173
     0
291
     0
 45
0.0
1001
ACAD
1000
AcDbSavedByObjectVersion
1070
     0
  0
VISUALSTYLE
  5
30
102
{ACAD_REACTORS
330
2A
102
}
330
2A
100
AcDbVisualStyle
  2
3dWireframe
 70
     5
 71
     0
 72
     2
 73
     0
 90
        0
 40
-0.6
 41
-30.0
 62
     5
 63
     7
 74
     1
 91
        4
 64
     7
 65
   257
 75
     1
175
     1
 42
1.0
 92
        0
 66
   257
 43
1.0
 76
     1
 77
     6
 78
     2
 67
     7
 79
     5
170
     0
171
     0
290
     0
174
     0
 93
        1
 44
0.0
173
     0
291
     0
 45
0.0
1001
ACAD
1000
AcDbSavedByObjectVersion
1070
     0
  0
VISUALSTYLE
  5
32
102
{ACAD_REACTORS
330
2A
102
}
330
2A
100
AcDbVisualStyle
  2
Basic
 70
     7
 71
     1
 72
     0
 73
     1
 90
        0
 40
-0.6
 41
-30.0
 62
     5
 63
     7
 74
     0
 91
        4
 64
     7
 65
   257
 75
     1
175
     1
 42
1.0
 92
        8
 66
     7
 43
1.0
 76
     1
 77
     6
 78
     2
 67
     7
 79
     5
170
     0
171
     0
290
     0
174
     0
 93
        1
 44
0.0
173
     0
291
     1
 45
0.0
1001
ACAD
1000
AcDbSavedByObjectVersion
1070
     0
  0
VISUALSTYLE
  5
36
102
{ACAD_REACTORS
330
2A
102
}
330
2A
100
AcDbVisualStyle
  2
Brighten
 70
    12
 71
     2
 72
     2
 73
     0
 90
        0
 40
-0.6
 41
-30.0
 62
     5
 63
     7
 74
     1
 91
        4
 64
     7
 65
   257
 75
     1
175
     1
 42
1.0
 92
        8
 66
     7
 43
1.0
 76
     1
 77
     6
 78
     2
 67
     7
 79
     5
170
     0
171
     0
290
     0
174
     0
 93
        1
 44
50.0
173
     0
291
     1
 45
0.0
1001
ACAD
1000
AcDbSavedByObjectVersion
1070
     0
  0
VISUALSTYLE
  5
3A
102
{ACAD_REACTORS
330
2A
102
}
330
2A
100
AcDbVisualStyle
  2
ColorChange
 70
    16
 71
     2
 72
     2
 73
     3
 90
        0
 40
-0.6
 41
-30.0
 62
     5
 63
     8
 74
     1
 91
        4
 64
     7
 65
   257
 75
     1
175
     1
 42
1.0
 92
        8
 66
     8
 43
1.0
 76
     1
 77
     6
 78
     2
 67
     7
 79
     5
170
     0
171
     0
290
     0
174
     0
 93
        1
 44
0.0
173
     0
291
     1
 45
0.0
1001
ACAD
1000
AcDbSavedByObjectVersion
1070
     0
  0
VISUALSTYLE
  5
34
102
{ACAD_REACTORS
330
2A
102
}
330
2A
100
AcDbVisualStyle
  2
Conceptual
 70
     9
 71
     3
 72
     2
 73
     0
 90
        0
 40
-0.6
 41
-30.0
 62
     5
 63
     7
 74
     2
 91
        2
 64
     7
 65
   257
 75
     1
175
     1
 42
40.0
 92
        8
 66
     7
 43
1.0
 76
     1
 77
     6
 78
     2
 67
     7
 79
     3
170
     0
171
     0
290
     0
174
     0
 93
        1
 44
0.0
173
     0
291
     0
 45
0.0
1001
ACAD
1000
AcDbSavedByObjectVersion
1070
     0
  0
VISUALSTYLE
  5
35
102
{ACAD_REACTORS
330
2A
102
}
330
2A
100
AcDbVisualStyle
  2
Dim
 70
    11
 71
     2
 72
     2
 73
     0
 90
        0
 40
-0.6
 41
-30.0
 62
     5
 63
     7
 74
     1
 91
        4
 64
     7
 65
   257
 75
     1
175
     1
 42
1.0
 92
        8
 66
     7
 43
1.0
 76
     1
 77
     6
 78
     2
 67
     7
 79
     5
170
     0
171
     0
290
     0
174
     0
 93
        1
 44
-50.0
173
     0
291
     1
 45
0.0
1001
ACAD
1000
AcDbSavedByObjectVersion
1070
     0
  0
VISUALSTYLE
  5
39
102
{ACAD_REACTORS
330
2A
102
}
330
2A
100
AcDbVisualStyle
  2
Facepattern
 70
    15
 71
     2
 72
     2
 73
     0
 90
        0
 40
-0.6
 41
-30.0
 62
     5
 63
     7
 74
     1
 91
        4
 64
     7
 65
   257
 75
     1
175
     1
 42
1.0
 92
        8
 66
     7
 43
1.0
 76
     1
 77
     6
 78
     2
 67
     7
 79
     5
170
     0
171
     0
290
     0
174
     0
 93
        1
 44
0.0
173
     0
291
     1
 45
0.0
1001
ACAD
1000
AcDbSavedByObjectVersion
1070
     0
  0
VISUALSTYLE
  5
2B
102
{ACAD_REACTORS
330
2A
102
}
330
2A
100
AcDbVisualStyle
  2
Flat
 70
     0
 71
     2
 72
     1
 73
     1
 90
        2
 40
-0.6
 41
30.0
 62
     5
 63
     7
 74
     0
 91
        4
 64
     7
 65
   257
 75
     1
175
     1
 42
1.0
 92
        8
 66
     7
 43
1.0
 76
     1
 77
     6
 78
     2
 67
     7
 79
     5
170
     0
171
     0
290
     0
174
     0
 93
       13
 44
0.0
173
     0
291
     1
 45
0.0
1001
ACAD
1000
AcDbSavedByObjectVersion
1070
     0
  0
VISUALSTYLE
  5
2C
102
{ACAD_REACTORS
330
2A
102
}
330
2A
100
AcDbVisualStyle
  2
FlatWithEdges
 70
     1
 71
     2
 72
     1
 73
     1
 90
        2
 40
-0.6
 41
30.0
 62
     5
 63
     7
 74
     1
 91
        4
 64
     7
 65
   257
 75
     1
175
     1
 42
1.0
 92
        0
 66
   257
 43
1.0
 76
     1
 77
     6
 78
     2
 67
     7
 79
     5
170
     0
171
     0
290
     0
174
     0
 93
       13
 44
0.0
173
     0
291
     1
 45
0.0
1001
ACAD
1000
AcDbSavedByObjectVersion
1070
     0
  0
VISUALSTYLE
  5
2D
102
{ACAD_REACTORS
330
2A
102
}
330
2A
100
AcDbVisualStyle
  2
Gouraud
 70
     2
 71
     2
 72
     2
 73
     1
 90
        2
 40
-0.6
 41
30.0
 62
     5
 63
     7
 74
     0
 91
        4
 64
     7
 65
   257
 75
     1
175
     1
 42
1.0
 92
        0
 66
     7
 43
1.0
 76
     1
 77
     6
 78
     2
 67
     7
 79
     5
170
     0
171
     0
290
     0
174
     0
 93
       13
 44
0.0
173
     0
291
     1
 45
0.0
1001
ACAD
1000
AcDbSavedByObjectVersion
1070
     0
  0
VISUALSTYLE
  5
2E
102
{ACAD_REACTORS
330
2A
102
}
330
2A
100
AcDbVisualStyle
  2
GouraudWithEdges
 70
     3
 71
     2
 72
     2
 73
     1
 90
        2
 40
-0.6
 41
30.0
 62
     5
 63
     7
 74
     1
 91
        4
 64
     7
 65
   257
 75
     1
175
     1
 42
1.0
 92
        0
 66
   257
 43
1.0
 76
     1
 77
     6
 78
     2
 67
     7
 79
     5
170
     0
171
     0
290
     0
174
     0
 93
       13
 44
0.0
173
     0
291
     1
 45
0.0
1001
ACAD
1000
AcDbSavedByObjectVersion
1070
     0
  0
VISUALSTYLE
  5
38
102
{ACAD_REACTORS
330
2A
102
}
330
2A
100
AcDbVisualStyle
  2
Linepattern
 70
    14
 71
     2
 72
     2
 73
     0
 90
        0
 40
-0.6
 41
-30.0
 62
     5
 63
     7
 74
     1
 91
        4
 64
     7
 65
   257
 75
     7
175
     7
 42
1.0
 92
        8
 66
     7
 43
1.0
 76
     1
 77
     6
 78
     2
 67
     7
 79
     5
170
     0
171
     0
290
     0
174
     0
 93
        1
 44
0.0
173
     0
291
     1
 45
0.0
1001
ACAD
1000
AcDbSavedByObjectVersion
1070
     0
  0
VISUALSTYLE
  5
33
102
{ACAD_REACTORS
330
2A
102
}
330
2A
100
AcDbVisualStyle
  2
Realistic
 70
     8
 71
     2
 72
     2
 73
     0
 90
        0
 40
-0.6
 41
-30.0
 62
     5
 63
     7
 74
     1
 91
        0
 64
     7
 65
   257
 75
     1
175
     1
 42
1.0
 92
        8
 66
     8
 43
1.0
 76
     1
 77
     6
 78
     2
 67
     7
 79
     5
170
     0
171
     0
290
     0
174
     0
 93
       13
 44
0.0
173
     0
291
     0
 45
0.0
1001
ACAD
1000
AcDbSavedByObjectVersion
1070
     0
  0
VISUALSTYLE
  5
37
102
{ACAD_REACTORS
330
2A
102
}
330
2A
100
AcDbVisualStyle
  2
Thicken
 70
    13
 71
     2
 72
     2
 73
     0
 90
        0
 40
-0.6
 41
-30.0
 62
     5
 63
     7
 74
     1
 91
        4
 64
     7
 65
   257
 75
     1
175
     1
 42
1.0
 92
       12
 66
     7
 43
1.0
 76
     1
 77
     6
 78
     2
 67
     7
 79
     5
170
     0
171
     0
290
     0
174
     0
 93
        1
 44
0.0
173
     0
291
     1
 45
0.0
1001
ACAD
1000
AcDbSavedByObjectVersion
1070
     0
  0
DICTIONARYVAR
  5
79
102
{ACAD_REACTORS
330
78
102
}
330
78
100
DictionaryVariables
280
     0
  1
1:1
  0
ENDSEC
  0
EOF
