<?xml version="1.0" encoding="UTF-8"?>
<!DOCTYPE svg PUBLIC "-//W3C//DTD SVG 1.1//EN" "http://www.w3.org/Graphics/SVG/1.1/DTD/svg11.dtd">
<!-- Creator: CorelDRAW -->
<svg xmlns="http://www.w3.org/2000/svg" xml:space="preserve" width="60cm" height="30cm" shape-rendering="geometricPrecision" text-rendering="geometricPrecision" image-rendering="optimizeQuality" fill-rule="evenodd" clip-rule="evenodd"
viewBox="0 0 600 300"
 xmlns:xlink="http://www.w3.org/1999/xlink">
 <g id="Layer_x0020_1">
  <metadata id="CorelCorpID_0Corel-Layer"/>
  <path fill="none" stroke="#1F1A17" stroke-width="0.0762" d="M223.241 6l0 284 -6.2411 0 -1 0 -1.5 0c0,-0.2761 -0.2239,-0.5 -0.5,-0.5 -0.2761,0 -0.5,0.2239 -0.5,0.5 0,0.2761 0.2239,0.5 0.5,0.5l0 4.5 -10 0 0 -4.5c0.2761,0 0.5,-0.2239 0.5,-0.5 0,-0.2761 -0.2239,-0.5 -0.5,-0.5 -0.2761,0 -0.5,0.2239 -0.5,0.5l-3 0 0 -3.9447 1.25 0 0 -2.5 -1.25 0 0 -4.5553 -3 0 0 4.5553 -1.25 0 0 2.5 1.25 0 0 3.9447 -3 0c0,-0.2761 -0.2239,-0.5 -0.5,-0.5 -0.2761,0 -0.5,0.2239 -0.5,0.5 0,0.2761 0.2239,0.5 0.5,0.5l0 4.5 -10 0 0 -4.5c0.2761,0 0.5,-0.2239 0.5,-0.5 0,-0.2761 -0.2239,-0.5 -0.5,-0.5 -0.2761,0 -0.5,0.2239 -0.5,0.5l-2.5 0 -49 0 -1 0 -1.5 0c0,-0.2761 -0.2239,-0.5 -0.5,-0.5 -0.2761,0 -0.5,0.2239 -0.5,0.5 0,0.2761 0.2239,0.5 0.5,0.5l0 4.5 -10 0 0 -4.5c0.2761,0 0.5,-0.2239 0.5,-0.5 0,-0.2761 -0.2239,-0.5 -0.5,-0.5 -0.2761,0 -0.5,0.2239 -0.5,0.5l-1.5 0 -1.5 0 -3 0 -1.5 0 -1.5 0c0,-0.2761 -0.2239,-0.5 -0.5,-0.5 -0.2761,0 -0.5,0.2239 -0.5,0.5 0,0.2761 0.2239,0.5 0.5,0.5l0 4.5 -10 0 0 -4.5c0.2761,0 0.5,-0.2239 0.5,-0.5 0,-0.2761 -0.2239,-0.5 -0.5,-0.5 -0.2761,0 -0.5,0.2239 -0.5,0.5l-2.5 0 -49 0 -1 0 -1.5 0c0,-0.2761 -0.2239,-0.5 -0.5,-0.5 -0.2761,0 -0.5,0.2239 -0.5,0.5 0,0.2761 0.2239,0.5 0.5,0.5l0 4.5 -10 0 0 -4.5c0.2761,0 0.5,-0.2239 0.5,-0.5 0,-0.2761 -0.2239,-0.5 -0.5,-0.5 -0.2761,0 -0.5,0.2239 -0.5,0.5l-3 0 0 -3.9447 1.25 0 0 -2.5 -1.25 0 0 -4.5553 -3 0 0 4.5553 -1.25 0 0 2.5 1.25 0 0 3.9447 -3 0c0,-0.2761 -0.2239,-0.5 -0.5,-0.5 -0.2761,0 -0.5,0.2239 -0.5,0.5 0,0.2761 0.2239,0.5 0.5,0.5l0 4.5 -10 0 0 -4.5c0.2761,0 0.5,-0.2239 0.5,-0.5 0,-0.2761 -0.2239,-0.5 -0.5,-0.5 -0.2761,0 -0.5,0.2239 -0.5,0.5l-2.5 0 -10 0 0 -284 10 0 2.5 0c0,0.2761 0.2239,0.5 0.5,0.5 0.2761,0 0.5,-0.2239 0.5,-0.5 0,-0.2761 -0.2239,-0.5 -0.5,-0.5l0 -4.5 10 0 0 4.5c-0.2761,0 -0.5,0.2239 -0.5,0.5 0,0.2761 0.2239,0.5 0.5,0.5 0.2761,0 0.5,-0.2239 0.5,-0.5l3 0 0 3.9447 -1.25 0 0 2.5 1.25 0 0 4.5553 3 0 0 -4.5553 1.25 0 0 -2.5 -1.25 0 0 -3.9447 3 0c0,0.2761 0.2239,0.5 0.5,0.5 0.2761,0 0.5,-0.2239 0.5,-0.5 0,-0.2761 -0.2239,-0.5 -0.5,-0.5l0 -4.5 10 0 0 4.5c-0.2761,0 -0.5,0.2239 -0.5,0.5 0,0.2761 0.2239,0.5 0.5,0.5 0.2761,0 0.5,-0.2239 0.5,-0.5l1.5 0 1 0 49 0 2.5 0c0,0.2761 0.2239,0.5 0.5,0.5 0.2761,0 0.5,-0.2239 0.5,-0.5 0,-0.2761 -0.2239,-0.5 -0.5,-0.5l0 -4.5 10 0 0 4.5c-0.2761,0 -0.5,0.2239 -0.5,0.5 0,0.2761 0.2239,0.5 0.5,0.5 0.2761,0 0.5,-0.2239 0.5,-0.5l1.5 0 1.5 0 3 0 1.5 0 1.5 0c0,0.2761 0.2239,0.5 0.5,0.5 0.2761,0 0.5,-0.2239 0.5,-0.5 0,-0.2761 -0.2239,-0.5 -0.5,-0.5l0 -4.5 10 0 0 4.5c-0.2761,0 -0.5,0.2239 -0.5,0.5 0,0.2761 0.2239,0.5 0.5,0.5 0.2761,0 0.5,-0.2239 0.5,-0.5l1.5 0 1 0 49 0 2.5 0c0,0.2761 0.2239,0.5 0.5,0.5 0.2761,0 0.5,-0.2239 0.5,-0.5 0,-0.2761 -0.2239,-0.5 -0.5,-0.5l0 -4.5 10 0 0 4.5c-0.2761,0 -0.5,0.2239 -0.5,0.5 0,0.2761 0.2239,0.5 0.5,0.5 0.2761,0 0.5,-0.2239 0.5,-0.5l3 0 0 3.9447 -1.25 0 0 2.5 1.25 0 0 4.5553 3 0 0 -4.5553 1.25 0 0 -2.5 -1.25 0 0 -3.9447 3 0c0,0.2761 0.2239,0.5 0.5,0.5 0.2761,0 0.5,-0.2239 0.5,-0.5 0,-0.2761 -0.2239,-0.5 -0.5,-0.5l0 -4.5 10 0 0 4.5c-0.2761,0 -0.5,0.2239 -0.5,0.5 0,0.2761 0.2239,0.5 0.5,0.5 0.2761,0 0.5,-0.2239 0.5,-0.5l1.5 0 1 0 6.2411 0z"/>
  <rect fill="none" stroke="#1F1A17" stroke-width="0.0762" transform="matrix(2.64845E-014 -1 1 2.64845E-014 21 270)" width="244" height="182.241" rx="9.112" ry="9.112"/>
  <path fill="none" stroke="#1F1A17" stroke-width="0.0762" d="M437.758 290l-0.525 0c0,-0.2761 -0.2239,-0.5 -0.5,-0.5 -0.2761,0 -0.5,0.2239 -0.5,0.5 0,0.2761 0.2239,0.5 0.5,0.5l0 4.5 -10 0 0 -4.5c0.2761,0 0.5,-0.2239 0.5,-0.5 0,-0.2761 -0.2239,-0.5 -0.5,-0.5 -0.2761,0 -0.5,0.2239 -0.5,0.5l-3 0 0 -3.9447 1.25 0 0 -2.5 -1.25 0 0 -4.5553 -3 0 0 4.5553 -1.25 0 0 2.5 1.25 0 0 3.9447 -3 0c0,-0.2761 -0.2239,-0.5 -0.5,-0.5 -0.2761,0 -0.5,0.2239 -0.5,0.5 0,0.2761 0.2239,0.5 0.5,0.5l0 4.5 -10 0 0 -4.5c0.2761,0 0.5,-0.2239 0.5,-0.5 0,-0.2761 -0.2239,-0.5 -0.5,-0.5 -0.2761,0 -0.5,0.2239 -0.5,0.5l-1.5 0 -1 0 0 0.008 -48.975 0 -2.5 0c0,-0.2761 -0.2239,-0.5 -0.5,-0.5 -0.2761,0 -0.5,0.2239 -0.5,0.5 0,0.2761 0.2239,0.5 0.5,0.5l0 4.5 -10 0 0 -4.5c0.2761,0 0.5,-0.2239 0.5,-0.5 0,-0.2761 -0.2239,-0.5 -0.5,-0.5 -0.2761,0 -0.5,0.2239 -0.5,0.5l-1.2585 0 -1.7415 0 -3 0 -2.2585 0 -0.7415 0c0,-0.2761 -0.2239,-0.5 -0.5,-0.5 -0.2761,0 -0.5,0.2239 -0.5,0.5 0,0.2761 0.2239,0.5 0.5,0.5l0 4.5 -10 0 0 -4.5c0.2761,0 0.5,-0.2239 0.5,-0.5 0,-0.2761 -0.2239,-0.5 -0.5,-0.5 -0.2761,0 -0.5,0.2239 -0.5,0.5l-1.5 0 -1 0 0 -0.0001 -49 0 0 0.0001 -2.5 0c0,-0.2761 -0.2239,-0.5 -0.5,-0.5 -0.2761,0 -0.5,0.2239 -0.5,0.5 0,0.2761 0.2239,0.5 0.5,0.5l0 4.5 -10 0 0 -4.5c0.2761,0 0.5,-0.2239 0.5,-0.5 0,-0.2761 -0.2239,-0.5 -0.5,-0.5 -0.2761,0 -0.5,0.2239 -0.5,0.5l-3 0 0 -3.9447 1.25 0 0 -2.5 -1.25 0 0 -4.5553 -3 0 0 4.5553 -1.25 0 0 2.5 1.25 0 0 3.9447 -3 0c0,-0.2761 -0.2239,-0.5 -0.5,-0.5 -0.2761,0 -0.5,0.2239 -0.5,0.5 0,0.2761 0.2239,0.5 0.5,0.5l0 4.5 -10 0 0 -4.5c0.2761,0 0.5,-0.2239 0.5,-0.5 0,-0.2761 -0.2239,-0.5 -0.5,-0.5 -0.2761,0 -0.5,0.2239 -0.5,0.5l-1.5 0 -1 0 0 -0.0001 -5.1585 0 -4.6 0 0 -17 0 -267 4.6 0 0 -0.0079 5.1585 0 1 0 1.5 0c0,0.2761 0.2239,0.5 0.5,0.5 0.2761,0 0.5,-0.2239 0.5,-0.5 0,-0.2761 -0.2239,-0.5 -0.5,-0.5l0 -4.5 10 0 0 4.5c-0.2761,0 -0.5,0.2239 -0.5,0.5 0,0.2761 0.2239,0.5 0.5,0.5 0.2761,0 0.5,-0.2239 0.5,-0.5l3 0 0 3.9447 -1.25 0 0 2.5 1.25 0 0 4.5553 3 0 0 -4.5553 1.25 0 0 -2.5 -1.25 0 0 -3.9447 3 0c0,0.2761 0.2239,0.5 0.5,0.5 0.2761,0 0.5,-0.2239 0.5,-0.5 0,-0.2761 -0.2239,-0.5 -0.5,-0.5l0 -4.5 10 0 0 4.5c-0.2761,0 -0.5,0.2239 -0.5,0.5 0,0.2761 0.2239,0.5 0.5,0.5 0.2761,0 0.5,-0.2239 0.5,-0.5l2.5 0 49 0 1 0 1.5 0c0,0.2761 0.2239,0.5 0.5,0.5 0.2761,0 0.5,-0.2239 0.5,-0.5 0,-0.2761 -0.2239,-0.5 -0.5,-0.5l0 -4.5 10 0 0 4.5c-0.2761,0 -0.5,0.2239 -0.5,0.5 0,0.2761 0.2239,0.5 0.5,0.5 0.2761,0 0.5,-0.2239 0.5,-0.5l3 0 0 0.008 3 0 0 -0.008 3 0c0,0.2761 0.2239,0.5 0.5,0.5 0.2761,0 0.5,-0.2239 0.5,-0.5 0,-0.2761 -0.2239,-0.5 -0.5,-0.5l0 -4.5 10 0 0 4.5c-0.2761,0 -0.5,0.2239 -0.5,0.5 0,0.2761 0.2239,0.5 0.5,0.5 0.2761,0 0.5,-0.2239 0.5,-0.5l2.5 0 0 0.008 48.975 0 1 0 1.5 0c0,0.2761 0.2239,0.5 0.5,0.5 0.2761,0 0.5,-0.2239 0.5,-0.5 0,-0.2761 -0.2239,-0.5 -0.5,-0.5l0 -4.5 10 0 0 4.5c-0.2761,0 -0.5,0.2239 -0.5,0.5 0,0.2761 0.2239,0.5 0.5,0.5 0.2761,0 0.5,-0.2239 0.5,-0.5l3 0 0 3.9447 -1.25 0 0 2.5 1.25 0 0 4.5553 3 0 0 -4.5553 1.25 0 0 -2.5 -1.25 0 0 -3.9447 3 0c0,0.2761 0.2239,0.5 0.5,0.5 0.2761,0 0.5,-0.2239 0.5,-0.5 0,-0.2761 -0.2239,-0.5 -0.5,-0.5l0 -4.5 10 0 0 4.5c-0.2761,0 -0.5,0.2239 -0.5,0.5 0,0.2761 0.2239,0.5 0.5,0.5 0.2761,0 0.5,-0.2239 0.5,-0.5l1.525 0 0 -0.0001 1 0 5 0 2.6416 0 4.6 0 0 284 -3.2416 0 -1.3584 0 -7.6416 0 -2 0 0 -0.0079z"/>
  <rect fill="none" stroke="#1F1A17" stroke-width="0.0762" transform="matrix(2.64845E-014 -1 1 2.64845E-014 244 270.008)" width="244" height="188" rx="9.4" ry="9.4"/>
  <path fill="none" stroke="#1F1A17" stroke-width="0.0762" d="M454 285l0 -274 0 -5 2.6 0 2 0 2 0 1 0 1.5 0c0,0.2761 0.2239,0.5 0.5,0.5 0.2761,0 0.5,-0.2239 0.5,-0.5 0,-0.2761 -0.2239,-0.5 -0.5,-0.5l0 -4.5 10 0 0 4.5c-0.2761,0 -0.5,0.2239 -0.5,0.5 0,0.2761 0.2239,0.5 0.5,0.5 0.2761,0 0.5,-0.2239 0.5,-0.5l3 0 0 3.9447 -1.25 0 0 2.5 1.25 0 0 4.5553 3 0 0 -4.5553 1.25 0 0 -2.5 -1.25 0 0 -3.9447 3 0c0,0.2761 0.2239,0.5 0.5,0.5 0.2761,0 0.5,-0.2239 0.5,-0.5 0,-0.2761 -0.2239,-0.5 -0.5,-0.5l0 -4.5 10 0 0 4.5c-0.2761,0 -0.5,0.2239 -0.5,0.5 0,0.2761 0.2239,0.5 0.5,0.5 0.2761,0 0.5,-0.2239 0.5,-0.5l1.5 0 1 0 25 0 2.5 0c0,0.2761 0.2239,0.5 0.5,0.5 0.2761,0 0.5,-0.2239 0.5,-0.5 0,-0.2761 -0.2239,-0.5 -0.5,-0.5l0 -4.5 10 0 0 4.5c-0.2761,0 -0.5,0.2239 -0.5,0.5 0,0.2761 0.2239,0.5 0.5,0.5 0.2761,0 0.5,-0.2239 0.5,-0.5l3 0 0 3.9447 -1.25 0 0 2.5 1.25 0 0 4.5553 3 0 0 -4.5553 1.25 0 0 -2.5 -1.25 0 0 -3.9447 3 0c0,0.2761 0.2239,0.5 0.5,0.5 0.2761,0 0.5,-0.2239 0.5,-0.5 0,-0.2761 -0.2239,-0.5 -0.5,-0.5l0 -4.5 10 0 0 4.5c-0.2761,0 -0.5,0.2239 -0.5,0.5 0,0.2761 0.2239,0.5 0.5,0.5 0.2761,0 0.5,-0.2239 0.5,-0.5l1.5 0 1 0 10 0 3 0 0 2 0 0.3204 0 4.1796c-0.2761,0 -0.5,0.2239 -0.5,0.5 0,0.2761 0.2239,0.5 0.5,0.5 0.2761,0 0.5,-0.2239 0.5,-0.5l3.5 0 0 10 -3.5 0c0,-0.2761 -0.2239,-0.5 -0.5,-0.5 -0.2761,0 -0.5,0.2239 -0.5,0.5 0,0.2761 0.2239,0.5 0.5,0.5l0 4.5 0 0.3204 0 4.1796c-0.2761,0 -0.5,0.2239 -0.5,0.5 0,0.2761 0.2239,0.5 0.5,0.5 0.2761,0 0.5,-0.2239 0.5,-0.5l3.5 0 0 10 -3.5 0c0,-0.2761 -0.2239,-0.5 -0.5,-0.5 -0.2761,0 -0.5,0.2239 -0.5,0.5 0,0.2761 0.2239,0.5 0.5,0.5l0 4.5 0 0.3204 0 4.1796c-0.2761,0 -0.5,0.2239 -0.5,0.5 0,0.2761 0.2239,0.5 0.5,0.5 0.2761,0 0.5,-0.2239 0.5,-0.5l3.5 0 0 10 -3.5 0c0,-0.2761 -0.2239,-0.5 -0.5,-0.5 -0.2761,0 -0.5,0.2239 -0.5,0.5 0,0.2761 0.2239,0.5 0.5,0.5l0 4.5 0 0.3204 0 4.1796c-0.2761,0 -0.5,0.2239 -0.5,0.5 0,0.2761 0.2239,0.5 0.5,0.5 0.2761,0 0.5,-0.2239 0.5,-0.5l3.5 0 0 10 -3.5 0c0,-0.2761 -0.2239,-0.5 -0.5,-0.5 -0.2761,0 -0.5,0.2239 -0.5,0.5 0,0.2761 0.2239,0.5 0.5,0.5l0 4.5 0 0.3204 0 4.1796c-0.2761,0 -0.5,0.2239 -0.5,0.5 0,0.2761 0.2239,0.5 0.5,0.5 0.2761,0 0.5,-0.2239 0.5,-0.5l3.5 0 0 10 -3.5 0c0,-0.2761 -0.2239,-0.5 -0.5,-0.5 -0.2761,0 -0.5,0.2239 -0.5,0.5 0,0.2761 0.2239,0.5 0.5,0.5l0 4.5 0 0.3204 0 4.1796c-0.2761,0 -0.5,0.2239 -0.5,0.5 0,0.2761 0.2239,0.5 0.5,0.5 0.2761,0 0.5,-0.2239 0.5,-0.5l3.5 0 0 10 -3.5 0c0,-0.2761 -0.2239,-0.5 -0.5,-0.5 -0.2761,0 -0.5,0.2239 -0.5,0.5 0,0.2761 0.2239,0.5 0.5,0.5l0 4.5 0 0.3204 0 4.1796c-0.2761,0 -0.5,0.2239 -0.5,0.5 0,0.2761 0.2239,0.5 0.5,0.5 0.2761,0 0.5,-0.2239 0.5,-0.5l3.5 0 0 10 -3.5 0c0,-0.2761 -0.2239,-0.5 -0.5,-0.5 -0.2761,0 -0.5,0.2239 -0.5,0.5 0,0.2761 0.2239,0.5 0.5,0.5l0 4.5 0 0.3204 0 4.1796c-0.2761,0 -0.5,0.2239 -0.5,0.5 0,0.2761 0.2239,0.5 0.5,0.5 0.2761,0 0.5,-0.2239 0.5,-0.5l3.5 0 0 10 -3.5 0c0,-0.2761 -0.2239,-0.5 -0.5,-0.5 -0.2761,0 -0.5,0.2239 -0.5,0.5 0,0.2761 0.2239,0.5 0.5,0.5l0 4.5 0 0.3204 0 4.1796c-0.2761,0 -0.5,0.2239 -0.5,0.5 0,0.2761 0.2239,0.5 0.5,0.5 0.2761,0 0.5,-0.2239 0.5,-0.5l3.5 0 0 10 -3.5 0c0,-0.2761 -0.2239,-0.5 -0.5,-0.5 -0.2761,0 -0.5,0.2239 -0.5,0.5 0,0.2761 0.2239,0.5 0.5,0.5l0 4.5 0 0.3204 0 4.1796c-0.2761,0 -0.5,0.2239 -0.5,0.5 0,0.2761 0.2239,0.5 0.5,0.5 0.2761,0 0.5,-0.2239 0.5,-0.5l3.5 0 0 10 -3.5 0c0,-0.2761 -0.2239,-0.5 -0.5,-0.5 -0.2761,0 -0.5,0.2239 -0.5,0.5 0,0.2761 0.2239,0.5 0.5,0.5l0 4.5 0 0.3204 0 4.1796c-0.2761,0 -0.5,0.2239 -0.5,0.5 0,0.2761 0.2239,0.5 0.5,0.5 0.2761,0 0.5,-0.2239 0.5,-0.5l3.5 0 0 10 -3.5 0c0,-0.2761 -0.2239,-0.5 -0.5,-0.5 -0.2761,0 -0.5,0.2239 -0.5,0.5 0,0.2761 0.2239,0.5 0.5,0.5l0 4.5 0 0.3204 0 4.1796c-0.2761,0 -0.5,0.2239 -0.5,0.5 0,0.2761 0.2239,0.5 0.5,0.5 0.2761,0 0.5,-0.2239 0.5,-0.5l3.5 0 0 10 -3.5 0c0,-0.2761 -0.2239,-0.5 -0.5,-0.5 -0.2761,0 -0.5,0.2239 -0.5,0.5 0,0.2761 0.2239,0.5 0.5,0.5l0 4.5 0 0.3204 0 4.1796c-0.2761,0 -0.5,0.2239 -0.5,0.5 0,0.2761 0.2239,0.5 0.5,0.5 0.2761,0 0.5,-0.2239 0.5,-0.5l3.5 0 0 10 -3.5 0c0,-0.2761 -0.2239,-0.5 -0.5,-0.5 -0.2761,0 -0.5,0.2239 -0.5,0.5 0,0.2761 0.2239,0.5 0.5,0.5l0 4.5 0 0.3204 0 4.1796c-0.2761,0 -0.5,0.2239 -0.5,0.5 0,0.2761 0.2239,0.5 0.5,0.5 0.2761,0 0.5,-0.2239 0.5,-0.5l3.5 0 0 10 -3.5 0c0,-0.2761 -0.2239,-0.5 -0.5,-0.5 -0.2761,0 -0.5,0.2239 -0.5,0.5 0,0.2761 0.2239,0.5 0.5,0.5l0 4.5 0 1.9912 -3 0 0 0.0088 -10 0 -1 0 -1.5 0c0,-0.2761 -0.2239,-0.5 -0.5,-0.5 -0.2761,0 -0.5,0.2239 -0.5,0.5 0,0.2761 0.2239,0.5 0.5,0.5l0 4.5 -10 0 0 -4.5c0.2761,0 0.5,-0.2239 0.5,-0.5 0,-0.2761 -0.2239,-0.5 -0.5,-0.5 -0.2761,0 -0.5,0.2239 -0.5,0.5l-3 0 0 -3.9447 1.25 0 0 -2.5 -1.25 0 0 -4.5553 -3 0 0 4.5553 -1.25 0 0 2.5 1.25 0 0 3.9447 -3 0c0,-0.2761 -0.2239,-0.5 -0.5,-0.5 -0.2761,0 -0.5,0.2239 -0.5,0.5 0,0.2761 0.2239,0.5 0.5,0.5l0 4.5 -10 0 0 -4.5c0.2761,0 0.5,-0.2239 0.5,-0.5 0,-0.2761 -0.2239,-0.5 -0.5,-0.5 -0.2761,0 -0.5,0.2239 -0.5,0.5l-2.5 0 -25 0 -1 0 -1.5 0c0,-0.2761 -0.2239,-0.5 -0.5,-0.5 -0.2761,0 -0.5,0.2239 -0.5,0.5 0,0.2761 0.2239,0.5 0.5,0.5l0 4.5 -10 0 0 -4.5c0.2761,0 0.5,-0.2239 0.5,-0.5 0,-0.2761 -0.2239,-0.5 -0.5,-0.5 -0.2761,0 -0.5,0.2239 -0.5,0.5l-3 0 0 -3.9447 1.25 0 0 -2.5 -1.25 0 0 -4.5553 -3 0 0 4.5553 -1.25 0 0 2.5 1.25 0 0 3.9447 -3 0c0,-0.2761 -0.2239,-0.5 -0.5,-0.5 -0.2761,0 -0.5,0.2239 -0.5,0.5 0,0.2761 0.2239,0.5 0.5,0.5l0 4.5 -10 0 0 -4.5c0.2761,0 0.5,-0.2239 0.5,-0.5 0,-0.2761 -0.2239,-0.5 -0.5,-0.5 -0.2761,0 -0.5,0.2239 -0.5,0.5l-2.5 0 -1 0 -5.6 0 0 -5z"/>
  <path fill="#1F1A17" fill-rule="nonzero" d="M526.64 199.173l-5.0729 0 0 -0.6681 2.4778 0c-0.2145,-0.1418 -0.3698,-0.3083 -0.4681,-0.5004 -0.0983,-0.1922 -0.1474,-0.4257 -0.1474,-0.7005 0,-0.2312 0.0368,-0.4278 0.1094,-0.5909 0.0738,-0.162 0.1821,-0.2894 0.3262,-0.381 0.0849,-0.0547 0.1844,-0.0938 0.2972,-0.1184 0.1139,-0.0235 0.3128,-0.0358 0.5954,-0.0358l1.8824 0 0 0.7172 -1.5941 0c-0.4078,0 -0.6793,0.0492 -0.8133,0.1486 -0.1341,0.0994 -0.2011,0.276 -0.2011,0.5284 0,0.1665 0.0302,0.3139 0.0916,0.4435 0.0614,0.1296 0.1475,0.2324 0.2581,0.3061 0.0748,0.0525 0.1698,0.0894 0.2871,0.1095 0.1161,0.0212 0.3027,0.0313 0.5574,0.0313l1.4143 0 0 0.7105z"/>
  <polygon id="1" fill="#1F1A17" fill-rule="nonzero" points="526.64,195.066 524.16,195.066 524.16,195.608 523.538,195.608 523.538,195.066 522.362,195.066 522.362,194.355 523.538,194.355 523.538,193.812 524.16,193.812 524.16,194.355 526.64,194.355 "/>
  <polygon id="12" fill="#1F1A17" fill-rule="nonzero" points="526.64,193.034 524.16,193.034 524.16,193.576 523.538,193.576 523.538,193.034 522.362,193.034 522.362,192.323 523.538,192.323 523.538,191.78 524.16,191.78 524.16,192.323 526.64,192.323 "/>
  <path id="123" fill="#1F1A17" fill-rule="nonzero" d="M525.078 190.482c0.3218,0 0.5776,-0.0804 0.7698,-0.2413 0.1921,-0.1597 0.2882,-0.3708 0.2882,-0.6323 0,-0.2692 -0.0894,-0.477 -0.2681,-0.6233 -0.1799,-0.1475 -0.4335,-0.2212 -0.763,-0.2212 -0.3274,0 -0.5832,0.0771 -0.7675,0.2301 -0.1843,0.1542 -0.2771,0.3653 -0.2771,0.6334 0,0.2681 0.0894,0.4782 0.2682,0.6279 0.1798,0.1508 0.4289,0.2267 0.7495,0.2267zm3.0219 0.6871l-4.5624 0 0 -0.7105 0.5061 0c-0.1955,-0.0827 -0.3474,-0.2156 -0.4547,-0.3977 -0.1061,-0.1821 -0.1597,-0.4 -0.1597,-0.6524 0,-0.4122 0.1519,-0.7463 0.4569,-1.0032 0.3038,-0.2558 0.7038,-0.3843 1.1987,-0.3843 0.5217,0 0.9328,0.1262 1.2321,0.3776 0.3006,0.2525 0.4503,0.5977 0.4503,1.0356 0,0.2189 -0.0436,0.4122 -0.1308,0.5809 -0.0871,0.1687 -0.22,0.3172 -0.3988,0.4435l1.8623 0 0 0.7105z"/>
  <path id="1234" fill="#1F1A17" fill-rule="nonzero" d="M524.038 187.087c-0.1151,0 -0.2145,-0.0424 -0.2983,-0.1262 -0.0826,-0.0838 -0.124,-0.1844 -0.124,-0.3028 0,-0.1195 0.0402,-0.2212 0.1207,-0.305 0.0815,-0.0826 0.1821,-0.124 0.3016,-0.124 0.1206,0 0.2212,0.0414 0.305,0.124 0.0826,0.0838 0.124,0.1855 0.124,0.305 0,0.1196 -0.0414,0.2212 -0.124,0.305 -0.0838,0.0827 -0.1844,0.124 -0.305,0.124zm2.2387 0c-0.1162,0 -0.2167,-0.0424 -0.3016,-0.1262 -0.0849,-0.0838 -0.1273,-0.1844 -0.1273,-0.3028 0,-0.1195 0.0413,-0.2212 0.124,-0.305 0.0837,-0.0826 0.1843,-0.124 0.3049,-0.124 0.1173,0 0.2179,0.0414 0.2994,0.124 0.0816,0.0838 0.1229,0.1855 0.1229,0.305 0,0.1196 -0.0413,0.2212 -0.1229,0.305 -0.0815,0.0827 -0.1821,0.124 -0.2994,0.124z"/>
  <polygon id="12345" fill="#1F1A17" fill-rule="nonzero" points="521.74,183.205 521.74,182.649 527.261,184.996 527.261,185.552 "/>
  <polygon id="123456" fill="#1F1A17" fill-rule="nonzero" points="521.74,180.302 521.74,179.745 527.261,182.092 527.261,182.649 "/>
  <path id="1234567" fill="#1F1A17" fill-rule="nonzero" d="M526.64 179.255l-5.0729 0 0 -0.6681 2.4778 0c-0.2145,-0.1418 -0.3698,-0.3083 -0.4681,-0.5004 -0.0983,-0.1922 -0.1474,-0.4257 -0.1474,-0.7005 0,-0.2312 0.0368,-0.4278 0.1094,-0.5909 0.0738,-0.162 0.1821,-0.2894 0.3262,-0.381 0.0849,-0.0547 0.1844,-0.0938 0.2972,-0.1184 0.1139,-0.0235 0.3128,-0.0358 0.5954,-0.0358l1.8824 0 0 0.7172 -1.5941 0c-0.4078,0 -0.6793,0.0492 -0.8133,0.1486 -0.1341,0.0994 -0.2011,0.276 -0.2011,0.5284 0,0.1665 0.0302,0.3139 0.0916,0.4435 0.0614,0.1296 0.1475,0.2324 0.2581,0.3061 0.0748,0.0525 0.1698,0.0894 0.2871,0.1095 0.1161,0.0212 0.3027,0.0313 0.5574,0.0313l1.4143 0 0 0.7105z"/>
  <path id="12345678" fill="#1F1A17" fill-rule="nonzero" d="M524.421 172.998c-0.1196,0.1095 -0.2112,0.2358 -0.2748,0.381 -0.0637,0.1452 -0.095,0.3016 -0.095,0.4703 0,0.2893 0.0938,0.5217 0.2815,0.6971 0.1877,0.1743 0.4357,0.2614 0.7463,0.2614 0.3228,0 0.5764,-0.0883 0.7607,-0.2636 0.1844,-0.1754 0.276,-0.4179 0.276,-0.7284 0,-0.1721 -0.0324,-0.3262 -0.0972,-0.4614 -0.0637,-0.1352 -0.162,-0.2536 -0.2927,-0.3564l0.8188 0c0.0738,0.1307 0.1296,0.2715 0.1665,0.4201 0.0369,0.1497 0.0559,0.3083 0.0559,0.477 0,0.486 -0.1553,0.8825 -0.4648,1.1886 -0.3094,0.3072 -0.7116,0.4603 -1.2042,0.4603 -0.4994,0 -0.9027,-0.1586 -1.2088,-0.4759 -0.3072,-0.3173 -0.4602,-0.7328 -0.4602,-1.2456 0,-0.1609 0.0156,-0.3095 0.048,-0.4446 0.0313,-0.1352 0.0793,-0.2626 0.1452,-0.3799l0.7988 0z"/>
  <path id="123456789" fill="#1F1A17" fill-rule="nonzero" d="M522.196 172.332c-0.1206,0 -0.2245,-0.0447 -0.3116,-0.1329 -0.0872,-0.0883 -0.1307,-0.1933 -0.1307,-0.315 0,-0.1274 0.0424,-0.2324 0.1262,-0.3162 0.0838,-0.0838 0.1888,-0.1262 0.3161,-0.1262 0.1263,0 0.2324,0.0424 0.3184,0.1273 0.086,0.0849 0.1296,0.1899 0.1296,0.3151 0,0.1217 -0.0447,0.2267 -0.1329,0.315 -0.0883,0.0882 -0.1933,0.1329 -0.3151,0.1329zm4.444 -0.0949l-3.1023 0 0 -0.7105 3.1023 0 0 0.7105z"/>
  <path id="12345678910" fill="#1F1A17" fill-rule="nonzero" d="M526.277 170.422c-0.1206,0 -0.2223,-0.0414 -0.3083,-0.124 -0.0849,-0.0838 -0.1274,-0.1855 -0.1274,-0.305 0,-0.1195 0.0425,-0.2212 0.1274,-0.305 0.086,-0.0827 0.1877,-0.124 0.3083,-0.124 0.1173,0 0.2179,0.0413 0.2994,0.124 0.0816,0.0838 0.1229,0.1855 0.1229,0.305 0,0.1195 -0.0413,0.2212 -0.1229,0.305 -0.0815,0.0826 -0.1821,0.124 -0.2994,0.124z"/>
  <path id="1234567891011" fill="#1F1A17" fill-rule="nonzero" d="M524.031 167.78c-0.2044,-0.076 -0.3564,-0.1776 -0.4547,-0.3028 -0.0983,-0.1251 -0.1474,-0.2804 -0.1474,-0.4669 0,-0.0994 0.0122,-0.1989 0.0357,-0.2961 0.0246,-0.0972 0.0592,-0.1921 0.105,-0.2859l0.6022 0.2558c-0.0436,0.0603 -0.076,0.1262 -0.0961,0.1977 -0.0212,0.0704 -0.0313,0.1497 -0.0313,0.2368 0,0.2358 0.0938,0.4044 0.2826,0.5072 0.1888,0.1028 0.5061,0.1542 0.9507,0.1542l1.3618 0 0 0.7105 -3.109 0 0 -0.7105 0.5005 0z"/>
  <path id="123456789101112" fill="#1F1A17" fill-rule="nonzero" d="M526.827 163.053l-1.6132 0.7172c-0.124,0.0548 -0.2357,0.0995 -0.3329,0.1341 -0.0961,0.0346 -0.1921,0.067 -0.286,0.0949 0.1419,0.0481 0.2637,0.0905 0.3653,0.1274 0.1017,0.0369 0.1765,0.067 0.2268,0.0883l1.64 0.7373 -3.2889 1.6064 0 -0.7563 1.4959 -0.6971c0.0625,-0.0279 0.1497,-0.0558 0.2603,-0.0827 0.1094,-0.0279 0.2312,-0.0513 0.3641,-0.0703 -0.0782,-0.0023 -0.1597,-0.0157 -0.2446,-0.0403 -0.086,-0.0234 -0.1899,-0.0636 -0.315,-0.1206l-1.6757 -0.7597 0 -0.058 1.6757 -0.7731c0.105,-0.048 0.2022,-0.0838 0.2915,-0.1061 0.0894,-0.0235 0.1788,-0.0369 0.2681,-0.0414 -0.1173,-0.019 -0.229,-0.0446 -0.334,-0.0748 -0.1039,-0.0302 -0.1988,-0.0659 -0.2837,-0.105l-1.5026 -0.6837 0 -0.7496 3.2889 1.6131z"/>
  <polygon id="12345678910111213" fill="#1F1A17" fill-rule="nonzero" points="526.64,160.828 524.16,160.828 524.16,161.371 523.538,161.371 523.538,160.828 522.362,160.828 522.362,160.117 523.538,160.117 523.538,159.574 524.16,159.574 524.16,160.117 526.64,160.117 "/>
  <path id="1234567891011121314" fill="#1F1A17" fill-rule="nonzero" d="M526.64 158.963l-5.0729 0 0 -0.6681 2.4778 0c-0.2145,-0.1418 -0.3698,-0.3083 -0.4681,-0.5004 -0.0983,-0.1922 -0.1474,-0.4257 -0.1474,-0.7005 0,-0.2312 0.0368,-0.4278 0.1094,-0.5909 0.0738,-0.162 0.1821,-0.2894 0.3262,-0.381 0.0849,-0.0547 0.1844,-0.0938 0.2972,-0.1184 0.1139,-0.0235 0.3128,-0.0358 0.5954,-0.0358l1.8824 0 0 0.7172 -1.5941 0c-0.4078,0 -0.6793,0.0492 -0.8133,0.1486 -0.1341,0.0994 -0.2011,0.276 -0.2011,0.5284 0,0.1665 0.0302,0.3139 0.0916,0.4435 0.0614,0.1296 0.1475,0.2324 0.2581,0.3061 0.0748,0.0525 0.1698,0.0894 0.2871,0.1095 0.1161,0.0212 0.3027,0.0313 0.5574,0.0313l1.4143 0 0 0.7105z"/>
  <polygon id="123456789101112131415" fill="#1F1A17" fill-rule="nonzero" points="524.771,155.032 524.771,153.282 525.426,153.282 525.426,155.032 "/>
  <path id="12345678910111213141516" fill="#1F1A17" fill-rule="nonzero" d="M526.64 149.391l0 0.7105 -0.4022 0c0.1788,0.1262 0.3117,0.2748 0.3988,0.4435 0.0872,0.1687 0.1308,0.362 0.1308,0.5809 0,0.4379 -0.1497,0.7831 -0.4503,1.0356 -0.2993,0.2514 -0.7104,0.3776 -1.2321,0.3776 -0.4949,0 -0.8949,-0.1285 -1.1987,-0.3865 -0.305,-0.257 -0.4569,-0.5932 -0.4569,-1.0077 0,-0.2525 0.0525,-0.4692 0.1586,-0.649 0.1061,-0.1799 0.258,-0.3117 0.4558,-0.3944l-0.5061 0 0 -0.7105 3.1023 0zm-1.5618 0.6904c-0.3206,0 -0.5697,0.0748 -0.7495,0.2245 -0.1788,0.1497 -0.2682,0.3586 -0.2682,0.6268 0,0.2681 0.0928,0.4792 0.2771,0.6334 0.1843,0.153 0.4401,0.2301 0.7675,0.2301 0.3295,0 0.5831,-0.0737 0.763,-0.2223 0.1787,-0.1486 0.2681,-0.3575 0.2681,-0.6278 0,-0.2559 -0.0972,-0.4637 -0.2916,-0.6234 -0.1944,-0.1609 -0.4491,-0.2413 -0.7664,-0.2413z"/>
  <path id="1234567891011121314151617" fill="#1F1A17" fill-rule="nonzero" d="M526.64 145.49l0 0.7105 -0.4022 0c0.1788,0.1262 0.3117,0.2748 0.3988,0.4435 0.0872,0.1687 0.1308,0.362 0.1308,0.5809 0,0.4379 -0.1497,0.7831 -0.4503,1.0356 -0.2993,0.2514 -0.7104,0.3776 -1.2321,0.3776 -0.4949,0 -0.8949,-0.1285 -1.1987,-0.3865 -0.305,-0.257 -0.4569,-0.5932 -0.4569,-1.0077 0,-0.2525 0.0525,-0.4692 0.1586,-0.649 0.1061,-0.1799 0.258,-0.3117 0.4558,-0.3944l-0.5061 0 0 -0.7105 3.1023 0zm-1.5618 0.6904c-0.3206,0 -0.5697,0.0748 -0.7495,0.2245 -0.1788,0.1497 -0.2682,0.3586 -0.2682,0.6268 0,0.2681 0.0928,0.4792 0.2771,0.6334 0.1843,0.153 0.4401,0.2301 0.7675,0.2301 0.3295,0 0.5831,-0.0737 0.763,-0.2223 0.1787,-0.1486 0.2681,-0.3575 0.2681,-0.6278 0,-0.2559 -0.0972,-0.4637 -0.2916,-0.6234 -0.1944,-0.1609 -0.4491,-0.2413 -0.7664,-0.2413z"/>
  <path id="123456789101112131415161718" fill="#1F1A17" fill-rule="nonzero" d="M524.421 142.191c-0.1196,0.1095 -0.2112,0.2358 -0.2748,0.381 -0.0637,0.1452 -0.095,0.3016 -0.095,0.4703 0,0.2893 0.0938,0.5217 0.2815,0.6971 0.1877,0.1743 0.4357,0.2614 0.7463,0.2614 0.3228,0 0.5764,-0.0883 0.7607,-0.2636 0.1844,-0.1754 0.276,-0.4179 0.276,-0.7284 0,-0.1721 -0.0324,-0.3262 -0.0972,-0.4614 -0.0637,-0.1352 -0.162,-0.2536 -0.2927,-0.3564l0.8188 0c0.0738,0.1307 0.1296,0.2715 0.1665,0.4201 0.0369,0.1497 0.0559,0.3083 0.0559,0.477 0,0.486 -0.1553,0.8825 -0.4648,1.1886 -0.3094,0.3072 -0.7116,0.4603 -1.2042,0.4603 -0.4994,0 -0.9027,-0.1586 -1.2088,-0.4759 -0.3072,-0.3173 -0.4602,-0.7328 -0.4602,-1.2456 0,-0.1609 0.0156,-0.3095 0.048,-0.4446 0.0313,-0.1352 0.0793,-0.2626 0.1452,-0.3799l0.7988 0z"/>
  <path id="12345678910111213141516171819" fill="#1F1A17" fill-rule="nonzero" d="M526.64 141.464l-5.0729 0 0 -0.6681 2.4778 0c-0.2145,-0.1418 -0.3698,-0.3083 -0.4681,-0.5004 -0.0983,-0.1922 -0.1474,-0.4257 -0.1474,-0.7005 0,-0.2312 0.0368,-0.4278 0.1094,-0.5909 0.0738,-0.162 0.1821,-0.2894 0.3262,-0.381 0.0849,-0.0547 0.1844,-0.0938 0.2972,-0.1184 0.1139,-0.0235 0.3128,-0.0358 0.5954,-0.0358l1.8824 0 0 0.7172 -1.5941 0c-0.4078,0 -0.6793,0.0492 -0.8133,0.1486 -0.1341,0.0994 -0.2011,0.276 -0.2011,0.5284 0,0.1665 0.0302,0.3139 0.0916,0.4435 0.0614,0.1296 0.1475,0.2324 0.2581,0.3061 0.0748,0.0525 0.1698,0.0894 0.2871,0.1095 0.1161,0.0212 0.3027,0.0313 0.5574,0.0313l1.4143 0 0 0.7105z"/>
  <path id="1234567891011121314151617181920" fill="#1F1A17" fill-rule="nonzero" d="M525.193 134.535l0 2.4812c0.2905,-0.0179 0.5161,-0.1039 0.6792,-0.2592 0.162,-0.1541 0.2436,-0.3608 0.2436,-0.6189 0,-0.229 -0.0481,-0.42 -0.1441,-0.5719 -0.0961,-0.1531 -0.2514,-0.286 -0.4648,-0.4l0.334 -0.5988c0.3117,0.1743 0.5441,0.391 0.6971,0.648 0.1531,0.258 0.2291,0.5597 0.2291,0.9071 0,0.4971 -0.152,0.8937 -0.4547,1.1875 -0.3039,0.2949 -0.7083,0.4424 -1.2143,0.4424 -0.4871,0 -0.8859,-0.1519 -1.1998,-0.4569 -0.3128,-0.3039 -0.4692,-0.6949 -0.4692,-1.173 0,-0.4994 0.143,-0.8892 0.4289,-1.1685 0.286,-0.2793 0.686,-0.419 1.201,-0.419l0.134 0zm-0.4781 0.7362c-0.2223,0.028 -0.3921,0.114 -0.5083,0.2559 -0.1173,0.1418 -0.1754,0.3351 -0.1754,0.582 0,0.2335 0.057,0.4211 0.1698,0.563 0.1139,0.1419 0.2849,0.2413 0.5139,0.2983l0 -1.6992z"/>
  <path id="123456789101112131415161718192021" fill="#1F1A17" fill-rule="nonzero" d="M526.64 133.796l-3.1023 0 0 -0.6681 0.5072 0c-0.2145,-0.1418 -0.3698,-0.3083 -0.4681,-0.5004 -0.0983,-0.1922 -0.1474,-0.4257 -0.1474,-0.7005 0,-0.2312 0.0368,-0.4278 0.1094,-0.5909 0.0738,-0.162 0.1821,-0.2894 0.3262,-0.381 0.0849,-0.0547 0.1844,-0.0938 0.2972,-0.1184 0.1139,-0.0235 0.3128,-0.0358 0.5954,-0.0358l1.8824 0 0 0.7172 -1.5941 0c-0.4078,0 -0.6793,0.0492 -0.8133,0.1486 -0.1341,0.0994 -0.2011,0.276 -0.2011,0.5284 0,0.1665 0.0302,0.3139 0.0916,0.4435 0.0614,0.1296 0.1475,0.2324 0.2581,0.3061 0.0748,0.0525 0.1698,0.0894 0.2871,0.1095 0.1161,0.0212 0.3027,0.0313 0.5574,0.0313l1.4143 0 0 0.7105z"/>
  <path id="12345678910111213141516171819202122" fill="#1F1A17" fill-rule="nonzero" d="M526.277 129.764c-0.1206,0 -0.2223,-0.0414 -0.3083,-0.124 -0.0849,-0.0838 -0.1274,-0.1855 -0.1274,-0.305 0,-0.1195 0.0425,-0.2212 0.1274,-0.305 0.086,-0.0827 0.1877,-0.124 0.3083,-0.124 0.1173,0 0.2179,0.0413 0.2994,0.124 0.0816,0.0838 0.1229,0.1855 0.1229,0.305 0,0.1195 -0.0413,0.2212 -0.1229,0.305 -0.0815,0.0826 -0.1821,0.124 -0.2994,0.124z"/>
  <path id="1234567891011121314151617181920212223" fill="#1F1A17" fill-rule="nonzero" d="M525.078 125.604c-0.3206,0 -0.5697,0.0748 -0.7495,0.2245 -0.1788,0.1497 -0.2682,0.3586 -0.2682,0.6268 0,0.2681 0.0928,0.4792 0.2771,0.6334 0.1843,0.153 0.4401,0.2301 0.7675,0.2301 0.3295,0 0.5831,-0.0737 0.763,-0.2223 0.1787,-0.1486 0.2681,-0.3575 0.2681,-0.6278 0,-0.2581 -0.0961,-0.4659 -0.2894,-0.6256 -0.1932,-0.1587 -0.4491,-0.2391 -0.7686,-0.2391zm-3.5111 0.0201l0 -0.7105 5.0729 0 0 0.7105 -0.4022 0c0.1788,0.1262 0.3117,0.2748 0.3988,0.4435 0.0872,0.1687 0.1308,0.362 0.1308,0.5809 0,0.4379 -0.1497,0.7831 -0.4503,1.0356 -0.2993,0.2514 -0.7104,0.3776 -1.2321,0.3776 -0.4949,0 -0.8949,-0.1285 -1.1987,-0.3865 -0.305,-0.257 -0.4569,-0.5932 -0.4569,-1.0077 0,-0.2525 0.0525,-0.4692 0.1586,-0.649 0.1061,-0.1799 0.258,-0.3117 0.4558,-0.3944l-2.4767 0z"/>
  <path id="123456789101112131415161718192021222324" fill="#1F1A17" fill-rule="nonzero" d="M525.193 120.943l0 2.4812c0.2905,-0.0179 0.5161,-0.1039 0.6792,-0.2592 0.162,-0.1541 0.2436,-0.3608 0.2436,-0.6189 0,-0.229 -0.0481,-0.42 -0.1441,-0.5719 -0.0961,-0.1531 -0.2514,-0.286 -0.4648,-0.4l0.334 -0.5988c0.3117,0.1743 0.5441,0.391 0.6971,0.648 0.1531,0.258 0.2291,0.5597 0.2291,0.9071 0,0.4971 -0.152,0.8937 -0.4547,1.1875 -0.3039,0.2949 -0.7083,0.4424 -1.2143,0.4424 -0.4871,0 -0.8859,-0.1519 -1.1998,-0.4569 -0.3128,-0.3039 -0.4692,-0.6949 -0.4692,-1.173 0,-0.4994 0.143,-0.8892 0.4289,-1.1685 0.286,-0.2793 0.686,-0.419 1.201,-0.419l0.134 0zm-0.4781 0.7362c-0.2223,0.028 -0.3921,0.114 -0.5083,0.2559 -0.1173,0.1418 -0.1754,0.3351 -0.1754,0.582 0,0.2335 0.057,0.4211 0.1698,0.563 0.1139,0.1419 0.2849,0.2413 0.5139,0.2983l0 -1.6992z"/>
  <polygon id="12345678910111213141516171819202122232425" fill="#1F1A17" fill-rule="nonzero" points="521.74,118.347 521.74,117.79 527.261,120.138 527.261,120.694 "/>
  <path id="1234567891011121314151617181920212223242526" fill="#1F1A17" fill-rule="nonzero" d="M526.64 117.202l-2.48 0 0 0.5429 -0.6223 0 0 -0.5429 -0.8322 0c-0.4123,0 -0.7161,-0.086 -0.9127,-0.257 -0.1967,-0.1709 -0.295,-0.4368 -0.295,-0.7965 0,-0.0771 0.0056,-0.1553 0.0168,-0.2357 0.01,-0.0816 0.0279,-0.1631 0.0525,-0.2458l0.6412 0c-0.0324,0.057 -0.0569,0.114 -0.0737,0.1721 -0.0168,0.0569 -0.0246,0.1161 -0.0246,0.1742 0,0.171 0.0525,0.2927 0.1575,0.3665 0.1039,0.0748 0.2816,0.1117 0.5307,0.1117l0.7395 0 0 -0.7463 0.6223 0 0 0.7463 2.48 0 0 0.7105z"/>
  <path id="123456789101112131415161718192021222324252627" fill="#1F1A17" fill-rule="nonzero" d="M526.64 112.329l0 0.7105 -0.4022 0c0.1788,0.1262 0.3117,0.2748 0.3988,0.4435 0.0872,0.1687 0.1308,0.362 0.1308,0.5809 0,0.4379 -0.1497,0.7831 -0.4503,1.0356 -0.2993,0.2514 -0.7104,0.3776 -1.2321,0.3776 -0.4949,0 -0.8949,-0.1285 -1.1987,-0.3865 -0.305,-0.257 -0.4569,-0.5932 -0.4569,-1.0077 0,-0.2525 0.0525,-0.4692 0.1586,-0.649 0.1061,-0.1799 0.258,-0.3117 0.4558,-0.3944l-0.5061 0 0 -0.7105 3.1023 0zm-1.5618 0.6904c-0.3206,0 -0.5697,0.0748 -0.7495,0.2245 -0.1788,0.1497 -0.2682,0.3586 -0.2682,0.6268 0,0.2681 0.0928,0.4792 0.2771,0.6334 0.1843,0.153 0.4401,0.2301 0.7675,0.2301 0.3295,0 0.5831,-0.0737 0.763,-0.2223 0.1787,-0.1486 0.2681,-0.3575 0.2681,-0.6278 0,-0.2559 -0.0972,-0.4637 -0.2916,-0.6234 -0.1944,-0.1609 -0.4491,-0.2413 -0.7664,-0.2413z"/>
  <path id="12345678910111213141516171819202122232425262728" fill="#1F1A17" fill-rule="nonzero" d="M525.078 110.66c0.3173,0 0.572,-0.0815 0.7664,-0.2446 0.1944,-0.162 0.2916,-0.372 0.2916,-0.629 0,-0.2692 -0.0894,-0.477 -0.2681,-0.6233 -0.1799,-0.1475 -0.4335,-0.2212 -0.763,-0.2212 -0.3274,0 -0.5832,0.0771 -0.7675,0.2301 -0.1843,0.1542 -0.2771,0.3653 -0.2771,0.6334 0,0.2681 0.0894,0.4782 0.2682,0.6279 0.1798,0.1508 0.4289,0.2267 0.7495,0.2267zm-3.5111 -0.0234l2.4767 0c-0.1955,-0.0827 -0.3474,-0.2156 -0.4547,-0.3977 -0.1061,-0.1821 -0.1597,-0.4 -0.1597,-0.6524 0,-0.4122 0.1519,-0.7463 0.4569,-1.0032 0.3038,-0.2558 0.7038,-0.3843 1.1987,-0.3843 0.5217,0 0.9328,0.1262 1.2321,0.3776 0.3006,0.2525 0.4503,0.5977 0.4503,1.0356 0,0.2189 -0.0436,0.4122 -0.1308,0.5809 -0.0871,0.1687 -0.22,0.3172 -0.3988,0.4435l0.4022 0 0 0.7105 -5.0729 0 0 -0.7105z"/>
  <path id="1234567891011121314151617181920212223242526272829" fill="#1F1A17" fill-rule="nonzero" d="M526.077 107.802l-0.3207 -0.5887c0.1553,-0.0436 0.2726,-0.124 0.3542,-0.2424 0.0804,-0.1184 0.1206,-0.2692 0.1206,-0.4558 0,-0.1586 -0.0368,-0.2837 -0.1094,-0.3742 -0.0738,-0.0905 -0.1732,-0.1363 -0.2994,-0.1363 -0.1687,0 -0.3128,0.1608 -0.4324,0.4837 -0.0391,0.1095 -0.0715,0.1933 -0.0983,0.2525 -0.1374,0.3318 -0.277,0.5641 -0.4189,0.6959 -0.1419,0.1319 -0.3139,0.1978 -0.5172,0.1978 -0.2771,0 -0.5016,-0.1084 -0.6748,-0.3262 -0.172,-0.2168 -0.258,-0.5039 -0.258,-0.8613 0,-0.2402 0.0446,-0.4458 0.1329,-0.6178 0.0882,-0.1709 0.2134,-0.2961 0.3776,-0.3743l0.3474 0.5039c-0.0983,0.0368 -0.1765,0.1016 -0.2346,0.1944 -0.0581,0.0927 -0.0871,0.1999 -0.0871,0.3228 0,0.1352 0.0324,0.2435 0.0972,0.3251 0.0636,0.0815 0.1497,0.1229 0.2569,0.1229 0.1609,0 0.3083,-0.1832 0.4424,-0.5497 0.0413,-0.1161 0.0748,-0.2055 0.1017,-0.2681 0.1128,-0.286 0.2413,-0.4904 0.3842,-0.6133 0.143,-0.124 0.3207,-0.1854 0.5352,-0.1854 0.3094,0 0.5518,0.1128 0.7272,0.3374 0.1754,0.2245 0.2637,0.5339 0.2637,0.9294 0,0.3039 -0.057,0.5552 -0.1699,0.7563 -0.1139,0.2011 -0.2871,0.3575 -0.5205,0.4714z"/>
  <path id="123456789101112131415161718192021222324252627282930" fill="#1F1A17" fill-rule="nonzero" d="M524.421 102.274c-0.1196,0.1095 -0.2112,0.2358 -0.2748,0.381 -0.0637,0.1452 -0.095,0.3016 -0.095,0.4703 0,0.2893 0.0938,0.5217 0.2815,0.6971 0.1877,0.1743 0.4357,0.2614 0.7463,0.2614 0.3228,0 0.5764,-0.0883 0.7607,-0.2636 0.1844,-0.1754 0.276,-0.4179 0.276,-0.7284 0,-0.1721 -0.0324,-0.3262 -0.0972,-0.4614 -0.0637,-0.1352 -0.162,-0.2536 -0.2927,-0.3564l0.8188 0c0.0738,0.1307 0.1296,0.2715 0.1665,0.4201 0.0369,0.1497 0.0559,0.3083 0.0559,0.477 0,0.486 -0.1553,0.8825 -0.4648,1.1886 -0.3094,0.3072 -0.7116,0.4603 -1.2042,0.4603 -0.4994,0 -0.9027,-0.1586 -1.2088,-0.4759 -0.3072,-0.3173 -0.4602,-0.7328 -0.4602,-1.2456 0,-0.1609 0.0156,-0.3095 0.048,-0.4446 0.0313,-0.1352 0.0793,-0.2626 0.1452,-0.3799l0.7988 0z"/>
  <path id="12345678910111213141516171819202122232425262728293031" fill="#1F1A17" fill-rule="nonzero" d="M526.64 98.6282l0 0.7105 -0.4022 0c0.1788,0.1262 0.3117,0.2748 0.3988,0.4435 0.0872,0.1687 0.1308,0.362 0.1308,0.5809 0,0.4379 -0.1497,0.7831 -0.4503,1.0356 -0.2993,0.2514 -0.7104,0.3776 -1.2321,0.3776 -0.4949,0 -0.8949,-0.1285 -1.1987,-0.3865 -0.305,-0.257 -0.4569,-0.5932 -0.4569,-1.0077 0,-0.2525 0.0525,-0.4692 0.1586,-0.649 0.1061,-0.1799 0.258,-0.3117 0.4558,-0.3944l-0.5061 0 0 -0.7105 3.1023 0zm-1.5618 0.6904c-0.3206,0 -0.5697,0.0748 -0.7495,0.2245 -0.1788,0.1497 -0.2682,0.3586 -0.2682,0.6268 0,0.2681 0.0928,0.4792 0.2771,0.6334 0.1843,0.153 0.4401,0.2301 0.7675,0.2301 0.3295,0 0.5831,-0.0737 0.763,-0.2223 0.1787,-0.1486 0.2681,-0.3575 0.2681,-0.6278 0,-0.2559 -0.0972,-0.4637 -0.2916,-0.6234 -0.1944,-0.1609 -0.4491,-0.2413 -0.7664,-0.2413z"/>
  <path id="1234567891011121314151617181920212223242526272829303132" fill="#1F1A17" fill-rule="nonzero" d="M526.64 97.6463l-3.1023 0 0 -0.6681 0.5072 0c-0.2145,-0.1418 -0.3698,-0.3083 -0.4681,-0.5004 -0.0983,-0.1922 -0.1474,-0.4257 -0.1474,-0.7005 0,-0.2312 0.0368,-0.4278 0.1094,-0.5909 0.0738,-0.162 0.1821,-0.2894 0.3262,-0.381 0.0849,-0.0547 0.1844,-0.0938 0.2972,-0.1184 0.1139,-0.0235 0.3128,-0.0358 0.5954,-0.0358l1.8824 0 0 0.7172 -1.5941 0c-0.4078,0 -0.6793,0.0492 -0.8133,0.1486 -0.1341,0.0994 -0.2011,0.276 -0.2011,0.5284 0,0.1665 0.0302,0.3139 0.0916,0.4435 0.0614,0.1296 0.1475,0.2324 0.2581,0.3061 0.0748,0.0525 0.1698,0.0894 0.2871,0.1095 0.1161,0.0212 0.3027,0.0313 0.5574,0.0313l1.4143 0 0 0.7105z"/>
  <polygon fill="#1F1A17" fill-rule="nonzero" points="516.324,199.414 498.167,199.414 498.167,188.289 502.146,188.289 502.146,194.588 505.296,194.588 505.296,188.649 509.19,188.649 509.19,194.588 516.324,194.588 "/>
  <path id="1" fill="#1F1A17" fill-rule="nonzero" d="M510.046 176.359c-0.9779,0 -1.7484,0.2625 -2.3199,0.7832 -0.5715,0.5207 -0.8551,1.2319 -0.8551,2.1294 0,0.9017 0.2836,1.6129 0.8509,2.1293 0.563,0.5165 1.3419,0.7747 2.3241,0.7747 0.9736,0 1.7441,-0.2624 2.3071,-0.7831 0.5631,-0.5207 0.8425,-1.2277 0.8425,-2.1209 0,-0.8975 -0.2794,-1.6087 -0.8425,-2.1294 -0.563,-0.5207 -1.3335,-0.7832 -2.3071,-0.7832zm-6.2484 -3.8819l12.5264 0 0 4.0555 -2.0362 0c0.8678,0.58 1.507,1.2277 1.9092,1.9516 0.4064,0.7239 0.6096,1.5748 0.6096,2.5484 0,1.6722 -0.6096,3.0057 -1.8288,4.009 -1.2192,0.9991 -2.8533,1.4986 -4.9064,1.4986 -2.0405,0 -3.6661,-0.5249 -4.8684,-1.5706 -1.2022,-1.0456 -1.8034,-2.4511 -1.8034,-4.2206 0,-0.944 0.199,-1.7568 0.6012,-2.4384 0.4021,-0.6816 1.0202,-1.2658 1.8542,-1.7526l-2.0574 0 0 -4.0809z"/>
  <path id="12" fill="#1F1A17" fill-rule="nonzero" d="M510.071 165.192c0.9736,0 1.7441,-0.254 2.3071,-0.762 0.5631,-0.508 0.8425,-1.2065 0.8425,-2.0997 0,-0.9017 -0.2794,-1.6087 -0.8382,-2.1209 -0.5588,-0.5122 -1.3293,-0.7705 -2.3114,-0.7705 -0.9737,0 -1.7442,0.2583 -2.3072,0.7747 -0.563,0.5165 -0.8424,1.2235 -0.8424,2.1167 0,0.8932 0.2794,1.5917 0.8424,2.0997 0.563,0.508 1.3335,0.762 2.3072,0.762zm-12.971 3.9201l0 -4.2164 6.549 0c0.5292,0 0.9694,0.0085 1.3208,0.0296 0.3514,0.0212 0.6519,0.0551 0.9102,0.0932 -0.8933,-0.5123 -1.5283,-1.1007 -1.9093,-1.7653 -0.381,-0.6647 -0.5715,-1.5325 -0.5715,-2.5993 0,-1.6679 0.6139,-3.0226 1.8415,-4.0598 1.2277,-1.0371 2.8364,-1.5578 4.8303,-1.5578 2.0616,0 3.6957,0.5249 4.9106,1.5705 1.215,1.0457 1.8246,2.4427 1.8246,4.1953 0,0.8593 -0.2074,1.6425 -0.6265,2.3452 -0.4191,0.7028 -1.0499,1.3335 -1.8923,1.8966l2.0362 0 0 4.0682 -19.2236 0z"/>
  <path id="123" fill="#1F1A17" fill-rule="nonzero" d="M510.456 151.256c0.834,-0.7366 1.4605,-1.4647 1.8711,-2.1801 0.4149,-0.7155 0.6223,-1.4267 0.6223,-2.1379 0,-0.6604 -0.1778,-1.2065 -0.5334,-1.6298 -0.3556,-0.4276 -0.8043,-0.6392 -1.3504,-0.6392 -0.6054,0 -1.071,0.182 -1.397,0.5503 -0.326,0.3683 -0.6646,1.2023 -1.0118,2.4977 -0.4783,1.778 -1.1049,3.0353 -1.8711,3.7719 -0.7705,0.7366 -1.8246,1.1049 -3.1623,1.1049 -1.7357,0 -3.1538,-0.58 -4.2503,-1.7442 -1.0964,-1.1599 -1.6425,-2.667 -1.6425,-4.5169 0,-1.0033 0.1355,-1.9516 0.4022,-2.8491 0.2709,-0.8974 0.6773,-1.7441 1.2234,-2.5484l3.5602 1.5494c-0.4783,0.563 -0.8424,1.1387 -1.0879,1.7314 -0.2413,0.5927 -0.3641,1.1769 -0.3641,1.7526 0,0.5969 0.1439,1.0795 0.4276,1.452 0.2836,0.3726 0.6519,0.5588 1.0964,0.5588 0.4572,0 0.8213,-0.1651 1.0922,-0.491 0.2752,-0.326 0.5334,-0.9568 0.7832,-1.8881l0.0635 -0.2244c0.5418,-2.0193 1.143,-3.3443 1.7949,-3.9793 0.4487,-0.4318 0.9821,-0.7578 1.6087,-0.9821 0.6223,-0.2244 1.3165,-0.3345 2.0743,-0.3345 1.9262,0 3.4756,0.6308 4.644,1.8966 1.1726,1.2657 1.7568,2.9506 1.7568,5.0588 0,1.2658 -0.2159,2.4172 -0.6435,3.4544 -0.4318,1.0372 -1.1049,2.0362 -2.0235,2.9972l-3.683 -2.231z"/>
  <path id="1234" fill="#1F1A17" fill-rule="nonzero" d="M507.916 128.62c-0.381,0.4318 -0.6562,0.8424 -0.8297,1.2404 -0.1736,0.3979 -0.2625,0.8128 -0.2625,1.253 0,0.8763 0.2879,1.5748 0.8678,2.0913 0.58,0.5165 1.3632,0.7747 2.3538,0.7747 0.9609,0 1.7229,-0.2667 2.2944,-0.8043 0.5715,-0.5377 0.8552,-1.2616 0.8552,-2.1717 0,-0.4488 -0.0889,-0.8679 -0.2667,-1.2616 -0.1778,-0.3937 -0.453,-0.7662 -0.8255,-1.1218l3.8354 0c0.2963,0.5292 0.5164,1.0583 0.6561,1.5875 0.1397,0.5292 0.2117,1.0753 0.2117,1.6383 0,1.9262 -0.6181,3.484 -1.8542,4.6821 -1.2361,1.1938 -2.8617,1.7907 -4.881,1.7907 -1.9601,0 -3.5603,-0.6096 -4.8049,-1.8288 -1.2446,-1.2192 -1.8669,-2.7856 -1.8669,-4.6948 0,-0.635 0.0635,-1.2107 0.1863,-1.723 0.1228,-0.5122 0.3217,-0.999 0.5969,-1.452l3.7338 0z"/>
  <path id="12345" fill="#1F1A17" fill-rule="nonzero" d="M510.046 116.356c-0.9779,0 -1.7484,0.2625 -2.3199,0.7832 -0.5715,0.5207 -0.8551,1.2319 -0.8551,2.1294 0,0.9017 0.2836,1.6129 0.8509,2.1293 0.563,0.5165 1.3419,0.7747 2.3241,0.7747 0.9736,0 1.7441,-0.2624 2.3071,-0.7831 0.5631,-0.5207 0.8425,-1.2277 0.8425,-2.1209 0,-0.8975 -0.2794,-1.6087 -0.8425,-2.1294 -0.563,-0.5207 -1.3335,-0.7832 -2.3071,-0.7832zm-6.2484 -3.8819l12.5264 0 0 4.0555 -2.0362 0c0.8678,0.58 1.507,1.2277 1.9092,1.9516 0.4064,0.7239 0.6096,1.5748 0.6096,2.5484 0,1.6722 -0.6096,3.0057 -1.8288,4.009 -1.2192,0.9991 -2.8533,1.4986 -4.9064,1.4986 -2.0405,0 -3.6661,-0.5249 -4.8684,-1.5706 -1.2022,-1.0456 -1.8034,-2.4511 -1.8034,-4.2206 0,-0.944 0.199,-1.7568 0.6012,-2.4384 0.4021,-0.6816 1.0202,-1.2658 1.8542,-1.7526l-2.0574 0 0 -4.0809z"/>
  <path id="123456" fill="#1F1A17" fill-rule="nonzero" d="M516.324 109.134l-12.5264 0 0 -4.0428 2.54 0c-1.016,-0.5842 -1.7611,-1.2658 -2.231,-2.032 -0.4699,-0.7705 -0.707,-1.6934 -0.707,-2.7686 0,-0.8086 0.1313,-1.5325 0.3895,-2.1633 0.2625,-0.635 0.635,-1.1472 1.1218,-1.5451 0.4234,-0.3302 0.9356,-0.5673 1.541,-0.707 0.6011,-0.1397 1.5028,-0.2117 2.7008,-0.2117l7.1713 0 0 4.4281 -6.7098 0c-1.0033,0 -1.7272,0.1651 -2.1844,0.4911 -0.453,0.3259 -0.6816,0.8509 -0.6816,1.5705 0,0.9187 0.3387,1.5875 1.016,2.0066 0.6773,0.4234 1.778,0.635 3.302,0.635l5.2578 0 0 4.3392z"/>
 </g>
</svg>
