<?xml version="1.0" encoding="UTF-8"?>
<!DOCTYPE svg PUBLIC "-//W3C//DTD SVG 1.1//EN" "http://www.w3.org/Graphics/SVG/1.1/DTD/svg11.dtd">
<!-- Creator: CorelDRAW -->
<svg xmlns="http://www.w3.org/2000/svg" xml:space="preserve" width="60cm" height="30cm" shape-rendering="geometricPrecision" text-rendering="geometricPrecision" image-rendering="optimizeQuality" fill-rule="evenodd" clip-rule="evenodd"
viewBox="0 0 600 300"
 xmlns:xlink="http://www.w3.org/1999/xlink">
 <g id="Layer_x0020_1">
  <metadata id="CorelCorpID_0Corel-Layer"/>
  <path fill="none" stroke="#1F1A17" stroke-width="0.0762" d="M139.526 92l-1.5258 0 -2.6275 0 -30.3725 0 0 5.5694 0 1.7153 0 1.7153 0 1 0 1.5 0 1 0 9 0 1 0 3 0 3 0 3 0 1 0 9 0 1 0 2.5 0 2.3779 0 2 0 4.6221 30.3725 0 2.6275 0 1.5266 0 1 0 1.5 0 1 0 9 0 1 0 3 0 2.9734 0 0.0266 0 2.4736 0 0.5 0 0.0264 0 0.9736 0c0,0.2761 -0.2239,0.5 -0.5,0.5l0 4.5 0.0264 0 9.9736 0 0.0264 0 0 -4.5c-0.2761,0 -0.5,-0.2239 -0.5,-0.5 0,-0.2716 0.2166,-0.4927 0.4865,-0.4998l0.0006 0c0.2698,0.0071 0.4865,0.2282 0.4865,0.4998l0.0264 0 1.4732 0 1.5004 0 0 -3.9447 -1.25 0 0 -2.5 1.25 0 0 -4.5553 3 0 0 4.5553 1.25 0 0 2.5 -1.25 0 0 3.9447 3 0c0,-0.2761 0.2239,-0.5 0.5,-0.5 0.2761,0 0.5,0.2239 0.5,0.5 0,0.2761 -0.2239,0.5 -0.5,0.5l0 4.5 10 0 0 -4.5c-0.2761,0 -0.5,-0.2239 -0.5,-0.5 0,-0.2761 0.2239,-0.5 0.5,-0.5 0.2761,0 0.5,0.2239 0.5,0.5l2.5 0 34.4998 0 0 -54 -32 0 -2.4998 0 -0.0008 0 -1 0 -0.4994 0 -1.0006 0c0,0.2761 -0.2239,0.5 -0.5,0.5 -0.2761,0 -0.5,-0.2239 -0.5,-0.5 0,-0.2761 0.2239,-0.5 0.5,-0.5l0 -4.5 -10 0 0 4.5c0.2761,0 0.5,0.2239 0.5,0.5 0,0.2761 -0.2239,0.5 -0.5,0.5 -0.2761,0 -0.5,-0.2239 -0.5,-0.5l-3 0 0 3.9447 1.25 0 0 2.5 -1.25 0 0 4.5553 -3 0 0 -4.5553 -1.25 0 0 -2.5 1.25 0 0 -3.9447 -2.4736 0 -0.5 0 -0.0264 0c0,0.2716 -0.2166,0.4927 -0.4865,0.4998l-0.0006 0c-0.2698,-0.0071 -0.4865,-0.2282 -0.4865,-0.4998 0,-0.2761 0.2239,-0.5 0.5,-0.5l0 -4.5 -0.0264 0 -9.9736 0 -0.0264 0 0 4.5c0.2761,0 0.5,0.2239 0.5,0.5l-0.9736 0 -0.0264 0 -1.4732 0 -1.5004 0 -0.8248 0 -2.1752 0 -3 0 -1 0 -9 0 -1 0 -2.5 0z"/>
  <g id="_65875408">
   <path id="_54032256" fill="none" stroke="#1F1A17" stroke-width="0.0762" d="M131 285l-11.401 0 -5.599 0 -2.5 0 -3 0 -2.5 0 -7 0 -2.5 0 -20 0 -16 0 -20 0 -34.5 0 0 -11 0 -6 0 -1 0 -1.5c0.2761,0 0.5,-0.2239 0.5,-0.5 0,-0.2761 -0.2239,-0.5 -0.5,-0.5 -0.2761,0 -0.5,0.2239 -0.5,0.5l-4.5 0 0 -10 4.5 0c0,0.2761 0.2239,0.5 0.5,0.5 0.2761,0 0.5,-0.2239 0.5,-0.5 0,-0.2761 -0.2239,-0.5 -0.5,-0.5l0 -1.5 0 -1.5 0 -3 0 -1.5 0 -1.5c0.2761,0 0.5,-0.2239 0.5,-0.5 0,-0.2761 -0.2239,-0.5 -0.5,-0.5 -0.2761,0 -0.5,0.2239 -0.5,0.5l-4.5 0 0 -10 4.5 0c0,0.2761 0.2239,0.5 0.5,0.5 0.2761,0 0.5,-0.2239 0.5,-0.5 0,-0.2761 -0.2239,-0.5 -0.5,-0.5l0 -2.5 0 -71 0 -1 0 -1.5c0.2761,0 0.5,-0.2239 0.5,-0.5 0,-0.2761 -0.2239,-0.5 -0.5,-0.5 -0.2761,0 -0.5,0.2239 -0.5,0.5l-4.5 0 0 -10 4.5 0c0,0.2761 0.2239,0.5 0.5,0.5 0.2761,0 0.5,-0.2239 0.5,-0.5 0,-0.2761 -0.2239,-0.5 -0.5,-0.5l0 -1.5 0 -1.5 0 -3 0 -1.5 0 -1.5c0.2761,0 0.5,-0.2239 0.5,-0.5 0,-0.2761 -0.2239,-0.5 -0.5,-0.5 -0.2761,0 -0.5,0.2239 -0.5,0.5l-4.5 0 0 -10 4.5 0c0,0.2761 0.2239,0.5 0.5,0.5 0.2761,0 0.5,-0.2239 0.5,-0.5 0,-0.2761 -0.2239,-0.5 -0.5,-0.5l0 -2.5 0 -71 0 -1 0 -1.5c0.2761,0 0.5,-0.2239 0.5,-0.5 0,-0.2761 -0.2239,-0.5 -0.5,-0.5 -0.2761,0 -0.5,0.2239 -0.5,0.5l-4.5 0 0 -10 4.5 0c0,0.2761 0.2239,0.5 0.5,0.5 0.2761,0 0.5,-0.2239 0.5,-0.5 0,-0.2761 -0.2239,-0.5 -0.5,-0.5l0 -1.5 0 -1.5 0 -3 0 -1.5 0 -1.5c0.2761,0 0.5,-0.2239 0.5,-0.5 0,-0.2761 -0.2239,-0.5 -0.5,-0.5 -0.2761,0 -0.5,0.2239 -0.5,0.5l-4.5 0 0 -10 4.5 0c0,0.2761 0.2239,0.5 0.5,0.5 0.2761,0 0.5,-0.2239 0.5,-0.5 0,-0.2761 -0.2239,-0.5 -0.5,-0.5l0 -2.5 0 -6 0 -11 34.5 0 20 0 16 0 20 0 5.5 0 4 0 2.5 0 3 0 2.5 0 3 0 14 0 0 11 0 6 0 1 0 1.5c-0.2761,0 -0.5,0.2239 -0.5,0.5 0,0.2761 0.2239,0.5 0.5,0.5 0.2761,0 0.5,-0.2239 0.5,-0.5l4.5 0 0 10 -4.5 0c0,-0.2761 -0.2239,-0.5 -0.5,-0.5 -0.2761,0 -0.5,0.2239 -0.5,0.5 0,0.2761 0.2239,0.5 0.5,0.5l0 3 -3.9447 0 0 -1.25 -2.5 0 0 1.25 -4.5553 0 0 3 4.5553 0 0 1.25 2.5 0 0 -1.25 3.9447 0 0 3c-0.2761,0 -0.5,0.2239 -0.5,0.5 0,0.2761 0.2239,0.5 0.5,0.5 0.2761,0 0.5,-0.2239 0.5,-0.5l4.5 0 0 10 -4.5 0c0,-0.2761 -0.2239,-0.5 -0.5,-0.5 -0.2761,0 -0.5,0.2239 -0.5,0.5 0,0.2761 0.2239,0.5 0.5,0.5l0 2.5 0 17 -99 0c-3.3131,0 -6,2.6869 -6,6l0 46 0 33 0 112c0,3.3131 2.6869,6 6,6l99 0 0 11z"/>
   <path id="_64889224" fill="none" stroke="#1F1A17" stroke-width="0.0762" d="M58 278c0.8283,0 1.5,0.6717 1.5,1.5 0,0.8283 -0.6717,1.5 -1.5,1.5 -0.8283,0 -1.5,-0.6717 -1.5,-1.5 0,-0.8283 0.6717,-1.5 1.5,-1.5z"/>
   <path id="_65074072" fill="none" stroke="#1F1A17" stroke-width="0.0762" d="M43 282.5c-0.2761,0 -0.5,-0.2239 -0.5,-0.5 0,-0.2761 0.2239,-0.5 0.5,-0.5l0 -4c-0.2761,0 -0.5,-0.2239 -0.5,-0.5 0,-0.2761 0.2239,-0.5 0.5,-0.5 0.2761,0 0.5,0.2239 0.5,0.5l9 0c0,-0.2761 0.2239,-0.5 0.5,-0.5 0.2761,0 0.5,0.2239 0.5,0.5 0,0.2761 -0.2239,0.5 -0.5,0.5l0 4c0.2761,0 0.5,0.2239 0.5,0.5 0,0.2761 -0.2239,0.5 -0.5,0.5 -0.2761,0 -0.5,-0.2239 -0.5,-0.5l-9 0c0,0.2761 -0.2239,0.5 -0.5,0.5z"/>
   <path id="_65593928" fill="none" stroke="#1F1A17" stroke-width="0.0762" d="M63 282.5c-0.2761,0 -0.5,-0.2239 -0.5,-0.5 0,-0.2761 0.2239,-0.5 0.5,-0.5l0 -4c-0.2761,0 -0.5,-0.2239 -0.5,-0.5 0,-0.2761 0.2239,-0.5 0.5,-0.5 0.2761,0 0.5,0.2239 0.5,0.5l9 0c0,-0.2761 0.2239,-0.5 0.5,-0.5 0.2761,0 0.5,0.2239 0.5,0.5 0,0.2761 -0.2239,0.5 -0.5,0.5l0 4c0.2761,0 0.5,0.2239 0.5,0.5 0,0.2761 -0.2239,0.5 -0.5,0.5 -0.2761,0 -0.5,-0.2239 -0.5,-0.5l-9 0c0,0.2761 -0.2239,0.5 -0.5,0.5z"/>
   <path id="_65658168" fill="none" stroke="#1F1A17" stroke-width="0.0762" d="M58 5c0.8283,0 1.5,0.6717 1.5,1.5 0,0.8283 -0.6717,1.5 -1.5,1.5 -0.8283,0 -1.5,-0.6717 -1.5,-1.5 0,-0.8283 0.6717,-1.5 1.5,-1.5z"/>
   <path id="_65658960" fill="none" stroke="#1F1A17" stroke-width="0.0762" d="M43 9.5c-0.2761,0 -0.5,-0.2239 -0.5,-0.5 0,-0.2761 0.2239,-0.5 0.5,-0.5l0 -4c-0.2761,0 -0.5,-0.2239 -0.5,-0.5 0,-0.2761 0.2239,-0.5 0.5,-0.5 0.2761,0 0.5,0.2239 0.5,0.5l9 0c0,-0.2761 0.2239,-0.5 0.5,-0.5 0.2761,0 0.5,0.2239 0.5,0.5 0,0.2761 -0.2239,0.5 -0.5,0.5l0 4c0.2761,0 0.5,0.2239 0.5,0.5 0,0.2761 -0.2239,0.5 -0.5,0.5 -0.2761,0 -0.5,-0.2239 -0.5,-0.5l-9 0c0,0.2761 -0.2239,0.5 -0.5,0.5z"/>
   <path id="_65658936" fill="none" stroke="#1F1A17" stroke-width="0.0762" d="M63 9.5c-0.2761,0 -0.5,-0.2239 -0.5,-0.5 0,-0.2761 0.2239,-0.5 0.5,-0.5l0 -4c-0.2761,0 -0.5,-0.2239 -0.5,-0.5 0,-0.2761 0.2239,-0.5 0.5,-0.5 0.2761,0 0.5,0.2239 0.5,0.5l9 0c0,-0.2761 0.2239,-0.5 0.5,-0.5 0.2761,0 0.5,0.2239 0.5,0.5 0,0.2761 -0.2239,0.5 -0.5,0.5l0 4c0.2761,0 0.5,0.2239 0.5,0.5 0,0.2761 -0.2239,0.5 -0.5,0.5 -0.2761,0 -0.5,-0.2239 -0.5,-0.5l-9 0c0,0.2761 -0.2239,0.5 -0.5,0.5z"/>
  </g>
  <g id="_29883688">
   <path id="_64882168" fill="none" stroke="#1F1A17" stroke-width="0.0762" d="M47.4718 220.43c0.5857,-0.5856 1.5357,-0.5857 2.1215,0.0001 0.5857,0.5857 0.5856,1.5356 0,2.1212 -0.5858,0.5857 -1.5357,0.5858 -2.1214,0.0001 -0.5858,-0.5858 -0.5858,-1.5357 -0.0001,-2.1214z"/>
   <path id="_65748968" fill="none" stroke="#1F1A17" stroke-width="0.0762" d="M78.1452 252.603c0,-0.8282 0.6717,-1.4999 1.5002,-1.4999 0.8282,0 1.4998,0.6717 1.4998,1.4999 0,0.8283 -0.6716,1.5001 -1.4998,1.5001 -0.8285,0 -1.5002,-0.6718 -1.5002,-1.5001z"/>
   <path id="_65940744" fill="none" stroke="#1F1A17" stroke-width="0.0762" d="M79.645 222.991c-0.8282,0 -1.4999,-0.6717 -1.4999,-1.5002 0,-0.8282 0.6717,-1.4998 1.4999,-1.4998 0.8283,0 1.5001,0.6716 1.5001,1.4998 0,0.8285 -0.6718,1.5002 -1.5001,1.5002z"/>
   <path id="_65489920" fill="none" stroke="#1F1A17" stroke-width="0.0762" d="M47.4718 251.543c0.5857,-0.5856 1.5356,-0.5857 2.1215,0.0001 0.5856,0.5857 0.5856,1.5357 -0.0001,2.1213 -0.5857,0.5858 -1.5357,0.5858 -2.1213,0.0001 -0.5859,-0.5858 -0.5858,-1.5357 -0.0001,-2.1215z"/>
   <path id="_65489896" fill="none" stroke="#1F1A17" stroke-width="0.0762" d="M64.0888 226.047c6.0741,0 11,4.926 11,11.0001 0,6.074 -4.9259,10.9999 -11,10.9999 -6.0741,0 -11,-4.9259 -11,-10.9999 0,-6.0741 4.9259,-11.0001 11,-11.0001z"/>
   <path id="_65872592" fill="none" stroke="#1F1A17" stroke-width="0.0762" d="M64.089 206.047c0.8283,0 1.5,0.6717 1.5,1.5 0,0.8283 -0.6717,1.5 -1.5,1.5 -0.8283,0 -1.5,-0.6717 -1.5,-1.5 0,-0.8283 0.6717,-1.5 1.5,-1.5z"/>
   <path id="_54976888" fill="none" stroke="#1F1A17" stroke-width="0.0762" d="M49.089 210.547c-0.2761,0 -0.5,-0.2239 -0.5,-0.5 0,-0.2761 0.2239,-0.5 0.5,-0.5l0 -4c-0.2761,0 -0.5,-0.2239 -0.5,-0.5 0,-0.2761 0.2239,-0.5 0.5,-0.5 0.2761,0 0.5,0.2239 0.5,0.5l9 0c0,-0.2761 0.2239,-0.5 0.5,-0.5 0.2761,0 0.5,0.2239 0.5,0.5 0,0.2761 -0.2239,0.5 -0.5,0.5l0 4c0.2761,0 0.5,0.2239 0.5,0.5 0,0.2761 -0.2239,0.5 -0.5,0.5 -0.2761,0 -0.5,-0.2239 -0.5,-0.5l-9 0c0,0.2761 -0.2239,0.5 -0.5,0.5z"/>
   <path id="_65495320" fill="none" stroke="#1F1A17" stroke-width="0.0762" d="M69.089 210.547c-0.2761,0 -0.5,-0.2239 -0.5,-0.5 0,-0.2761 0.2239,-0.5 0.5,-0.5l0 -4c-0.2761,0 -0.5,-0.2239 -0.5,-0.5 0,-0.2761 0.2239,-0.5 0.5,-0.5 0.2761,0 0.5,0.2239 0.5,0.5l9 0c0,-0.2761 0.2239,-0.5 0.5,-0.5 0.2761,0 0.5,0.2239 0.5,0.5 0,0.2761 -0.2239,0.5 -0.5,0.5l0 4c0.2761,0 0.5,0.2239 0.5,0.5 0,0.2761 -0.2239,0.5 -0.5,0.5 -0.2761,0 -0.5,-0.2239 -0.5,-0.5l-9 0c0,0.2761 -0.2239,0.5 -0.5,0.5z"/>
   <path id="_55417896" fill="none" stroke="#1F1A17" stroke-width="0.0762" d="M64.089 265.047c0.8283,0 1.5,0.6717 1.5,1.5 0,0.8283 -0.6717,1.5 -1.5,1.5 -0.8283,0 -1.5,-0.6717 -1.5,-1.5 0,-0.8283 0.6717,-1.5 1.5,-1.5z"/>
   <path id="_64881824" fill="none" stroke="#1F1A17" stroke-width="0.0762" d="M49.089 269.547c-0.2761,0 -0.5,-0.2239 -0.5,-0.5 0,-0.2761 0.2239,-0.5 0.5,-0.5l0 -4c-0.2761,0 -0.5,-0.2239 -0.5,-0.5 0,-0.2761 0.2239,-0.5 0.5,-0.5 0.2761,0 0.5,0.2239 0.5,0.5l9 0c0,-0.2761 0.2239,-0.5 0.5,-0.5 0.2761,0 0.5,0.2239 0.5,0.5 0,0.2761 -0.2239,0.5 -0.5,0.5l0 4c0.2761,0 0.5,0.2239 0.5,0.5 0,0.2761 -0.2239,0.5 -0.5,0.5 -0.2761,0 -0.5,-0.2239 -0.5,-0.5l-9 0c0,0.2761 -0.2239,0.5 -0.5,0.5z"/>
   <path id="_65572160" fill="none" stroke="#1F1A17" stroke-width="0.0762" d="M69.089 269.547c-0.2761,0 -0.5,-0.2239 -0.5,-0.5 0,-0.2761 0.2239,-0.5 0.5,-0.5l0 -4c-0.2761,0 -0.5,-0.2239 -0.5,-0.5 0,-0.2761 0.2239,-0.5 0.5,-0.5 0.2761,0 0.5,0.2239 0.5,0.5l9 0c0,-0.2761 0.2239,-0.5 0.5,-0.5 0.2761,0 0.5,0.2239 0.5,0.5 0,0.2761 -0.2239,0.5 -0.5,0.5l0 4c0.2761,0 0.5,0.2239 0.5,0.5 0,0.2761 -0.2239,0.5 -0.5,0.5 -0.2761,0 -0.5,-0.2239 -0.5,-0.5l-9 0c0,0.2761 -0.2239,0.5 -0.5,0.5z"/>
   <polygon id="_55451416" fill="none" stroke="#1F1A17" stroke-width="0.0762" points="46.089,272.047 29.089,272.047 29.089,202.047 46.089,202.047 82.089,202.047 99.089,202.047 99.089,213.047 99.089,219.047 99.089,255.047 99.089,261.047 99.089,272.047 82.089,272.047 "/>
  </g>
  <path fill="none" stroke="#1F1A17" stroke-width="0.0762" d="M85 109.526l0 -1.5258 0 -2.6275 0 -30.3725 -5.5694 0 -1.7153 0 -1.7153 0 -1 0 -1.5 0 -1 0 -9 0 -1 0 -3 0 -3 0 -3 0 -1 0 -9 0 -1 0 -2.5 0 -2.3779 0 -2 0 -4.6221 0 0 30.3725 0 2.6275 0 1.5266 0 1 0 1.5 0 1 0 9 0 1 0 3 0 2.9734 0 0.0266 0 2.4736 0 0.5 0 0.0264 0 0.9736c-0.2761,0 -0.5,-0.2239 -0.5,-0.5l-4.5 0 0 0.0264 0 9.9736 0 0.0264 4.5 0c0,-0.2761 0.2239,-0.5 0.5,-0.5 0.2716,0 0.4927,0.2166 0.4998,0.4865l0 0.0006c-0.0071,0.2698 -0.2282,0.4865 -0.4998,0.4865l0 0.0264 0 1.4732 0 1.5004 3.9447 0 0 -1.25 2.5 0 0 1.25 4.5553 0 0 3 -4.5553 0 0 1.25 -2.5 0 0 -1.25 -3.9447 0 0 3c0.2761,0 0.5,0.2239 0.5,0.5 0,0.2761 -0.2239,0.5 -0.5,0.5 -0.2761,0 -0.5,-0.2239 -0.5,-0.5l-4.5 0 0 10 4.5 0c0,-0.2761 0.2239,-0.5 0.5,-0.5 0.2761,0 0.5,0.2239 0.5,0.5 0,0.2761 -0.2239,0.5 -0.5,0.5l0 2.5 0 34.4998 54 0 0 -32 0 -2.4998 0 -0.0008 0 -1 0 -0.4994 0 -1.0006c-0.2761,0 -0.5,-0.2239 -0.5,-0.5 0,-0.2761 0.2239,-0.5 0.5,-0.5 0.2761,0 0.5,0.2239 0.5,0.5l4.5 0 0 -10 -4.5 0c0,0.2761 -0.2239,0.5 -0.5,0.5 -0.2761,0 -0.5,-0.2239 -0.5,-0.5 0,-0.2761 0.2239,-0.5 0.5,-0.5l0 -3 -3.9447 0 0 1.25 -2.5 0 0 -1.25 -4.5553 0 0 -3 4.5553 0 0 -1.25 2.5 0 0 1.25 3.9447 0 0 -2.4736 0 -0.5 0 -0.0264c-0.2716,0 -0.4927,-0.2166 -0.4998,-0.4865l0 -0.0006c0.0071,-0.2698 0.2282,-0.4865 0.4998,-0.4865 0.2761,0 0.5,0.2239 0.5,0.5l4.5 0 0 -0.0264 0 -9.9736 0 -0.0264 -4.5 0c0,0.2761 -0.2239,0.5 -0.5,0.5l0 -0.9736 0 -0.0264 0 -1.4732 0 -1.5004 0 -0.8248 0 -2.1752 0 -3 0 -1 0 -9 0 -1 0 -2.5z"/>
  <g id="_29862888">
   <path id="_65079192" fill="none" stroke="#1F1A17" stroke-width="0.0762" d="M217 8c-0.8283,0 -1.5,-0.6717 -1.5,-1.5 0,-0.8283 0.6717,-1.5 1.5,-1.5 0.8283,0 1.5,0.6717 1.5,1.5 0,0.8283 -0.6717,1.5 -1.5,1.5z"/>
   <path id="_29822104" fill="none" stroke="#1F1A17" stroke-width="0.0762" d="M232 3.5c0.2761,0 0.5,0.2239 0.5,0.5 0,0.2761 -0.2239,0.5 -0.5,0.5l0 4c0.2761,0 0.5,0.2239 0.5,0.5 0,0.2761 -0.2239,0.5 -0.5,0.5 -0.2761,0 -0.5,-0.2239 -0.5,-0.5l-9 0c0,0.2761 -0.2239,0.5 -0.5,0.5 -0.2761,0 -0.5,-0.2239 -0.5,-0.5 0,-0.2761 0.2239,-0.5 0.5,-0.5l0 -4c-0.2761,0 -0.5,-0.2239 -0.5,-0.5 0,-0.2761 0.2239,-0.5 0.5,-0.5 0.2761,0 0.5,0.2239 0.5,0.5l9 0c0,-0.2761 0.2239,-0.5 0.5,-0.5z"/>
   <path id="_29827184" fill="none" stroke="#1F1A17" stroke-width="0.0762" d="M212 3.5c0.2761,0 0.5,0.2239 0.5,0.5 0,0.2761 -0.2239,0.5 -0.5,0.5l0 4c0.2761,0 0.5,0.2239 0.5,0.5 0,0.2761 -0.2239,0.5 -0.5,0.5 -0.2761,0 -0.5,-0.2239 -0.5,-0.5l-9 0c0,0.2761 -0.2239,0.5 -0.5,0.5 -0.2761,0 -0.5,-0.2239 -0.5,-0.5 0,-0.2761 0.2239,-0.5 0.5,-0.5l0 -4c-0.2761,0 -0.5,-0.2239 -0.5,-0.5 0,-0.2761 0.2239,-0.5 0.5,-0.5 0.2761,0 0.5,0.2239 0.5,0.5l9 0c0,-0.2761 0.2239,-0.5 0.5,-0.5z"/>
   <polygon id="_64834720" fill="none" stroke="#1F1A17" stroke-width="0.0762" points="135.377,225.476 135.377,205.476 120.557,205.476 120.557,225.476 "/>
   <path id="_55016752" fill="none" stroke="#1F1A17" stroke-width="0.0762" d="M128.627 166.519c0,-0.5522 0.4478,-1 1,-1 0.5522,0 1,0.4478 1,1 0,0.5522 -0.4478,1 -1,1 -0.5522,0 -1,-0.4478 -1,-1z"/>
   <path id="_66002920" fill="none" stroke="#1F1A17" stroke-width="0.0762" d="M117.877 217.676c0,0.5522 0.4478,1 1,1 0.5522,0 1,-0.4478 1,-1 0,-0.5522 -0.4478,-1 -1,-1 -0.5522,0 -1,0.4478 -1,1z"/>
   <path id="_65133472" fill="none" stroke="#1F1A17" stroke-width="0.0762" d="M217 281c-0.8283,0 -1.5,-0.6717 -1.5,-1.5 0,-0.8283 0.6717,-1.5 1.5,-1.5 0.8283,0 1.5,0.6717 1.5,1.5 0,0.8283 -0.6717,1.5 -1.5,1.5z"/>
   <path id="_65076424" fill="none" stroke="#1F1A17" stroke-width="0.0762" d="M232 276.5c0.2761,0 0.5,0.2239 0.5,0.5 0,0.2761 -0.2239,0.5 -0.5,0.5l0 4c0.2761,0 0.5,0.2239 0.5,0.5 0,0.2761 -0.2239,0.5 -0.5,0.5 -0.2761,0 -0.5,-0.2239 -0.5,-0.5l-9 0c0,0.2761 -0.2239,0.5 -0.5,0.5 -0.2761,0 -0.5,-0.2239 -0.5,-0.5 0,-0.2761 0.2239,-0.5 0.5,-0.5l0 -4c-0.2761,0 -0.5,-0.2239 -0.5,-0.5 0,-0.2761 0.2239,-0.5 0.5,-0.5 0.2761,0 0.5,0.2239 0.5,0.5l9 0c0,-0.2761 0.2239,-0.5 0.5,-0.5z"/>
   <path id="_29805416" fill="none" stroke="#1F1A17" stroke-width="0.0762" d="M212 276.5c0.2761,0 0.5,0.2239 0.5,0.5 0,0.2761 -0.2239,0.5 -0.5,0.5l0 4c0.2761,0 0.5,0.2239 0.5,0.5 0,0.2761 -0.2239,0.5 -0.5,0.5 -0.2761,0 -0.5,-0.2239 -0.5,-0.5l-9 0c0,0.2761 -0.2239,0.5 -0.5,0.5 -0.2761,0 -0.5,-0.2239 -0.5,-0.5 0,-0.2761 0.2239,-0.5 0.5,-0.5l0 -4c-0.2761,0 -0.5,-0.2239 -0.5,-0.5 0,-0.2761 0.2239,-0.5 0.5,-0.5 0.2761,0 0.5,0.2239 0.5,0.5l9 0c0,-0.2761 0.2239,-0.5 0.5,-0.5z"/>
   <path id="_55070520" fill="none" stroke="#1F1A17" stroke-width="0.0762" d="M144 285l11.401 0 5.599 0 2.5 0 3 0 2.5 0 7 0 2.5 0 20 0 16 0 20 0 34.5 0 0 -11 0 -6 0 -1 0 -1.5c-0.2761,0 -0.5,-0.2239 -0.5,-0.5 0,-0.2761 0.2239,-0.5 0.5,-0.5 0.2761,0 0.5,0.2239 0.5,0.5l4.5 0 0 -10 -4.5 0c0,0.2761 -0.2239,0.5 -0.5,0.5 -0.2761,0 -0.5,-0.2239 -0.5,-0.5 0,-0.2761 0.2239,-0.5 0.5,-0.5l0 -1.5 0 -1.5 0 -3 0 -1.5 0 -1.5c-0.2761,0 -0.5,-0.2239 -0.5,-0.5 0,-0.2761 0.2239,-0.5 0.5,-0.5 0.2761,0 0.5,0.2239 0.5,0.5l4.5 0 0 -10 -4.5 0c0,0.2761 -0.2239,0.5 -0.5,0.5 -0.2761,0 -0.5,-0.2239 -0.5,-0.5 0,-0.2761 0.2239,-0.5 0.5,-0.5l0 -2.5 0 -71 0 -1 0 -1.5c-0.2761,0 -0.5,-0.2239 -0.5,-0.5 0,-0.2761 0.2239,-0.5 0.5,-0.5 0.2761,0 0.5,0.2239 0.5,0.5l4.5 0 0 -10 -4.5 0c0,0.2761 -0.2239,0.5 -0.5,0.5 -0.2761,0 -0.5,-0.2239 -0.5,-0.5 0,-0.2761 0.2239,-0.5 0.5,-0.5l0 -1.5 0 -1.5 0 -3 0 -1.5 0 -1.5c-0.2761,0 -0.5,-0.2239 -0.5,-0.5 0,-0.2761 0.2239,-0.5 0.5,-0.5 0.2761,0 0.5,0.2239 0.5,0.5l4.5 0 0 -10 -4.5 0c0,0.2761 -0.2239,0.5 -0.5,0.5 -0.2761,0 -0.5,-0.2239 -0.5,-0.5 0,-0.2761 0.2239,-0.5 0.5,-0.5l0 -2.5 0 -71 0 -1 0 -1.5c-0.2761,0 -0.5,-0.2239 -0.5,-0.5 0,-0.2761 0.2239,-0.5 0.5,-0.5 0.2761,0 0.5,0.2239 0.5,0.5l4.5 0 0 -10 -4.5 0c0,0.2761 -0.2239,0.5 -0.5,0.5 -0.2761,0 -0.5,-0.2239 -0.5,-0.5 0,-0.2761 0.2239,-0.5 0.5,-0.5l0 -1.5 0 -1.5 0 -3 0 -1.5 0 -1.5c-0.2761,0 -0.5,-0.2239 -0.5,-0.5 0,-0.2761 0.2239,-0.5 0.5,-0.5 0.2761,0 0.5,0.2239 0.5,0.5l4.5 0 0 -10 -4.5 0c0,0.2761 -0.2239,0.5 -0.5,0.5 -0.2761,0 -0.5,-0.2239 -0.5,-0.5 0,-0.2761 0.2239,-0.5 0.5,-0.5l0 -2.5 0 -6 0 -11 -34.5 0 -20 0 -16 0 -20 0 -5.5 0 -4 0 -2.5 0 -3 0 -2.5 0 -3 0 -14 0 0 11 0 6 0 1 0 1.5c0.2761,0 0.5,0.2239 0.5,0.5 0,0.2761 -0.2239,0.5 -0.5,0.5 -0.2761,0 -0.5,-0.2239 -0.5,-0.5l-4.5 0 0 10 4.5 0c0,-0.2761 0.2239,-0.5 0.5,-0.5 0.2761,0 0.5,0.2239 0.5,0.5 0,0.2761 -0.2239,0.5 -0.5,0.5l0 3 3.9447 0 0 -1.25 2.5 0 0 1.25 4.5553 0 0 3 -4.5553 0 0 1.25 -2.5 0 0 -1.25 -3.9447 0 0 3c0.2761,0 0.5,0.2239 0.5,0.5 0,0.2761 -0.2239,0.5 -0.5,0.5 -0.2761,0 -0.5,-0.2239 -0.5,-0.5l-4.5 0 0 10 4.5 0c0,-0.2761 0.2239,-0.5 0.5,-0.5 0.2761,0 0.5,0.2239 0.5,0.5 0,0.2761 -0.2239,0.5 -0.5,0.5l0 2.5 0 17 99 0c3.3131,0 6,2.6869 6,6l0 79c0,3.3131 -2.6869,6 -6,6l-99 0 -24 0c-3.3131,0 -6,2.6869 -6,6l0 59c0,3.3131 2.6869,6 6,6l17 0 5 0 2 0 0 12 0 40z"/>
  </g>
  <g id="_65591832">
   <path id="_65529520" fill="none" stroke="#1F1A17" stroke-width="0.0762" d="M321 149l21 0 0 24 -21 0c-6.6262,0 -12,-5.3737 -12,-12 0,-6.6263 5.3738,-12 12,-12z"/>
   <circle id="_65494128" fill="none" stroke="#1F1A17" stroke-width="0.0762" transform="matrix(1.32423E-014 -0.5 0.5 1.32423E-014 321 161)" r="12"/>
   <circle id="_65652256" fill="none" stroke="#1F1A17" stroke-width="0.0762" transform="matrix(2.64845E-014 -1 1 2.64845E-014 333.498 160.918)" r="1.5"/>
  </g>
  <g id="_55539056">
   <path id="_29829448" fill="none" stroke="#1F1A17" stroke-width="0.0762" d="M287 163l21 0 0 24 -21 0c-6.6262,0 -12,-5.3737 -12,-12 0,-6.6263 5.3738,-12 12,-12z"/>
   <circle id="_54251216" fill="none" stroke="#1F1A17" stroke-width="0.0762" transform="matrix(1.32423E-014 -0.5 0.5 1.32423E-014 287 175)" r="12"/>
   <circle id="_55084136" fill="none" stroke="#1F1A17" stroke-width="0.0762" transform="matrix(2.64845E-014 -1 1 2.64845E-014 299.498 174.918)" r="1.5"/>
  </g>
  <g id="_55542032">
   <path id="_65638688" fill="none" stroke="#1F1A17" stroke-width="0.0762" d="M287 138l21 0 0 24 -21 0c-6.6262,0 -12,-5.3737 -12,-12 0,-6.6263 5.3738,-12 12,-12z"/>
   <circle id="_65556776" fill="none" stroke="#1F1A17" stroke-width="0.0762" transform="matrix(1.32423E-014 -0.5 0.5 1.32423E-014 287 150)" r="12"/>
   <circle id="_65557232" fill="none" stroke="#1F1A17" stroke-width="0.0762" transform="matrix(2.64845E-014 -1 1 2.64845E-014 299.498 149.918)" r="1.5"/>
  </g>
  <g id="_65068320">
   <path id="_29855672" fill="none" stroke="#1F1A17" stroke-width="0.0762" d="M287 113l21 0 0 24 -21 0c-6.6262,0 -12,-5.3737 -12,-12 0,-6.6263 5.3738,-12 12,-12z"/>
   <circle id="_65514992" fill="none" stroke="#1F1A17" stroke-width="0.0762" transform="matrix(1.32423E-014 -0.5 0.5 1.32423E-014 287 125)" r="12"/>
   <circle id="_54311096" fill="none" stroke="#1F1A17" stroke-width="0.0762" transform="matrix(2.64845E-014 -1 1 2.64845E-014 299.498 124.918)" r="1.5"/>
  </g>
  <g id="_54309968">
   <path id="_65605616" fill="none" stroke="#1F1A17" stroke-width="0.0762" d="M310 5c0.8283,0 1.5,0.6717 1.5,1.5 0,0.8283 -0.6717,1.5 -1.5,1.5 -0.8283,0 -1.5,-0.6717 -1.5,-1.5 0,-0.8283 0.6717,-1.5 1.5,-1.5z"/>
   <path id="_65119664" fill="none" stroke="#1F1A17" stroke-width="0.0762" d="M295 9.5c-0.2761,0 -0.5,-0.2239 -0.5,-0.5 0,-0.2761 0.2239,-0.5 0.5,-0.5l0 -4c-0.2761,0 -0.5,-0.2239 -0.5,-0.5 0,-0.2761 0.2239,-0.5 0.5,-0.5 0.2761,0 0.5,0.2239 0.5,0.5l9 0c0,-0.2761 0.2239,-0.5 0.5,-0.5 0.2761,0 0.5,0.2239 0.5,0.5 0,0.2761 -0.2239,0.5 -0.5,0.5l0 4c0.2761,0 0.5,0.2239 0.5,0.5 0,0.2761 -0.2239,0.5 -0.5,0.5 -0.2761,0 -0.5,-0.2239 -0.5,-0.5l-9 0c0,0.2761 -0.2239,0.5 -0.5,0.5z"/>
   <path id="_54323336" fill="none" stroke="#1F1A17" stroke-width="0.0762" d="M315 9.5c-0.2761,0 -0.5,-0.2239 -0.5,-0.5 0,-0.2761 0.2239,-0.5 0.5,-0.5l0 -4c-0.2761,0 -0.5,-0.2239 -0.5,-0.5 0,-0.2761 0.2239,-0.5 0.5,-0.5 0.2761,0 0.5,0.2239 0.5,0.5l9 0c0,-0.2761 0.2239,-0.5 0.5,-0.5 0.2761,0 0.5,0.2239 0.5,0.5 0,0.2761 -0.2239,0.5 -0.5,0.5l0 4c0.2761,0 0.5,0.2239 0.5,0.5 0,0.2761 -0.2239,0.5 -0.5,0.5 -0.2761,0 -0.5,-0.2239 -0.5,-0.5l-9 0c0,0.2761 -0.2239,0.5 -0.5,0.5z"/>
   <path id="_55059248" fill="none" stroke="#1F1A17" stroke-width="0.0762" d="M310 64c0.8283,0 1.5,0.6717 1.5,1.5 0,0.8283 -0.6717,1.5 -1.5,1.5 -0.8283,0 -1.5,-0.6717 -1.5,-1.5 0,-0.8283 0.6717,-1.5 1.5,-1.5z"/>
   <path id="_29853440" fill="none" stroke="#1F1A17" stroke-width="0.0762" d="M295 68.5c-0.2761,0 -0.5,-0.2239 -0.5,-0.5 0,-0.2761 0.2239,-0.5 0.5,-0.5l0 -4c-0.2761,0 -0.5,-0.2239 -0.5,-0.5 0,-0.2761 0.2239,-0.5 0.5,-0.5 0.2761,0 0.5,0.2239 0.5,0.5l9 0c0,-0.2761 0.2239,-0.5 0.5,-0.5 0.2761,0 0.5,0.2239 0.5,0.5 0,0.2761 -0.2239,0.5 -0.5,0.5l0 4c0.2761,0 0.5,0.2239 0.5,0.5 0,0.2761 -0.2239,0.5 -0.5,0.5 -0.2761,0 -0.5,-0.2239 -0.5,-0.5l-9 0c0,0.2761 -0.2239,0.5 -0.5,0.5z"/>
   <path id="_55109968" fill="none" stroke="#1F1A17" stroke-width="0.0762" d="M315 68.5c-0.2761,0 -0.5,-0.2239 -0.5,-0.5 0,-0.2761 0.2239,-0.5 0.5,-0.5l0 -4c-0.2761,0 -0.5,-0.2239 -0.5,-0.5 0,-0.2761 0.2239,-0.5 0.5,-0.5 0.2761,0 0.5,0.2239 0.5,0.5l9 0c0,-0.2761 0.2239,-0.5 0.5,-0.5 0.2761,0 0.5,0.2239 0.5,0.5 0,0.2761 -0.2239,0.5 -0.5,0.5l0 4c0.2761,0 0.5,0.2239 0.5,0.5 0,0.2761 -0.2239,0.5 -0.5,0.5 -0.2761,0 -0.5,-0.2239 -0.5,-0.5l-9 0c0,0.2761 -0.2239,0.5 -0.5,0.5z"/>
   <polygon id="_54025768" fill="none" stroke="#1F1A17" stroke-width="0.0762" points="292,71 275,71 275,1 292,1 328,1 345,1 345,12 345,18 345,54 345,60 345,71 328,71 "/>
   <path id="_29811464" fill="none" stroke="#1F1A17" stroke-width="0.0762" d="M310 18.5c9.6633,0 17.5,7.8368 17.5,17.5002 0,9.6631 -7.8367,17.4998 -17.5,17.4998 -9.6633,0 -17.5,-7.8367 -17.5,-17.4998 0,-9.6634 7.8367,-17.5002 17.5,-17.5002z"/>
   <circle id="_65072112" fill="none" stroke="#1F1A17" stroke-width="0.0762" cx="324.5" cy="36.25" r="1.5"/>
   <circle id="_65080584" fill="none" stroke="#1F1A17" stroke-width="0.0762" cx="295.5" cy="36.25" r="1.5"/>
  </g>
  <rect fill="none" stroke="#1F1A17" stroke-width="0.0762" transform="matrix(8.60151E-015 -0.338983 0.658333 1.81984E-014 314.65 140.75)" width="59" height="36"/>
  <rect fill="none" stroke="#1F1A17" stroke-width="0.0762" x="309" y="113" width="35" height="35"/>
  <circle fill="none" stroke="#1F1A17" stroke-width="0.0762" cx="341" cy="130.75" r="1.5"/>
  <circle fill="none" stroke="#1F1A17" stroke-width="0.0762" cx="312" cy="130.75" r="1.5"/>
  <g id="_55553520">
   <path id="_65469976" fill="none" stroke="#1F1A17" stroke-width="0.0762" d="M290 89.55c0.8446,0 1.5894,0.4276 2.03,1.0781l0 2.7438c-0.4406,0.6505 -1.1854,1.0781 -2.03,1.0781 -1.3529,0 -2.45,-1.0971 -2.45,-2.45 0,-1.3529 1.0971,-2.45 2.45,-2.45z"/>
   <circle id="_65941528" fill="none" stroke="#1F1A17" stroke-width="0.0762" cx="279.535" cy="81.4388" r="1.5"/>
   <circle id="_29812912" fill="none" stroke="#1F1A17" stroke-width="0.0762" cx="300.535" cy="81.4388" r="1.5"/>
   <circle id="_65800712" fill="none" stroke="#1F1A17" stroke-width="0.0762" cx="300.535" cy="102.439" r="1.5"/>
   <circle id="_29883976" fill="none" stroke="#1F1A17" stroke-width="0.0762" cx="279.535" cy="102.439" r="1.5"/>
   <circle id="_54979904" fill="none" stroke="#1F1A17" stroke-width="0.0762" cx="290" cy="92" r="20"/>
  </g>
  <g id="_55106096">
   <circle id="_65069040" fill="none" stroke="#1F1A17" stroke-width="0.0762" transform="matrix(2.64845E-014 -1 1 2.64845E-014 351.5 51)" r="1.5"/>
   <path id="_54984248" fill="none" stroke="#1F1A17" stroke-width="0.0762" d="M354.5 66c0,0.2761 -0.2239,0.5 -0.5,0.5 -0.2761,0 -0.5,-0.2239 -0.5,-0.5l-4 0c0,0.2761 -0.2239,0.5 -0.5,0.5 -0.2761,0 -0.5,-0.2239 -0.5,-0.5 0,-0.2761 0.2239,-0.5 0.5,-0.5l0 -9c-0.2761,0 -0.5,-0.2239 -0.5,-0.5 0,-0.2761 0.2239,-0.5 0.5,-0.5 0.2761,0 0.5,0.2239 0.5,0.5l4 0c0,-0.2761 0.2239,-0.5 0.5,-0.5 0.2761,0 0.5,0.2239 0.5,0.5 0,0.2761 -0.2239,0.5 -0.5,0.5l0 9c0.2761,0 0.5,0.2239 0.5,0.5z"/>
   <path id="_29822232" fill="none" stroke="#1F1A17" stroke-width="0.0762" d="M354.5 46c0,0.2761 -0.2239,0.5 -0.5,0.5 -0.2761,0 -0.5,-0.2239 -0.5,-0.5l-4 0c0,0.2761 -0.2239,0.5 -0.5,0.5 -0.2761,0 -0.5,-0.2239 -0.5,-0.5 0,-0.2761 0.2239,-0.5 0.5,-0.5l0 -9c-0.2761,0 -0.5,-0.2239 -0.5,-0.5 0,-0.2761 0.2239,-0.5 0.5,-0.5 0.2761,0 0.5,0.2239 0.5,0.5l4 0c0,-0.2761 0.2239,-0.5 0.5,-0.5 0.2761,0 0.5,0.2239 0.5,0.5 0,0.2761 -0.2239,0.5 -0.5,0.5l0 9c0.2761,0 0.5,0.2239 0.5,0.5z"/>
   <circle id="_55505704" fill="none" stroke="#1F1A17" stroke-width="0.0762" transform="matrix(2.64845E-014 -1 1 2.64845E-014 410.5 51)" r="1.5"/>
   <path id="_65089432" fill="none" stroke="#1F1A17" stroke-width="0.0762" d="M413.5 66c0,0.2761 -0.2239,0.5 -0.5,0.5 -0.2761,0 -0.5,-0.2239 -0.5,-0.5l-4 0c0,0.2761 -0.2239,0.5 -0.5,0.5 -0.2761,0 -0.5,-0.2239 -0.5,-0.5 0,-0.2761 0.2239,-0.5 0.5,-0.5l0 -9c-0.2761,0 -0.5,-0.2239 -0.5,-0.5 0,-0.2761 0.2239,-0.5 0.5,-0.5 0.2761,0 0.5,0.2239 0.5,0.5l4 0c0,-0.2761 0.2239,-0.5 0.5,-0.5 0.2761,0 0.5,0.2239 0.5,0.5 0,0.2761 -0.2239,0.5 -0.5,0.5l0 9c0.2761,0 0.5,0.2239 0.5,0.5z"/>
   <path id="_29813544" fill="none" stroke="#1F1A17" stroke-width="0.0762" d="M413.5 46c0,0.2761 -0.2239,0.5 -0.5,0.5 -0.2761,0 -0.5,-0.2239 -0.5,-0.5l-4 0c0,0.2761 -0.2239,0.5 -0.5,0.5 -0.2761,0 -0.5,-0.2239 -0.5,-0.5 0,-0.2761 0.2239,-0.5 0.5,-0.5l0 -9c-0.2761,0 -0.5,-0.2239 -0.5,-0.5 0,-0.2761 0.2239,-0.5 0.5,-0.5 0.2761,0 0.5,0.2239 0.5,0.5l4 0c0,-0.2761 0.2239,-0.5 0.5,-0.5 0.2761,0 0.5,0.2239 0.5,0.5 0,0.2761 -0.2239,0.5 -0.5,0.5l0 9c0.2761,0 0.5,0.2239 0.5,0.5z"/>
   <path id="_65530744" fill="none" stroke="#1F1A17" stroke-width="0.0762" d="M416 13l0 -7 -17 0 -1 0 -1.5 0c0,0.2761 -0.2239,0.5 -0.5,0.5 -0.2761,0 -0.5,-0.2239 -0.5,-0.5 0,-0.2761 0.2239,-0.5 0.5,-0.5l0 -4.5 -10 0 0 4.5c0.2761,0 0.5,0.2239 0.5,0.5 0,0.2761 -0.2239,0.5 -0.5,0.5 -0.2761,0 -0.5,-0.2239 -0.5,-0.5l-3 0 0 3.9447 1.25 0 0 2.5 -1.25 0 0 4.5553 -3 0 0 -4.5553 -1.25 0 0 -2.5 1.25 0 0 -3.9447 -3 0c0,0.2761 -0.2239,0.5 -0.5,0.5 -0.2761,0 -0.5,-0.2239 -0.5,-0.5 0,-0.2761 0.2239,-0.5 0.5,-0.5l0 -4.5 -10 0 0 4.5c0.2761,0 0.5,0.2239 0.5,0.5 0,0.2761 -0.2239,0.5 -0.5,0.5 -0.2761,0 -0.5,-0.2239 -0.5,-0.5l-2.5 0 -17 0 0 7 0 20 0 16 0 20 0 7 17 0 1 0 1.5 0c0,-0.2761 0.2239,-0.5 0.5,-0.5 0.2761,0 0.5,0.2239 0.5,0.5 0,0.2761 -0.2239,0.5 -0.5,0.5l0 4.5 10 0 0 -4.5c-0.2761,0 -0.5,-0.2239 -0.5,-0.5 0,-0.2761 0.2239,-0.5 0.5,-0.5 0.2761,0 0.5,0.2239 0.5,0.5l1.5 0 1.5 0 3 0 1.5 0 1.5 0c0,-0.2761 0.2239,-0.5 0.5,-0.5 0.2761,0 0.5,0.2239 0.5,0.5 0,0.2761 -0.2239,0.5 -0.5,0.5l0 4.5 10 0 0 -4.5c-0.2761,0 -0.5,-0.2239 -0.5,-0.5 0,-0.2761 0.2239,-0.5 0.5,-0.5 0.2761,0 0.5,0.2239 0.5,0.5l2.5 0 17 0 0 -7 0 -20 0 -16 0 -20z"/>
  </g>
  <path fill="none" stroke="#1F1A17" stroke-width="0.0762" d="M377.527 287l-3 0 -0.5266 0 -2.4734 0 -1 0 -9 0 -1 0 -1.5 0 -0.5 0 -0.5 0 -1.0266 0 -6 0 0 -9 0 -2.5c0.2761,0 0.5,-0.2239 0.5,-0.5 0,-0.2761 -0.2239,-0.5 -0.5,-0.5 -0.2761,0 -0.5,0.2239 -0.5,0.5l-4.5 0 0 -10 4.5 0c0,0.2761 0.2239,0.5 0.5,0.5 0.2761,0 0.5,-0.2239 0.5,-0.5 0,-0.2761 -0.2239,-0.5 -0.5,-0.5l0 -1.5 0 -1.5 0 -3 0 -2.5 0 -0.5c0.2761,0 0.5,-0.2239 0.5,-0.5 0,-0.2761 -0.2239,-0.5 -0.5,-0.5 -0.2761,0 -0.5,0.2239 -0.5,0.5l-4.5 0 0 -10 4.5 0c0,0.2761 0.2239,0.5 0.5,0.5 0.2761,0 0.5,-0.2239 0.5,-0.5 0,-0.2761 -0.2239,-0.5 -0.5,-0.5l0 -1.5 0 -1 0 -9 6 0 1.0258 0 2.5 0 1 0 9 0 1 0 3 0 0.4742 0 2.5258 0 1.5004 0 1.4732 0 0.0264 0c0,0.2716 0.2167,0.4927 0.4865,0.4998l0.0006 0c0.2699,-0.0071 0.4865,-0.2282 0.4865,-0.4998 0,-0.2761 -0.2239,-0.5 -0.5,-0.5l0 -4.5 0.0264 0 9.9736 0 0.0264 0 0 4.5c-0.2761,0 -0.5,0.2239 -0.5,0.5 0,0.2716 0.2167,0.4927 0.4865,0.4998l0.0006 0c0.2699,-0.0071 0.4865,-0.2282 0.4865,-0.4998l0.0264 0 0.5 0 2.4736 0 0 3.9447 -1.25 0 0 2.5 1.25 0 0 4.5553 3 0 0 -4.5553 1.25 0 0 -2.5 -1.25 0 0 -3.9447 3 0c0,0.2761 0.2239,0.5 0.5,0.5 0.2761,0 0.5,-0.2239 0.5,-0.5 0,-0.2761 -0.2239,-0.5 -0.5,-0.5l0 -4.5 10 0 0 4.5c-0.2761,0 -0.5,0.2239 -0.5,0.5 0,0.2761 0.2239,0.5 0.5,0.5 0.2761,0 0.5,-0.2239 0.5,-0.5l1.5 0 1 0 7.0006 0 0 9 0 2.5c-0.2761,0 -0.5,0.2239 -0.5,0.5 0,0.2761 0.2239,0.5 0.5,0.5 0.2761,0 0.5,-0.2239 0.5,-0.5l4.5 0 0 10 -4.5 0c0,-0.2761 -0.2239,-0.5 -0.5,-0.5 -0.2761,0 -0.5,0.2239 -0.5,0.5 0,0.2761 0.2239,0.5 0.5,0.5l0 1.5 0 1.5 0 3 0 1.5 0 1.5c-0.2761,0 -0.5,0.2239 -0.5,0.5 0,0.2761 0.2239,0.5 0.5,0.5 0.2761,0 0.5,-0.2239 0.5,-0.5l4.5 0 0 10 -4.5 0c0,-0.2761 -0.2239,-0.5 -0.5,-0.5 -0.2761,0 -0.5,0.2239 -0.5,0.5 0,0.2761 0.2239,0.5 0.5,0.5l0 1.5 0 1 0 9 -6.9998 0 -2.5 0c0,-0.2761 -0.2239,-0.5 -0.5,-0.5 -0.2761,0 -0.5,0.2239 -0.5,0.5 0,0.2761 0.2239,0.5 0.5,0.5l0 4.5 -10 0 0 -4.5c0.2761,0 0.5,-0.2239 0.5,-0.5 0,-0.2761 -0.2239,-0.5 -0.5,-0.5 -0.2761,0 -0.5,0.2239 -0.5,0.5l-3 0 0 -3.9447 1.25 0 0 -2.5 -1.25 0 0 -4.5553 -3 0 0 4.5553 -1.25 0 0 2.5 1.25 0 0 3.9447 -1.5004 0 -1.4732 0 -0.0264 0c0,-0.2716 -0.2167,-0.4927 -0.4865,-0.4998l-0.0006 0c-0.2699,0.0071 -0.4865,0.2282 -0.4865,0.4998 0,0.2761 0.2239,0.5 0.5,0.5l0 4.5 -0.0264 0 -9.9736 0 -0.0264 0 0 -4.5c0.2761,0 0.5,-0.2239 0.5,-0.5 0,-0.2716 -0.2167,-0.4927 -0.4865,-0.4998l-0.0006 0c-0.2699,0.0071 -0.4865,0.2282 -0.4865,0.4998l-0.0264 0 -0.5 0 -1.0002 0 -1.4734 0z"/>
  <g id="_54310624">
   <circle id="_65118360" fill="none" stroke="#1F1A17" stroke-width="0.0762" transform="matrix(2.64845E-014 -1 1 2.64845E-014 357.5 132)" r="1.5"/>
   <path id="_55018792" fill="none" stroke="#1F1A17" stroke-width="0.0762" d="M360.5 147c0,0.2761 -0.2239,0.5 -0.5,0.5 -0.2761,0 -0.5,-0.2239 -0.5,-0.5l-4 0c0,0.2761 -0.2239,0.5 -0.5,0.5 -0.2761,0 -0.5,-0.2239 -0.5,-0.5 0,-0.2761 0.2239,-0.5 0.5,-0.5l0 -9c-0.2761,0 -0.5,-0.2239 -0.5,-0.5 0,-0.2761 0.2239,-0.5 0.5,-0.5 0.2761,0 0.5,0.2239 0.5,0.5l4 0c0,-0.2761 0.2239,-0.5 0.5,-0.5 0.2761,0 0.5,0.2239 0.5,0.5 0,0.2761 -0.2239,0.5 -0.5,0.5l0 9c0.2761,0 0.5,0.2239 0.5,0.5z"/>
   <path id="_54323200" fill="none" stroke="#1F1A17" stroke-width="0.0762" d="M360.5 127c0,0.2761 -0.2239,0.5 -0.5,0.5 -0.2761,0 -0.5,-0.2239 -0.5,-0.5l-4 0c0,0.2761 -0.2239,0.5 -0.5,0.5 -0.2761,0 -0.5,-0.2239 -0.5,-0.5 0,-0.2761 0.2239,-0.5 0.5,-0.5l0 -9c-0.2761,0 -0.5,-0.2239 -0.5,-0.5 0,-0.2761 0.2239,-0.5 0.5,-0.5 0.2761,0 0.5,0.2239 0.5,0.5l4 0c0,-0.2761 0.2239,-0.5 0.5,-0.5 0.2761,0 0.5,0.2239 0.5,0.5 0,0.2761 -0.2239,0.5 -0.5,0.5l0 9c0.2761,0 0.5,0.2239 0.5,0.5z"/>
   <circle id="_53603368" fill="none" stroke="#1F1A17" stroke-width="0.0762" transform="matrix(2.64845E-014 -1 1 2.64845E-014 416.5 132)" r="1.5"/>
   <path id="_54315784" fill="none" stroke="#1F1A17" stroke-width="0.0762" d="M419.5 147c0,0.2761 -0.2239,0.5 -0.5,0.5 -0.2761,0 -0.5,-0.2239 -0.5,-0.5l-4 0c0,0.2761 -0.2239,0.5 -0.5,0.5 -0.2761,0 -0.5,-0.2239 -0.5,-0.5 0,-0.2761 0.2239,-0.5 0.5,-0.5l0 -9c-0.2761,0 -0.5,-0.2239 -0.5,-0.5 0,-0.2761 0.2239,-0.5 0.5,-0.5 0.2761,0 0.5,0.2239 0.5,0.5l4 0c0,-0.2761 0.2239,-0.5 0.5,-0.5 0.2761,0 0.5,0.2239 0.5,0.5 0,0.2761 -0.2239,0.5 -0.5,0.5l0 9c0.2761,0 0.5,0.2239 0.5,0.5z"/>
   <path id="_55119680" fill="none" stroke="#1F1A17" stroke-width="0.0762" d="M419.5 127c0,0.2761 -0.2239,0.5 -0.5,0.5 -0.2761,0 -0.5,-0.2239 -0.5,-0.5l-4 0c0,0.2761 -0.2239,0.5 -0.5,0.5 -0.2761,0 -0.5,-0.2239 -0.5,-0.5 0,-0.2761 0.2239,-0.5 0.5,-0.5l0 -9c-0.2761,0 -0.5,-0.2239 -0.5,-0.5 0,-0.2761 0.2239,-0.5 0.5,-0.5 0.2761,0 0.5,0.2239 0.5,0.5l4 0c0,-0.2761 0.2239,-0.5 0.5,-0.5 0.2761,0 0.5,0.2239 0.5,0.5 0,0.2761 -0.2239,0.5 -0.5,0.5l0 9c0.2761,0 0.5,0.2239 0.5,0.5z"/>
   <path id="_54310064" fill="none" stroke="#1F1A17" stroke-width="0.0762" d="M422 94l0 -7 -17 0 -1 0 -1.5 0c0,0.2761 -0.2239,0.5 -0.5,0.5 -0.2761,0 -0.5,-0.2239 -0.5,-0.5 0,-0.2761 0.2239,-0.5 0.5,-0.5l0 -4.5 -10 0 0 4.5c0.2761,0 0.5,0.2239 0.5,0.5 0,0.2761 -0.2239,0.5 -0.5,0.5 -0.2761,0 -0.5,-0.2239 -0.5,-0.5l-3 0 0 3.9447 1.25 0 0 2.5 -1.25 0 0 4.5553 -3 0 0 -4.5553 -1.25 0 0 -2.5 1.25 0 0 -3.9447 -3 0c0,0.2761 -0.2239,0.5 -0.5,0.5 -0.2761,0 -0.5,-0.2239 -0.5,-0.5 0,-0.2761 0.2239,-0.5 0.5,-0.5l0 -4.5 -10 0 0 4.5c0.2761,0 0.5,0.2239 0.5,0.5 0,0.2761 -0.2239,0.5 -0.5,0.5 -0.2761,0 -0.5,-0.2239 -0.5,-0.5l-2.5 0 -17 0 0 7 0 20 0 16 0 20 0 7 17 0 1 0 1.5 0c0,-0.2761 0.2239,-0.5 0.5,-0.5 0.2761,0 0.5,0.2239 0.5,0.5 0,0.2761 -0.2239,0.5 -0.5,0.5l0 4.5 10 0 0 -4.5c-0.2761,0 -0.5,-0.2239 -0.5,-0.5 0,-0.2761 0.2239,-0.5 0.5,-0.5 0.2761,0 0.5,0.2239 0.5,0.5l1.5 0 1.5 0 3 0 1.5 0 1.5 0c0,-0.2761 0.2239,-0.5 0.5,-0.5 0.2761,0 0.5,0.2239 0.5,0.5 0,0.2761 -0.2239,0.5 -0.5,0.5l0 4.5 10 0 0 -4.5c-0.2761,0 -0.5,-0.2239 -0.5,-0.5 0,-0.2761 0.2239,-0.5 0.5,-0.5 0.2761,0 0.5,0.2239 0.5,0.5l2.5 0 17 0 0 -7 0 -20 0 -16 0 -20z"/>
  </g>
  <path fill="none" stroke="#1F1A17" stroke-width="0.0762" d="M377.527 222l-3 0 -0.5266 0 -2.4734 0 -1 0 -9 0 -1 0 -1.5 0 -1 0 -0.0266 0 -7 0 0 -9 0 -2.5c0.2761,0 0.5,-0.2239 0.5,-0.5 0,-0.2761 -0.2239,-0.5 -0.5,-0.5 -0.2761,0 -0.5,0.2239 -0.5,0.5l-4.5 0 0 -10 4.5 0c0,0.2761 0.2239,0.5 0.5,0.5 0.2761,0 0.5,-0.2239 0.5,-0.5 0,-0.2761 -0.2239,-0.5 -0.5,-0.5l0 -0.5 0 -2.5 0 -3 0 -1.5 0 -1.5c0.2761,0 0.5,-0.2239 0.5,-0.5 0,-0.2761 -0.2239,-0.5 -0.5,-0.5 -0.2761,0 -0.5,0.2239 -0.5,0.5l-4.5 0 0 -10 4.5 0c0,0.2761 0.2239,0.5 0.5,0.5 0.2761,0 0.5,-0.2239 0.5,-0.5 0,-0.2761 -0.2239,-0.5 -0.5,-0.5l0 -1.5 0 -1 0 -9 4 0 1 0 2.0258 0 2.5 0 1 0 9 0 1 0 2.4742 0 0.5258 0 3 0 1.5004 0 0.9738 0 0.4994 0 0.0264 0c0,0.2716 0.2167,0.4927 0.4865,0.4998l0.0006 0c0.2699,-0.0071 0.4865,-0.2282 0.4865,-0.4998 0,-0.2761 -0.2239,-0.5 -0.5,-0.5l0 -4.5 0.0264 0 9.9736 0 0.0264 0 0 4.5c-0.2761,0 -0.5,0.2239 -0.5,0.5 0,0.2716 0.2167,0.4927 0.4865,0.4998l0.0006 0c0.2699,-0.0071 0.4865,-0.2282 0.4865,-0.4998l0.0264 0 0.5 0 2.4736 0 0 3.9447 -1.25 0 0 2.5 1.25 0 0 4.5553 3 0 0 -4.5553 1.25 0 0 -2.5 -1.25 0 0 -3.9447 3 0c0,0.2761 0.2239,0.5 0.5,0.5 0.2761,0 0.5,-0.2239 0.5,-0.5 0,-0.2761 -0.2239,-0.5 -0.5,-0.5l0 -4.5 10 0 0 4.5c-0.2761,0 -0.5,0.2239 -0.5,0.5 0,0.2761 0.2239,0.5 0.5,0.5 0.2761,0 0.5,-0.2239 0.5,-0.5l1.5 0 1 0 7.0006 0 0 9 0 2.5c-0.2761,0 -0.5,0.2239 -0.5,0.5 0,0.2761 0.2239,0.5 0.5,0.5 0.2761,0 0.5,-0.2239 0.5,-0.5l4.5 0 0 10 -4.5 0c0,-0.2761 -0.2239,-0.5 -0.5,-0.5 -0.2761,0 -0.5,0.2239 -0.5,0.5 0,0.2761 0.2239,0.5 0.5,0.5l0 1.5 0 1.5 0 3 0 1.5 0 1.5c-0.2761,0 -0.5,0.2239 -0.5,0.5 0,0.2761 0.2239,0.5 0.5,0.5 0.2761,0 0.5,-0.2239 0.5,-0.5l4.5 0 0 10 -4.5 0c0,-0.2761 -0.2239,-0.5 -0.5,-0.5 -0.2761,0 -0.5,0.2239 -0.5,0.5 0,0.2761 0.2239,0.5 0.5,0.5l0 1.5 0 1 0 9 -6.9998 0 -2.5 0c0,-0.2761 -0.2239,-0.5 -0.5,-0.5 -0.2761,0 -0.5,0.2239 -0.5,0.5 0,0.2761 0.2239,0.5 0.5,0.5l0 4.5 -10 0 0 -4.5c0.2761,0 0.5,-0.2239 0.5,-0.5 0,-0.2761 -0.2239,-0.5 -0.5,-0.5 -0.2761,0 -0.5,0.2239 -0.5,0.5l-3 0 0 -3.9447 1.25 0 0 -2.5 -1.25 0 0 -4.5553 -3 0 0 4.5553 -1.25 0 0 2.5 1.25 0 0 3.9447 -1.5004 0 -1.4732 0 -0.0264 0c0,-0.2716 -0.2167,-0.4927 -0.4865,-0.4998l-0.0006 0c-0.2699,0.0071 -0.4865,0.2282 -0.4865,0.4998 0,0.2761 0.2239,0.5 0.5,0.5l0 4.5 -0.0264 0 -9.9736 0 -0.0264 0 0 -4.5c0.2761,0 0.5,-0.2239 0.5,-0.5 0,-0.2716 -0.2167,-0.4927 -0.4865,-0.4998l-0.0006 0c-0.2699,0.0071 -0.4865,0.2282 -0.4865,0.4998l-0.0264 0 -0.5 0 -0.0002 0 -2.4734 0z"/>
  <g id="_54320848">
   <ellipse id="_29811544" fill="none" stroke="#1F1A17" stroke-width="0.0762" cx="310" cy="234" rx="11" ry="10.9999"/>
   <circle id="_65070552" fill="none" stroke="#1F1A17" stroke-width="0.0762" cx="310" cy="204.5" r="1.5"/>
   <path id="_29831624" fill="none" stroke="#1F1A17" stroke-width="0.0762" d="M295 207.5c-0.2761,0 -0.5,-0.2239 -0.5,-0.5 0,-0.2761 0.2239,-0.5 0.5,-0.5l0 -4c-0.2761,0 -0.5,-0.2239 -0.5,-0.5 0,-0.2761 0.2239,-0.5 0.5,-0.5 0.2761,0 0.5,0.2239 0.5,0.5l9 0c0,-0.2761 0.2239,-0.5 0.5,-0.5 0.2761,0 0.5,0.2239 0.5,0.5 0,0.2761 -0.2239,0.5 -0.5,0.5l0 4c0.2761,0 0.5,0.2239 0.5,0.5 0,0.2761 -0.2239,0.5 -0.5,0.5 -0.2761,0 -0.5,-0.2239 -0.5,-0.5l-9 0c0,0.2761 -0.2239,0.5 -0.5,0.5z"/>
   <path id="_55065296" fill="none" stroke="#1F1A17" stroke-width="0.0762" d="M315 207.5c-0.2761,0 -0.5,-0.2239 -0.5,-0.5 0,-0.2761 0.2239,-0.5 0.5,-0.5l0 -4c-0.2761,0 -0.5,-0.2239 -0.5,-0.5 0,-0.2761 0.2239,-0.5 0.5,-0.5 0.2761,0 0.5,0.2239 0.5,0.5l9 0c0,-0.2761 0.2239,-0.5 0.5,-0.5 0.2761,0 0.5,0.2239 0.5,0.5 0,0.2761 -0.2239,0.5 -0.5,0.5l0 4c0.2761,0 0.5,0.2239 0.5,0.5 0,0.2761 -0.2239,0.5 -0.5,0.5 -0.2761,0 -0.5,-0.2239 -0.5,-0.5l-9 0c0,0.2761 -0.2239,0.5 -0.5,0.5z"/>
   <path id="_55108744" fill="none" stroke="#1F1A17" stroke-width="0.0762" d="M336.5 219c0,-0.2761 0.2239,-0.5 0.5,-0.5 0.2761,0 0.5,0.2239 0.5,0.5l4 0c0,-0.2761 0.2239,-0.5 0.5,-0.5 0.2761,0 0.5,0.2239 0.5,0.5 0,0.2761 -0.2239,0.5 -0.5,0.5l0 9c0.2761,0 0.5,0.2239 0.5,0.5 0,0.2761 -0.2239,0.5 -0.5,0.5 -0.2761,0 -0.5,-0.2239 -0.5,-0.5l-4 0c0,0.2761 -0.2239,0.5 -0.5,0.5 -0.2761,0 -0.5,-0.2239 -0.5,-0.5 0,-0.2761 0.2239,-0.5 0.5,-0.5l0 -9c-0.2761,0 -0.5,-0.2239 -0.5,-0.5z"/>
   <path id="_29833384" fill="none" stroke="#1F1A17" stroke-width="0.0762" d="M336.5 239c0,-0.2761 0.2239,-0.5 0.5,-0.5 0.2761,0 0.5,0.2239 0.5,0.5l4 0c0,-0.2761 0.2239,-0.5 0.5,-0.5 0.2761,0 0.5,0.2239 0.5,0.5 0,0.2761 -0.2239,0.5 -0.5,0.5l0 9c0.2761,0 0.5,0.2239 0.5,0.5 0,0.2761 -0.2239,0.5 -0.5,0.5 -0.2761,0 -0.5,-0.2239 -0.5,-0.5l-4 0c0,0.2761 -0.2239,0.5 -0.5,0.5 -0.2761,0 -0.5,-0.2239 -0.5,-0.5 0,-0.2761 0.2239,-0.5 0.5,-0.5l0 -9c-0.2761,0 -0.5,-0.2239 -0.5,-0.5z"/>
   <circle id="_54439720" fill="none" stroke="#1F1A17" stroke-width="0.0762" cx="310" cy="263.5" r="1.5"/>
   <path id="_29832344" fill="none" stroke="#1F1A17" stroke-width="0.0762" d="M295 266.5c-0.2761,0 -0.5,-0.2239 -0.5,-0.5 0,-0.2761 0.2239,-0.5 0.5,-0.5l0 -4c-0.2761,0 -0.5,-0.2239 -0.5,-0.5 0,-0.2761 0.2239,-0.5 0.5,-0.5 0.2761,0 0.5,0.2239 0.5,0.5l9 0c0,-0.2761 0.2239,-0.5 0.5,-0.5 0.2761,0 0.5,0.2239 0.5,0.5 0,0.2761 -0.2239,0.5 -0.5,0.5l0 4c0.2761,0 0.5,0.2239 0.5,0.5 0,0.2761 -0.2239,0.5 -0.5,0.5 -0.2761,0 -0.5,-0.2239 -0.5,-0.5l-9 0c0,0.2761 -0.2239,0.5 -0.5,0.5z"/>
   <path id="_55098888" fill="none" stroke="#1F1A17" stroke-width="0.0762" d="M315 266.5c-0.2761,0 -0.5,-0.2239 -0.5,-0.5 0,-0.2761 0.2239,-0.5 0.5,-0.5l0 -4c-0.2761,0 -0.5,-0.2239 -0.5,-0.5 0,-0.2761 0.2239,-0.5 0.5,-0.5 0.2761,0 0.5,0.2239 0.5,0.5l9 0c0,-0.2761 0.2239,-0.5 0.5,-0.5 0.2761,0 0.5,0.2239 0.5,0.5 0,0.2761 -0.2239,0.5 -0.5,0.5l0 4c0.2761,0 0.5,0.2239 0.5,0.5 0,0.2761 -0.2239,0.5 -0.5,0.5 -0.2761,0 -0.5,-0.2239 -0.5,-0.5l-9 0c0,0.2761 -0.2239,0.5 -0.5,0.5z"/>
   <path id="_55054072" fill="none" stroke="#1F1A17" stroke-width="0.0762" d="M283.5 249c0,0.2761 -0.2239,0.5 -0.5,0.5 -0.2761,0 -0.5,-0.2239 -0.5,-0.5l-4 0c0,0.2761 -0.2239,0.5 -0.5,0.5 -0.2761,0 -0.5,-0.2239 -0.5,-0.5 0,-0.2761 0.2239,-0.5 0.5,-0.5l0 -9c-0.2761,0 -0.5,-0.2239 -0.5,-0.5 0,-0.2761 0.2239,-0.5 0.5,-0.5 0.2761,0 0.5,0.2239 0.5,0.5l4 0c0,-0.2761 0.2239,-0.5 0.5,-0.5 0.2761,0 0.5,0.2239 0.5,0.5 0,0.2761 -0.2239,0.5 -0.5,0.5l0 9c0.2761,0 0.5,0.2239 0.5,0.5z"/>
   <path id="_54275120" fill="none" stroke="#1F1A17" stroke-width="0.0762" d="M283.5 229c0,0.2761 -0.2239,0.5 -0.5,0.5 -0.2761,0 -0.5,-0.2239 -0.5,-0.5l-4 0c0,0.2761 -0.2239,0.5 -0.5,0.5 -0.2761,0 -0.5,-0.2239 -0.5,-0.5 0,-0.2761 0.2239,-0.5 0.5,-0.5l0 -9c-0.2761,0 -0.5,-0.2239 -0.5,-0.5 0,-0.2761 0.2239,-0.5 0.5,-0.5 0.2761,0 0.5,0.2239 0.5,0.5l4 0c0,-0.2761 0.2239,-0.5 0.5,-0.5 0.2761,0 0.5,0.2239 0.5,0.5 0,0.2761 -0.2239,0.5 -0.5,0.5l0 9c0.2761,0 0.5,0.2239 0.5,0.5z"/>
   <circle id="_54899632" fill="none" stroke="#1F1A17" stroke-width="0.0762" cx="294.443" cy="218.444" r="1.5"/>
   <circle id="_54999224" fill="none" stroke="#1F1A17" stroke-width="0.0762" cx="325.556" cy="218.444" r="1.5"/>
   <circle id="_65536504" fill="none" stroke="#1F1A17" stroke-width="0.0762" cx="294.443" cy="249.556" r="1.5"/>
   <circle id="_65126424" fill="none" stroke="#1F1A17" stroke-width="0.0762" cx="325.556" cy="249.556" r="1.5"/>
   <rect id="_29821768" fill="none" stroke="#1F1A17" stroke-width="0.0762" x="275" y="199" width="70" height="70"/>
  </g>
  <rect fill="none" stroke="#1F1A17" stroke-width="0.0762" x="369" y="185.338" width="16" height="20"/>
  <g id="_65938432">
   <path id="_65137928" fill="none" stroke="#1F1A17" stroke-width="0.0762" d="M331 89.55c0.8446,0 1.5894,0.4276 2.03,1.0781l0 2.7438c-0.4406,0.6505 -1.1854,1.0781 -2.03,1.0781 -1.3529,0 -2.45,-1.0971 -2.45,-2.45 0,-1.3529 1.0971,-2.45 2.45,-2.45z"/>
   <circle id="_55091160" fill="none" stroke="#1F1A17" stroke-width="0.0762" cx="320.535" cy="81.4388" r="1.5"/>
   <circle id="_55149784" fill="none" stroke="#1F1A17" stroke-width="0.0762" cx="341.535" cy="81.4388" r="1.5"/>
   <circle id="_54323160" fill="none" stroke="#1F1A17" stroke-width="0.0762" cx="341.535" cy="102.439" r="1.5"/>
   <circle id="_55118408" fill="none" stroke="#1F1A17" stroke-width="0.0762" cx="320.535" cy="102.439" r="1.5"/>
   <circle id="_55026864" fill="none" stroke="#1F1A17" stroke-width="0.0762" cx="331" cy="92" r="20"/>
  </g>
 </g>
</svg>
